<svg width="381" height="97" viewBox="0 0 381 97" fill="none" xmlns="http://www.w3.org/2000/svg">
<path d="M19.89 73V59.84H6.73V51.09H19.89V38H28.64V51.09H41.73V59.84H28.64V73H19.89Z" fill="#0155B5"/>
<mask id="path-2-outside-1_217_88" maskUnits="userSpaceOnUse" x="57.5" y="20.5" width="321" height="75" fill="black">
<rect fill="white" x="57.5" y="20.5" width="321" height="75"/>
<path d="M58.54 77.5V25.35H75.55C81.0567 25.35 85.84 26.47 89.9 28.71C94.0067 30.9033 97.18 33.96 99.42 37.88C101.66 41.7533 102.78 46.2567 102.78 51.39C102.78 56.4767 101.66 61.0033 99.42 64.97C97.18 68.89 94.0067 71.97 89.9 74.21C85.84 76.4033 81.0567 77.5 75.55 77.5H58.54ZM68.06 69.1H75.76C79.3067 69.1 82.3633 68.3767 84.93 66.93C87.5433 65.4367 89.5733 63.3833 91.02 60.77C92.4667 58.11 93.19 54.9833 93.19 51.39C93.19 47.75 92.4667 44.6233 91.02 42.01C89.5733 39.3967 87.5433 37.3667 84.93 35.92C82.3633 34.4733 79.3067 33.75 75.76 33.75H68.06V69.1ZM127.646 78.34C123.726 78.34 120.296 77.4533 117.356 75.68C114.416 73.9067 112.13 71.5033 110.496 68.47C108.863 65.4367 108.046 62.0767 108.046 58.39C108.046 54.5633 108.863 51.18 110.496 48.24C112.176 45.2533 114.44 42.8967 117.286 41.17C120.18 39.4433 123.4 38.58 126.946 38.58C129.933 38.58 132.546 39.07 134.786 40.05C137.073 41.03 139.01 42.3833 140.596 44.11C142.183 45.8367 143.396 47.82 144.236 50.06C145.076 52.2533 145.496 54.6333 145.496 57.2C145.496 57.8533 145.45 58.53 145.356 59.23C145.31 59.93 145.193 60.5367 145.006 61.05H115.606V54.05H139.826L135.486 57.34C135.906 55.1933 135.79 53.28 135.136 51.6C134.53 49.92 133.503 48.59 132.056 47.61C130.656 46.63 128.953 46.14 126.946 46.14C125.033 46.14 123.33 46.63 121.836 47.61C120.343 48.5433 119.2 49.9433 118.406 51.81C117.66 53.63 117.38 55.8467 117.566 58.46C117.38 60.7933 117.683 62.87 118.476 64.69C119.316 66.4633 120.53 67.84 122.116 68.82C123.75 69.8 125.616 70.29 127.716 70.29C129.816 70.29 131.59 69.8467 133.036 68.96C134.53 68.0733 135.696 66.8833 136.536 65.39L143.956 69.03C143.21 70.85 142.043 72.46 140.456 73.86C138.87 75.26 136.98 76.3567 134.786 77.15C132.64 77.9433 130.26 78.34 127.646 78.34ZM156.858 77.5V47.61H150.138V39.42H156.858V38.16C156.858 35.2667 157.441 32.8167 158.608 30.81C159.821 28.7567 161.501 27.1933 163.648 26.12C165.794 25.0467 168.338 24.51 171.278 24.51C171.838 24.51 172.444 24.5567 173.098 24.65C173.798 24.6967 174.381 24.7667 174.848 24.86V32.77C174.381 32.6767 173.938 32.63 173.518 32.63C173.144 32.5833 172.794 32.56 172.468 32.56C170.414 32.56 168.828 33.0267 167.708 33.96C166.588 34.8467 166.028 36.2467 166.028 38.16V39.42H182.688V47.61H166.028V77.5H156.858ZM179.258 77.5V39.42H188.498V77.5H179.258ZM196.129 77.5V39.42H204.739V46.91L204.039 45.58C204.926 43.2933 206.373 41.5667 208.379 40.4C210.433 39.1867 212.813 38.58 215.519 38.58C218.319 38.58 220.793 39.1867 222.939 40.4C225.133 41.6133 226.836 43.3167 228.049 45.51C229.263 47.6567 229.869 50.1533 229.869 53V77.5H220.699V55.17C220.699 53.49 220.373 52.0433 219.719 50.83C219.066 49.6167 218.156 48.6833 216.989 48.03C215.869 47.33 214.539 46.98 212.999 46.98C211.506 46.98 210.176 47.33 209.009 48.03C207.843 48.6833 206.933 49.6167 206.279 50.83C205.626 52.0433 205.299 53.49 205.299 55.17V77.5H196.129ZM237.624 77.5V39.42H246.794V77.5H237.624ZM237.624 35.15V25.35H246.794V35.15H237.624ZM273.6 78.34C269.82 78.34 266.414 77.4767 263.38 75.75C260.394 73.9767 258.037 71.5967 256.31 68.61C254.584 65.5767 253.72 62.17 253.72 58.39C253.72 54.61 254.584 51.2267 256.31 48.24C258.037 45.2533 260.394 42.8967 263.38 41.17C266.414 39.4433 269.82 38.58 273.6 38.58C276.307 38.58 278.827 39.07 281.16 40.05C283.494 40.9833 285.5 42.29 287.18 43.97C288.907 45.6033 290.144 47.5633 290.89 49.85L282.84 53.35C282.14 51.4367 280.95 49.8967 279.27 48.73C277.637 47.5633 275.747 46.98 273.6 46.98C271.594 46.98 269.797 47.47 268.21 48.45C266.67 49.43 265.457 50.7833 264.57 52.51C263.684 54.2367 263.24 56.22 263.24 58.46C263.24 60.7 263.684 62.6833 264.57 64.41C265.457 66.1367 266.67 67.49 268.21 68.47C269.797 69.45 271.594 69.94 273.6 69.94C275.794 69.94 277.707 69.3567 279.34 68.19C280.974 67.0233 282.14 65.46 282.84 63.5L290.89 67.14C290.144 69.2867 288.93 71.2233 287.25 72.95C285.57 74.63 283.564 75.96 281.23 76.94C278.897 77.8733 276.354 78.34 273.6 78.34ZM274.3 94.09C273.087 94.09 271.71 93.88 270.17 93.46C268.677 93.0867 267.417 92.5267 266.39 91.78L268.35 86.53C269.05 86.9967 269.82 87.3467 270.66 87.58C271.5 87.86 272.317 88 273.11 88C274.137 88 274.93 87.79 275.49 87.37C276.05 86.95 276.33 86.3667 276.33 85.62C276.33 84.7333 275.77 84.01 274.65 83.45C273.53 82.9367 271.897 82.5633 269.75 82.33L271.22 76.8H276.61L275.98 79.6C278.407 79.9267 280.32 80.6733 281.72 81.84C283.12 83.0533 283.82 84.5467 283.82 86.32C283.82 88.7 282.957 90.59 281.23 91.99C279.504 93.39 277.194 94.09 274.3 94.09ZM309.261 78.34C306.601 78.34 304.291 77.8967 302.331 77.01C300.371 76.1233 298.855 74.8633 297.781 73.23C296.708 71.55 296.171 69.6133 296.171 67.42C296.171 65.32 296.638 63.4533 297.571 61.82C298.505 60.14 299.951 58.74 301.911 57.62C303.871 56.5 306.345 55.7067 309.331 55.24L321.791 53.21V60.21L311.081 62.03C309.261 62.3567 307.908 62.94 307.021 63.78C306.135 64.62 305.691 65.7167 305.691 67.07C305.691 68.3767 306.181 69.4267 307.161 70.22C308.188 70.9667 309.448 71.34 310.941 71.34C312.855 71.34 314.535 70.9433 315.981 70.15C317.475 69.31 318.618 68.1667 319.411 66.72C320.251 65.2733 320.671 63.6867 320.671 61.96V52.16C320.671 50.5267 320.018 49.1733 318.711 48.1C317.451 46.98 315.771 46.42 313.671 46.42C311.711 46.42 309.961 46.9567 308.421 48.03C306.928 49.0567 305.831 50.4333 305.131 52.16L297.641 48.52C298.388 46.5133 299.555 44.7867 301.141 43.34C302.775 41.8467 304.688 40.68 306.881 39.84C309.075 39 311.455 38.58 314.021 38.58C317.148 38.58 319.901 39.1633 322.281 40.33C324.661 41.45 326.505 43.0367 327.811 45.09C329.165 47.0967 329.841 49.4533 329.841 52.16V77.5H321.161V70.99L323.121 70.85C322.141 72.4833 320.975 73.86 319.621 74.98C318.268 76.0533 316.728 76.8933 315.001 77.5C313.275 78.06 311.361 78.34 309.261 78.34ZM319.131 32.7C317.871 32.7 316.798 32.5133 315.911 32.14C315.071 31.72 314.348 31.2767 313.741 30.81C313.135 30.2967 312.528 29.8533 311.921 29.48C311.315 29.06 310.615 28.85 309.821 28.85C309.028 28.85 308.421 29.1533 308.001 29.76C307.581 30.32 307.371 31.2067 307.371 32.42H300.301C300.301 28.6867 301.141 25.9567 302.821 24.23C304.501 22.4567 306.531 21.57 308.911 21.57C310.218 21.57 311.315 21.7567 312.201 22.13C313.088 22.5033 313.858 22.9467 314.511 23.46C315.165 23.9733 315.771 24.4167 316.331 24.79C316.938 25.1633 317.591 25.35 318.291 25.35C319.225 25.35 319.878 25.0467 320.251 24.44C320.625 23.7867 320.811 22.9233 320.811 21.85H327.881C327.835 25.3967 326.971 28.1033 325.291 29.97C323.611 31.79 321.558 32.7 319.131 32.7ZM356.937 78.34C353.204 78.34 349.797 77.4767 346.717 75.75C343.684 74.0233 341.257 71.6667 339.437 68.68C337.664 65.6933 336.777 62.2867 336.777 58.46C336.777 54.6333 337.664 51.2267 339.437 48.24C341.257 45.2533 343.684 42.8967 346.717 41.17C349.75 39.4433 353.157 38.58 356.937 38.58C360.67 38.58 364.054 39.4433 367.087 41.17C370.12 42.8967 372.524 45.2533 374.297 48.24C376.117 51.18 377.027 54.5867 377.027 58.46C377.027 62.2867 376.117 65.6933 374.297 68.68C372.477 71.6667 370.05 74.0233 367.017 75.75C363.984 77.4767 360.624 78.34 356.937 78.34ZM356.937 69.94C358.99 69.94 360.787 69.45 362.327 68.47C363.914 67.49 365.15 66.1367 366.037 64.41C366.97 62.6367 367.437 60.6533 367.437 58.46C367.437 56.22 366.97 54.26 366.037 52.58C365.15 50.8533 363.914 49.5 362.327 48.52C360.787 47.4933 358.99 46.98 356.937 46.98C354.837 46.98 352.994 47.4933 351.407 48.52C349.82 49.5 348.56 50.8533 347.627 52.58C346.74 54.26 346.297 56.22 346.297 58.46C346.297 60.6533 346.74 62.6367 347.627 64.41C348.56 66.1367 349.82 67.49 351.407 68.47C352.994 69.45 354.837 69.94 356.937 69.94Z"/>
</mask>
<path d="M58.54 77.5H57.54V78.5H58.54V77.5ZM58.54 25.35V24.35H57.54V25.35H58.54ZM89.9 28.71L89.4169 29.5857L89.4289 29.5921L89.9 28.71ZM99.42 37.88L98.5517 38.3761L98.5543 38.3806L99.42 37.88ZM99.42 64.97L100.288 65.4661L100.291 65.4617L99.42 64.97ZM89.9 74.21L90.3753 75.0898L90.3789 75.0879L89.9 74.21ZM68.06 69.1H67.06V70.1H68.06V69.1ZM84.93 66.93L85.421 67.8012L85.4261 67.7982L84.93 66.93ZM91.02 60.77L91.8949 61.2543L91.8985 61.2478L91.02 60.77ZM91.02 42.01L90.1451 42.4943L91.02 42.01ZM84.93 35.92L84.439 36.7912L84.4457 36.7949L84.93 35.92ZM68.06 33.75V32.75H67.06V33.75H68.06ZM59.54 77.5V25.35H57.54V77.5H59.54ZM58.54 26.35H75.55V24.35H58.54V26.35ZM75.55 26.35C80.9194 26.35 85.5303 27.4412 89.4169 29.5856L90.3831 27.8344C86.1497 25.4987 81.1939 24.35 75.55 24.35V26.35ZM89.4289 29.5921C93.375 31.6996 96.4082 34.6249 98.5518 38.3761L100.288 37.3839C97.9518 33.2951 94.6384 30.107 90.3711 27.8279L89.4289 29.5921ZM98.5543 38.3806C100.694 42.0806 101.78 46.4062 101.78 51.39H103.78C103.78 46.1072 102.626 41.4261 100.286 37.3794L98.5543 38.3806ZM101.78 51.39C101.78 56.3249 100.695 60.6786 98.5492 64.4783L100.291 65.4617C102.625 61.3281 103.78 56.6285 103.78 51.39H101.78ZM98.5518 64.4739C96.4071 68.227 93.3713 71.1775 89.4212 73.3321L90.3789 75.0879C94.642 72.7625 97.9529 69.553 100.288 65.4661L98.5518 64.4739ZM89.4247 73.3302C85.5365 75.4307 80.9227 76.5 75.55 76.5V78.5C81.1906 78.5 86.1435 77.376 90.3753 75.0898L89.4247 73.3302ZM75.55 76.5H58.54V78.5H75.55V76.5ZM68.06 70.1H75.76V68.1H68.06V70.1ZM75.76 70.1C79.4437 70.1 82.6767 69.3479 85.421 67.8012L84.439 66.0588C82.05 67.4054 79.1696 68.1 75.76 68.1V70.1ZM85.4261 67.7982C88.1972 66.2148 90.3588 64.0292 91.8949 61.2543L90.1451 60.2857C88.7879 62.7375 86.8895 64.6586 84.4339 66.0618L85.4261 67.7982ZM91.8985 61.2478C93.4386 58.416 94.19 55.1191 94.19 51.39H92.19C92.19 54.8476 91.4948 57.804 90.1415 60.2922L91.8985 61.2478ZM94.19 51.39C94.19 47.6173 93.4398 44.3164 91.8949 41.5257L90.1451 42.4943C91.4936 44.9303 92.19 47.8827 92.19 51.39H94.19ZM91.8949 41.5257C90.3573 38.7481 88.1919 36.5827 85.4143 35.0451L84.4457 36.7949C86.8947 38.1506 88.7894 40.0453 90.1451 42.4943L91.8949 41.5257ZM85.421 35.0488C82.6767 33.5021 79.4437 32.75 75.76 32.75V34.75C79.1696 34.75 82.05 35.4446 84.439 36.7911L85.421 35.0488ZM75.76 32.75H68.06V34.75H75.76V32.75ZM67.06 33.75V69.1H69.06V33.75H67.06ZM117.356 75.68L116.84 76.5363L117.356 75.68ZM110.496 68.47L111.377 67.9959L110.496 68.47ZM110.496 48.24L109.625 47.7497L109.622 47.7544L110.496 48.24ZM117.286 41.17L116.774 40.3113L116.768 40.315L117.286 41.17ZM134.786 40.05L134.386 40.9662L134.392 40.9691L134.786 40.05ZM140.596 44.11L139.86 44.7866L140.596 44.11ZM144.236 50.06L143.3 50.4111L143.303 50.4176L144.236 50.06ZM145.356 59.23L144.365 59.0978L144.361 59.1306L144.359 59.1635L145.356 59.23ZM145.006 61.05V62.05H145.707L145.946 61.3917L145.006 61.05ZM115.606 61.05H114.606V62.05H115.606V61.05ZM115.606 54.05V53.05H114.606V54.05H115.606ZM139.826 54.05L140.431 54.8469L142.801 53.05H139.826V54.05ZM135.486 57.34L134.505 57.148L134.002 59.7203L136.091 58.1369L135.486 57.34ZM135.136 51.6L134.196 51.9396L134.2 51.9511L134.204 51.9624L135.136 51.6ZM132.056 47.61L131.483 48.4292L131.489 48.4336L131.496 48.4379L132.056 47.61ZM121.836 47.61L122.366 48.458L122.376 48.4521L122.385 48.446L121.836 47.61ZM118.406 51.81L117.486 51.4188L117.481 51.4304L118.406 51.81ZM117.566 58.46L118.563 58.5397L118.569 58.4643L118.564 58.3888L117.566 58.46ZM118.476 64.69L117.56 65.0896L117.566 65.1039L117.573 65.1181L118.476 64.69ZM122.116 68.82L121.591 69.6709L121.602 69.6775L122.116 68.82ZM133.036 68.96L132.526 68.1001L132.514 68.1074L133.036 68.96ZM136.536 65.39L136.977 64.4922L136.128 64.0759L135.665 64.8997L136.536 65.39ZM143.956 69.03L144.882 69.4096L145.237 68.5442L144.397 68.1322L143.956 69.03ZM140.456 73.86L141.118 74.6098L140.456 73.86ZM134.786 77.15L134.446 76.2096L134.44 76.212L134.786 77.15ZM127.646 77.34C123.882 77.34 120.636 76.4903 117.873 74.8237L116.84 76.5363C119.957 78.4164 123.571 79.34 127.646 79.34V77.34ZM117.873 74.8237C115.087 73.1432 112.926 70.8721 111.377 67.9959L109.616 68.9441C111.334 72.1346 113.746 74.6701 116.84 76.5363L117.873 74.8237ZM111.377 67.9959C109.827 65.1184 109.046 61.9231 109.046 58.39H107.046C107.046 62.2302 107.899 65.7549 109.616 68.9441L111.377 67.9959ZM109.046 58.39C109.046 54.7095 109.831 51.4976 111.371 48.7256L109.622 47.7544C107.896 50.8624 107.046 54.4171 107.046 58.39H109.046ZM111.368 48.7303C112.966 45.8889 115.11 43.6598 117.805 42.025L116.768 40.315C113.77 42.1335 111.387 44.6177 109.625 47.7497L111.368 48.7303ZM117.799 42.0287C120.529 40.3995 123.57 39.58 126.946 39.58V37.58C123.229 37.58 119.831 38.4872 116.774 40.3113L117.799 42.0287ZM126.946 39.58C129.825 39.58 132.297 40.0523 134.386 40.9662L135.187 39.1338C132.796 38.0877 130.041 37.58 126.946 37.58V39.58ZM134.392 40.9691C136.557 41.8969 138.375 43.1704 139.86 44.7866L141.333 43.4334C139.645 41.5963 137.589 40.1631 135.18 39.1309L134.392 40.9691ZM139.86 44.7866C141.358 46.4167 142.504 48.289 143.3 50.4111L145.173 49.7089C144.289 47.351 143.008 45.2566 141.333 43.4334L139.86 44.7866ZM143.303 50.4176C144.095 52.4867 144.496 54.7442 144.496 57.2H146.496C146.496 54.5224 146.058 52.02 145.17 49.7024L143.303 50.4176ZM144.496 57.2C144.496 57.8058 144.453 58.4382 144.365 59.0978L146.348 59.3622C146.446 58.6218 146.496 57.9009 146.496 57.2H144.496ZM144.359 59.1635C144.317 59.7947 144.213 60.3045 144.067 60.7083L145.946 61.3917C146.173 60.7689 146.303 60.0653 146.354 59.2965L144.359 59.1635ZM145.006 60.05H115.606V62.05H145.006V60.05ZM116.606 61.05V54.05H114.606V61.05H116.606ZM115.606 55.05H139.826V53.05H115.606V55.05ZM139.222 53.2531L134.882 56.5431L136.091 58.1369L140.431 54.8469L139.222 53.2531ZM136.468 57.532C136.916 55.2395 136.804 53.1284 136.068 51.2376L134.204 51.9624C134.776 53.4316 134.896 55.1472 134.505 57.148L136.468 57.532ZM136.077 51.2604C135.4 49.3863 134.243 47.8834 132.617 46.7821L131.496 48.4379C132.763 49.2966 133.659 50.4537 134.196 51.9396L136.077 51.2604ZM132.63 46.7908C131.034 45.6737 129.122 45.14 126.946 45.14V47.14C128.785 47.14 130.279 47.5863 131.483 48.4292L132.63 46.7908ZM126.946 45.14C124.853 45.14 122.956 45.6793 121.288 46.774L122.385 48.446C123.704 47.5807 125.213 47.14 126.946 47.14V45.14ZM121.306 46.762C119.614 47.8199 118.347 49.3931 117.486 51.4189L119.327 52.2011C120.052 50.4936 121.072 49.2668 122.366 48.458L121.306 46.762ZM117.481 51.4304C116.66 53.4324 116.375 55.8129 116.569 58.5312L118.564 58.3888C118.385 55.8805 118.66 53.8276 119.332 52.1896L117.481 51.4304ZM116.57 58.3803C116.372 60.8482 116.69 63.094 117.56 65.0896L119.393 64.2904C118.676 62.646 118.387 60.7385 118.563 58.5397L116.57 58.3803ZM117.573 65.1181C118.491 67.0563 119.831 68.5839 121.591 69.6708L122.642 67.9692C121.228 67.0961 120.142 65.8704 119.38 64.2619L117.573 65.1181ZM121.602 69.6775C123.406 70.7601 125.454 71.29 127.716 71.29V69.29C125.779 69.29 124.093 68.8399 122.631 67.9625L121.602 69.6775ZM127.716 71.29C129.957 71.29 131.922 70.8162 133.559 69.8126L132.514 68.1074C131.258 68.8772 129.676 69.29 127.716 69.29V71.29ZM133.547 69.8199C135.189 68.845 136.481 67.5285 137.408 65.8803L135.665 64.8997C134.912 66.2382 133.871 67.3016 132.526 68.1001L133.547 69.8199ZM136.096 66.2878L143.516 69.9278L144.397 68.1322L136.977 64.4922L136.096 66.2878ZM143.031 68.6504C142.347 70.3178 141.275 71.8039 139.795 73.1102L141.118 74.6098C142.811 73.1161 144.072 71.3821 144.882 69.4096L143.031 68.6504ZM139.795 73.1102C138.312 74.4189 136.534 75.4547 134.446 76.2096L135.127 78.0904C137.426 77.2587 139.428 76.1011 141.118 74.6098L139.795 73.1102ZM134.44 76.212C132.419 76.9589 130.158 77.34 127.646 77.34V79.34C130.361 79.34 132.861 78.9277 135.133 78.088L134.44 76.212ZM156.858 77.5H155.858V78.5H156.858V77.5ZM156.858 47.61H157.858V46.61H156.858V47.61ZM150.138 47.61H149.138V48.61H150.138V47.61ZM150.138 39.42V38.42H149.138V39.42H150.138ZM156.858 39.42V40.42H157.858V39.42H156.858ZM158.608 30.81L157.747 30.3013L157.743 30.3074L158.608 30.81ZM173.098 24.65L172.956 25.6399L172.994 25.6453L173.031 25.6478L173.098 24.65ZM174.848 24.86H175.848V24.0402L175.044 23.8794L174.848 24.86ZM174.848 32.77L174.652 33.7506L175.848 33.9898V32.77H174.848ZM173.518 32.63L173.394 33.6223L173.455 33.63H173.518V32.63ZM167.708 33.96L168.328 34.744L168.338 34.7363L168.348 34.7282L167.708 33.96ZM166.028 39.42H165.028V40.42H166.028V39.42ZM182.688 39.42H183.688V38.42H182.688V39.42ZM182.688 47.61V48.61H183.688V47.61H182.688ZM166.028 47.61V46.61H165.028V47.61H166.028ZM166.028 77.5V78.5H167.028V77.5H166.028ZM179.258 77.5H178.258V78.5H179.258V77.5ZM179.258 39.42V38.42H178.258V39.42H179.258ZM188.498 39.42H189.498V38.42H188.498V39.42ZM188.498 77.5V78.5H189.498V77.5H188.498ZM157.858 77.5V47.61H155.858V77.5H157.858ZM156.858 46.61H150.138V48.61H156.858V46.61ZM151.138 47.61V39.42H149.138V47.61H151.138ZM150.138 40.42H156.858V38.42H150.138V40.42ZM157.858 39.42V38.16H155.858V39.42H157.858ZM157.858 38.16C157.858 35.4002 158.414 33.1333 159.472 31.3126L157.743 30.3074C156.468 32.5 155.858 35.1332 155.858 38.16H157.858ZM159.469 31.3187C160.583 29.4322 162.119 28.0023 164.095 27.0144L163.201 25.2256C160.883 26.3844 159.059 28.0811 157.747 30.3013L159.469 31.3187ZM164.095 27.0144C166.075 26.0244 168.459 25.51 171.278 25.51V23.51C168.217 23.51 165.514 24.0689 163.201 25.2256L164.095 27.0144ZM171.278 25.51C171.783 25.51 172.342 25.5522 172.956 25.6399L173.239 23.66C172.547 23.5612 171.893 23.51 171.278 23.51V25.51ZM173.031 25.6478C173.706 25.6928 174.243 25.7588 174.652 25.8406L175.044 23.8794C174.52 23.7746 173.889 23.7006 173.164 23.6522L173.031 25.6478ZM173.848 24.86V32.77H175.848V24.86H173.848ZM175.044 31.7894C174.521 31.6848 174.012 31.63 173.518 31.63V33.63C173.864 33.63 174.241 33.6685 174.652 33.7506L175.044 31.7894ZM173.642 31.6377C173.233 31.5867 172.842 31.56 172.468 31.56V33.56C172.747 33.56 173.055 33.58 173.394 33.6223L173.642 31.6377ZM172.468 31.56C170.275 31.56 168.428 32.0578 167.068 33.1918L168.348 34.7282C169.227 33.9956 170.554 33.56 172.468 33.56V31.56ZM167.087 33.176C165.652 34.312 165.028 36.0523 165.028 38.16H167.028C167.028 36.441 167.523 35.3813 168.328 34.744L167.087 33.176ZM165.028 38.16V39.42H167.028V38.16H165.028ZM166.028 40.42H182.688V38.42H166.028V40.42ZM181.688 39.42V47.61H183.688V39.42H181.688ZM182.688 46.61H166.028V48.61H182.688V46.61ZM165.028 47.61V77.5H167.028V47.61H165.028ZM166.028 76.5H156.858V78.5H166.028V76.5ZM180.258 77.5V39.42H178.258V77.5H180.258ZM179.258 40.42H188.498V38.42H179.258V40.42ZM187.498 39.42V77.5H189.498V39.42H187.498ZM188.498 76.5H179.258V78.5H188.498V76.5ZM196.129 77.5H195.129V78.5H196.129V77.5ZM196.129 39.42V38.42H195.129V39.42H196.129ZM204.739 39.42H205.739V38.42H204.739V39.42ZM204.739 46.91L203.854 47.3757L205.739 46.91H204.739ZM204.039 45.58L203.107 45.2185L202.942 45.6429L203.154 46.0457L204.039 45.58ZM208.379 40.4L208.882 41.2645L208.888 41.2609L208.379 40.4ZM222.939 40.4L222.447 41.2706L222.455 41.275L222.939 40.4ZM228.049 45.51L227.174 45.9941L227.179 46.0021L228.049 45.51ZM229.869 77.5V78.5H230.869V77.5H229.869ZM220.699 77.5H219.699V78.5H220.699V77.5ZM219.719 50.83L220.6 50.3559L219.719 50.83ZM216.989 48.03L216.459 48.878L216.48 48.8907L216.501 48.9025L216.989 48.03ZM209.009 48.03L209.498 48.9025L209.511 48.8952L209.524 48.8875L209.009 48.03ZM206.279 50.83L207.16 51.3041L206.279 50.83ZM205.299 77.5V78.5H206.299V77.5H205.299ZM197.129 77.5V39.42H195.129V77.5H197.129ZM196.129 40.42H204.739V38.42H196.129V40.42ZM203.739 39.42V46.91H205.739V39.42H203.739ZM205.624 46.4443L204.924 45.1143L203.154 46.0457L203.854 47.3757L205.624 46.4443ZM204.972 45.9415C205.781 43.8535 207.083 42.3104 208.882 41.2645L207.877 39.5355C205.662 40.823 204.071 42.7331 203.107 45.2185L204.972 45.9415ZM208.888 41.2609C210.767 40.1504 212.967 39.58 215.519 39.58V37.58C212.658 37.58 210.098 38.2229 207.871 39.5391L208.888 41.2609ZM215.519 39.58C218.171 39.58 220.47 40.153 222.447 41.2706L223.431 39.5294C221.115 38.2203 218.468 37.58 215.519 37.58V39.58ZM222.455 41.275C224.484 42.3974 226.052 43.9652 227.174 45.9941L228.924 45.0259C227.62 42.6681 225.781 40.8293 223.423 39.525L222.455 41.275ZM227.179 46.0021C228.295 47.9768 228.869 50.2988 228.869 53H230.869C230.869 50.0078 230.23 47.3365 228.92 45.0179L227.179 46.0021ZM228.869 53V77.5H230.869V53H228.869ZM229.869 76.5H220.699V78.5H229.869V76.5ZM221.699 77.5V55.17H219.699V77.5H221.699ZM221.699 55.17C221.699 53.3604 221.347 51.7436 220.6 50.3559L218.839 51.3041C219.398 52.3431 219.699 53.6196 219.699 55.17H221.699ZM220.6 50.3559C219.859 48.9806 218.816 47.9066 217.478 47.1575L216.501 48.9025C217.496 49.46 218.273 50.2527 218.839 51.3041L220.6 50.3559ZM217.519 47.182C216.216 46.3671 214.695 45.98 212.999 45.98V47.98C214.384 47.98 215.523 48.2929 216.459 48.878L217.519 47.182ZM212.999 45.98C211.343 45.98 209.832 46.3703 208.495 47.1725L209.524 48.8875C210.52 48.2897 211.669 47.98 212.999 47.98V45.98ZM208.521 47.1575C207.183 47.9066 206.139 48.9806 205.399 50.3559L207.16 51.3041C207.726 50.2527 208.502 49.46 209.498 48.9025L208.521 47.1575ZM205.399 50.3559C204.652 51.7436 204.299 53.3604 204.299 55.17H206.299C206.299 53.6196 206.6 52.3431 207.16 51.3041L205.399 50.3559ZM204.299 55.17V77.5H206.299V55.17H204.299ZM205.299 76.5H196.129V78.5H205.299V76.5ZM237.624 77.5H236.624V78.5H237.624V77.5ZM237.624 39.42V38.42H236.624V39.42H237.624ZM246.794 39.42H247.794V38.42H246.794V39.42ZM246.794 77.5V78.5H247.794V77.5H246.794ZM237.624 35.15H236.624V36.15H237.624V35.15ZM237.624 25.35V24.35H236.624V25.35H237.624ZM246.794 25.35H247.794V24.35H246.794V25.35ZM246.794 35.15V36.15H247.794V35.15H246.794ZM238.624 77.5V39.42H236.624V77.5H238.624ZM237.624 40.42H246.794V38.42H237.624V40.42ZM245.794 39.42V77.5H247.794V39.42H245.794ZM246.794 76.5H237.624V78.5H246.794V76.5ZM238.624 35.15V25.35H236.624V35.15H238.624ZM237.624 26.35H246.794V24.35H237.624V26.35ZM245.794 25.35V35.15H247.794V25.35H245.794ZM246.794 34.15H237.624V36.15H246.794V34.15ZM263.38 75.75L262.87 76.6099L262.878 76.6145L262.886 76.6191L263.38 75.75ZM256.31 68.61L255.441 69.1047L255.445 69.1105L256.31 68.61ZM256.31 48.24L257.176 48.7405L256.31 48.24ZM263.38 41.17L262.886 40.3009L262.88 40.3043L263.38 41.17ZM281.16 40.05L280.773 40.972L280.781 40.9753L280.789 40.9785L281.16 40.05ZM287.18 43.97L286.473 44.6771L286.483 44.6869L286.493 44.6965L287.18 43.97ZM290.89 49.85L291.289 50.7671L292.123 50.4044L291.841 49.5396L290.89 49.85ZM282.84 53.35L281.901 53.6936L282.266 54.6902L283.239 54.2671L282.84 53.35ZM279.27 48.73L278.689 49.5438L278.7 49.5514L279.27 48.73ZM268.21 48.45L267.685 47.5991L267.673 47.6063L268.21 48.45ZM264.57 52.51L263.681 52.0532L264.57 52.51ZM264.57 64.41L263.681 64.8668V64.8668L264.57 64.41ZM268.21 68.47L267.673 69.3137L267.685 69.3208L268.21 68.47ZM279.34 68.19L279.921 69.0037L279.34 68.19ZM282.84 63.5L283.252 62.5888L282.263 62.1417L281.898 63.1637L282.84 63.5ZM290.89 67.14L291.835 67.4685L292.135 66.6054L291.302 66.2288L290.89 67.14ZM287.25 72.95L287.957 73.6572L287.967 73.6474L287.25 72.95ZM281.23 76.94L281.602 77.8685L281.61 77.8653L281.617 77.862L281.23 76.94ZM270.17 93.46L270.433 92.4952L270.423 92.4924L270.413 92.4899L270.17 93.46ZM266.39 91.78L265.453 91.4302L265.188 92.1419L265.802 92.5887L266.39 91.78ZM268.35 86.53L268.905 85.698L267.855 84.9979L267.413 86.1802L268.35 86.53ZM270.66 87.58L270.976 86.6313L270.952 86.6233L270.928 86.6165L270.66 87.58ZM274.65 83.45L275.097 82.5556L275.082 82.548L275.067 82.5409L274.65 83.45ZM269.75 82.33L268.784 82.0731L268.485 83.1983L269.642 83.3241L269.75 82.33ZM271.22 76.8V75.8H270.451L270.254 76.5431L271.22 76.8ZM276.61 76.8L277.586 77.0195L277.86 75.8H276.61V76.8ZM275.98 79.6L275.005 79.3805L274.765 80.4454L275.847 80.5911L275.98 79.6ZM281.72 81.84L282.375 81.0843L282.368 81.078L282.36 81.0718L281.72 81.84ZM281.23 91.99L281.86 92.7668L281.23 91.99ZM273.6 77.34C269.979 77.34 266.745 76.5147 263.875 74.8809L262.886 76.6191C266.082 78.4386 269.662 79.34 273.6 79.34V77.34ZM263.891 74.8901C261.05 73.2036 258.816 70.9469 257.176 68.1095L255.445 69.1105C257.257 72.2464 259.737 74.7497 262.87 76.6099L263.891 74.8901ZM257.179 68.1153C255.546 65.2451 254.72 62.0114 254.72 58.39H252.72C252.72 62.3286 253.622 65.9082 255.441 69.1047L257.179 68.1153ZM254.72 58.39C254.72 54.7684 255.546 51.5607 257.176 48.7405L255.445 47.7395C253.622 50.8926 252.72 54.4516 252.72 58.39H254.72ZM257.176 48.7405C258.815 45.9055 261.046 43.6747 263.881 42.0357L262.88 40.3043C259.741 42.1186 257.259 44.6012 255.445 47.7395L257.176 48.7405ZM263.875 42.0391C266.745 40.4053 269.979 39.58 273.6 39.58V37.58C269.662 37.58 266.082 38.4814 262.886 40.3009L263.875 42.0391ZM273.6 39.58C276.183 39.58 278.571 40.047 280.773 40.972L281.547 39.128C279.083 38.093 276.431 37.58 273.6 37.58V39.58ZM280.789 40.9785C283.004 41.8645 284.894 43.0983 286.473 44.6771L287.887 43.2629C286.106 41.4817 283.983 40.1022 281.532 39.1215L280.789 40.9785ZM286.493 44.6965C288.097 46.2138 289.244 48.0302 289.94 50.1604L291.841 49.5396C291.043 47.0965 289.717 44.9929 287.867 43.2435L286.493 44.6965ZM290.492 48.9329L282.442 52.4329L283.239 54.2671L291.289 50.7671L290.492 48.9329ZM283.779 53.0064C283.008 50.8988 281.689 49.1923 279.841 47.9086L278.7 49.5514C280.211 50.601 281.272 51.9745 281.901 53.6936L283.779 53.0064ZM279.851 47.9163C278.036 46.6198 275.94 45.98 273.6 45.98V47.98C275.554 47.98 277.237 48.5068 278.689 49.5437L279.851 47.9163ZM273.6 45.98C271.423 45.98 269.441 46.5142 267.685 47.5992L268.736 49.3008C270.152 48.4258 271.765 47.98 273.6 47.98V45.98ZM267.673 47.6063C265.974 48.6878 264.643 50.1789 263.681 52.0532L265.46 52.9668C266.271 51.3877 267.367 50.1722 268.747 49.2937L267.673 47.6063ZM263.681 52.0532C262.711 53.9415 262.24 56.0857 262.24 58.46H264.24C264.24 56.3543 264.656 54.5318 265.46 52.9668L263.681 52.0532ZM262.24 58.46C262.24 60.8343 262.711 62.9785 263.681 64.8668L265.46 63.9532C264.656 62.3882 264.24 60.5657 264.24 58.46H262.24ZM263.681 64.8668C264.643 66.7411 265.974 68.2322 267.673 69.3137L268.747 67.6263C267.367 66.7478 266.271 65.5323 265.46 63.9532L263.681 64.8668ZM267.685 69.3208C269.441 70.4058 271.423 70.94 273.6 70.94V68.94C271.765 68.94 270.152 68.4942 268.736 67.6192L267.685 69.3208ZM273.6 70.94C275.982 70.94 278.103 70.3028 279.921 69.0037L278.759 67.3763C277.311 68.4105 275.605 68.94 273.6 68.94V70.94ZM279.921 69.0037C281.727 67.7139 283.016 65.981 283.782 63.8363L281.898 63.1637C281.264 64.939 280.22 66.3328 278.759 67.3763L279.921 69.0037ZM282.428 64.4112L290.478 68.0512L291.302 66.2288L283.252 62.5888L282.428 64.4112ZM289.946 66.8115C289.25 68.8118 288.118 70.6244 286.534 72.2526L287.967 73.6474C289.743 71.8223 291.037 69.7615 291.835 67.4685L289.946 66.8115ZM286.543 72.2429C284.961 73.8253 283.065 75.0849 280.843 76.018L281.617 77.862C284.062 76.8351 286.18 75.4347 287.957 73.6571L286.543 72.2429ZM280.859 76.0115C278.654 76.8933 276.239 77.34 273.6 77.34V79.34C276.469 79.34 279.139 78.8534 281.602 77.8685L280.859 76.0115ZM274.3 93.09C273.199 93.09 271.913 92.8988 270.433 92.4952L269.907 94.4248C271.508 94.8613 272.975 95.09 274.3 95.09V93.09ZM270.413 92.4899C269.018 92.1412 267.882 91.6283 266.978 90.9713L265.802 92.5887C266.952 93.4251 268.336 94.0321 269.928 94.4301L270.413 92.4899ZM267.327 92.1298L269.287 86.8798L267.413 86.1802L265.453 91.4302L267.327 92.1298ZM267.796 87.3621C268.587 87.8896 269.454 88.2829 270.393 88.5435L270.928 86.6165C270.186 86.4105 269.514 86.1038 268.905 85.698L267.796 87.3621ZM270.344 88.5287C271.274 88.8388 272.198 89 273.11 89V87C272.436 87 271.726 86.8812 270.976 86.6313L270.344 88.5287ZM273.11 89C274.256 89 275.293 88.7679 276.09 88.17L274.89 86.57C274.567 86.8121 274.017 87 273.11 87V89ZM276.09 88.17C276.921 87.547 277.33 86.657 277.33 85.62H275.33C275.33 86.0763 275.18 86.353 274.89 86.57L276.09 88.17ZM277.33 85.62C277.33 84.2039 276.396 83.2051 275.097 82.5556L274.203 84.3444C275.144 84.8149 275.33 85.2627 275.33 85.62H277.33ZM275.067 82.5409C273.802 81.9613 272.044 81.5734 269.858 81.3359L269.642 83.3241C271.75 83.5532 273.258 83.912 274.234 84.3591L275.067 82.5409ZM270.717 82.5869L272.187 77.0569L270.254 76.5431L268.784 82.0731L270.717 82.5869ZM271.22 77.8H276.61V75.8H271.22V77.8ZM275.635 76.5805L275.005 79.3805L276.956 79.8195L277.586 77.0195L275.635 76.5805ZM275.847 80.5911C278.149 80.901 279.866 81.5968 281.08 82.6082L282.36 81.0718C280.774 79.7499 278.665 78.9523 276.114 78.6089L275.847 80.5911ZM281.065 82.5957C282.257 83.6288 282.82 84.8512 282.82 86.32H284.82C284.82 84.2422 283.983 82.4779 282.375 81.0843L281.065 82.5957ZM282.82 86.32C282.82 88.4229 282.075 90.018 280.6 91.2132L281.86 92.7668C283.839 91.162 284.82 88.9771 284.82 86.32H282.82ZM280.6 91.2132C279.1 92.4302 277.034 93.09 274.3 93.09V95.09C277.353 95.09 279.908 94.3498 281.86 92.7668L280.6 91.2132ZM302.331 77.01L301.919 77.9211L302.331 77.01ZM297.781 73.23L296.939 73.7684L296.946 73.7792L297.781 73.23ZM297.571 61.82L298.44 62.3162L298.446 62.3056L297.571 61.82ZM301.911 57.62L302.408 58.4882L301.911 57.62ZM309.331 55.24L309.486 56.228L309.492 56.227L309.331 55.24ZM321.791 53.21H322.791V52.0339L321.631 52.223L321.791 53.21ZM321.791 60.21L321.959 61.1959L322.791 61.0544V60.21H321.791ZM311.081 62.03L310.914 61.0441L310.905 61.0457L311.081 62.03ZM307.021 63.78L306.334 63.054L307.021 63.78ZM307.161 70.22L306.532 70.9972L306.552 71.0135L306.573 71.0287L307.161 70.22ZM315.981 70.15L316.462 71.0269L316.472 71.0216L315.981 70.15ZM319.411 66.72L318.547 66.2179L318.54 66.2284L318.535 66.2392L319.411 66.72ZM318.711 48.1L318.047 48.8474L318.062 48.8604L318.077 48.8727L318.711 48.1ZM308.421 48.03L308.988 48.8541L308.993 48.8504L308.421 48.03ZM305.131 52.16L304.694 53.0594L305.656 53.5269L306.058 52.5357L305.131 52.16ZM297.641 48.52L296.704 48.1713L296.387 49.0224L297.204 49.4194L297.641 48.52ZM301.141 43.34L301.815 44.079L301.816 44.078L301.141 43.34ZM306.881 39.84L306.524 38.9061L306.881 39.84ZM322.281 40.33L321.841 41.2279L321.848 41.2314L321.856 41.2348L322.281 40.33ZM327.811 45.09L326.968 45.6269L326.975 45.6381L326.982 45.6491L327.811 45.09ZM329.841 77.5V78.5H330.841V77.5H329.841ZM321.161 77.5H320.161V78.5H321.161V77.5ZM321.161 70.99L321.09 69.9925L320.161 70.0589V70.99H321.161ZM323.121 70.85L323.979 71.3645L324.968 69.7155L323.05 69.8525L323.121 70.85ZM319.621 74.98L320.243 75.7635L320.251 75.757L320.259 75.7504L319.621 74.98ZM315.001 77.5L315.31 78.4512L315.321 78.4475L315.333 78.4435L315.001 77.5ZM315.911 32.14L315.464 33.0344L315.493 33.049L315.523 33.0616L315.911 32.14ZM313.741 30.81L313.095 31.5734L313.113 31.5884L313.132 31.6026L313.741 30.81ZM311.921 29.48L311.352 30.3022L311.374 30.3175L311.397 30.3317L311.921 29.48ZM308.001 29.76L308.801 30.36L308.813 30.3448L308.824 30.3292L308.001 29.76ZM307.371 32.42V33.42H308.371V32.42H307.371ZM300.301 32.42H299.301V33.42H300.301V32.42ZM302.821 24.23L303.538 24.9274L303.547 24.9177L302.821 24.23ZM312.201 22.13L311.813 23.0516V23.0516L312.201 22.13ZM314.511 23.46L313.894 24.2463V24.2463L314.511 23.46ZM316.331 24.79L315.777 25.622L315.792 25.6321L315.807 25.6417L316.331 24.79ZM320.251 24.44L321.103 24.9641L321.112 24.9503L321.12 24.9361L320.251 24.44ZM320.811 21.85V20.85H319.811V21.85H320.811ZM327.881 21.85L328.881 21.8632L328.895 20.85H327.881V21.85ZM325.291 29.97L326.026 30.6483L326.035 30.639L325.291 29.97ZM309.261 77.34C306.711 77.34 304.547 76.9148 302.744 76.0989L301.919 77.9211C304.036 78.8785 306.492 79.34 309.261 79.34V77.34ZM302.744 76.0989C300.938 75.2822 299.576 74.1401 298.617 72.6808L296.946 73.7792C298.133 75.5866 299.805 76.9645 301.919 77.9211L302.744 76.0989ZM298.624 72.6916C297.664 71.1883 297.171 69.4424 297.171 67.42H295.171C295.171 69.7843 295.752 71.9117 296.939 73.7684L298.624 72.6916ZM297.171 67.42C297.171 65.4733 297.602 63.7814 298.44 62.3161L296.703 61.3239C295.674 63.1253 295.171 65.1667 295.171 67.42H297.171ZM298.446 62.3056C299.276 60.8113 300.578 59.5336 302.408 58.4882L301.415 56.7518C299.325 57.9464 297.734 59.4687 296.697 61.3344L298.446 62.3056ZM302.408 58.4882C304.233 57.4453 306.581 56.6819 309.486 56.228L309.177 54.252C306.108 54.7315 303.51 55.5547 301.415 56.7518L302.408 58.4882ZM309.492 56.227L321.952 54.197L321.631 52.223L309.171 54.253L309.492 56.227ZM320.791 53.21V60.21H322.791V53.21H320.791ZM321.624 59.2241L310.914 61.0441L311.249 63.0159L321.959 61.1959L321.624 59.2241ZM310.905 61.0457C308.985 61.3903 307.417 62.0276 306.334 63.054L307.709 64.506C308.399 63.8524 309.538 63.323 311.258 63.0143L310.905 61.0457ZM306.334 63.054C305.225 64.1043 304.691 65.4749 304.691 67.07H306.691C306.691 65.9585 307.044 65.1357 307.709 64.506L306.334 63.054ZM304.691 67.07C304.691 68.6657 305.308 70.0062 306.532 70.9972L307.791 69.4428C307.055 68.8471 306.691 68.0876 306.691 67.07H304.691ZM306.573 71.0287C307.799 71.9205 309.275 72.34 310.941 72.34V70.34C309.621 70.34 308.577 70.0128 307.75 69.4113L306.573 71.0287ZM310.941 72.34C312.996 72.34 314.846 71.913 316.462 71.0268L315.501 69.2732C314.223 69.9736 312.714 70.34 310.941 70.34V72.34ZM316.472 71.0216C318.121 70.0937 319.401 68.8178 320.288 67.2008L318.535 66.2392C317.835 67.5155 316.828 68.5263 315.491 69.2784L316.472 71.0216ZM320.276 67.2221C321.208 65.6179 321.671 63.8571 321.671 61.96H319.671C319.671 63.5162 319.295 64.9288 318.547 66.2179L320.276 67.2221ZM321.671 61.96V52.16H319.671V61.96H321.671ZM321.671 52.16C321.671 50.2154 320.875 48.5828 319.346 47.3273L318.077 48.8727C319.162 49.7639 319.671 50.8379 319.671 52.16H321.671ZM319.376 47.3526C317.891 46.0326 315.954 45.42 313.671 45.42V47.42C315.589 47.42 317.012 47.9273 318.047 48.8474L319.376 47.3526ZM313.671 45.42C311.517 45.42 309.565 46.014 307.85 47.2096L308.993 48.8504C310.358 47.8993 311.906 47.42 313.671 47.42V45.42ZM307.855 47.206C306.195 48.3468 304.976 49.8815 304.205 51.7843L306.058 52.5357C306.687 50.9851 307.661 49.7665 308.988 48.854L307.855 47.206ZM305.569 51.2606L298.079 47.6206L297.204 49.4194L304.694 53.0594L305.569 51.2606ZM298.579 48.8687C299.27 47.0117 300.346 45.4187 301.815 44.079L300.468 42.601C298.764 44.1546 297.507 46.015 296.704 48.1713L298.579 48.8687ZM301.816 44.078C303.351 42.6744 305.156 41.5718 307.239 40.7739L306.524 38.9061C304.221 39.7882 302.198 41.019 300.467 42.602L301.816 44.078ZM307.239 40.7739C309.308 39.9815 311.566 39.58 314.021 39.58V37.58C311.344 37.58 308.841 38.0185 306.524 38.9061L307.239 40.7739ZM314.021 39.58C317.023 39.58 319.621 40.1395 321.841 41.2279L322.722 39.4321C320.182 38.1872 317.273 37.58 314.021 37.58V39.58ZM321.856 41.2348C324.079 42.281 325.771 43.7462 326.968 45.6269L328.655 44.5531C327.239 42.3271 325.244 40.619 322.707 39.4252L321.856 41.2348ZM326.982 45.6491C328.211 47.4714 328.841 49.6281 328.841 52.16H330.841C330.841 49.2785 330.118 46.7219 328.64 44.5309L326.982 45.6491ZM328.841 52.16V77.5H330.841V52.16H328.841ZM329.841 76.5H321.161V78.5H329.841V76.5ZM322.161 77.5V70.99H320.161V77.5H322.161ZM321.233 71.9875L323.193 71.8475L323.05 69.8525L321.09 69.9925L321.233 71.9875ZM322.264 70.3355C321.337 71.8799 320.243 73.1677 318.984 74.2096L320.259 75.7504C321.707 74.5523 322.946 73.0868 323.979 71.3645L322.264 70.3355ZM319 74.1965C317.739 75.1968 316.298 75.9845 314.67 76.5565L315.333 78.4435C317.158 77.8022 318.797 76.9099 320.243 75.7635L319 74.1965ZM314.693 76.5488C313.08 77.0718 311.273 77.34 309.261 77.34V79.34C311.45 79.34 313.469 79.0482 315.31 78.4512L314.693 76.5488ZM319.131 31.7C317.965 31.7 317.032 31.5266 316.299 31.2184L315.523 33.0616C316.565 33.5 317.777 33.7 319.131 33.7V31.7ZM316.359 31.2456C315.564 30.848 314.897 30.4374 314.351 30.0174L313.132 31.6026C313.799 32.116 314.579 32.592 315.464 33.0344L316.359 31.2456ZM314.387 30.0466C313.747 29.5045 313.1 29.0308 312.445 28.6283L311.397 30.3317C311.957 30.6759 312.523 31.0888 313.095 31.5734L314.387 30.0466ZM312.491 28.6578C311.704 28.1132 310.802 27.85 309.821 27.85V29.85C310.427 29.85 310.926 30.0068 311.352 30.3022L312.491 28.6578ZM309.821 27.85C308.729 27.85 307.802 28.2913 307.179 29.1908L308.824 30.3292C309.041 30.0154 309.327 29.85 309.821 29.85V27.85ZM307.201 29.16C306.587 29.9798 306.371 31.1322 306.371 32.42H308.371C308.371 31.2811 308.576 30.6602 308.801 30.36L307.201 29.16ZM307.371 31.42H300.301V33.42H307.371V31.42ZM301.301 32.42C301.301 28.8081 302.118 26.387 303.538 24.9274L302.105 23.5326C300.165 25.5263 299.301 28.5652 299.301 32.42H301.301ZM303.547 24.9177C305.044 23.3378 306.814 22.57 308.911 22.57V20.57C306.249 20.57 303.959 21.5755 302.095 23.5423L303.547 24.9177ZM308.911 22.57C310.13 22.57 311.085 22.745 311.813 23.0516L312.589 21.2084C311.544 20.7684 310.306 20.57 308.911 20.57V22.57ZM311.813 23.0516C312.63 23.3956 313.32 23.796 313.894 24.2463L315.129 22.6737C314.396 22.0973 313.546 21.611 312.589 21.2084L311.813 23.0516ZM313.894 24.2463C314.563 24.7722 315.191 25.2314 315.777 25.622L316.886 23.9579C316.352 23.6019 315.767 23.1745 315.129 22.6737L313.894 24.2463ZM315.807 25.6417C316.569 26.1102 317.403 26.35 318.291 26.35V24.35C317.78 24.35 317.307 24.2165 316.855 23.9383L315.807 25.6417ZM318.291 26.35C319.45 26.35 320.492 25.9573 321.103 24.9641L319.4 23.9159C319.264 24.136 318.999 24.35 318.291 24.35V26.35ZM321.12 24.9361C321.608 24.0808 321.811 23.0274 321.811 21.85H319.811C319.811 22.8193 319.641 23.4926 319.383 23.9439L321.12 24.9361ZM320.811 22.85H327.881V20.85H320.811V22.85ZM326.882 21.8368C326.837 25.2402 326.01 27.6768 324.548 29.301L326.035 30.639C327.933 28.5299 328.833 25.5531 328.881 21.8632L326.882 21.8368ZM324.557 29.2917C323.061 30.9115 321.272 31.7 319.131 31.7V33.7C321.844 33.7 324.161 32.6685 326.026 30.6483L324.557 29.2917ZM346.717 75.75L346.222 76.6191L346.228 76.6223L346.717 75.75ZM339.437 68.68L338.577 69.1906L338.583 69.2004L339.437 68.68ZM339.437 48.24L338.583 47.7196L338.577 47.7295L339.437 48.24ZM346.717 41.17L346.222 40.3009L346.717 41.17ZM367.087 41.17L367.582 40.3009L367.087 41.17ZM374.297 48.24L373.437 48.7505L373.442 48.7585L373.447 48.7664L374.297 48.24ZM374.297 68.68L375.151 69.2004L374.297 68.68ZM367.017 75.75L367.512 76.6191L367.017 75.75ZM362.327 68.47L361.801 67.6191L361.79 67.6263L362.327 68.47ZM366.037 64.41L365.152 63.9442L365.147 63.9532L366.037 64.41ZM366.037 52.58L365.147 53.0368L365.155 53.0513L365.163 53.0656L366.037 52.58ZM362.327 48.52L361.772 49.352L361.787 49.3617L361.801 49.3708L362.327 48.52ZM351.407 48.52L351.932 49.3708L351.941 49.3653L351.95 49.3596L351.407 48.52ZM347.627 52.58L346.747 52.1045L346.742 52.1132L347.627 52.58ZM347.627 64.41L346.732 64.8572L346.74 64.8715L346.747 64.8855L347.627 64.41ZM351.407 68.47L351.932 67.6192L351.407 68.47ZM356.937 77.34C353.365 77.34 350.128 76.5158 347.206 74.8777L346.228 76.6223C349.466 78.4375 353.042 79.34 356.937 79.34V77.34ZM347.212 74.8809C344.326 73.2383 342.023 71.0018 340.291 68.1596L338.583 69.2004C340.491 72.3315 343.041 74.8083 346.222 76.6191L347.212 74.8809ZM340.297 68.1695C338.624 65.3527 337.777 62.1258 337.777 58.46H335.777C335.777 62.4475 336.703 66.034 338.577 69.1905L340.297 68.1695ZM337.777 58.46C337.777 54.7942 338.624 51.5673 340.297 48.7505L338.577 47.7295C336.703 50.886 335.777 54.4725 335.777 58.46H337.777ZM340.291 48.7604C342.023 45.9182 344.326 43.6817 347.212 42.0391L346.222 40.3009C343.041 42.1117 340.491 44.5885 338.583 47.7196L340.291 48.7604ZM347.212 42.0391C350.082 40.4053 353.316 39.58 356.937 39.58V37.58C352.998 37.58 349.419 38.4814 346.222 40.3009L347.212 42.0391ZM356.937 39.58C360.509 39.58 363.72 40.4042 366.592 42.0391L367.582 40.3009C364.387 38.4825 360.831 37.58 356.937 37.58V39.58ZM366.592 42.0391C369.476 43.6804 371.753 45.9138 373.437 48.7505L375.157 47.7295C373.294 44.5929 370.765 42.113 367.582 40.3009L366.592 42.0391ZM373.447 48.7664C375.157 51.5298 376.027 54.7496 376.027 58.46H378.027C378.027 54.4237 377.076 50.8302 375.147 47.7136L373.447 48.7664ZM376.027 58.46C376.027 62.121 375.159 65.3443 373.443 68.1596L375.151 69.2004C377.075 66.0424 378.027 62.4524 378.027 58.46H376.027ZM373.443 68.1596C371.711 71.0018 369.408 73.2383 366.522 74.8809L367.512 76.6191C370.693 74.8083 373.243 72.3315 375.151 69.2004L373.443 68.1596ZM366.522 74.8809C363.648 76.5169 360.46 77.34 356.937 77.34V79.34C360.787 79.34 364.319 78.4364 367.512 76.6191L366.522 74.8809ZM356.937 70.94C359.156 70.94 361.144 70.4081 362.864 69.3137L361.79 67.6263C360.43 68.4919 358.824 68.94 356.937 68.94V70.94ZM362.852 69.3208C364.6 68.2411 365.96 66.7486 366.926 64.8668L365.147 63.9532C364.34 65.5247 363.227 66.7389 361.801 67.6192L362.852 69.3208ZM366.922 64.8757C367.938 62.9456 368.437 60.8 368.437 58.46H366.437C366.437 60.5067 366.003 62.3278 365.152 63.9443L366.922 64.8757ZM368.437 58.46C368.437 56.0784 367.94 53.9458 366.911 52.0944L365.163 53.0656C366.001 54.5742 366.437 56.3616 366.437 58.46H368.437ZM366.926 52.1232C365.96 50.2414 364.6 48.7489 362.852 47.6692L361.801 49.3708C363.227 50.2511 364.34 51.4653 365.147 53.0368L366.926 52.1232ZM362.882 47.6879C361.16 46.54 359.165 45.98 356.937 45.98V47.98C358.815 47.98 360.414 48.4467 361.772 49.352L362.882 47.6879ZM356.937 45.98C354.666 45.98 352.63 46.5376 350.864 47.6804L351.95 49.3596C353.357 48.4491 355.007 47.98 356.937 47.98V45.98ZM350.881 47.6692C349.138 48.746 347.759 50.2323 346.747 52.1045L348.507 53.0555C349.361 51.4744 350.503 50.254 351.932 49.3708L350.881 47.6692ZM346.742 52.1132C345.767 53.9608 345.297 56.0864 345.297 58.46H347.297C347.297 56.3536 347.713 54.5592 348.511 53.0468L346.742 52.1132ZM345.297 58.46C345.297 60.7919 345.769 62.9308 346.732 64.8572L348.521 63.9628C347.711 62.3425 347.297 60.5148 347.297 58.46H345.297ZM346.747 64.8855C347.759 66.7577 349.138 68.244 350.881 69.3208L351.932 67.6192C350.503 66.736 349.361 65.5156 348.507 63.9345L346.747 64.8855ZM350.881 69.3208C352.645 70.4102 354.675 70.94 356.937 70.94V68.94C354.998 68.94 353.342 68.4898 351.932 67.6192L350.881 69.3208Z" fill="#0155B5" mask="url(#path-2-outside-1_217_88)"/>
</svg>
