<svg width="609" height="97" viewBox="0 0 609 97" fill="none" xmlns="http://www.w3.org/2000/svg">
<path d="M19.39 73V59.84H6.23V51.09H19.39V38H28.14V51.09H41.23V59.84H28.14V73H19.39Z" fill="#0155B5"/>
<mask id="path-2-outside-1_264_11" maskUnits="userSpaceOnUse" x="67" y="23.5" width="540" height="71" fill="black">
<rect fill="white" x="67" y="23.5" width="540" height="71"/>
<path d="M68.04 77.5V25.35H102.69V33.75H77.56V47.12H101.29V55.52H77.56V69.1H102.69V77.5H68.04ZM108.901 77.5V39.42H117.511V48.24L116.531 46.77C117.231 44.0167 118.631 41.9633 120.731 40.61C122.831 39.2567 125.304 38.58 128.151 38.58C131.278 38.58 134.031 39.3967 136.411 41.03C138.791 42.6633 140.331 44.81 141.031 47.47L138.441 47.68C139.608 44.6467 141.358 42.3833 143.691 40.89C146.024 39.35 148.708 38.58 151.741 38.58C154.448 38.58 156.851 39.1867 158.951 40.4C161.098 41.6133 162.778 43.3167 163.991 45.51C165.204 47.6567 165.811 50.1533 165.811 53V77.5H156.641V55.17C156.641 53.49 156.338 52.0433 155.731 50.83C155.124 49.6167 154.284 48.6833 153.211 48.03C152.138 47.33 150.831 46.98 149.291 46.98C147.844 46.98 146.561 47.33 145.441 48.03C144.321 48.6833 143.458 49.6167 142.851 50.83C142.244 52.0433 141.941 53.49 141.941 55.17V77.5H132.771V55.17C132.771 53.49 132.468 52.0433 131.861 50.83C131.254 49.6167 130.391 48.6833 129.271 48.03C128.198 47.33 126.914 46.98 125.421 46.98C123.974 46.98 122.691 47.33 121.571 48.03C120.451 48.6833 119.588 49.6167 118.981 50.83C118.374 52.0433 118.071 53.49 118.071 55.17V77.5H108.901ZM185.119 78.34C182.459 78.34 180.149 77.8967 178.189 77.01C176.229 76.1233 174.712 74.8633 173.639 73.23C172.565 71.55 172.029 69.6133 172.029 67.42C172.029 65.32 172.495 63.4533 173.429 61.82C174.362 60.14 175.809 58.74 177.769 57.62C179.729 56.5 182.202 55.7067 185.189 55.24L197.649 53.21V60.21L186.939 62.03C185.119 62.3567 183.765 62.94 182.879 63.78C181.992 64.62 181.549 65.7167 181.549 67.07C181.549 68.3767 182.039 69.4267 183.019 70.22C184.045 70.9667 185.305 71.34 186.799 71.34C188.712 71.34 190.392 70.9433 191.839 70.15C193.332 69.31 194.475 68.1667 195.269 66.72C196.109 65.2733 196.529 63.6867 196.529 61.96V52.16C196.529 50.5267 195.875 49.1733 194.569 48.1C193.309 46.98 191.629 46.42 189.529 46.42C187.569 46.42 185.819 46.9567 184.279 48.03C182.785 49.0567 181.689 50.4333 180.989 52.16L173.499 48.52C174.245 46.5133 175.412 44.7867 176.999 43.34C178.632 41.8467 180.545 40.68 182.739 39.84C184.932 39 187.312 38.58 189.879 38.58C193.005 38.58 195.759 39.1633 198.139 40.33C200.519 41.45 202.362 43.0367 203.669 45.09C205.022 47.0967 205.699 49.4533 205.699 52.16V77.5H197.019V70.99L198.979 70.85C197.999 72.4833 196.832 73.86 195.479 74.98C194.125 76.0533 192.585 76.8933 190.859 77.5C189.132 78.06 187.219 78.34 185.119 78.34ZM232.654 92.9C229.808 92.9 227.171 92.4333 224.744 91.5C222.318 90.5667 220.218 89.26 218.444 87.58C216.718 85.9467 215.458 84.01 214.664 81.77L223.204 78.55C223.764 80.3233 224.861 81.7467 226.494 82.82C228.174 83.94 230.228 84.5 232.654 84.5C234.521 84.5 236.154 84.15 237.554 83.45C239.001 82.75 240.121 81.7233 240.914 80.37C241.708 79.0633 242.104 77.4767 242.104 75.61V66.93L243.854 69.03C242.548 71.3167 240.798 73.0433 238.604 74.21C236.411 75.3767 233.914 75.96 231.114 75.96C227.568 75.96 224.394 75.1433 221.594 73.51C218.794 71.8767 216.601 69.6367 215.014 66.79C213.428 63.9433 212.634 60.7467 212.634 57.2C212.634 53.6067 213.428 50.41 215.014 47.61C216.601 44.81 218.771 42.6167 221.524 41.03C224.278 39.3967 227.404 38.58 230.904 38.58C233.751 38.58 236.248 39.1867 238.394 40.4C240.588 41.5667 242.408 43.27 243.854 45.51L242.594 47.82V39.42H251.274V75.61C251.274 78.9233 250.458 81.8867 248.824 84.5C247.238 87.1133 245.044 89.1667 242.244 90.66C239.491 92.1533 236.294 92.9 232.654 92.9ZM232.234 67.49C234.194 67.49 235.898 67.07 237.344 66.23C238.838 65.3433 240.004 64.13 240.844 62.59C241.684 61.05 242.104 59.2767 242.104 57.27C242.104 55.31 241.661 53.56 240.774 52.02C239.934 50.4333 238.768 49.1967 237.274 48.31C235.828 47.4233 234.148 46.98 232.234 46.98C230.321 46.98 228.594 47.4233 227.054 48.31C225.514 49.1967 224.301 50.4333 223.414 52.02C222.574 53.56 222.154 55.31 222.154 57.27C222.154 59.23 222.574 60.98 223.414 62.52C224.301 64.06 225.491 65.2733 226.984 66.16C228.524 67.0467 230.274 67.49 232.234 67.49ZM259.838 77.5V39.42H268.448V47.89L267.748 46.63C268.635 43.7833 270.012 41.8 271.878 40.68C273.792 39.56 276.078 39 278.738 39H280.978V47.12H277.688C275.075 47.12 272.975 47.9367 271.388 49.57C269.802 51.1567 269.008 53.3967 269.008 56.29V77.5H259.838ZM304.08 78.34C300.16 78.34 296.73 77.4533 293.79 75.68C290.85 73.9067 288.563 71.5033 286.93 68.47C285.297 65.4367 284.48 62.0767 284.48 58.39C284.48 54.5633 285.297 51.18 286.93 48.24C288.61 45.2533 290.873 42.8967 293.72 41.17C296.613 39.4433 299.833 38.58 303.38 38.58C306.367 38.58 308.98 39.07 311.22 40.05C313.507 41.03 315.443 42.3833 317.03 44.11C318.617 45.8367 319.83 47.82 320.67 50.06C321.51 52.2533 321.93 54.6333 321.93 57.2C321.93 57.8533 321.883 58.53 321.79 59.23C321.743 59.93 321.627 60.5367 321.44 61.05H292.04V54.05H316.26L311.92 57.34C312.34 55.1933 312.223 53.28 311.57 51.6C310.963 49.92 309.937 48.59 308.49 47.61C307.09 46.63 305.387 46.14 303.38 46.14C301.467 46.14 299.763 46.63 298.27 47.61C296.777 48.5433 295.633 49.9433 294.84 51.81C294.093 53.63 293.813 55.8467 294 58.46C293.813 60.7933 294.117 62.87 294.91 64.69C295.75 66.4633 296.963 67.84 298.55 68.82C300.183 69.8 302.05 70.29 304.15 70.29C306.25 70.29 308.023 69.8467 309.47 68.96C310.963 68.0733 312.13 66.8833 312.97 65.39L320.39 69.03C319.643 70.85 318.477 72.46 316.89 73.86C315.303 75.26 313.413 76.3567 311.22 77.15C309.073 77.9433 306.693 78.34 304.08 78.34ZM347.221 78.34C343.441 78.34 340.035 77.4767 337.001 75.75C334.015 73.9767 331.658 71.5967 329.931 68.61C328.205 65.5767 327.341 62.17 327.341 58.39C327.341 54.61 328.205 51.2267 329.931 48.24C331.658 45.2533 334.015 42.8967 337.001 41.17C340.035 39.4433 343.441 38.58 347.221 38.58C349.928 38.58 352.448 39.07 354.781 40.05C357.115 40.9833 359.121 42.29 360.801 43.97C362.528 45.6033 363.765 47.5633 364.511 49.85L356.461 53.35C355.761 51.4367 354.571 49.8967 352.891 48.73C351.258 47.5633 349.368 46.98 347.221 46.98C345.215 46.98 343.418 47.47 341.831 48.45C340.291 49.43 339.078 50.7833 338.191 52.51C337.305 54.2367 336.861 56.22 336.861 58.46C336.861 60.7 337.305 62.6833 338.191 64.41C339.078 66.1367 340.291 67.49 341.831 68.47C343.418 69.45 345.215 69.94 347.221 69.94C349.415 69.94 351.328 69.3567 352.961 68.19C354.595 67.0233 355.761 65.46 356.461 63.5L364.511 67.14C363.765 69.2867 362.551 71.2233 360.871 72.95C359.191 74.63 357.185 75.96 354.851 76.94C352.518 77.8733 349.975 78.34 347.221 78.34ZM371.469 77.5V39.42H380.639V77.5H371.469ZM371.469 35.15V25.35H380.639V35.15H371.469ZM389.106 77.5V39.42H397.716V48.24L396.736 46.77C397.436 44.0167 398.836 41.9633 400.936 40.61C403.036 39.2567 405.509 38.58 408.356 38.58C411.483 38.58 414.236 39.3967 416.616 41.03C418.996 42.6633 420.536 44.81 421.236 47.47L418.646 47.68C419.813 44.6467 421.563 42.3833 423.896 40.89C426.229 39.35 428.913 38.58 431.946 38.58C434.653 38.58 437.056 39.1867 439.156 40.4C441.303 41.6133 442.983 43.3167 444.196 45.51C445.409 47.6567 446.016 50.1533 446.016 53V77.5H436.846V55.17C436.846 53.49 436.543 52.0433 435.936 50.83C435.329 49.6167 434.489 48.6833 433.416 48.03C432.343 47.33 431.036 46.98 429.496 46.98C428.049 46.98 426.766 47.33 425.646 48.03C424.526 48.6833 423.663 49.6167 423.056 50.83C422.449 52.0433 422.146 53.49 422.146 55.17V77.5H412.976V55.17C412.976 53.49 412.673 52.0433 412.066 50.83C411.459 49.6167 410.596 48.6833 409.476 48.03C408.403 47.33 407.119 46.98 405.626 46.98C404.179 46.98 402.896 47.33 401.776 48.03C400.656 48.6833 399.793 49.6167 399.186 50.83C398.579 52.0433 398.276 53.49 398.276 55.17V77.5H389.106ZM471.834 78.34C467.914 78.34 464.484 77.4533 461.544 75.68C458.604 73.9067 456.317 71.5033 454.684 68.47C453.051 65.4367 452.234 62.0767 452.234 58.39C452.234 54.5633 453.051 51.18 454.684 48.24C456.364 45.2533 458.627 42.8967 461.474 41.17C464.367 39.4433 467.587 38.58 471.134 38.58C474.121 38.58 476.734 39.07 478.974 40.05C481.261 41.03 483.197 42.3833 484.784 44.11C486.371 45.8367 487.584 47.82 488.424 50.06C489.264 52.2533 489.684 54.6333 489.684 57.2C489.684 57.8533 489.637 58.53 489.544 59.23C489.497 59.93 489.381 60.5367 489.194 61.05H459.794V54.05H484.014L479.674 57.34C480.094 55.1933 479.977 53.28 479.324 51.6C478.717 49.92 477.691 48.59 476.244 47.61C474.844 46.63 473.141 46.14 471.134 46.14C469.221 46.14 467.517 46.63 466.024 47.61C464.531 48.5433 463.387 49.9433 462.594 51.81C461.847 53.63 461.567 55.8467 461.754 58.46C461.567 60.7933 461.871 62.87 462.664 64.69C463.504 66.4633 464.717 67.84 466.304 68.82C467.937 69.8 469.804 70.29 471.904 70.29C474.004 70.29 475.777 69.8467 477.224 68.96C478.717 68.0733 479.884 66.8833 480.724 65.39L488.144 69.03C487.397 70.85 486.231 72.46 484.644 73.86C483.057 75.26 481.167 76.3567 478.974 77.15C476.827 77.9433 474.447 78.34 471.834 78.34ZM496.635 77.5V39.42H505.245V46.91L504.545 45.58C505.432 43.2933 506.879 41.5667 508.885 40.4C510.939 39.1867 513.319 38.58 516.025 38.58C518.825 38.58 521.299 39.1867 523.445 40.4C525.639 41.6133 527.342 43.3167 528.555 45.51C529.769 47.6567 530.375 50.1533 530.375 53V77.5H521.205V55.17C521.205 53.49 520.879 52.0433 520.225 50.83C519.572 49.6167 518.662 48.6833 517.495 48.03C516.375 47.33 515.045 46.98 513.505 46.98C512.012 46.98 510.682 47.33 509.515 48.03C508.349 48.6833 507.439 49.6167 506.785 50.83C506.132 52.0433 505.805 53.49 505.805 55.17V77.5H496.635ZM555.489 77.92C551.196 77.92 547.859 76.7533 545.479 74.42C543.146 72.04 541.979 68.7033 541.979 64.41V47.61H535.399V39.42H536.099C537.966 39.42 539.413 38.93 540.439 37.95C541.466 36.97 541.979 35.5467 541.979 33.68V30.74H551.149V39.42H559.899V47.61H551.149V63.92C551.149 65.18 551.359 66.2533 551.779 67.14C552.246 68.0267 552.946 68.7033 553.879 69.17C554.859 69.6367 556.096 69.87 557.589 69.87C557.916 69.87 558.289 69.8467 558.709 69.8C559.176 69.7533 559.619 69.7067 560.039 69.66V77.5C559.386 77.5933 558.639 77.6867 557.799 77.78C556.959 77.8733 556.189 77.92 555.489 77.92ZM585.324 78.34C581.59 78.34 578.184 77.4767 575.104 75.75C572.07 74.0233 569.644 71.6667 567.824 68.68C566.05 65.6933 565.164 62.2867 565.164 58.46C565.164 54.6333 566.05 51.2267 567.824 48.24C569.644 45.2533 572.07 42.8967 575.104 41.17C578.137 39.4433 581.544 38.58 585.324 38.58C589.057 38.58 592.44 39.4433 595.474 41.17C598.507 42.8967 600.91 45.2533 602.684 48.24C604.504 51.18 605.414 54.5867 605.414 58.46C605.414 62.2867 604.504 65.6933 602.684 68.68C600.864 71.6667 598.437 74.0233 595.404 75.75C592.37 77.4767 589.01 78.34 585.324 78.34ZM585.324 69.94C587.377 69.94 589.174 69.45 590.714 68.47C592.3 67.49 593.537 66.1367 594.424 64.41C595.357 62.6367 595.824 60.6533 595.824 58.46C595.824 56.22 595.357 54.26 594.424 52.58C593.537 50.8533 592.3 49.5 590.714 48.52C589.174 47.4933 587.377 46.98 585.324 46.98C583.224 46.98 581.38 47.4933 579.794 48.52C578.207 49.5 576.947 50.8533 576.014 52.58C575.127 54.26 574.684 56.22 574.684 58.46C574.684 60.6533 575.127 62.6367 576.014 64.41C576.947 66.1367 578.207 67.49 579.794 68.47C581.38 69.45 583.224 69.94 585.324 69.94Z"/>
</mask>
<path d="M68.04 77.5H67.04V78.5H68.04V77.5ZM68.04 25.35V24.35H67.04V25.35H68.04ZM102.69 25.35H103.69V24.35H102.69V25.35ZM102.69 33.75V34.75H103.69V33.75H102.69ZM77.56 33.75V32.75H76.56V33.75H77.56ZM77.56 47.12H76.56V48.12H77.56V47.12ZM101.29 47.12H102.29V46.12H101.29V47.12ZM101.29 55.52V56.52H102.29V55.52H101.29ZM77.56 55.52V54.52H76.56V55.52H77.56ZM77.56 69.1H76.56V70.1H77.56V69.1ZM102.69 69.1H103.69V68.1H102.69V69.1ZM102.69 77.5V78.5H103.69V77.5H102.69ZM69.04 77.5V25.35H67.04V77.5H69.04ZM68.04 26.35H102.69V24.35H68.04V26.35ZM101.69 25.35V33.75H103.69V25.35H101.69ZM102.69 32.75H77.56V34.75H102.69V32.75ZM76.56 33.75V47.12H78.56V33.75H76.56ZM77.56 48.12H101.29V46.12H77.56V48.12ZM100.29 47.12V55.52H102.29V47.12H100.29ZM101.29 54.52H77.56V56.52H101.29V54.52ZM76.56 55.52V69.1H78.56V55.52H76.56ZM77.56 70.1H102.69V68.1H77.56V70.1ZM101.69 69.1V77.5H103.69V69.1H101.69ZM102.69 76.5H68.04V78.5H102.69V76.5ZM108.901 77.5H107.901V78.5H108.901V77.5ZM108.901 39.42V38.42H107.901V39.42H108.901ZM117.511 39.42H118.511V38.42H117.511V39.42ZM117.511 48.24L116.679 48.7947L118.511 51.5428V48.24H117.511ZM116.531 46.77L115.562 46.5236L115.452 46.9546L115.699 47.3247L116.531 46.77ZM120.731 40.61L121.273 41.4506L121.273 41.4506L120.731 40.61ZM136.411 41.03L135.845 41.8545L135.845 41.8545L136.411 41.03ZM141.031 47.47L141.112 48.4667L142.302 48.3702L141.998 47.2155L141.031 47.47ZM138.441 47.68L137.508 47.321L136.937 48.8052L138.522 48.6767L138.441 47.68ZM143.691 40.89L144.23 41.7324L144.242 41.7246L143.691 40.89ZM158.951 40.4L158.451 41.2659L158.459 41.2706L158.951 40.4ZM163.991 45.51L163.116 45.9941L163.12 46.0021L163.991 45.51ZM165.811 77.5V78.5H166.811V77.5H165.811ZM156.641 77.5H155.641V78.5H156.641V77.5ZM153.211 48.03L152.665 48.8676L152.678 48.8761L152.691 48.8842L153.211 48.03ZM145.441 48.03L145.945 48.8938L145.958 48.8861L145.971 48.878L145.441 48.03ZM142.851 50.83L141.956 50.3828L141.956 50.3828L142.851 50.83ZM141.941 77.5V78.5H142.941V77.5H141.941ZM132.771 77.5H131.771V78.5H132.771V77.5ZM131.861 50.83L132.755 50.3828L132.755 50.3828L131.861 50.83ZM129.271 48.03L128.725 48.8676L128.745 48.8812L128.767 48.8938L129.271 48.03ZM121.571 48.03L122.075 48.8938L122.088 48.8861L122.101 48.878L121.571 48.03ZM118.981 50.83L119.875 51.2772L119.875 51.2772L118.981 50.83ZM118.071 77.5V78.5H119.071V77.5H118.071ZM109.901 77.5V39.42H107.901V77.5H109.901ZM108.901 40.42H117.511V38.42H108.901V40.42ZM116.511 39.42V48.24H118.511V39.42H116.511ZM118.343 47.6853L117.363 46.2153L115.699 47.3247L116.679 48.7947L118.343 47.6853ZM117.5 47.0164C118.147 44.4719 119.414 42.648 121.273 41.4506L120.189 39.7694C117.847 41.2786 116.315 43.5615 115.562 46.5236L117.5 47.0164ZM121.273 41.4506C123.189 40.2153 125.469 39.58 128.151 39.58V37.58C125.14 37.58 122.472 38.298 120.189 39.7694L121.273 41.4506ZM128.151 39.58C131.093 39.58 133.646 40.3451 135.845 41.8545L136.977 40.2055C134.416 38.4483 131.462 37.58 128.151 37.58V39.58ZM135.845 41.8545C138.038 43.3594 139.428 45.3087 140.064 47.7245L141.998 47.2155C141.234 44.3113 139.544 41.9672 136.977 40.2055L135.845 41.8545ZM140.95 46.4733L138.36 46.6833L138.522 48.6767L141.112 48.4667L140.95 46.4733ZM139.374 48.039C140.478 45.1691 142.106 43.0917 144.23 41.7323L143.152 40.0477C140.609 41.675 138.737 44.1243 137.508 47.321L139.374 48.039ZM144.242 41.7246C146.398 40.3017 148.886 39.58 151.741 39.58V37.58C148.529 37.58 145.651 38.3983 143.14 40.0554L144.242 41.7246ZM151.741 39.58C154.293 39.58 156.52 40.1503 158.451 41.2659L159.451 39.5341C157.182 38.2231 154.602 37.58 151.741 37.58V39.58ZM158.459 41.2706C160.442 42.3914 161.99 43.9597 163.116 45.9941L164.866 45.0259C163.565 42.6737 161.753 40.8353 159.443 39.5294L158.459 41.2706ZM163.12 46.0021C164.236 47.9768 164.811 50.2988 164.811 53H166.811C166.811 50.0078 166.172 47.3365 164.861 45.0179L163.12 46.0021ZM164.811 53V77.5H166.811V53H164.811ZM165.811 76.5H156.641V78.5H165.811V76.5ZM157.641 77.5V55.17H155.641V77.5H157.641ZM157.641 55.17C157.641 53.371 157.316 51.7641 156.625 50.3828L154.836 51.2772C155.359 52.3225 155.641 53.609 155.641 55.17H157.641ZM156.625 50.3828C155.941 49.0152 154.978 47.9347 153.731 47.1758L152.691 48.8842C153.591 49.432 154.307 50.2181 154.836 51.2772L156.625 50.3828ZM153.757 47.1924C152.491 46.3667 150.985 45.98 149.291 45.98V47.98C150.676 47.98 151.784 48.2933 152.665 48.8676L153.757 47.1924ZM149.291 45.98C147.675 45.98 146.205 46.3733 144.911 47.182L145.971 48.878C146.917 48.2867 148.013 47.98 149.291 47.98V45.98ZM144.937 47.1662C143.641 47.9222 142.646 49.0041 141.956 50.3828L143.745 51.2772C144.269 50.2293 145.001 49.4445 145.945 48.8938L144.937 47.1662ZM141.956 50.3828C141.266 51.7641 140.941 53.371 140.941 55.17H142.941C142.941 53.609 143.223 52.3225 143.745 51.2772L141.956 50.3828ZM140.941 55.17V77.5H142.941V55.17H140.941ZM141.941 76.5H132.771V78.5H141.941V76.5ZM133.771 77.5V55.17H131.771V77.5H133.771ZM133.771 55.17C133.771 53.371 133.446 51.7641 132.755 50.3828L130.966 51.2772C131.489 52.3225 131.771 53.609 131.771 55.17H133.771ZM132.755 50.3828C132.066 49.0041 131.071 47.9222 129.775 47.1662L128.767 48.8938C129.711 49.4445 130.442 50.2293 130.966 51.2772L132.755 50.3828ZM129.817 47.1924C128.556 46.3698 127.075 45.98 125.421 45.98V47.98C126.753 47.98 127.839 48.2902 128.725 48.8676L129.817 47.1924ZM125.421 45.98C123.805 45.98 122.335 46.3733 121.041 47.182L122.101 48.878C123.047 48.2867 124.143 47.98 125.421 47.98V45.98ZM121.067 47.1662C119.771 47.9222 118.776 49.0041 118.086 50.3828L119.875 51.2772C120.399 50.2293 121.131 49.4445 122.075 48.8938L121.067 47.1662ZM118.086 50.3828C117.396 51.7641 117.071 53.371 117.071 55.17H119.071C119.071 53.609 119.353 52.3225 119.875 51.2772L118.086 50.3828ZM117.071 55.17V77.5H119.071V55.17H117.071ZM118.071 76.5H108.901V78.5H118.071V76.5ZM178.189 77.01L177.777 77.9211L177.777 77.9211L178.189 77.01ZM173.639 73.23L172.796 73.7684L172.803 73.7792L173.639 73.23ZM173.429 61.82L174.297 62.3162L174.303 62.3056L173.429 61.82ZM177.769 57.62L178.265 58.4882L178.265 58.4882L177.769 57.62ZM185.189 55.24L185.343 56.228L185.35 56.227L185.189 55.24ZM197.649 53.21H198.649V52.0339L197.488 52.223L197.649 53.21ZM197.649 60.21L197.816 61.1959L198.649 61.0544V60.21H197.649ZM186.939 62.03L186.771 61.0441L186.762 61.0457L186.939 62.03ZM182.879 63.78L182.191 63.054L182.191 63.054L182.879 63.78ZM183.019 70.22L182.39 70.9972L182.41 71.0135L182.431 71.0287L183.019 70.22ZM191.839 70.15L192.32 71.0269L192.329 71.0216L191.839 70.15ZM195.269 66.72L194.404 66.2179L194.398 66.2284L194.392 66.2392L195.269 66.72ZM194.569 48.1L193.904 48.8474L193.919 48.8604L193.934 48.8727L194.569 48.1ZM184.279 48.03L184.845 48.8541L184.851 48.8504L184.279 48.03ZM180.989 52.16L180.552 53.0594L181.514 53.5269L181.916 52.5357L180.989 52.16ZM173.499 48.52L172.562 48.1713L172.245 49.0224L173.062 49.4194L173.499 48.52ZM176.999 43.34L177.673 44.079L177.674 44.078L176.999 43.34ZM182.739 39.84L182.381 38.9061L182.381 38.9061L182.739 39.84ZM198.139 40.33L197.699 41.2279L197.706 41.2314L197.713 41.2348L198.139 40.33ZM203.669 45.09L202.825 45.6269L202.832 45.6381L202.84 45.6491L203.669 45.09ZM205.699 77.5V78.5H206.699V77.5H205.699ZM197.019 77.5H196.019V78.5H197.019V77.5ZM197.019 70.99L196.948 69.9925L196.019 70.0589V70.99H197.019ZM198.979 70.85L199.836 71.3645L200.826 69.7155L198.908 69.8525L198.979 70.85ZM195.479 74.98L196.1 75.7635L196.108 75.757L196.116 75.7504L195.479 74.98ZM190.859 77.5L191.167 78.4512L191.179 78.4475L191.19 78.4435L190.859 77.5ZM185.119 77.34C182.568 77.34 180.405 76.9148 178.601 76.0989L177.777 77.9211C179.893 78.8785 182.349 79.34 185.119 79.34V77.34ZM178.601 76.0989C176.796 75.2822 175.433 74.1401 174.475 72.6808L172.803 73.7792C173.991 75.5866 175.662 76.9645 177.777 77.9211L178.601 76.0989ZM174.482 72.6916C173.521 71.1883 173.029 69.4424 173.029 67.42H171.029C171.029 69.7843 171.61 71.9117 172.796 73.7684L174.482 72.6916ZM173.029 67.42C173.029 65.4733 173.46 63.7814 174.297 62.3161L172.561 61.3239C171.531 63.1253 171.029 65.1667 171.029 67.42H173.029ZM174.303 62.3056C175.133 60.8113 176.436 59.5336 178.265 58.4882L177.273 56.7518C175.182 57.9464 173.591 59.4687 172.555 61.3344L174.303 62.3056ZM178.265 58.4882C180.09 57.4453 182.438 56.6819 185.343 56.228L185.034 54.252C181.966 54.7315 179.368 55.5547 177.273 56.7518L178.265 58.4882ZM185.35 56.227L197.81 54.197L197.488 52.223L185.028 54.253L185.35 56.227ZM196.649 53.21V60.21H198.649V53.21H196.649ZM197.481 59.2241L186.771 61.0441L187.106 63.0159L197.816 61.1959L197.481 59.2241ZM186.762 61.0457C184.842 61.3903 183.275 62.0276 182.191 63.054L183.567 64.506C184.256 63.8524 185.395 63.323 187.115 63.0143L186.762 61.0457ZM182.191 63.054C181.082 64.1043 180.549 65.4749 180.549 67.07H182.549C182.549 65.9585 182.902 65.1357 183.567 64.506L182.191 63.054ZM180.549 67.07C180.549 68.6657 181.165 70.0062 182.39 70.9972L183.648 69.4428C182.912 68.8471 182.549 68.0876 182.549 67.07H180.549ZM182.431 71.0287C183.657 71.9205 185.133 72.34 186.799 72.34V70.34C185.478 70.34 184.434 70.0128 183.607 69.4113L182.431 71.0287ZM186.799 72.34C188.853 72.34 190.704 71.913 192.32 71.0268L191.358 69.2732C190.081 69.9736 188.571 70.34 186.799 70.34V72.34ZM192.329 71.0216C193.979 70.0937 195.259 68.8178 196.146 67.2008L194.392 66.2392C193.692 67.5155 192.686 68.5263 191.349 69.2784L192.329 71.0216ZM196.134 67.2221C197.065 65.6179 197.529 63.8571 197.529 61.96H195.529C195.529 63.5162 195.153 64.9288 194.404 66.2179L196.134 67.2221ZM197.529 61.96V52.16H195.529V61.96H197.529ZM197.529 52.16C197.529 50.2154 196.732 48.5828 195.204 47.3273L193.934 48.8727C195.019 49.7639 195.529 50.8379 195.529 52.16H197.529ZM195.233 47.3526C193.748 46.0326 191.811 45.42 189.529 45.42V47.42C191.446 47.42 192.869 47.9274 193.904 48.8474L195.233 47.3526ZM189.529 45.42C187.374 45.42 185.422 46.014 183.707 47.2096L184.851 48.8504C186.215 47.8993 187.764 47.42 189.529 47.42V45.42ZM183.712 47.206C182.053 48.3468 180.833 49.8815 180.062 51.7843L181.916 52.5357C182.544 50.9851 183.518 49.7665 184.845 48.854L183.712 47.206ZM181.426 51.2606L173.936 47.6206L173.062 49.4194L180.552 53.0594L181.426 51.2606ZM174.436 48.8687C175.127 47.0117 176.203 45.4187 177.673 44.079L176.325 42.601C174.621 44.1546 173.364 46.015 172.562 48.1713L174.436 48.8687ZM177.674 44.078C179.209 42.6744 181.013 41.5718 183.096 40.7739L182.381 38.9061C180.078 39.7882 178.055 41.019 176.324 42.602L177.674 44.078ZM183.096 40.7739C185.165 39.9815 187.423 39.58 189.879 39.58V37.58C187.201 37.58 184.699 38.0185 182.381 38.9061L183.096 40.7739ZM189.879 39.58C192.88 39.58 195.478 40.1395 197.699 41.2279L198.579 39.4321C196.039 38.1872 193.131 37.58 189.879 37.58V39.58ZM197.713 41.2348C199.936 42.281 201.628 43.7462 202.825 45.6269L204.512 44.5531C203.096 42.3271 201.102 40.619 198.565 39.4252L197.713 41.2348ZM202.84 45.6491C204.069 47.4714 204.699 49.6281 204.699 52.16H206.699C206.699 49.2785 205.976 46.7219 204.498 44.5309L202.84 45.6491ZM204.699 52.16V77.5H206.699V52.16H204.699ZM205.699 76.5H197.019V78.5H205.699V76.5ZM198.019 77.5V70.99H196.019V77.5H198.019ZM197.09 71.9875L199.05 71.8475L198.908 69.8525L196.948 69.9925L197.09 71.9875ZM198.121 70.3355C197.195 71.8799 196.1 73.1677 194.841 74.2096L196.116 75.7504C197.564 74.5523 198.803 73.0868 199.836 71.3645L198.121 70.3355ZM194.857 74.1965C193.596 75.1968 192.155 75.9845 190.527 76.5565L191.19 78.4435C193.016 77.8022 194.655 76.9099 196.1 75.7635L194.857 74.1965ZM190.55 76.5488C188.938 77.0718 187.13 77.34 185.119 77.34V79.34C187.307 79.34 189.327 79.0482 191.167 78.4512L190.55 76.5488ZM224.744 91.5L225.103 90.5667L225.103 90.5667L224.744 91.5ZM218.444 87.58L219.132 86.854L219.131 86.8535L218.444 87.58ZM214.664 81.77L214.311 80.8343L213.394 81.1801L213.722 82.1038L214.664 81.77ZM223.204 78.55L224.158 78.2489L223.84 77.2417L222.851 77.6143L223.204 78.55ZM226.494 82.82L227.049 81.9879L227.043 81.9843L226.494 82.82ZM237.554 83.45L237.119 82.5498L237.107 82.5556L237.554 83.45ZM240.914 80.37L240.06 79.851L240.056 79.8576L240.052 79.8643L240.914 80.37ZM242.104 66.93L242.873 66.2898L241.104 64.1679V66.93H242.104ZM243.854 69.03L244.723 69.5261L245.067 68.9233L244.623 68.3898L243.854 69.03ZM238.604 74.21L239.074 75.0929L239.074 75.0929L238.604 74.21ZM221.594 73.51L221.09 74.3738L221.09 74.3738L221.594 73.51ZM215.014 66.79L215.888 66.3031L215.888 66.3031L215.014 66.79ZM215.014 47.61L215.884 48.103L215.884 48.103L215.014 47.61ZM221.524 41.03L222.024 41.8965L222.034 41.8901L221.524 41.03ZM238.394 40.4L237.902 41.2706L237.913 41.2769L237.925 41.2829L238.394 40.4ZM243.854 45.51L244.732 45.9889L245.017 45.4669L244.694 44.9675L243.854 45.51ZM242.594 47.82H241.594L243.472 48.2989L242.594 47.82ZM242.594 39.42V38.42H241.594V39.42H242.594ZM251.274 39.42H252.274V38.42H251.274V39.42ZM248.824 84.5L247.976 83.97L247.97 83.981L248.824 84.5ZM242.244 90.66L241.774 89.7776L241.768 89.781L242.244 90.66ZM237.344 66.23L237.846 67.0948L237.855 67.0899L237.344 66.23ZM240.844 62.59L241.722 63.0689L241.722 63.0689L240.844 62.59ZM240.774 52.02L239.891 52.4879L239.899 52.5036L239.908 52.519L240.774 52.02ZM237.274 48.31L236.752 49.1627L236.764 49.1699L237.274 48.31ZM227.054 48.31L226.555 47.4434L226.555 47.4434L227.054 48.31ZM223.414 52.02L222.541 51.5322L222.536 51.5411L223.414 52.02ZM223.414 62.52L222.536 62.9989L222.542 63.009L222.548 63.019L223.414 62.52ZM226.984 66.16L226.474 67.0199L226.485 67.0266L226.984 66.16ZM232.654 91.9C229.919 91.9 227.405 91.4519 225.103 90.5667L224.385 92.4333C226.937 93.4147 229.697 93.9 232.654 93.9V91.9ZM225.103 90.5667C222.791 89.6772 220.804 88.4384 219.132 86.854L217.757 88.306C219.631 90.0816 221.845 91.4561 224.385 92.4333L225.103 90.5667ZM219.131 86.8535C217.52 85.329 216.347 83.5269 215.607 81.4362L213.722 82.1038C214.568 84.4931 215.915 86.5644 217.757 88.3065L219.131 86.8535ZM215.017 82.7057L223.557 79.4857L222.851 77.6143L214.311 80.8343L215.017 82.7057ZM222.251 78.8511C222.884 80.8557 224.13 82.463 225.945 83.6557L227.043 81.9843C225.592 81.0304 224.645 79.791 224.158 78.2489L222.251 78.8511ZM225.94 83.6521C227.815 84.902 230.071 85.5 232.654 85.5V83.5C230.385 83.5 228.534 82.978 227.049 81.988L225.94 83.6521ZM232.654 85.5C234.647 85.5 236.438 85.126 238.002 84.3444L237.107 82.5556C235.87 83.174 234.395 83.5 232.654 83.5V85.5ZM237.99 84.3502C239.61 83.5661 240.881 82.4043 241.777 80.8757L240.052 79.8643C239.361 81.0423 238.392 81.9339 237.119 82.5498L237.99 84.3502ZM241.769 80.889C242.676 79.3946 243.104 77.6192 243.104 75.61H241.104C241.104 77.3341 240.739 78.7321 240.06 79.851L241.769 80.889ZM243.104 75.61V66.93H241.104V75.61H243.104ZM241.336 67.5702L243.086 69.6702L244.623 68.3898L242.873 66.2898L241.336 67.5702ZM242.986 68.5339C241.767 70.6669 240.151 72.2546 238.135 73.3271L239.074 75.0929C241.444 73.8321 243.328 71.9665 244.723 69.5261L242.986 68.5339ZM238.135 73.3271C236.103 74.4076 233.772 74.96 231.114 74.96V76.96C234.057 76.96 236.718 76.3458 239.074 75.0929L238.135 73.3271ZM231.114 74.96C227.728 74.96 224.731 74.1821 222.098 72.6462L221.09 74.3738C224.058 76.1046 227.408 76.96 231.114 76.96V74.96ZM222.098 72.6462C219.454 71.1037 217.388 68.9942 215.888 66.3031L214.141 67.2769C215.814 70.2791 218.135 72.6497 221.09 74.3738L222.098 72.6462ZM215.888 66.3031C214.391 63.6183 213.634 60.5917 213.634 57.2H211.634C211.634 60.9016 212.464 64.2684 214.141 67.2769L215.888 66.3031ZM213.634 57.2C213.634 53.7589 214.392 50.7357 215.884 48.103L214.144 47.117C212.463 50.0843 211.634 53.4544 211.634 57.2H213.634ZM215.884 48.103C217.384 45.4563 219.427 43.3928 222.024 41.8964L221.025 40.1636C218.115 41.8406 215.818 44.1637 214.144 47.117L215.884 48.103ZM222.034 41.8901C224.619 40.3568 227.567 39.58 230.904 39.58V37.58C227.242 37.58 223.936 38.4366 221.014 40.1699L222.034 41.8901ZM230.904 39.58C233.605 39.58 235.928 40.1544 237.902 41.2706L238.886 39.5294C236.568 38.2189 233.896 37.58 230.904 37.58V39.58ZM237.925 41.2829C239.957 42.3637 241.653 43.9449 243.014 46.0525L244.694 44.9675C243.162 42.5951 241.219 40.7697 238.864 39.5171L237.925 41.2829ZM242.976 45.0311L241.716 47.3411L243.472 48.2989L244.732 45.9889L242.976 45.0311ZM243.594 47.82V39.42H241.594V47.82H243.594ZM242.594 40.42H251.274V38.42H242.594V40.42ZM250.274 39.42V75.61H252.274V39.42H250.274ZM250.274 75.61C250.274 78.7506 249.503 81.5276 247.976 83.97L249.672 85.03C251.412 82.2457 252.274 79.0961 252.274 75.61H250.274ZM247.97 83.981C246.48 86.435 244.422 88.3654 241.774 89.7776L242.715 91.5424C245.667 89.9679 247.996 87.7917 249.679 85.019L247.97 83.981ZM241.768 89.781C239.183 91.1829 236.155 91.9 232.654 91.9V93.9C236.434 93.9 239.799 93.1238 242.721 91.539L241.768 89.781ZM232.234 68.49C234.34 68.49 236.223 68.0375 237.846 67.0948L236.842 65.3652C235.572 66.1025 234.048 66.49 232.234 66.49V68.49ZM237.855 67.0899C239.504 66.1105 240.797 64.7649 241.722 63.0689L239.966 62.1111C239.212 63.4951 238.171 64.5761 236.834 65.3701L237.855 67.0899ZM241.722 63.0689C242.653 61.362 243.104 59.4196 243.104 57.27H241.104C241.104 59.1337 240.715 60.738 239.966 62.1111L241.722 63.0689ZM243.104 57.27C243.104 55.1534 242.624 53.2281 241.641 51.521L239.908 52.519C240.698 53.8919 241.104 55.4666 241.104 57.27H243.104ZM241.658 51.5521C240.735 49.8087 239.442 48.4339 237.785 47.4501L236.764 49.1699C238.094 49.9594 239.133 51.0579 239.891 52.4879L241.658 51.5521ZM237.797 47.4574C236.174 46.4625 234.308 45.98 232.234 45.98V47.98C233.987 47.98 235.482 48.3842 236.752 49.1626L237.797 47.4574ZM232.234 45.98C230.16 45.98 228.259 46.4627 226.555 47.4434L227.553 49.1766C228.93 48.384 230.482 47.98 232.234 47.98V45.98ZM226.555 47.4434C224.855 48.4223 223.514 49.7916 222.541 51.5322L224.287 52.5078C225.088 51.0751 226.174 49.971 227.553 49.1766L226.555 47.4434ZM222.536 51.5411C221.607 53.2446 221.154 55.1627 221.154 57.27H223.154C223.154 55.4573 223.541 53.8754 224.292 52.4989L222.536 51.5411ZM221.154 57.27C221.154 59.3773 221.607 61.2954 222.536 62.9989L224.292 62.0411C223.541 60.6646 223.154 59.0827 223.154 57.27H221.154ZM222.548 63.019C223.518 64.7042 224.829 66.0434 226.474 67.0199L227.495 65.3001C226.153 64.5033 225.084 63.4158 224.281 62.021L222.548 63.019ZM226.485 67.0266C228.192 68.0095 230.118 68.49 232.234 68.49V66.49C230.431 66.49 228.856 66.0839 227.483 65.2934L226.485 67.0266ZM259.838 77.5H258.838V78.5H259.838V77.5ZM259.838 39.42V38.42H258.838V39.42H259.838ZM268.448 39.42H269.448V38.42H268.448V39.42ZM268.448 47.89L267.574 48.3756L269.448 51.7491V47.89H268.448ZM267.748 46.63L266.794 46.3326L266.666 46.7414L266.874 47.1156L267.748 46.63ZM271.878 40.68L271.373 39.8169L271.364 39.8225L271.878 40.68ZM280.978 39H281.978V38H280.978V39ZM280.978 47.12V48.12H281.978V47.12H280.978ZM271.388 49.57L272.095 50.2771L272.101 50.272L272.106 50.2668L271.388 49.57ZM269.008 77.5V78.5H270.008V77.5H269.008ZM260.838 77.5V39.42H258.838V77.5H260.838ZM259.838 40.42H268.448V38.42H259.838V40.42ZM267.448 39.42V47.89H269.448V39.42H267.448ZM269.323 47.4044L268.623 46.1444L266.874 47.1156L267.574 48.3756L269.323 47.4044ZM268.703 46.9274C269.544 44.228 270.804 42.491 272.393 41.5375L271.364 39.8225C269.22 41.109 267.726 43.3387 266.794 46.3326L268.703 46.9274ZM272.384 41.543C274.116 40.5291 276.22 40 278.738 40V38C275.936 38 273.468 38.5909 271.373 39.817L272.384 41.543ZM278.738 40H280.978V38H278.738V40ZM279.978 39V47.12H281.978V39H279.978ZM280.978 46.12H277.688V48.12H280.978V46.12ZM277.688 46.12C274.848 46.12 272.474 47.0169 270.671 48.8732L272.106 50.2668C273.476 48.8564 275.302 48.12 277.688 48.12V46.12ZM270.681 48.8629C268.857 50.6871 268.008 53.2117 268.008 56.29H270.008C270.008 53.5816 270.746 51.6262 272.095 50.2771L270.681 48.8629ZM268.008 56.29V77.5H270.008V56.29H268.008ZM269.008 76.5H259.838V78.5H269.008V76.5ZM293.79 75.68L293.274 76.5363L293.274 76.5363L293.79 75.68ZM286.93 68.47L287.81 67.9959L286.93 68.47ZM286.93 48.24L286.058 47.7497L286.056 47.7544L286.93 48.24ZM293.72 41.17L293.208 40.3113L293.201 40.315L293.72 41.17ZM311.22 40.05L310.819 40.9662L310.826 40.9691L311.22 40.05ZM317.03 44.11L316.294 44.7866L316.294 44.7866L317.03 44.11ZM320.67 50.06L319.734 50.4111L319.736 50.4176L320.67 50.06ZM321.79 59.23L320.799 59.0978L320.794 59.1306L320.792 59.1635L321.79 59.23ZM321.44 61.05V62.05H322.14L322.38 61.3917L321.44 61.05ZM292.04 61.05H291.04V62.05H292.04V61.05ZM292.04 54.05V53.05H291.04V54.05H292.04ZM316.26 54.05L316.864 54.8469L319.234 53.05H316.26V54.05ZM311.92 57.34L310.939 57.148L310.435 59.7203L312.524 58.1369L311.92 57.34ZM311.57 51.6L310.629 51.9396L310.634 51.9511L310.638 51.9624L311.57 51.6ZM308.49 47.61L307.917 48.4292L307.923 48.4336L307.929 48.4379L308.49 47.61ZM298.27 47.61L298.8 48.458L298.809 48.4521L298.819 48.446L298.27 47.61ZM294.84 51.81L293.92 51.4188L293.915 51.4304L294.84 51.81ZM294 58.46L294.997 58.5397L295.003 58.4643L294.997 58.3888L294 58.46ZM294.91 64.69L293.993 65.0896L294 65.1039L294.006 65.1181L294.91 64.69ZM298.55 68.82L298.024 69.6709L298.036 69.6775L298.55 68.82ZM309.47 68.96L308.959 68.1001L308.947 68.1074L309.47 68.96ZM312.97 65.39L313.41 64.4922L312.562 64.0759L312.098 64.8997L312.97 65.39ZM320.39 69.03L321.315 69.4096L321.67 68.5442L320.83 68.1322L320.39 69.03ZM316.89 73.86L317.552 74.6098L317.552 74.6098L316.89 73.86ZM311.22 77.15L310.88 76.2096L310.873 76.212L311.22 77.15ZM304.08 77.34C300.316 77.34 297.07 76.4903 294.306 74.8237L293.274 76.5363C296.39 78.4164 300.004 79.34 304.08 79.34V77.34ZM294.306 74.8237C291.52 73.1432 289.359 70.8721 287.81 67.9959L286.05 68.9441C287.767 72.1346 290.18 74.6701 293.274 76.5363L294.306 74.8237ZM287.81 67.9959C286.261 65.1184 285.48 61.9231 285.48 58.39H283.48C283.48 62.2302 284.332 65.7549 286.05 68.9441L287.81 67.9959ZM285.48 58.39C285.48 54.7095 286.264 51.4976 287.804 48.7256L286.056 47.7544C284.329 50.8624 283.48 54.4171 283.48 58.39H285.48ZM287.802 48.7303C289.4 45.8889 291.543 43.6598 294.239 42.025L293.201 40.315C290.203 42.1335 287.82 44.6177 286.058 47.7497L287.802 48.7303ZM294.232 42.0287C296.963 40.3995 300.004 39.58 303.38 39.58V37.58C299.663 37.58 296.264 38.4872 293.208 40.3113L294.232 42.0287ZM303.38 39.58C306.259 39.58 308.73 40.0523 310.819 40.9662L311.621 39.1338C309.23 38.0877 306.475 37.58 303.38 37.58V39.58ZM310.826 40.9691C312.991 41.8969 314.808 43.1704 316.294 44.7866L317.766 43.4334C316.078 41.5963 314.023 40.1631 311.614 39.1309L310.826 40.9691ZM316.294 44.7866C317.792 46.4167 318.938 48.289 319.734 50.4111L321.606 49.7089C320.722 47.351 319.442 45.2566 317.766 43.4334L316.294 44.7866ZM319.736 50.4176C320.529 52.4867 320.93 54.7442 320.93 57.2H322.93C322.93 54.5224 322.491 52.02 321.604 49.7024L319.736 50.4176ZM320.93 57.2C320.93 57.8058 320.887 58.4382 320.799 59.0978L322.781 59.3622C322.88 58.6218 322.93 57.9009 322.93 57.2H320.93ZM320.792 59.1635C320.75 59.7947 320.647 60.3045 320.5 60.7083L322.38 61.3917C322.606 60.7689 322.737 60.0653 322.788 59.2965L320.792 59.1635ZM321.44 60.05H292.04V62.05H321.44V60.05ZM293.04 61.05V54.05H291.04V61.05H293.04ZM292.04 55.05H316.26V53.05H292.04V55.05ZM315.656 53.2531L311.316 56.5431L312.524 58.1369L316.864 54.8469L315.656 53.2531ZM312.901 57.532C313.35 55.2395 313.237 53.1284 312.502 51.2376L310.638 51.9624C311.209 53.4316 311.33 55.1472 310.939 57.148L312.901 57.532ZM312.511 51.2604C311.834 49.3863 310.677 47.8834 309.051 46.7821L307.929 48.4379C309.197 49.2966 310.093 50.4537 310.629 51.9396L312.511 51.2604ZM309.063 46.7908C307.468 45.6737 305.555 45.14 303.38 45.14V47.14C305.218 47.14 306.712 47.5863 307.917 48.4292L309.063 46.7908ZM303.38 45.14C301.286 45.14 299.389 45.6793 297.721 46.774L298.819 48.446C300.137 47.5807 301.647 47.14 303.38 47.14V45.14ZM297.74 46.762C296.047 47.8199 294.781 49.3931 293.92 51.4189L295.76 52.2011C296.486 50.4936 297.506 49.2668 298.8 48.458L297.74 46.762ZM293.915 51.4304C293.094 53.4324 292.808 55.8129 293.003 58.5312L294.997 58.3888C294.818 55.8805 295.093 53.8276 295.765 52.1896L293.915 51.4304ZM293.003 58.3803C292.806 60.8482 293.123 63.094 293.993 65.0896L295.827 64.2904C295.11 62.646 294.821 60.7385 294.997 58.5397L293.003 58.3803ZM294.006 65.1181C294.924 67.0563 296.265 68.5839 298.025 69.6708L299.075 67.9692C297.662 67.0961 296.576 65.8704 295.814 64.2619L294.006 65.1181ZM298.036 69.6775C299.84 70.7601 301.888 71.29 304.15 71.29V69.29C302.212 69.29 300.527 68.8399 299.064 67.9625L298.036 69.6775ZM304.15 71.29C306.391 71.29 308.355 70.8162 309.993 69.8126L308.947 68.1074C307.692 68.8772 306.109 69.29 304.15 69.29V71.29ZM309.981 69.8199C311.622 68.845 312.914 67.5285 313.842 65.8803L312.098 64.8997C311.346 66.2382 310.304 67.3016 308.959 68.1001L309.981 69.8199ZM312.53 66.2878L319.95 69.9278L320.83 68.1322L313.41 64.4922L312.53 66.2878ZM319.465 68.6504C318.781 70.3178 317.709 71.8039 316.228 73.1102L317.552 74.6098C319.245 73.1161 320.506 71.3822 321.315 69.4096L319.465 68.6504ZM316.228 73.1102C314.745 74.4189 312.967 75.4547 310.88 76.2096L311.56 78.0904C313.86 77.2587 315.862 76.1011 317.552 74.6098L316.228 73.1102ZM310.873 76.212C308.852 76.9589 306.592 77.34 304.08 77.34V79.34C306.795 79.34 309.294 78.9277 311.567 78.088L310.873 76.212ZM337.001 75.75L336.491 76.6099L336.499 76.6145L336.507 76.6191L337.001 75.75ZM329.931 68.61L329.062 69.1047L329.066 69.1105L329.931 68.61ZM329.931 48.24L330.797 48.7405L330.797 48.7405L329.931 48.24ZM337.001 41.17L336.507 40.3009L336.501 40.3043L337.001 41.17ZM354.781 40.05L354.394 40.972L354.402 40.9753L354.41 40.9785L354.781 40.05ZM360.801 43.97L360.094 44.6771L360.104 44.6869L360.114 44.6965L360.801 43.97ZM364.511 49.85L364.91 50.7671L365.744 50.4044L365.462 49.5396L364.511 49.85ZM356.461 53.35L355.522 53.6936L355.887 54.6902L356.86 54.2671L356.461 53.35ZM352.891 48.73L352.31 49.5438L352.321 49.5514L352.891 48.73ZM341.831 48.45L341.306 47.5991L341.294 47.6063L341.831 48.45ZM338.191 52.51L337.302 52.0532L337.302 52.0532L338.191 52.51ZM338.191 64.41L337.302 64.8668L337.302 64.8668L338.191 64.41ZM341.831 68.47L341.294 69.3137L341.306 69.3208L341.831 68.47ZM352.961 68.19L353.543 69.0037L353.543 69.0037L352.961 68.19ZM356.461 63.5L356.873 62.5888L355.885 62.1417L355.52 63.1637L356.461 63.5ZM364.511 67.14L365.456 67.4685L365.756 66.6054L364.923 66.2288L364.511 67.14ZM360.871 72.95L361.579 73.6572L361.588 73.6474L360.871 72.95ZM354.851 76.94L355.223 77.8685L355.231 77.8653L355.239 77.862L354.851 76.94ZM347.221 77.34C343.6 77.34 340.366 76.5147 337.496 74.8809L336.507 76.6191C339.703 78.4386 343.283 79.34 347.221 79.34V77.34ZM337.512 74.8901C334.671 73.2036 332.437 70.9469 330.797 68.1095L329.066 69.1105C330.879 72.2464 333.358 74.7497 336.491 76.6099L337.512 74.8901ZM330.8 68.1153C329.167 65.2451 328.341 62.0114 328.341 58.39H326.341C326.341 62.3286 327.243 65.9082 329.062 69.1047L330.8 68.1153ZM328.341 58.39C328.341 54.7684 329.167 51.5607 330.797 48.7405L329.066 47.7395C327.243 50.8926 326.341 54.4516 326.341 58.39H328.341ZM330.797 48.7405C332.436 45.9055 334.667 43.6747 337.502 42.0357L336.501 40.3043C333.363 42.1186 330.88 44.6012 329.066 47.7395L330.797 48.7405ZM337.496 42.0391C340.366 40.4053 343.6 39.58 347.221 39.58V37.58C343.283 37.58 339.703 38.4814 336.507 40.3009L337.496 42.0391ZM347.221 39.58C349.804 39.58 352.192 40.047 354.394 40.972L355.169 39.128C352.704 38.093 350.052 37.58 347.221 37.58V39.58ZM354.41 40.9785C356.625 41.8645 358.515 43.0983 360.094 44.6771L361.508 43.2629C359.727 41.4817 357.604 40.1022 355.153 39.1215L354.41 40.9785ZM360.114 44.6965C361.718 46.2138 362.865 48.0302 363.561 50.1604L365.462 49.5396C364.664 47.0965 363.338 44.9929 361.489 43.2435L360.114 44.6965ZM364.113 48.9329L356.063 52.4329L356.86 54.2671L364.91 50.7671L364.113 48.9329ZM357.4 53.0064C356.629 50.8988 355.31 49.1923 353.462 47.9086L352.321 49.5514C353.832 50.601 354.893 51.9745 355.522 53.6936L357.4 53.0064ZM353.473 47.9163C351.658 46.6198 349.561 45.98 347.221 45.98V47.98C349.175 47.98 350.858 48.5068 352.31 49.5437L353.473 47.9163ZM347.221 45.98C345.044 45.98 343.062 46.5142 341.306 47.5992L342.357 49.3008C343.774 48.4258 345.386 47.98 347.221 47.98V45.98ZM341.294 47.6063C339.595 48.6878 338.264 50.1789 337.302 52.0532L339.081 52.9668C339.892 51.3877 340.988 50.1722 342.368 49.2937L341.294 47.6063ZM337.302 52.0532C336.332 53.9415 335.861 56.0857 335.861 58.46H337.861C337.861 56.3543 338.277 54.5318 339.081 52.9668L337.302 52.0532ZM335.861 58.46C335.861 60.8343 336.332 62.9785 337.302 64.8668L339.081 63.9532C338.277 62.3882 337.861 60.5657 337.861 58.46H335.861ZM337.302 64.8668C338.264 66.7411 339.595 68.2322 341.294 69.3137L342.368 67.6263C340.988 66.7478 339.892 65.5323 339.081 63.9532L337.302 64.8668ZM341.306 69.3208C343.062 70.4058 345.044 70.94 347.221 70.94V68.94C345.386 68.94 343.774 68.4942 342.357 67.6192L341.306 69.3208ZM347.221 70.94C349.603 70.94 351.724 70.3028 353.543 69.0037L352.38 67.3763C350.932 68.4105 349.227 68.94 347.221 68.94V70.94ZM353.543 69.0037C355.348 67.7139 356.637 65.981 357.403 63.8363L355.52 63.1637C354.886 64.939 353.841 66.3328 352.38 67.3763L353.543 69.0037ZM356.049 64.4112L364.099 68.0512L364.923 66.2288L356.873 62.5888L356.049 64.4112ZM363.567 66.8115C362.871 68.8118 361.739 70.6244 360.155 72.2526L361.588 73.6474C363.364 71.8223 364.658 69.7615 365.456 67.4685L363.567 66.8115ZM360.164 72.2429C358.582 73.8253 356.686 75.0849 354.464 76.018L355.239 77.862C357.684 76.8351 359.801 75.4347 361.578 73.6571L360.164 72.2429ZM354.48 76.0115C352.276 76.8933 349.86 77.34 347.221 77.34V79.34C350.09 79.34 352.76 78.8534 355.223 77.8685L354.48 76.0115ZM371.469 77.5H370.469V78.5H371.469V77.5ZM371.469 39.42V38.42H370.469V39.42H371.469ZM380.639 39.42H381.639V38.42H380.639V39.42ZM380.639 77.5V78.5H381.639V77.5H380.639ZM371.469 35.15H370.469V36.15H371.469V35.15ZM371.469 25.35V24.35H370.469V25.35H371.469ZM380.639 25.35H381.639V24.35H380.639V25.35ZM380.639 35.15V36.15H381.639V35.15H380.639ZM372.469 77.5V39.42H370.469V77.5H372.469ZM371.469 40.42H380.639V38.42H371.469V40.42ZM379.639 39.42V77.5H381.639V39.42H379.639ZM380.639 76.5H371.469V78.5H380.639V76.5ZM372.469 35.15V25.35H370.469V35.15H372.469ZM371.469 26.35H380.639V24.35H371.469V26.35ZM379.639 25.35V35.15H381.639V25.35H379.639ZM380.639 34.15H371.469V36.15H380.639V34.15ZM389.106 77.5H388.106V78.5H389.106V77.5ZM389.106 39.42V38.42H388.106V39.42H389.106ZM397.716 39.42H398.716V38.42H397.716V39.42ZM397.716 48.24L396.884 48.7947L398.716 51.5428V48.24H397.716ZM396.736 46.77L395.767 46.5236L395.657 46.9546L395.904 47.3247L396.736 46.77ZM400.936 40.61L401.478 41.4506L401.478 41.4506L400.936 40.61ZM416.616 41.03L416.05 41.8545L416.05 41.8545L416.616 41.03ZM421.236 47.47L421.317 48.4667L422.507 48.3702L422.203 47.2155L421.236 47.47ZM418.646 47.68L417.713 47.321L417.142 48.8052L418.727 48.6767L418.646 47.68ZM423.896 40.89L424.435 41.7324L424.447 41.7246L423.896 40.89ZM439.156 40.4L438.656 41.2659L438.664 41.2706L439.156 40.4ZM444.196 45.51L443.321 45.9941L443.325 46.0021L444.196 45.51ZM446.016 77.5V78.5H447.016V77.5H446.016ZM436.846 77.5H435.846V78.5H436.846V77.5ZM433.416 48.03L432.87 48.8676L432.883 48.8761L432.896 48.8842L433.416 48.03ZM425.646 48.03L426.15 48.8938L426.163 48.8861L426.176 48.878L425.646 48.03ZM423.056 50.83L422.162 50.3828L422.162 50.3828L423.056 50.83ZM422.146 77.5V78.5H423.146V77.5H422.146ZM412.976 77.5H411.976V78.5H412.976V77.5ZM412.066 50.83L412.96 50.3828L412.96 50.3828L412.066 50.83ZM409.476 48.03L408.93 48.8676L408.951 48.8812L408.972 48.8938L409.476 48.03ZM401.776 48.03L402.28 48.8938L402.293 48.8861L402.306 48.878L401.776 48.03ZM399.186 50.83L400.08 51.2772L400.08 51.2772L399.186 50.83ZM398.276 77.5V78.5H399.276V77.5H398.276ZM390.106 77.5V39.42H388.106V77.5H390.106ZM389.106 40.42H397.716V38.42H389.106V40.42ZM396.716 39.42V48.24H398.716V39.42H396.716ZM398.548 47.6853L397.568 46.2153L395.904 47.3247L396.884 48.7947L398.548 47.6853ZM397.705 47.0164C398.352 44.4719 399.62 42.648 401.478 41.4506L400.394 39.7694C398.052 41.2786 396.52 43.5615 395.767 46.5236L397.705 47.0164ZM401.478 41.4506C403.394 40.2153 405.674 39.58 408.356 39.58V37.58C405.345 37.58 402.677 38.298 400.394 39.7694L401.478 41.4506ZM408.356 39.58C411.298 39.58 413.851 40.3451 416.05 41.8545L417.182 40.2055C414.621 38.4483 411.667 37.58 408.356 37.58V39.58ZM416.05 41.8545C418.243 43.3594 419.633 45.3087 420.269 47.7245L422.203 47.2155C421.439 44.3113 419.749 41.9672 417.182 40.2055L416.05 41.8545ZM421.155 46.4733L418.565 46.6833L418.727 48.6767L421.317 48.4667L421.155 46.4733ZM419.579 48.039C420.683 45.1691 422.311 43.0917 424.435 41.7323L423.357 40.0477C420.814 41.675 418.942 44.1243 417.713 47.321L419.579 48.039ZM424.447 41.7246C426.603 40.3017 429.091 39.58 431.946 39.58V37.58C428.734 37.58 425.856 38.3983 423.345 40.0554L424.447 41.7246ZM431.946 39.58C434.498 39.58 436.725 40.1503 438.656 41.2659L439.656 39.5341C437.387 38.2231 434.807 37.58 431.946 37.58V39.58ZM438.664 41.2706C440.647 42.3914 442.195 43.9597 443.321 45.9941L445.071 45.0259C443.77 42.6737 441.958 40.8353 439.648 39.5294L438.664 41.2706ZM443.325 46.0021C444.442 47.9768 445.016 50.2988 445.016 53H447.016C447.016 50.0078 446.377 47.3365 445.067 45.0179L443.325 46.0021ZM445.016 53V77.5H447.016V53H445.016ZM446.016 76.5H436.846V78.5H446.016V76.5ZM437.846 77.5V55.17H435.846V77.5H437.846ZM437.846 55.17C437.846 53.371 437.521 51.7641 436.83 50.3828L435.042 51.2772C435.564 52.3225 435.846 53.609 435.846 55.17H437.846ZM436.83 50.3828C436.147 49.0152 435.183 47.9347 433.936 47.1758L432.896 48.8842C433.796 49.432 434.512 50.2181 435.042 51.2772L436.83 50.3828ZM433.962 47.1924C432.696 46.3667 431.19 45.98 429.496 45.98V47.98C430.882 47.98 431.989 48.2933 432.87 48.8676L433.962 47.1924ZM429.496 45.98C427.88 45.98 426.41 46.3733 425.116 47.182L426.176 48.878C427.122 48.2867 428.218 47.98 429.496 47.98V45.98ZM425.142 47.1662C423.846 47.9222 422.851 49.0041 422.162 50.3828L423.95 51.2772C424.474 50.2293 425.206 49.4445 426.15 48.8938L425.142 47.1662ZM422.162 50.3828C421.471 51.7641 421.146 53.371 421.146 55.17H423.146C423.146 53.609 423.428 52.3225 423.95 51.2772L422.162 50.3828ZM421.146 55.17V77.5H423.146V55.17H421.146ZM422.146 76.5H412.976V78.5H422.146V76.5ZM413.976 77.5V55.17H411.976V77.5H413.976ZM413.976 55.17C413.976 53.371 413.651 51.7641 412.96 50.3828L411.172 51.2772C411.694 52.3225 411.976 53.609 411.976 55.17H413.976ZM412.96 50.3828C412.271 49.0041 411.276 47.9222 409.98 47.1662L408.972 48.8938C409.916 49.4445 410.648 50.2293 411.172 51.2772L412.96 50.3828ZM410.022 47.1924C408.761 46.3698 407.28 45.98 405.626 45.98V47.98C406.958 47.98 408.044 48.2902 408.93 48.8676L410.022 47.1924ZM405.626 45.98C404.01 45.98 402.54 46.3733 401.246 47.182L402.306 48.878C403.252 48.2867 404.348 47.98 405.626 47.98V45.98ZM401.272 47.1662C399.976 47.9222 398.981 49.0041 398.292 50.3828L400.08 51.2772C400.604 50.2293 401.336 49.4445 402.28 48.8938L401.272 47.1662ZM398.292 50.3828C397.601 51.7641 397.276 53.371 397.276 55.17H399.276C399.276 53.609 399.558 52.3225 400.08 51.2772L398.292 50.3828ZM397.276 55.17V77.5H399.276V55.17H397.276ZM398.276 76.5H389.106V78.5H398.276V76.5ZM461.544 75.68L461.027 76.5363L461.027 76.5363L461.544 75.68ZM454.684 68.47L455.564 67.9959L454.684 68.47ZM454.684 48.24L453.812 47.7497L453.81 47.7544L454.684 48.24ZM461.474 41.17L460.961 40.3113L460.955 40.315L461.474 41.17ZM478.974 40.05L478.573 40.9662L478.58 40.9691L478.974 40.05ZM484.784 44.11L484.048 44.7866L484.048 44.7866L484.784 44.11ZM488.424 50.06L487.488 50.4111L487.49 50.4176L488.424 50.06ZM489.544 59.23L488.553 59.0978L488.548 59.1306L488.546 59.1635L489.544 59.23ZM489.194 61.05V62.05H489.894L490.134 61.3917L489.194 61.05ZM459.794 61.05H458.794V62.05H459.794V61.05ZM459.794 54.05V53.05H458.794V54.05H459.794ZM484.014 54.05L484.618 54.8469L486.988 53.05H484.014V54.05ZM479.674 57.34L478.693 57.148L478.189 59.7203L480.278 58.1369L479.674 57.34ZM479.324 51.6L478.383 51.9396L478.387 51.9511L478.392 51.9624L479.324 51.6ZM476.244 47.61L475.67 48.4292L475.677 48.4336L475.683 48.4379L476.244 47.61ZM466.024 47.61L466.554 48.458L466.563 48.4521L466.573 48.446L466.024 47.61ZM462.594 51.81L461.674 51.4188L461.669 51.4304L462.594 51.81ZM461.754 58.46L462.751 58.5397L462.757 58.4643L462.751 58.3888L461.754 58.46ZM462.664 64.69L461.747 65.0896L461.753 65.1039L461.76 65.1181L462.664 64.69ZM466.304 68.82L465.778 69.6709L465.789 69.6775L466.304 68.82ZM477.224 68.96L476.713 68.1001L476.701 68.1074L477.224 68.96ZM480.724 65.39L481.164 64.4922L480.316 64.0759L479.852 64.8997L480.724 65.39ZM488.144 69.03L489.069 69.4096L489.424 68.5442L488.584 68.1322L488.144 69.03ZM484.644 73.86L485.306 74.6098L485.306 74.6098L484.644 73.86ZM478.974 77.15L478.634 76.2096L478.627 76.212L478.974 77.15ZM471.834 77.34C468.07 77.34 464.823 76.4903 462.06 74.8237L461.027 76.5363C464.144 78.4164 467.758 79.34 471.834 79.34V77.34ZM462.06 74.8237C459.274 73.1432 457.113 70.8721 455.564 67.9959L453.803 68.9441C455.521 72.1346 457.934 74.6701 461.027 76.5363L462.06 74.8237ZM455.564 67.9959C454.015 65.1184 453.234 61.9231 453.234 58.39H451.234C451.234 62.2302 452.086 65.7549 453.803 68.9441L455.564 67.9959ZM453.234 58.39C453.234 54.7095 454.018 51.4976 455.558 48.7256L453.81 47.7544C452.083 50.8624 451.234 54.4171 451.234 58.39H453.234ZM455.555 48.7303C457.154 45.8889 459.297 43.6598 461.993 42.025L460.955 40.315C457.957 42.1335 455.574 44.6177 453.812 47.7497L455.555 48.7303ZM461.986 42.0287C464.716 40.3995 467.758 39.58 471.134 39.58V37.58C467.417 37.58 464.018 38.4872 460.961 40.3113L461.986 42.0287ZM471.134 39.58C474.012 39.58 476.484 40.0523 478.573 40.9662L479.375 39.1338C476.984 38.0877 474.229 37.58 471.134 37.58V39.58ZM478.58 40.9691C480.745 41.8969 482.562 43.1704 484.048 44.7866L485.52 43.4334C483.832 41.5963 481.776 40.1631 479.368 39.1309L478.58 40.9691ZM484.048 44.7866C485.546 46.4167 486.692 48.289 487.488 50.4111L489.36 49.7089C488.476 47.351 487.196 45.2566 485.52 43.4334L484.048 44.7866ZM487.49 50.4176C488.282 52.4867 488.684 54.7442 488.684 57.2H490.684C490.684 54.5224 490.245 52.02 489.358 49.7024L487.49 50.4176ZM488.684 57.2C488.684 57.8058 488.641 58.4382 488.553 59.0978L490.535 59.3622C490.634 58.6218 490.684 57.9009 490.684 57.2H488.684ZM488.546 59.1635C488.504 59.7947 488.401 60.3045 488.254 60.7083L490.134 61.3917C490.36 60.7689 490.49 60.0653 490.542 59.2965L488.546 59.1635ZM489.194 60.05H459.794V62.05H489.194V60.05ZM460.794 61.05V54.05H458.794V61.05H460.794ZM459.794 55.05H484.014V53.05H459.794V55.05ZM483.41 53.2531L479.07 56.5431L480.278 58.1369L484.618 54.8469L483.41 53.2531ZM480.655 57.532C481.104 55.2395 480.991 53.1284 480.256 51.2376L478.392 51.9624C478.963 53.4316 479.084 55.1472 478.693 57.148L480.655 57.532ZM480.264 51.2604C479.588 49.3863 478.431 47.8834 476.805 46.7821L475.683 48.4379C476.951 49.2966 477.847 50.4537 478.383 51.9396L480.264 51.2604ZM476.817 46.7908C475.222 45.6737 473.309 45.14 471.134 45.14V47.14C472.972 47.14 474.466 47.5863 475.67 48.4292L476.817 46.7908ZM471.134 45.14C469.04 45.14 467.143 45.6793 465.475 46.774L466.573 48.446C467.891 47.5807 469.401 47.14 471.134 47.14V45.14ZM465.494 46.762C463.801 47.8199 462.535 49.3931 461.674 51.4189L463.514 52.2011C464.24 50.4936 465.26 49.2668 466.554 48.458L465.494 46.762ZM461.669 51.4304C460.847 53.4324 460.562 55.8129 460.756 58.5312L462.751 58.3888C462.572 55.8805 462.847 53.8276 463.519 52.1896L461.669 51.4304ZM460.757 58.3803C460.56 60.8482 460.877 63.094 461.747 65.0896L463.581 64.2904C462.864 62.646 462.575 60.7385 462.751 58.5397L460.757 58.3803ZM461.76 65.1181C462.678 67.0563 464.019 68.5839 465.778 69.6708L466.829 67.9692C465.416 67.0961 464.33 65.8704 463.568 64.2619L461.76 65.1181ZM465.789 69.6775C467.594 70.7601 469.642 71.29 471.904 71.29V69.29C469.966 69.29 468.281 68.8399 466.818 67.9625L465.789 69.6775ZM471.904 71.29C474.145 71.29 476.109 70.8162 477.746 69.8126L476.701 68.1074C475.445 68.8772 473.863 69.29 471.904 69.29V71.29ZM477.734 69.8199C479.376 68.845 480.668 67.5285 481.595 65.8803L479.852 64.8997C479.099 66.2382 478.058 67.3016 476.713 68.1001L477.734 69.8199ZM480.283 66.2878L487.703 69.9278L488.584 68.1322L481.164 64.4922L480.283 66.2878ZM487.219 68.6504C486.535 70.3178 485.463 71.8039 483.982 73.1102L485.306 74.6098C486.998 73.1161 488.26 71.3822 489.069 69.4096L487.219 68.6504ZM483.982 73.1102C482.499 74.4189 480.721 75.4547 478.634 76.2096L479.314 78.0904C481.613 77.2587 483.615 76.1011 485.306 74.6098L483.982 73.1102ZM478.627 76.212C476.606 76.9589 474.346 77.34 471.834 77.34V79.34C474.549 79.34 477.048 78.9277 479.321 78.088L478.627 76.212ZM496.635 77.5H495.635V78.5H496.635V77.5ZM496.635 39.42V38.42H495.635V39.42H496.635ZM505.245 39.42H506.245V38.42H505.245V39.42ZM505.245 46.91L504.36 47.3757L506.245 46.91H505.245ZM504.545 45.58L503.613 45.2185L503.448 45.6429L503.66 46.0457L504.545 45.58ZM508.885 40.4L509.388 41.2645L509.394 41.2609L508.885 40.4ZM523.445 40.4L522.953 41.2706L522.961 41.275L523.445 40.4ZM528.555 45.51L527.68 45.9941L527.685 46.0021L528.555 45.51ZM530.375 77.5V78.5H531.375V77.5H530.375ZM521.205 77.5H520.205V78.5H521.205V77.5ZM520.225 50.83L521.106 50.3559L521.106 50.3559L520.225 50.83ZM517.495 48.03L516.965 48.878L516.986 48.8907L517.007 48.9025L517.495 48.03ZM509.515 48.03L510.004 48.9025L510.017 48.8952L510.03 48.8875L509.515 48.03ZM506.785 50.83L507.666 51.3041L507.666 51.3041L506.785 50.83ZM505.805 77.5V78.5H506.805V77.5H505.805ZM497.635 77.5V39.42H495.635V77.5H497.635ZM496.635 40.42H505.245V38.42H496.635V40.42ZM504.245 39.42V46.91H506.245V39.42H504.245ZM506.13 46.4443L505.43 45.1143L503.66 46.0457L504.36 47.3757L506.13 46.4443ZM505.478 45.9415C506.287 43.8535 507.589 42.3104 509.388 41.2645L508.383 39.5355C506.168 40.823 504.577 42.7331 503.613 45.2185L505.478 45.9415ZM509.394 41.2609C511.273 40.1504 513.473 39.58 516.025 39.58V37.58C513.164 37.58 510.604 38.2229 508.377 39.5391L509.394 41.2609ZM516.025 39.58C518.677 39.58 520.976 40.153 522.953 41.2706L523.937 39.5294C521.621 38.2203 518.974 37.58 516.025 37.58V39.58ZM522.961 41.275C524.99 42.3974 526.558 43.9652 527.68 45.9941L529.43 45.0259C528.126 42.6681 526.287 40.8293 523.929 39.525L522.961 41.275ZM527.685 46.0021C528.801 47.9768 529.375 50.2988 529.375 53H531.375C531.375 50.0078 530.736 47.3365 529.426 45.0179L527.685 46.0021ZM529.375 53V77.5H531.375V53H529.375ZM530.375 76.5H521.205V78.5H530.375V76.5ZM522.205 77.5V55.17H520.205V77.5H522.205ZM522.205 55.17C522.205 53.3604 521.853 51.7436 521.106 50.3559L519.345 51.3041C519.904 52.3431 520.205 53.6196 520.205 55.17H522.205ZM521.106 50.3559C520.365 48.9806 519.322 47.9066 517.984 47.1575L517.007 48.9025C518.002 49.46 518.779 50.2527 519.345 51.3041L521.106 50.3559ZM518.025 47.182C516.721 46.3671 515.201 45.98 513.505 45.98V47.98C514.889 47.98 516.029 48.2929 516.965 48.878L518.025 47.182ZM513.505 45.98C511.849 45.98 510.338 46.3703 509.001 47.1725L510.03 48.8875C511.026 48.2897 512.175 47.98 513.505 47.98V45.98ZM509.027 47.1575C507.689 47.9066 506.645 48.9806 505.905 50.3559L507.666 51.3041C508.232 50.2527 509.008 49.46 510.004 48.9025L509.027 47.1575ZM505.905 50.3559C505.158 51.7436 504.805 53.3604 504.805 55.17H506.805C506.805 53.6196 507.106 52.3431 507.666 51.3041L505.905 50.3559ZM504.805 55.17V77.5H506.805V55.17H504.805ZM505.805 76.5H496.635V78.5H505.805V76.5ZM545.479 74.42L544.765 75.1201L544.772 75.1271L544.779 75.1341L545.479 74.42ZM541.979 47.61H542.979V46.61H541.979V47.61ZM535.399 47.61H534.399V48.61H535.399V47.61ZM535.399 39.42V38.42H534.399V39.42H535.399ZM540.439 37.95L541.13 38.6734L541.13 38.6734L540.439 37.95ZM541.979 30.74V29.74H540.979V30.74H541.979ZM551.149 30.74H552.149V29.74H551.149V30.74ZM551.149 39.42H550.149V40.42H551.149V39.42ZM559.899 39.42H560.899V38.42H559.899V39.42ZM559.899 47.61V48.61H560.899V47.61H559.899ZM551.149 47.61V46.61H550.149V47.61H551.149ZM551.779 67.14L550.876 67.5681L550.885 67.5871L550.894 67.6057L551.779 67.14ZM553.879 69.17L553.432 70.0644L553.441 70.0687L553.449 70.0729L553.879 69.17ZM558.709 69.8L558.61 68.8049L558.599 68.8061L558.709 69.8ZM560.039 69.66H561.039V68.5427L559.929 68.6661L560.039 69.66ZM560.039 77.5L560.181 78.4899L561.039 78.3673V77.5H560.039ZM557.799 77.78L557.91 78.7739L557.799 77.78ZM555.489 76.92C551.379 76.92 548.323 75.8075 546.179 73.7059L544.779 75.1341C547.396 77.6992 551.013 78.92 555.489 78.92V76.92ZM546.193 73.7199C544.092 71.5764 542.979 68.5202 542.979 64.41H540.979C540.979 68.8865 542.2 72.5036 544.765 75.1201L546.193 73.7199ZM542.979 64.41V47.61H540.979V64.41H542.979ZM541.979 46.61H535.399V48.61H541.979V46.61ZM536.399 47.61V39.42H534.399V47.61H536.399ZM535.399 40.42H536.099V38.42H535.399V40.42ZM536.099 40.42C538.14 40.42 539.864 39.8813 541.13 38.6734L539.749 37.2266C538.961 37.9787 537.792 38.42 536.099 38.42V40.42ZM541.13 38.6734C542.411 37.4504 542.979 35.7299 542.979 33.68H540.979C540.979 35.3635 540.521 36.4896 539.749 37.2266L541.13 38.6734ZM542.979 33.68V30.74H540.979V33.68H542.979ZM541.979 31.74H551.149V29.74H541.979V31.74ZM550.149 30.74V39.42H552.149V30.74H550.149ZM551.149 40.42H559.899V38.42H551.149V40.42ZM558.899 39.42V47.61H560.899V39.42H558.899ZM559.899 46.61H551.149V48.61H559.899V46.61ZM550.149 47.61V63.92H552.149V47.61H550.149ZM550.149 63.92C550.149 65.2875 550.377 66.5152 550.876 67.5681L552.683 66.7119C552.342 65.9915 552.149 65.0725 552.149 63.92H550.149ZM550.894 67.6057C551.463 68.6856 552.32 69.5083 553.432 70.0644L554.327 68.2756C553.572 67.8984 553.029 67.3677 552.664 66.6743L550.894 67.6057ZM553.449 70.0729C554.604 70.6228 556 70.87 557.589 70.87V68.87C556.192 68.87 555.114 68.6505 554.309 68.2671L553.449 70.0729ZM557.589 70.87C557.962 70.87 558.373 70.8435 558.82 70.7939L558.599 68.8061C558.206 68.8498 557.87 68.87 557.589 68.87V70.87ZM558.809 70.795C559.279 70.748 559.726 70.701 560.15 70.6539L559.929 68.6661C559.513 68.7123 559.073 68.7586 558.61 68.805L558.809 70.795ZM559.039 69.66V77.5H561.039V69.66H559.039ZM559.898 76.5101C559.257 76.6016 558.521 76.6936 557.689 76.7861L557.91 78.7739C558.757 78.6797 559.515 78.5851 560.181 78.4899L559.898 76.5101ZM557.689 76.7861C556.878 76.8762 556.146 76.92 555.489 76.92V78.92C556.233 78.92 557.04 78.8705 557.91 78.7739L557.689 76.7861ZM575.104 75.75L574.609 76.6191L574.615 76.6223L575.104 75.75ZM567.824 68.68L566.964 69.1906L566.97 69.2004L567.824 68.68ZM567.824 48.24L566.97 47.7196L566.964 47.7295L567.824 48.24ZM575.104 41.17L574.609 40.3009L574.609 40.3009L575.104 41.17ZM595.474 41.17L595.968 40.3009L595.968 40.3009L595.474 41.17ZM602.684 48.24L601.824 48.7505L601.828 48.7585L601.833 48.7664L602.684 48.24ZM602.684 68.68L603.538 69.2004L603.538 69.2004L602.684 68.68ZM595.404 75.75L595.898 76.6191L595.404 75.75ZM590.714 68.47L590.188 67.6191L590.177 67.6263L590.714 68.47ZM594.424 64.41L593.539 63.9442L593.534 63.9532L594.424 64.41ZM594.424 52.58L593.534 53.0368L593.541 53.0513L593.549 53.0656L594.424 52.58ZM590.714 48.52L590.159 49.352L590.173 49.3617L590.188 49.3708L590.714 48.52ZM579.794 48.52L580.319 49.3708L580.328 49.3653L580.337 49.3596L579.794 48.52ZM576.014 52.58L575.134 52.1045L575.129 52.1132L576.014 52.58ZM576.014 64.41L575.119 64.8572L575.126 64.8715L575.134 64.8855L576.014 64.41ZM579.794 68.47L580.319 67.6192L580.319 67.6192L579.794 68.47ZM585.324 77.34C581.751 77.34 578.515 76.5158 575.593 74.8777L574.615 76.6223C577.853 78.4375 581.429 79.34 585.324 79.34V77.34ZM575.598 74.8809C572.713 73.2383 570.409 71.0018 568.678 68.1596L566.97 69.2004C568.878 72.3315 571.428 74.8083 574.609 76.6191L575.598 74.8809ZM568.683 68.1695C567.011 65.3527 566.164 62.1258 566.164 58.46H564.164C564.164 62.4475 565.09 66.034 566.964 69.1905L568.683 68.1695ZM566.164 58.46C566.164 54.7942 567.011 51.5673 568.683 48.7505L566.964 47.7295C565.09 50.886 564.164 54.4725 564.164 58.46H566.164ZM568.678 48.7604C570.409 45.9182 572.713 43.6817 575.598 42.0391L574.609 40.3009C571.428 42.1117 568.878 44.5885 566.97 47.7196L568.678 48.7604ZM575.598 42.0391C578.468 40.4053 581.702 39.58 585.324 39.58V37.58C581.385 37.58 577.805 38.4814 574.609 40.3009L575.598 42.0391ZM585.324 39.58C588.896 39.58 592.107 40.4042 594.979 42.0391L595.968 40.3009C592.774 38.4825 589.218 37.58 585.324 37.58V39.58ZM594.979 42.0391C597.862 43.6804 600.139 45.9138 601.824 48.7505L603.543 47.7295C601.681 44.5929 599.152 42.113 595.968 40.3009L594.979 42.0391ZM601.833 48.7664C603.544 51.5298 604.414 54.7496 604.414 58.46H606.414C606.414 54.4237 605.463 50.8302 603.534 47.7136L601.833 48.7664ZM604.414 58.46C604.414 62.121 603.545 65.3443 601.83 68.1596L603.538 69.2004C605.462 66.0424 606.414 62.4524 606.414 58.46H604.414ZM601.83 68.1596C600.098 71.0018 597.795 73.2383 594.909 74.8809L595.898 76.6191C599.079 74.8083 601.629 72.3315 603.538 69.2004L601.83 68.1596ZM594.909 74.8809C592.035 76.5169 588.847 77.34 585.324 77.34V79.34C589.174 79.34 592.706 78.4364 595.898 76.6191L594.909 74.8809ZM585.324 70.94C587.543 70.94 589.531 70.4081 591.25 69.3137L590.177 67.6263C588.817 68.4919 587.211 68.94 585.324 68.94V70.94ZM591.239 69.3208C592.987 68.2411 594.347 66.7486 595.313 64.8668L593.534 63.9532C592.727 65.5247 591.613 66.7389 590.188 67.6192L591.239 69.3208ZM595.309 64.8757C596.324 62.9456 596.824 60.8 596.824 58.46H594.824C594.824 60.5067 594.389 62.3278 593.539 63.9443L595.309 64.8757ZM596.824 58.46C596.824 56.0784 596.326 53.9458 595.298 52.0944L593.549 53.0656C594.387 54.5741 594.824 56.3616 594.824 58.46H596.824ZM595.313 52.1232C594.347 50.2414 592.987 48.7489 591.239 47.6692L590.188 49.3708C591.613 50.2511 592.727 51.4653 593.534 53.0368L595.313 52.1232ZM591.268 47.6879C589.546 46.54 587.552 45.98 585.324 45.98V47.98C587.202 47.98 588.801 48.4467 590.159 49.352L591.268 47.6879ZM585.324 45.98C583.053 45.98 581.017 46.5376 579.25 47.6804L580.337 49.3596C581.744 48.4491 583.394 47.98 585.324 47.98V45.98ZM579.268 47.6692C577.525 48.746 576.146 50.2323 575.134 52.1045L576.893 53.0555C577.748 51.4744 578.889 50.254 580.319 49.3708L579.268 47.6692ZM575.129 52.1132C574.154 53.9608 573.684 56.0864 573.684 58.46H575.684C575.684 56.3536 576.1 54.5592 576.898 53.0468L575.129 52.1132ZM573.684 58.46C573.684 60.7919 574.156 62.9308 575.119 64.8572L576.908 63.9628C576.098 62.3425 575.684 60.5148 575.684 58.46H573.684ZM575.134 64.8855C576.146 66.7577 577.525 68.244 579.268 69.3208L580.319 67.6192C578.889 66.736 577.748 65.5156 576.893 63.9345L575.134 64.8855ZM579.268 69.3208C581.032 70.4102 583.062 70.94 585.324 70.94V68.94C583.385 68.94 581.729 68.4898 580.319 67.6192L579.268 69.3208Z" fill="#0155B5" mask="url(#path-2-outside-1_264_11)"/>
</svg>
