<svg width="600" height="97" viewBox="0 0 600 97" fill="none" xmlns="http://www.w3.org/2000/svg">
<path d="M19.39 73V59.84H6.23V51.09H19.39V38H28.14V51.09H41.23V59.84H28.14V73H19.39Z" fill="#0155B5"/>
<mask id="path-2-outside-1_456_11" maskUnits="userSpaceOnUse" x="67" y="23.5" width="533" height="56" fill="black">
<rect fill="white" x="67" y="23.5" width="533" height="56"/>
<path d="M68.04 77.5V25.35H77.14L96.67 51.88H92.33L111.44 25.35H120.54V77.5H110.95V36.2L114.66 37.11L94.85 63.5H93.73L74.41 37.11L77.56 36.2V77.5H68.04ZM141.3 78.34C138.64 78.34 136.33 77.8967 134.37 77.01C132.41 76.1233 130.894 74.8633 129.82 73.23C128.747 71.55 128.21 69.6133 128.21 67.42C128.21 65.32 128.677 63.4533 129.61 61.82C130.544 60.14 131.99 58.74 133.95 57.62C135.91 56.5 138.384 55.7067 141.37 55.24L153.83 53.21V60.21L143.12 62.03C141.3 62.3567 139.947 62.94 139.06 63.78C138.174 64.62 137.73 65.7167 137.73 67.07C137.73 68.3767 138.22 69.4267 139.2 70.22C140.227 70.9667 141.487 71.34 142.98 71.34C144.894 71.34 146.574 70.9433 148.02 70.15C149.514 69.31 150.657 68.1667 151.45 66.72C152.29 65.2733 152.71 63.6867 152.71 61.96V52.16C152.71 50.5267 152.057 49.1733 150.75 48.1C149.49 46.98 147.81 46.42 145.71 46.42C143.75 46.42 142 46.9567 140.46 48.03C138.967 49.0567 137.87 50.4333 137.17 52.16L129.68 48.52C130.427 46.5133 131.594 44.7867 133.18 43.34C134.814 41.8467 136.727 40.68 138.92 39.84C141.114 39 143.494 38.58 146.06 38.58C149.187 38.58 151.94 39.1633 154.32 40.33C156.7 41.45 158.544 43.0367 159.85 45.09C161.204 47.0967 161.88 49.4533 161.88 52.16V77.5H153.2V70.99L155.16 70.85C154.18 72.4833 153.014 73.86 151.66 74.98C150.307 76.0533 148.767 76.8933 147.04 77.5C145.314 78.06 143.4 78.34 141.3 78.34ZM184.846 78.34C180.786 78.34 177.239 77.3833 174.206 75.47C171.219 73.51 169.166 70.8733 168.046 67.56L174.906 64.27C175.886 66.4167 177.239 68.0967 178.966 69.31C180.739 70.5233 182.699 71.13 184.846 71.13C186.526 71.13 187.856 70.7567 188.836 70.01C189.816 69.2633 190.306 68.2833 190.306 67.07C190.306 66.3233 190.096 65.7167 189.676 65.25C189.303 64.7367 188.766 64.3167 188.066 63.99C187.413 63.6167 186.689 63.3133 185.896 63.08L179.666 61.33C176.446 60.3967 173.996 58.9733 172.316 57.06C170.683 55.1467 169.866 52.8833 169.866 50.27C169.866 47.9367 170.449 45.9067 171.616 44.18C172.829 42.4067 174.486 41.03 176.586 40.05C178.733 39.07 181.183 38.58 183.936 38.58C187.529 38.58 190.703 39.4433 193.456 41.17C196.209 42.8967 198.169 45.3233 199.336 48.45L192.336 51.74C191.683 50.0133 190.586 48.6367 189.046 47.61C187.506 46.5833 185.779 46.07 183.866 46.07C182.326 46.07 181.113 46.42 180.226 47.12C179.339 47.82 178.896 48.73 178.896 49.85C178.896 50.55 179.083 51.1567 179.456 51.67C179.829 52.1833 180.343 52.6033 180.996 52.93C181.696 53.2567 182.489 53.56 183.376 53.84L189.466 55.66C192.593 56.5933 194.996 57.9933 196.676 59.86C198.403 61.7267 199.266 64.0133 199.266 66.72C199.266 69.0067 198.659 71.0367 197.446 72.81C196.233 74.5367 194.553 75.89 192.406 76.87C190.259 77.85 187.739 78.34 184.846 78.34ZM220.803 78.34C216.743 78.34 213.196 77.3833 210.163 75.47C207.176 73.51 205.123 70.8733 204.003 67.56L210.863 64.27C211.843 66.4167 213.196 68.0967 214.923 69.31C216.696 70.5233 218.656 71.13 220.803 71.13C222.483 71.13 223.813 70.7567 224.793 70.01C225.773 69.2633 226.263 68.2833 226.263 67.07C226.263 66.3233 226.053 65.7167 225.633 65.25C225.26 64.7367 224.723 64.3167 224.023 63.99C223.37 63.6167 222.646 63.3133 221.853 63.08L215.623 61.33C212.403 60.3967 209.953 58.9733 208.273 57.06C206.64 55.1467 205.823 52.8833 205.823 50.27C205.823 47.9367 206.406 45.9067 207.573 44.18C208.786 42.4067 210.443 41.03 212.543 40.05C214.69 39.07 217.14 38.58 219.893 38.58C223.486 38.58 226.66 39.4433 229.413 41.17C232.166 42.8967 234.126 45.3233 235.293 48.45L228.293 51.74C227.64 50.0133 226.543 48.6367 225.003 47.61C223.463 46.5833 221.736 46.07 219.823 46.07C218.283 46.07 217.07 46.42 216.183 47.12C215.296 47.82 214.853 48.73 214.853 49.85C214.853 50.55 215.04 51.1567 215.413 51.67C215.786 52.1833 216.3 52.6033 216.953 52.93C217.653 53.2567 218.446 53.56 219.333 53.84L225.423 55.66C228.55 56.5933 230.953 57.9933 232.633 59.86C234.36 61.7267 235.223 64.0133 235.223 66.72C235.223 69.0067 234.616 71.0367 233.403 72.81C232.19 74.5367 230.51 75.89 228.363 76.87C226.216 77.85 223.696 78.34 220.803 78.34ZM253.82 78.34C251.16 78.34 248.85 77.8967 246.89 77.01C244.93 76.1233 243.413 74.8633 242.34 73.23C241.267 71.55 240.73 69.6133 240.73 67.42C240.73 65.32 241.197 63.4533 242.13 61.82C243.063 60.14 244.51 58.74 246.47 57.62C248.43 56.5 250.903 55.7067 253.89 55.24L266.35 53.21V60.21L255.64 62.03C253.82 62.3567 252.467 62.94 251.58 63.78C250.693 64.62 250.25 65.7167 250.25 67.07C250.25 68.3767 250.74 69.4267 251.72 70.22C252.747 70.9667 254.007 71.34 255.5 71.34C257.413 71.34 259.093 70.9433 260.54 70.15C262.033 69.31 263.177 68.1667 263.97 66.72C264.81 65.2733 265.23 63.6867 265.23 61.96V52.16C265.23 50.5267 264.577 49.1733 263.27 48.1C262.01 46.98 260.33 46.42 258.23 46.42C256.27 46.42 254.52 46.9567 252.98 48.03C251.487 49.0567 250.39 50.4333 249.69 52.16L242.2 48.52C242.947 46.5133 244.113 44.7867 245.7 43.34C247.333 41.8467 249.247 40.68 251.44 39.84C253.633 39 256.013 38.58 258.58 38.58C261.707 38.58 264.46 39.1633 266.84 40.33C269.22 41.45 271.063 43.0367 272.37 45.09C273.723 47.0967 274.4 49.4533 274.4 52.16V77.5H265.72V70.99L267.68 70.85C266.7 72.4833 265.533 73.86 264.18 74.98C262.827 76.0533 261.287 76.8933 259.56 77.5C257.833 78.06 255.92 78.34 253.82 78.34ZM296.087 77.5V25.35H305.187L324.717 51.88H320.377L339.487 25.35H348.587V77.5H338.997V36.2L342.707 37.11L322.897 63.5H321.777L302.457 37.11L305.607 36.2V77.5H296.087ZM371.377 78.34C368.437 78.34 365.871 77.6867 363.677 76.38C361.531 75.0733 359.874 73.2533 358.707 70.92C357.587 68.5867 357.027 65.8567 357.027 62.73V39.42H366.197V61.96C366.197 63.5467 366.501 64.9467 367.107 66.16C367.761 67.3267 368.671 68.26 369.837 68.96C371.051 69.6133 372.404 69.94 373.897 69.94C375.391 69.94 376.721 69.6133 377.887 68.96C379.054 68.26 379.964 67.3033 380.617 66.09C381.271 64.8767 381.597 63.43 381.597 61.75V39.42H390.767V77.5H382.087V70.01L382.857 71.34C381.971 73.6733 380.501 75.4233 378.447 76.59C376.441 77.7567 374.084 78.34 371.377 78.34ZM413.781 78.34C409.721 78.34 406.175 77.3833 403.141 75.47C400.155 73.51 398.101 70.8733 396.981 67.56L403.841 64.27C404.821 66.4167 406.175 68.0967 407.901 69.31C409.675 70.5233 411.635 71.13 413.781 71.13C415.461 71.13 416.791 70.7567 417.771 70.01C418.751 69.2633 419.241 68.2833 419.241 67.07C419.241 66.3233 419.031 65.7167 418.611 65.25C418.238 64.7367 417.701 64.3167 417.001 63.99C416.348 63.6167 415.625 63.3133 414.831 63.08L408.601 61.33C405.381 60.3967 402.931 58.9733 401.251 57.06C399.618 55.1467 398.801 52.8833 398.801 50.27C398.801 47.9367 399.385 45.9067 400.551 44.18C401.765 42.4067 403.421 41.03 405.521 40.05C407.668 39.07 410.118 38.58 412.871 38.58C416.465 38.58 419.638 39.4433 422.391 41.17C425.145 42.8967 427.105 45.3233 428.271 48.45L421.271 51.74C420.618 50.0133 419.521 48.6367 417.981 47.61C416.441 46.5833 414.715 46.07 412.801 46.07C411.261 46.07 410.048 46.42 409.161 47.12C408.275 47.82 407.831 48.73 407.831 49.85C407.831 50.55 408.018 51.1567 408.391 51.67C408.765 52.1833 409.278 52.6033 409.931 52.93C410.631 53.2567 411.425 53.56 412.311 53.84L418.401 55.66C421.528 56.5933 423.931 57.9933 425.611 59.86C427.338 61.7267 428.201 64.0133 428.201 66.72C428.201 69.0067 427.595 71.0367 426.381 72.81C425.168 74.5367 423.488 75.89 421.341 76.87C419.195 77.85 416.675 78.34 413.781 78.34ZM453.589 78.34C449.809 78.34 446.402 77.4767 443.369 75.75C440.382 73.9767 438.025 71.5967 436.299 68.61C434.572 65.5767 433.709 62.17 433.709 58.39C433.709 54.61 434.572 51.2267 436.299 48.24C438.025 45.2533 440.382 42.8967 443.369 41.17C446.402 39.4433 449.809 38.58 453.589 38.58C456.295 38.58 458.815 39.07 461.149 40.05C463.482 40.9833 465.489 42.29 467.169 43.97C468.895 45.6033 470.132 47.5633 470.879 49.85L462.829 53.35C462.129 51.4367 460.939 49.8967 459.259 48.73C457.625 47.5633 455.735 46.98 453.589 46.98C451.582 46.98 449.785 47.47 448.199 48.45C446.659 49.43 445.445 50.7833 444.559 52.51C443.672 54.2367 443.229 56.22 443.229 58.46C443.229 60.7 443.672 62.6833 444.559 64.41C445.445 66.1367 446.659 67.49 448.199 68.47C449.785 69.45 451.582 69.94 453.589 69.94C455.782 69.94 457.695 69.3567 459.329 68.19C460.962 67.0233 462.129 65.46 462.829 63.5L470.879 67.14C470.132 69.2867 468.919 71.2233 467.239 72.95C465.559 74.63 463.552 75.96 461.219 76.94C458.885 77.8733 456.342 78.34 453.589 78.34ZM491.416 78.34C488.476 78.34 485.91 77.6867 483.716 76.38C481.57 75.0733 479.913 73.2533 478.746 70.92C477.626 68.5867 477.066 65.8567 477.066 62.73V39.42H486.236V61.96C486.236 63.5467 486.54 64.9467 487.146 66.16C487.8 67.3267 488.71 68.26 489.876 68.96C491.09 69.6133 492.443 69.94 493.936 69.94C495.43 69.94 496.76 69.6133 497.926 68.96C499.093 68.26 500.003 67.3033 500.656 66.09C501.31 64.8767 501.636 63.43 501.636 61.75V39.42H510.806V77.5H502.126V70.01L502.896 71.34C502.01 73.6733 500.54 75.4233 498.486 76.59C496.48 77.7567 494.123 78.34 491.416 78.34ZM519.331 77.5V24.51H528.501V77.5H519.331ZM548.517 78.34C545.857 78.34 543.547 77.8967 541.587 77.01C539.627 76.1233 538.111 74.8633 537.037 73.23C535.964 71.55 535.427 69.6133 535.427 67.42C535.427 65.32 535.894 63.4533 536.827 61.82C537.761 60.14 539.207 58.74 541.167 57.62C543.127 56.5 545.601 55.7067 548.587 55.24L561.047 53.21V60.21L550.337 62.03C548.517 62.3567 547.164 62.94 546.277 63.78C545.391 64.62 544.947 65.7167 544.947 67.07C544.947 68.3767 545.437 69.4267 546.417 70.22C547.444 70.9667 548.704 71.34 550.197 71.34C552.111 71.34 553.791 70.9433 555.237 70.15C556.731 69.31 557.874 68.1667 558.667 66.72C559.507 65.2733 559.927 63.6867 559.927 61.96V52.16C559.927 50.5267 559.274 49.1733 557.967 48.1C556.707 46.98 555.027 46.42 552.927 46.42C550.967 46.42 549.217 46.9567 547.677 48.03C546.184 49.0567 545.087 50.4333 544.387 52.16L536.897 48.52C537.644 46.5133 538.811 44.7867 540.397 43.34C542.031 41.8467 543.944 40.68 546.137 39.84C548.331 39 550.711 38.58 553.277 38.58C556.404 38.58 559.157 39.1633 561.537 40.33C563.917 41.45 565.761 43.0367 567.067 45.09C568.421 47.0967 569.097 49.4533 569.097 52.16V77.5H560.417V70.99L562.377 70.85C561.397 72.4833 560.231 73.86 558.877 74.98C557.524 76.0533 555.984 76.8933 554.257 77.5C552.531 78.06 550.617 78.34 548.517 78.34ZM577.573 77.5V39.42H586.183V47.89L585.483 46.63C586.369 43.7833 587.746 41.8 589.613 40.68C591.526 39.56 593.813 39 596.473 39H598.713V47.12H595.423C592.809 47.12 590.709 47.9367 589.123 49.57C587.536 51.1567 586.743 53.3967 586.743 56.29V77.5H577.573Z"/>
</mask>
<path d="M68.04 77.5H67.04V78.5H68.04V77.5ZM68.04 25.35V24.35H67.04V25.35H68.04ZM77.14 25.35L77.9453 24.7572L77.6456 24.35H77.14V25.35ZM96.67 51.88V52.88H98.6479L97.4753 51.2872L96.67 51.88ZM92.33 51.88L91.5186 51.2955L90.3773 52.88H92.33V51.88ZM111.44 25.35V24.35H110.928L110.629 24.7655L111.44 25.35ZM120.54 25.35H121.54V24.35H120.54V25.35ZM120.54 77.5V78.5H121.54V77.5H120.54ZM110.95 77.5H109.95V78.5H110.95V77.5ZM110.95 36.2L111.188 35.2288L109.95 34.9251V36.2H110.95ZM114.66 37.11L115.46 37.7103L116.369 36.4995L114.898 36.1388L114.66 37.11ZM94.85 63.5V64.5H95.3497L95.6497 64.1003L94.85 63.5ZM93.73 63.5L92.9231 64.0907L93.2228 64.5H93.73V63.5ZM74.41 37.11L74.1325 36.1493L72.758 36.5463L73.6031 37.7007L74.41 37.11ZM77.56 36.2H78.56V34.8702L77.2825 35.2393L77.56 36.2ZM77.56 77.5V78.5H78.56V77.5H77.56ZM69.04 77.5V25.35H67.04V77.5H69.04ZM68.04 26.35H77.14V24.35H68.04V26.35ZM76.3347 25.9428L95.8647 52.4728L97.4753 51.2872L77.9453 24.7572L76.3347 25.9428ZM96.67 50.88H92.33V52.88H96.67V50.88ZM93.1414 52.4645L112.251 25.9345L110.629 24.7655L91.5186 51.2955L93.1414 52.4645ZM111.44 26.35H120.54V24.35H111.44V26.35ZM119.54 25.35V77.5H121.54V25.35H119.54ZM120.54 76.5H110.95V78.5H120.54V76.5ZM111.95 77.5V36.2H109.95V77.5H111.95ZM110.712 37.1712L114.422 38.0812L114.898 36.1388L111.188 35.2288L110.712 37.1712ZM113.86 36.5097L94.0503 62.8997L95.6497 64.1003L115.46 37.7103L113.86 36.5097ZM94.85 62.5H93.73V64.5H94.85V62.5ZM94.5369 62.9093L75.2169 36.5193L73.6031 37.7007L92.9231 64.0907L94.5369 62.9093ZM74.6875 38.0707L77.8375 37.1607L77.2825 35.2393L74.1325 36.1493L74.6875 38.0707ZM76.56 36.2V77.5H78.56V36.2H76.56ZM77.56 76.5H68.04V78.5H77.56V76.5ZM134.37 77.01L133.958 77.9211L133.958 77.9211L134.37 77.01ZM129.82 73.23L128.978 73.7684L128.985 73.7792L129.82 73.23ZM129.61 61.82L130.479 62.3162L130.485 62.3056L129.61 61.82ZM133.95 57.62L134.447 58.4882L134.447 58.4882L133.95 57.62ZM141.37 55.24L141.525 56.228L141.531 56.227L141.37 55.24ZM153.83 53.21H154.83V52.0339L153.67 52.223L153.83 53.21ZM153.83 60.21L153.998 61.1959L154.83 61.0544V60.21H153.83ZM143.12 62.03L142.953 61.0441L142.944 61.0457L143.12 62.03ZM139.06 63.78L138.373 63.054L138.373 63.054L139.06 63.78ZM139.2 70.22L138.571 70.9972L138.591 71.0135L138.612 71.0287L139.2 70.22ZM148.02 70.15L148.501 71.0269L148.511 71.0216L148.02 70.15ZM151.45 66.72L150.586 66.2179L150.58 66.2284L150.574 66.2392L151.45 66.72ZM150.75 48.1L150.086 48.8474L150.101 48.8604L150.116 48.8727L150.75 48.1ZM140.46 48.03L141.027 48.8541L141.032 48.8504L140.46 48.03ZM137.17 52.16L136.733 53.0594L137.695 53.5269L138.097 52.5357L137.17 52.16ZM129.68 48.52L128.743 48.1713L128.427 49.0224L129.243 49.4194L129.68 48.52ZM133.18 43.34L133.854 44.079L133.855 44.078L133.18 43.34ZM138.92 39.84L138.563 38.9061L138.563 38.9061L138.92 39.84ZM154.32 40.33L153.88 41.2279L153.887 41.2314L153.895 41.2348L154.32 40.33ZM159.85 45.09L159.007 45.6269L159.014 45.6381L159.021 45.6491L159.85 45.09ZM161.88 77.5V78.5H162.88V77.5H161.88ZM153.2 77.5H152.2V78.5H153.2V77.5ZM153.2 70.99L153.129 69.9925L152.2 70.0589V70.99H153.2ZM155.16 70.85L156.018 71.3645L157.007 69.7155L155.089 69.8525L155.16 70.85ZM151.66 74.98L152.282 75.7635L152.29 75.757L152.298 75.7504L151.66 74.98ZM147.04 77.5L147.349 78.4512L147.361 78.4475L147.372 78.4435L147.04 77.5ZM141.3 77.34C138.75 77.34 136.586 76.9148 134.783 76.0989L133.958 77.9211C136.075 78.8785 138.531 79.34 141.3 79.34V77.34ZM134.783 76.0989C132.977 75.2822 131.615 74.1401 130.656 72.6808L128.985 73.7792C130.172 75.5866 131.844 76.9645 133.958 77.9211L134.783 76.0989ZM130.663 72.6916C129.703 71.1883 129.21 69.4424 129.21 67.42H127.21C127.21 69.7843 127.792 71.9117 128.978 73.7684L130.663 72.6916ZM129.21 67.42C129.21 65.4733 129.641 63.7814 130.479 62.3161L128.742 61.3239C127.713 63.1253 127.21 65.1667 127.21 67.42H129.21ZM130.485 62.3056C131.315 60.8113 132.617 59.5336 134.447 58.4882L133.454 56.7518C131.364 57.9464 129.773 59.4687 128.736 61.3344L130.485 62.3056ZM134.447 58.4882C136.272 57.4453 138.62 56.6819 141.525 56.228L141.216 54.252C138.147 54.7315 135.549 55.5547 133.454 56.7518L134.447 58.4882ZM141.531 56.227L153.991 54.197L153.67 52.223L141.21 54.253L141.531 56.227ZM152.83 53.21V60.21H154.83V53.21H152.83ZM153.663 59.2241L142.953 61.0441L143.288 63.0159L153.998 61.1959L153.663 59.2241ZM142.944 61.0457C141.024 61.3903 139.456 62.0276 138.373 63.054L139.748 64.506C140.438 63.8524 141.577 63.323 143.297 63.0143L142.944 61.0457ZM138.373 63.054C137.264 64.1043 136.73 65.4749 136.73 67.07H138.73C138.73 65.9585 139.084 65.1357 139.748 64.506L138.373 63.054ZM136.73 67.07C136.73 68.6657 137.347 70.0062 138.571 70.9972L139.83 69.4428C139.094 68.8471 138.73 68.0876 138.73 67.07H136.73ZM138.612 71.0287C139.839 71.9205 141.314 72.34 142.98 72.34V70.34C141.66 70.34 140.616 70.0128 139.789 69.4113L138.612 71.0287ZM142.98 72.34C145.035 72.34 146.885 71.913 148.501 71.0268L147.54 69.2732C146.262 69.9736 144.753 70.34 142.98 70.34V72.34ZM148.511 71.0216C150.16 70.0937 151.441 68.8178 152.327 67.2008L150.574 66.2392C149.874 67.5155 148.867 68.5263 147.53 69.2784L148.511 71.0216ZM152.315 67.2221C153.247 65.6179 153.71 63.8571 153.71 61.96H151.71C151.71 63.5162 151.334 64.9288 150.586 66.2179L152.315 67.2221ZM153.71 61.96V52.16H151.71V61.96H153.71ZM153.71 52.16C153.71 50.2154 152.914 48.5828 151.385 47.3273L150.116 48.8727C151.201 49.7639 151.71 50.8379 151.71 52.16H153.71ZM151.415 47.3526C149.93 46.0326 147.993 45.42 145.71 45.42V47.42C147.628 47.42 149.051 47.9274 150.086 48.8474L151.415 47.3526ZM145.71 45.42C143.556 45.42 141.604 46.014 139.889 47.2096L141.032 48.8504C142.397 47.8993 143.945 47.42 145.71 47.42V45.42ZM139.894 47.206C138.234 48.3468 137.015 49.8815 136.244 51.7843L138.097 52.5357C138.726 50.9851 139.7 49.7665 141.027 48.854L139.894 47.206ZM137.608 51.2606L130.118 47.6206L129.243 49.4194L136.733 53.0594L137.608 51.2606ZM130.618 48.8687C131.309 47.0117 132.385 45.4187 133.854 44.079L132.507 42.601C130.803 44.1546 129.546 46.015 128.743 48.1713L130.618 48.8687ZM133.855 44.078C135.391 42.6744 137.195 41.5718 139.278 40.7739L138.563 38.9061C136.26 39.7882 134.237 41.019 132.506 42.602L133.855 44.078ZM139.278 40.7739C141.347 39.9815 143.605 39.58 146.06 39.58V37.58C143.383 37.58 140.88 38.0185 138.563 38.9061L139.278 40.7739ZM146.06 39.58C149.062 39.58 151.66 40.1395 153.88 41.2279L154.761 39.4321C152.221 38.1872 149.312 37.58 146.06 37.58V39.58ZM153.895 41.2348C156.118 42.281 157.81 43.7462 159.007 45.6269L160.694 44.5531C159.278 42.3271 157.283 40.619 154.746 39.4252L153.895 41.2348ZM159.021 45.6491C160.25 47.4714 160.88 49.6281 160.88 52.16H162.88C162.88 49.2785 162.157 46.7219 160.68 44.5309L159.021 45.6491ZM160.88 52.16V77.5H162.88V52.16H160.88ZM161.88 76.5H153.2V78.5H161.88V76.5ZM154.2 77.5V70.99H152.2V77.5H154.2ZM153.272 71.9875L155.232 71.8475L155.089 69.8525L153.129 69.9925L153.272 71.9875ZM154.303 70.3355C153.376 71.8799 152.282 73.1677 151.023 74.2096L152.298 75.7504C153.746 74.5523 154.985 73.0868 156.018 71.3645L154.303 70.3355ZM151.039 74.1965C149.778 75.1968 148.337 75.9845 146.709 76.5565L147.372 78.4435C149.197 77.8022 150.836 76.9099 152.282 75.7635L151.039 74.1965ZM146.732 76.5488C145.119 77.0718 143.312 77.34 141.3 77.34V79.34C143.489 79.34 145.508 79.0482 147.349 78.4512L146.732 76.5488ZM174.206 75.47L173.657 76.306L173.665 76.311L173.672 76.3158L174.206 75.47ZM168.046 67.56L167.614 66.6583L166.815 67.0413L167.099 67.8802L168.046 67.56ZM174.906 64.27L175.816 63.8547L175.392 62.9276L174.474 63.3683L174.906 64.27ZM178.966 69.31L178.391 70.1283L178.401 70.1353L178.966 69.31ZM188.836 70.01L188.23 69.2146L188.23 69.2146L188.836 70.01ZM189.676 65.25L188.867 65.8382L188.898 65.8803L188.933 65.919L189.676 65.25ZM188.066 63.99L187.57 64.8582L187.606 64.8787L187.643 64.8962L188.066 63.99ZM185.896 63.08L186.178 62.1206L186.166 62.1173L185.896 63.08ZM179.666 61.33L179.388 62.2905L179.396 62.2927L179.666 61.33ZM172.316 57.06L171.555 57.7093L171.564 57.7198L172.316 57.06ZM171.616 44.18L170.791 43.6153L170.787 43.6201L171.616 44.18ZM176.586 40.05L176.171 39.1403L176.163 39.1438L176.586 40.05ZM193.456 41.17L193.987 40.3228L193.987 40.3228L193.456 41.17ZM199.336 48.45L199.761 49.355L200.595 48.9633L200.273 48.1004L199.336 48.45ZM192.336 51.74L191.401 52.0939L191.783 53.1048L192.761 52.645L192.336 51.74ZM189.046 47.61L188.491 48.442L188.491 48.442L189.046 47.61ZM180.226 47.12L180.846 47.9049L180.846 47.9049L180.226 47.12ZM180.996 52.93L180.549 53.8244L180.561 53.8305L180.573 53.8362L180.996 52.93ZM183.376 53.84L183.075 54.7936L183.082 54.7959L183.09 54.7981L183.376 53.84ZM189.466 55.66L189.18 56.6181L189.18 56.6182L189.466 55.66ZM196.676 59.86L195.933 60.529L195.942 60.539L196.676 59.86ZM197.446 72.81L198.264 73.385L198.271 73.3747L197.446 72.81ZM184.846 77.34C180.949 77.34 177.593 76.424 174.739 74.6242L173.672 76.3158C176.886 78.3427 180.623 79.34 184.846 79.34V77.34ZM174.755 74.634C171.95 72.7937 170.04 70.3366 168.993 67.2398L167.099 67.8802C168.292 71.4101 170.488 74.2263 173.657 76.306L174.755 74.634ZM168.478 68.4617L175.338 65.1717L174.474 63.3683L167.614 66.6583L168.478 68.4617ZM173.996 64.6853C175.041 66.9741 176.502 68.801 178.391 70.1282L179.541 68.4918C177.976 67.3923 176.731 65.8593 175.816 63.8547L173.996 64.6853ZM178.401 70.1353C180.341 71.4623 182.498 72.13 184.846 72.13V70.13C182.901 70.13 181.138 69.5843 179.531 68.4847L178.401 70.1353ZM184.846 72.13C186.666 72.13 188.234 71.7256 189.442 70.8054L188.23 69.2146C187.478 69.7877 186.386 70.13 184.846 70.13V72.13ZM189.442 70.8054C190.666 69.8731 191.306 68.601 191.306 67.07H189.306C189.306 67.9656 188.966 68.6536 188.23 69.2146L189.442 70.8054ZM191.306 67.07C191.306 66.1257 191.035 65.265 190.419 64.581L188.933 65.919C189.157 66.1683 189.306 66.521 189.306 67.07H191.306ZM190.485 64.6618C189.992 63.9848 189.309 63.4667 188.489 63.0838L187.643 64.8962C188.223 65.1667 188.613 65.4886 188.867 65.8382L190.485 64.6618ZM188.562 63.1218C187.835 62.7062 187.039 62.3738 186.178 62.1206L185.614 64.0394C186.34 64.2529 186.99 64.5271 187.57 64.8582L188.562 63.1218ZM186.166 62.1173L179.936 60.3673L179.396 62.2927L185.626 64.0427L186.166 62.1173ZM179.944 60.3695C176.851 59.4728 174.588 58.1315 173.067 56.4002L171.564 57.7198C173.404 59.8152 176.041 61.3205 179.388 62.2905L179.944 60.3695ZM173.077 56.4107C171.604 54.6859 170.866 52.6554 170.866 50.27H168.866C168.866 53.1113 169.761 55.6074 171.555 57.7093L173.077 56.4107ZM170.866 50.27C170.866 48.1114 171.403 46.2818 172.445 44.7399L170.787 43.6201C169.496 45.5316 168.866 47.7619 168.866 50.27H170.866ZM172.441 44.7447C173.546 43.1307 175.058 41.8666 177.009 40.9562L176.163 39.1438C173.914 40.1934 172.113 41.6826 170.791 43.6153L172.441 44.7447ZM177.001 40.9597C178.998 40.0483 181.302 39.58 183.936 39.58V37.58C181.063 37.58 178.468 38.0917 176.171 39.1403L177.001 40.9597ZM183.936 39.58C187.362 39.58 190.347 40.4007 192.925 42.0172L193.987 40.3228C191.058 38.4859 187.697 37.58 183.936 37.58V39.58ZM192.925 42.0172C195.486 43.6237 197.307 45.8729 198.399 48.7996L200.273 48.1004C199.032 44.7738 196.932 42.1696 193.987 40.3228L192.925 42.0172ZM198.911 47.545L191.911 50.835L192.761 52.645L199.761 49.355L198.911 47.545ZM193.271 51.3861C192.544 49.4637 191.314 47.9201 189.601 46.7779L188.491 48.442C189.858 49.3533 190.821 50.563 191.401 52.0939L193.271 51.3861ZM189.601 46.7779C187.891 45.6379 185.97 45.07 183.866 45.07V47.07C185.589 47.07 187.121 47.5287 188.491 48.442L189.601 46.7779ZM183.866 45.07C182.182 45.07 180.724 45.4528 179.606 46.3351L180.846 47.9049C181.501 47.3872 182.47 47.07 183.866 47.07V45.07ZM179.606 46.3351C178.482 47.2228 177.896 48.4209 177.896 49.85H179.896C179.896 49.0391 180.197 48.4172 180.846 47.9049L179.606 46.3351ZM177.896 49.85C177.896 50.7385 178.137 51.5563 178.647 52.2582L180.265 51.0818C180.028 50.757 179.896 50.3615 179.896 49.85H177.896ZM178.647 52.2582C179.128 52.9194 179.774 53.437 180.549 53.8244L181.443 52.0356C180.911 51.7697 180.53 51.4473 180.265 51.0818L178.647 52.2582ZM180.573 53.8362C181.32 54.1845 182.155 54.503 183.075 54.7936L183.677 52.8864C182.824 52.617 182.072 52.3288 181.419 52.0238L180.573 53.8362ZM183.09 54.7981L189.18 56.6181L189.752 54.7019L183.662 52.8819L183.09 54.7981ZM189.18 56.6182C192.182 57.5144 194.407 58.8341 195.933 60.529L197.419 59.191C195.585 57.1526 193.003 55.6723 189.752 54.7018L189.18 56.6182ZM195.942 60.539C197.486 62.2083 198.266 64.2473 198.266 66.72H200.266C200.266 63.7794 199.319 61.2451 197.41 59.181L195.942 60.539ZM198.266 66.72C198.266 68.8188 197.713 70.6492 196.621 72.2453L198.271 73.3747C199.606 71.4241 200.266 69.1946 200.266 66.72H198.266ZM196.628 72.2351C195.528 73.7997 193.995 75.0452 191.991 75.9603L192.821 77.7797C195.11 76.7348 196.937 75.2736 198.264 73.3849L196.628 72.2351ZM191.991 75.9603C190 76.8689 187.628 77.34 184.846 77.34V79.34C187.851 79.34 190.518 78.8311 192.821 77.7797L191.991 75.9603ZM210.163 75.47L209.614 76.306L209.622 76.311L209.629 76.3158L210.163 75.47ZM204.003 67.56L203.571 66.6583L202.772 67.0413L203.056 67.8802L204.003 67.56ZM210.863 64.27L211.773 63.8547L211.349 62.9276L210.431 63.3683L210.863 64.27ZM214.923 69.31L214.348 70.1283L214.358 70.1353L214.923 69.31ZM224.793 70.01L224.187 69.2146L224.187 69.2146L224.793 70.01ZM225.633 65.25L224.824 65.8382L224.855 65.8803L224.89 65.919L225.633 65.25ZM224.023 63.99L223.527 64.8582L223.563 64.8787L223.6 64.8962L224.023 63.99ZM221.853 63.08L222.135 62.1206L222.123 62.1173L221.853 63.08ZM215.623 61.33L215.345 62.2905L215.353 62.2927L215.623 61.33ZM208.273 57.06L207.512 57.7093L207.522 57.7198L208.273 57.06ZM207.573 44.18L206.748 43.6153L206.744 43.6201L207.573 44.18ZM212.543 40.05L212.128 39.1403L212.12 39.1438L212.543 40.05ZM229.413 41.17L229.944 40.3228L229.944 40.3228L229.413 41.17ZM235.293 48.45L235.718 49.355L236.552 48.9633L236.23 48.1004L235.293 48.45ZM228.293 51.74L227.358 52.0939L227.74 53.1048L228.718 52.645L228.293 51.74ZM225.003 47.61L224.448 48.442L224.448 48.442L225.003 47.61ZM216.183 47.12L216.803 47.9049L216.803 47.9049L216.183 47.12ZM216.953 52.93L216.506 53.8244L216.518 53.8305L216.53 53.8362L216.953 52.93ZM219.333 53.84L219.032 54.7936L219.039 54.7959L219.047 54.7981L219.333 53.84ZM225.423 55.66L225.137 56.6181L225.137 56.6182L225.423 55.66ZM232.633 59.86L231.89 60.529L231.899 60.539L232.633 59.86ZM233.403 72.81L234.221 73.385L234.228 73.3747L233.403 72.81ZM220.803 77.34C216.906 77.34 213.55 76.424 210.696 74.6242L209.629 76.3158C212.843 78.3427 216.58 79.34 220.803 79.34V77.34ZM210.712 74.634C207.907 72.7937 205.997 70.3366 204.95 67.2398L203.056 67.8802C204.249 71.4101 206.445 74.2263 209.614 76.306L210.712 74.634ZM204.435 68.4617L211.295 65.1717L210.431 63.3683L203.571 66.6583L204.435 68.4617ZM209.953 64.6853C210.998 66.9741 212.459 68.801 214.348 70.1282L215.498 68.4918C213.933 67.3923 212.688 65.8593 211.773 63.8547L209.953 64.6853ZM214.358 70.1353C216.298 71.4623 218.455 72.13 220.803 72.13V70.13C218.858 70.13 217.095 69.5843 215.488 68.4847L214.358 70.1353ZM220.803 72.13C222.623 72.13 224.191 71.7256 225.399 70.8054L224.187 69.2146C223.435 69.7877 222.343 70.13 220.803 70.13V72.13ZM225.399 70.8054C226.623 69.8731 227.263 68.601 227.263 67.07H225.263C225.263 67.9656 224.923 68.6536 224.187 69.2146L225.399 70.8054ZM227.263 67.07C227.263 66.1257 226.992 65.265 226.376 64.581L224.89 65.919C225.114 66.1683 225.263 66.521 225.263 67.07H227.263ZM226.442 64.6618C225.949 63.9848 225.266 63.4667 224.446 63.0838L223.6 64.8962C224.18 65.1667 224.57 65.4886 224.824 65.8382L226.442 64.6618ZM224.519 63.1218C223.792 62.7062 222.996 62.3738 222.135 62.1206L221.571 64.0394C222.297 64.2529 222.947 64.5271 223.527 64.8582L224.519 63.1218ZM222.123 62.1173L215.893 60.3673L215.353 62.2927L221.583 64.0427L222.123 62.1173ZM215.901 60.3695C212.808 59.4728 210.545 58.1315 209.024 56.4002L207.522 57.7198C209.361 59.8152 211.998 61.3205 215.345 62.2905L215.901 60.3695ZM209.034 56.4107C207.561 54.6859 206.823 52.6554 206.823 50.27H204.823C204.823 53.1113 205.718 55.6074 207.512 57.7093L209.034 56.4107ZM206.823 50.27C206.823 48.1114 207.36 46.2818 208.402 44.7399L206.744 43.6201C205.453 45.5316 204.823 47.7619 204.823 50.27H206.823ZM208.398 44.7447C209.503 43.1307 211.015 41.8666 212.966 40.9562L212.12 39.1438C209.871 40.1934 208.07 41.6826 206.748 43.6153L208.398 44.7447ZM212.958 40.9597C214.955 40.0483 217.259 39.58 219.893 39.58V37.58C217.02 37.58 214.425 38.0917 212.128 39.1403L212.958 40.9597ZM219.893 39.58C223.319 39.58 226.304 40.4007 228.882 42.0172L229.944 40.3228C227.015 38.4859 223.654 37.58 219.893 37.58V39.58ZM228.882 42.0172C231.443 43.6237 233.264 45.8729 234.356 48.7996L236.23 48.1004C234.989 44.7738 232.889 42.1696 229.944 40.3228L228.882 42.0172ZM234.868 47.545L227.868 50.835L228.718 52.645L235.718 49.355L234.868 47.545ZM229.228 51.3861C228.501 49.4637 227.271 47.9201 225.558 46.7779L224.448 48.442C225.815 49.3533 226.778 50.563 227.358 52.0939L229.228 51.3861ZM225.558 46.7779C223.848 45.6379 221.927 45.07 219.823 45.07V47.07C221.546 47.07 223.078 47.5287 224.448 48.442L225.558 46.7779ZM219.823 45.07C218.139 45.07 216.681 45.4528 215.563 46.3351L216.803 47.9049C217.458 47.3872 218.427 47.07 219.823 47.07V45.07ZM215.563 46.3351C214.439 47.2228 213.853 48.4209 213.853 49.85H215.853C215.853 49.0391 216.154 48.4172 216.803 47.9049L215.563 46.3351ZM213.853 49.85C213.853 50.7385 214.094 51.5563 214.604 52.2582L216.222 51.0818C215.985 50.757 215.853 50.3615 215.853 49.85H213.853ZM214.604 52.2582C215.085 52.9194 215.731 53.437 216.506 53.8244L217.4 52.0356C216.868 51.7697 216.487 51.4473 216.222 51.0818L214.604 52.2582ZM216.53 53.8362C217.277 54.1845 218.112 54.503 219.032 54.7936L219.634 52.8864C218.781 52.617 218.029 52.3288 217.376 52.0238L216.53 53.8362ZM219.047 54.7981L225.137 56.6181L225.709 54.7019L219.619 52.8819L219.047 54.7981ZM225.137 56.6182C228.139 57.5144 230.364 58.8341 231.89 60.529L233.376 59.191C231.542 57.1526 228.96 55.6723 225.709 54.7018L225.137 56.6182ZM231.899 60.539C233.443 62.2083 234.223 64.2473 234.223 66.72H236.223C236.223 63.7794 235.276 61.2451 233.367 59.181L231.899 60.539ZM234.223 66.72C234.223 68.8188 233.67 70.6492 232.578 72.2453L234.228 73.3747C235.563 71.4241 236.223 69.1946 236.223 66.72H234.223ZM232.585 72.2351C231.485 73.7997 229.952 75.0452 227.948 75.9603L228.778 77.7797C231.067 76.7348 232.894 75.2736 234.221 73.3849L232.585 72.2351ZM227.948 75.9603C225.957 76.8689 223.585 77.34 220.803 77.34V79.34C223.808 79.34 226.475 78.8311 228.778 77.7797L227.948 75.9603ZM246.89 77.01L246.478 77.9211L246.478 77.9211L246.89 77.01ZM242.34 73.23L241.497 73.7684L241.504 73.7792L242.34 73.23ZM242.13 61.82L242.998 62.3162L243.004 62.3056L242.13 61.82ZM246.47 57.62L246.966 58.4882L246.966 58.4882L246.47 57.62ZM253.89 55.24L254.044 56.228L254.051 56.227L253.89 55.24ZM266.35 53.21H267.35V52.0339L266.189 52.223L266.35 53.21ZM266.35 60.21L266.518 61.1959L267.35 61.0544V60.21H266.35ZM255.64 62.03L255.472 61.0441L255.463 61.0457L255.64 62.03ZM251.58 63.78L250.892 63.054L250.892 63.054L251.58 63.78ZM251.72 70.22L251.091 70.9972L251.111 71.0135L251.132 71.0287L251.72 70.22ZM260.54 70.15L261.021 71.0269L261.03 71.0216L260.54 70.15ZM263.97 66.72L263.105 66.2179L263.099 66.2284L263.093 66.2392L263.97 66.72ZM263.27 48.1L262.606 48.8474L262.62 48.8604L262.635 48.8727L263.27 48.1ZM252.98 48.03L253.547 48.8541L253.552 48.8504L252.98 48.03ZM249.69 52.16L249.253 53.0594L250.215 53.5269L250.617 52.5357L249.69 52.16ZM242.2 48.52L241.263 48.1713L240.946 49.0224L241.763 49.4194L242.2 48.52ZM245.7 43.34L246.374 44.079L246.375 44.078L245.7 43.34ZM251.44 39.84L251.082 38.9061L251.082 38.9061L251.44 39.84ZM266.84 40.33L266.4 41.2279L266.407 41.2314L266.414 41.2348L266.84 40.33ZM272.37 45.09L271.526 45.6269L271.533 45.6381L271.541 45.6491L272.37 45.09ZM274.4 77.5V78.5H275.4V77.5H274.4ZM265.72 77.5H264.72V78.5H265.72V77.5ZM265.72 70.99L265.649 69.9925L264.72 70.0589V70.99H265.72ZM267.68 70.85L268.537 71.3645L269.527 69.7155L267.609 69.8525L267.68 70.85ZM264.18 74.98L264.801 75.7635L264.81 75.757L264.818 75.7504L264.18 74.98ZM259.56 77.5L259.869 78.4512L259.88 78.4475L259.891 78.4435L259.56 77.5ZM253.82 77.34C251.269 77.34 249.106 76.9148 247.302 76.0989L246.478 77.9211C248.594 78.8785 251.051 79.34 253.82 79.34V77.34ZM247.302 76.0989C245.497 75.2822 244.135 74.1401 243.176 72.6808L241.504 73.7792C242.692 75.5866 244.363 76.9645 246.478 77.9211L247.302 76.0989ZM243.183 72.6916C242.222 71.1883 241.73 69.4424 241.73 67.42H239.73C239.73 69.7843 240.311 71.9117 241.497 73.7684L243.183 72.6916ZM241.73 67.42C241.73 65.4733 242.161 63.7814 242.998 62.3161L241.262 61.3239C240.232 63.1253 239.73 65.1667 239.73 67.42H241.73ZM243.004 62.3056C243.834 60.8113 245.137 59.5336 246.966 58.4882L245.974 56.7518C243.883 57.9464 242.292 59.4687 241.256 61.3344L243.004 62.3056ZM246.966 58.4882C248.791 57.4453 251.14 56.6819 254.044 56.228L253.736 54.252C250.667 54.7315 248.069 55.5547 245.974 56.7518L246.966 58.4882ZM254.051 56.227L266.511 54.197L266.189 52.223L253.729 54.253L254.051 56.227ZM265.35 53.21V60.21H267.35V53.21H265.35ZM266.182 59.2241L255.472 61.0441L255.808 63.0159L266.518 61.1959L266.182 59.2241ZM255.463 61.0457C253.543 61.3903 251.976 62.0276 250.892 63.054L252.268 64.506C252.958 63.8524 254.097 63.323 255.817 63.0143L255.463 61.0457ZM250.892 63.054C249.784 64.1043 249.25 65.4749 249.25 67.07H251.25C251.25 65.9585 251.603 65.1357 252.268 64.506L250.892 63.054ZM249.25 67.07C249.25 68.6657 249.867 70.0062 251.091 70.9972L252.349 69.4428C251.613 68.8471 251.25 68.0876 251.25 67.07H249.25ZM251.132 71.0287C252.358 71.9205 253.834 72.34 255.5 72.34V70.34C254.18 70.34 253.135 70.0128 252.308 69.4113L251.132 71.0287ZM255.5 72.34C257.554 72.34 259.405 71.913 261.021 71.0268L260.059 69.2732C258.782 69.9736 257.272 70.34 255.5 70.34V72.34ZM261.03 71.0216C262.68 70.0937 263.96 68.8178 264.847 67.2008L263.093 66.2392C262.393 67.5155 261.387 68.5263 260.05 69.2784L261.03 71.0216ZM264.835 67.2221C265.766 65.6179 266.23 63.8571 266.23 61.96H264.23C264.23 63.5162 263.854 64.9288 263.105 66.2179L264.835 67.2221ZM266.23 61.96V52.16H264.23V61.96H266.23ZM266.23 52.16C266.23 50.2154 265.433 48.5828 263.905 47.3273L262.635 48.8727C263.72 49.7639 264.23 50.8379 264.23 52.16H266.23ZM263.934 47.3526C262.449 46.0326 260.512 45.42 258.23 45.42V47.42C260.148 47.42 261.571 47.9274 262.606 48.8474L263.934 47.3526ZM258.23 45.42C256.075 45.42 254.124 46.014 252.408 47.2096L253.552 48.8504C254.916 47.8993 256.465 47.42 258.23 47.42V45.42ZM252.413 47.206C250.754 48.3468 249.535 49.8815 248.763 51.7843L250.617 52.5357C251.245 50.9851 252.219 49.7665 253.547 48.854L252.413 47.206ZM250.127 51.2606L242.637 47.6206L241.763 49.4194L249.253 53.0594L250.127 51.2606ZM243.137 48.8687C243.828 47.0117 244.904 45.4187 246.374 44.079L245.026 42.601C243.322 44.1546 242.065 46.015 241.263 48.1713L243.137 48.8687ZM246.375 44.078C247.91 42.6744 249.714 41.5718 251.798 40.7739L251.082 38.9061C248.779 39.7882 246.757 41.019 245.025 42.602L246.375 44.078ZM251.798 40.7739C253.867 39.9815 256.124 39.58 258.58 39.58V37.58C255.902 37.58 253.4 38.0185 251.082 38.9061L251.798 40.7739ZM258.58 39.58C261.581 39.58 264.179 40.1395 266.4 41.2279L267.28 39.4321C264.741 38.1872 261.832 37.58 258.58 37.58V39.58ZM266.414 41.2348C268.637 42.281 270.33 43.7462 271.526 45.6269L273.214 44.5531C271.797 42.3271 269.803 40.619 267.266 39.4252L266.414 41.2348ZM271.541 45.6491C272.77 47.4714 273.4 49.6281 273.4 52.16H275.4C275.4 49.2785 274.677 46.7219 273.199 44.5309L271.541 45.6491ZM273.4 52.16V77.5H275.4V52.16H273.4ZM274.4 76.5H265.72V78.5H274.4V76.5ZM266.72 77.5V70.99H264.72V77.5H266.72ZM265.791 71.9875L267.751 71.8475L267.609 69.8525L265.649 69.9925L265.791 71.9875ZM266.823 70.3355C265.896 71.8799 264.801 73.1677 263.542 74.2096L264.818 75.7504C266.265 74.5523 267.504 73.0868 268.537 71.3645L266.823 70.3355ZM263.559 74.1965C262.297 75.1968 260.857 75.9845 259.229 76.5565L259.891 78.4435C261.717 77.8022 263.356 76.9099 264.801 75.7635L263.559 74.1965ZM259.251 76.5488C257.639 77.0718 255.831 77.34 253.82 77.34V79.34C256.009 79.34 258.028 79.0482 259.869 78.4512L259.251 76.5488ZM296.087 77.5H295.087V78.5H296.087V77.5ZM296.087 25.35V24.35H295.087V25.35H296.087ZM305.187 25.35L305.992 24.7572L305.692 24.35H305.187V25.35ZM324.717 51.88V52.88H326.695L325.522 51.2872L324.717 51.88ZM320.377 51.88L319.565 51.2955L318.424 52.88H320.377V51.88ZM339.487 25.35V24.35H338.975L338.675 24.7655L339.487 25.35ZM348.587 25.35H349.587V24.35H348.587V25.35ZM348.587 77.5V78.5H349.587V77.5H348.587ZM338.997 77.5H337.997V78.5H338.997V77.5ZM338.997 36.2L339.235 35.2288L337.997 34.9251V36.2H338.997ZM342.707 37.11L343.507 37.7103L344.416 36.4995L342.945 36.1388L342.707 37.11ZM322.897 63.5V64.5H323.397L323.697 64.1003L322.897 63.5ZM321.777 63.5L320.97 64.0907L321.27 64.5H321.777V63.5ZM302.457 37.11L302.179 36.1493L300.805 36.5463L301.65 37.7007L302.457 37.11ZM305.607 36.2H306.607V34.8702L305.329 35.2393L305.607 36.2ZM305.607 77.5V78.5H306.607V77.5H305.607ZM297.087 77.5V25.35H295.087V77.5H297.087ZM296.087 26.35H305.187V24.35H296.087V26.35ZM304.382 25.9428L323.912 52.4728L325.522 51.2872L305.992 24.7572L304.382 25.9428ZM324.717 50.88H320.377V52.88H324.717V50.88ZM321.188 52.4645L340.298 25.9345L338.675 24.7655L319.565 51.2955L321.188 52.4645ZM339.487 26.35H348.587V24.35H339.487V26.35ZM347.587 25.35V77.5H349.587V25.35H347.587ZM348.587 76.5H338.997V78.5H348.587V76.5ZM339.997 77.5V36.2H337.997V77.5H339.997ZM338.759 37.1712L342.469 38.0812L342.945 36.1388L339.235 35.2288L338.759 37.1712ZM341.907 36.5097L322.097 62.8997L323.697 64.1003L343.507 37.7103L341.907 36.5097ZM322.897 62.5H321.777V64.5H322.897V62.5ZM322.584 62.9093L303.264 36.5193L301.65 37.7007L320.97 64.0907L322.584 62.9093ZM302.734 38.0707L305.884 37.1607L305.329 35.2393L302.179 36.1493L302.734 38.0707ZM304.607 36.2V77.5H306.607V36.2H304.607ZM305.607 76.5H296.087V78.5H305.607V76.5ZM363.677 76.38L363.157 77.2342L363.166 77.2391L363.677 76.38ZM358.707 70.92L357.806 71.3527L357.809 71.36L357.813 71.3672L358.707 70.92ZM357.027 39.42V38.42H356.027V39.42H357.027ZM366.197 39.42H367.197V38.42H366.197V39.42ZM367.107 66.16L366.213 66.6072L366.223 66.6282L366.235 66.6486L367.107 66.16ZM369.837 68.96L369.323 69.8175L369.343 69.8295L369.363 69.8405L369.837 68.96ZM377.887 68.96L378.376 69.8325L378.389 69.8252L378.402 69.8175L377.887 68.96ZM380.617 66.09L381.498 66.5641L381.498 66.5641L380.617 66.09ZM381.597 39.42V38.42H380.597V39.42H381.597ZM390.767 39.42H391.767V38.42H390.767V39.42ZM390.767 77.5V78.5H391.767V77.5H390.767ZM382.087 77.5H381.087V78.5H382.087V77.5ZM382.087 70.01L382.953 69.509L381.087 66.2869V70.01H382.087ZM382.857 71.34L383.792 71.6952L383.961 71.2506L383.723 70.839L382.857 71.34ZM378.447 76.59L377.953 75.7205L377.945 75.7255L378.447 76.59ZM371.377 77.34C368.59 77.34 366.205 76.7221 364.189 75.5209L363.166 77.2391C365.536 78.6512 368.285 79.34 371.377 79.34V77.34ZM364.197 75.5258C362.218 74.3207 360.688 72.6447 359.602 70.4728L357.813 71.3672C359.06 73.862 360.844 75.8259 363.157 77.2342L364.197 75.5258ZM359.609 70.4873C358.566 68.3142 358.027 65.7376 358.027 62.73H356.027C356.027 65.9758 356.609 68.8592 357.806 71.3527L359.609 70.4873ZM358.027 62.73V39.42H356.027V62.73H358.027ZM357.027 40.42H366.197V38.42H357.027V40.42ZM365.197 39.42V61.96H367.197V39.42H365.197ZM365.197 61.96C365.197 63.6756 365.526 65.2333 366.213 66.6072L368.002 65.7128C367.475 64.66 367.197 63.4177 367.197 61.96H365.197ZM366.235 66.6486C366.975 67.9701 368.009 69.0295 369.323 69.8175L370.352 68.1025C369.332 67.4905 368.546 66.6832 367.98 65.6714L366.235 66.6486ZM369.363 69.8405C370.734 70.5787 372.253 70.94 373.897 70.94V68.94C372.555 68.94 371.367 68.6479 370.311 68.0795L369.363 69.8405ZM373.897 70.94C375.541 70.94 377.043 70.5789 378.376 69.8325L377.399 68.0875C376.398 68.6478 375.24 68.94 373.897 68.94V70.94ZM378.402 69.8175C379.725 69.0237 380.76 67.9337 381.498 66.5641L379.737 65.6159C379.168 66.673 378.383 67.4963 377.373 68.1025L378.402 69.8175ZM381.498 66.5641C382.245 65.1764 382.597 63.5596 382.597 61.75H380.597C380.597 63.3004 380.296 64.5769 379.737 65.6159L381.498 66.5641ZM382.597 61.75V39.42H380.597V61.75H382.597ZM381.597 40.42H390.767V38.42H381.597V40.42ZM389.767 39.42V77.5H391.767V39.42H389.767ZM390.767 76.5H382.087V78.5H390.767V76.5ZM383.087 77.5V70.01H381.087V77.5H383.087ZM381.222 70.511L381.992 71.841L383.723 70.839L382.953 69.509L381.222 70.511ZM381.923 70.9848C381.113 73.114 379.792 74.6757 377.953 75.7205L378.941 77.4595C381.209 76.171 382.828 74.2326 383.792 71.6952L381.923 70.9848ZM377.945 75.7255C376.114 76.7896 373.937 77.34 371.377 77.34V79.34C374.231 79.34 376.767 78.7237 378.95 77.4545L377.945 75.7255ZM403.141 75.47L402.593 76.306L402.6 76.311L402.608 76.3158L403.141 75.47ZM396.981 67.56L396.549 66.6583L395.751 67.0413L396.034 67.8802L396.981 67.56ZM403.841 64.27L404.751 63.8547L404.328 62.9276L403.409 63.3683L403.841 64.27ZM407.901 69.31L407.326 70.1283L407.337 70.1353L407.901 69.31ZM417.771 70.01L417.165 69.2146L417.165 69.2146L417.771 70.01ZM418.611 65.25L417.803 65.8382L417.833 65.8803L417.868 65.919L418.611 65.25ZM417.001 63.99L416.505 64.8582L416.541 64.8787L416.579 64.8962L417.001 63.99ZM414.831 63.08L415.114 62.1206L415.102 62.1173L414.831 63.08ZM408.601 61.33L408.323 62.2905L408.331 62.2927L408.601 61.33ZM401.251 57.06L400.491 57.7093L400.5 57.7198L401.251 57.06ZM400.551 44.18L399.726 43.6153L399.723 43.6201L400.551 44.18ZM405.521 40.05L405.106 39.1403L405.099 39.1438L405.521 40.05ZM422.391 41.17L422.923 40.3228L422.923 40.3228L422.391 41.17ZM428.271 48.45L428.697 49.355L429.53 48.9633L429.208 48.1004L428.271 48.45ZM421.271 51.74L420.336 52.0939L420.719 53.1048L421.697 52.645L421.271 51.74ZM417.981 47.61L417.427 48.442L417.427 48.442L417.981 47.61ZM409.161 47.12L409.781 47.9049L409.781 47.9049L409.161 47.12ZM409.931 52.93L409.484 53.8244L409.496 53.8305L409.509 53.8362L409.931 52.93ZM412.311 53.84L412.01 54.7936L412.018 54.7959L412.025 54.7981L412.311 53.84ZM418.401 55.66L418.115 56.6181L418.115 56.6182L418.401 55.66ZM425.611 59.86L424.868 60.529L424.877 60.539L425.611 59.86ZM426.381 72.81L427.2 73.385L427.207 73.3747L426.381 72.81ZM413.781 77.34C409.885 77.34 406.528 76.424 403.675 74.6242L402.608 76.3158C405.821 78.3427 409.558 79.34 413.781 79.34V77.34ZM403.69 74.634C400.886 72.7937 398.976 70.3366 397.929 67.2398L396.034 67.8802C397.227 71.4101 399.424 74.2263 402.593 76.306L403.69 74.634ZM397.414 68.4617L404.274 65.1717L403.409 63.3683L396.549 66.6583L397.414 68.4617ZM402.932 64.6853C403.977 66.9741 405.438 68.801 407.327 70.1282L408.476 68.4918C406.912 67.3923 405.666 65.8593 404.751 63.8547L402.932 64.6853ZM407.337 70.1353C409.276 71.4623 411.433 72.13 413.781 72.13V70.13C411.837 70.13 410.073 69.5843 408.466 68.4847L407.337 70.1353ZM413.781 72.13C415.602 72.13 417.17 71.7256 418.378 70.8054L417.165 69.2146C416.413 69.7877 415.321 70.13 413.781 70.13V72.13ZM418.378 70.8054C419.601 69.8731 420.241 68.601 420.241 67.07H418.241C418.241 67.9656 417.902 68.6536 417.165 69.2146L418.378 70.8054ZM420.241 67.07C420.241 66.1257 419.97 65.265 419.355 64.581L417.868 65.919C418.093 66.1683 418.241 66.521 418.241 67.07H420.241ZM419.42 64.6618C418.928 63.9848 418.245 63.4667 417.424 63.0838L416.579 64.8962C417.158 65.1667 417.548 65.4886 417.803 65.8382L419.42 64.6618ZM417.498 63.1218C416.77 62.7062 415.974 62.3738 415.114 62.1206L414.549 64.0394C415.275 64.2529 415.926 64.5271 416.505 64.8582L417.498 63.1218ZM415.102 62.1173L408.872 60.3673L408.331 62.2927L414.561 64.0427L415.102 62.1173ZM408.88 60.3695C405.786 59.4728 403.523 58.1315 402.003 56.4002L400.5 57.7198C402.34 59.8152 404.977 61.3205 408.323 62.2905L408.88 60.3695ZM402.012 56.4107C400.54 54.6859 399.801 52.6554 399.801 50.27H397.801C397.801 53.1113 398.697 55.6074 400.491 57.7093L402.012 56.4107ZM399.801 50.27C399.801 48.1114 400.338 46.2818 401.38 44.7399L399.723 43.6201C398.431 45.5316 397.801 47.7619 397.801 50.27H399.801ZM401.377 44.7447C402.481 43.1307 403.993 41.8666 405.944 40.9562L405.099 39.1438C402.849 40.1934 401.049 41.6826 399.726 43.6153L401.377 44.7447ZM405.937 40.9597C407.933 40.0483 410.238 39.58 412.871 39.58V37.58C409.999 37.58 407.403 38.0917 405.106 39.1403L405.937 40.9597ZM412.871 39.58C416.297 39.58 419.283 40.4007 421.86 42.0172L422.923 40.3228C419.994 38.4859 416.632 37.58 412.871 37.58V39.58ZM421.86 42.0172C424.422 43.6237 426.243 45.8729 427.335 48.7996L429.208 48.1004C427.967 44.7738 425.868 42.1696 422.923 40.3228L421.86 42.0172ZM427.846 47.545L420.846 50.835L421.697 52.645L428.697 49.355L427.846 47.545ZM422.207 51.3861C421.479 49.4637 420.249 47.9201 418.536 46.7779L417.427 48.442C418.794 49.3533 419.757 50.563 420.336 52.0939L422.207 51.3861ZM418.536 46.7779C416.826 45.6379 414.905 45.07 412.801 45.07V47.07C414.524 47.07 416.057 47.5287 417.427 48.442L418.536 46.7779ZM412.801 45.07C411.118 45.07 409.659 45.4528 408.542 46.3351L409.781 47.9049C410.437 47.3872 411.405 47.07 412.801 47.07V45.07ZM408.542 46.3351C407.417 47.2228 406.831 48.4209 406.831 49.85H408.831C408.831 49.0391 409.132 48.4172 409.781 47.9049L408.542 46.3351ZM406.831 49.85C406.831 50.7385 407.072 51.5563 407.583 52.2582L409.2 51.0818C408.964 50.757 408.831 50.3615 408.831 49.85H406.831ZM407.583 52.2582C408.064 52.9194 408.709 53.437 409.484 53.8244L410.379 52.0356C409.847 51.7697 409.466 51.4473 409.2 51.0818L407.583 52.2582ZM409.509 53.8362C410.255 54.1845 411.09 54.503 412.01 54.7936L412.613 52.8864C411.759 52.617 411.008 52.3288 410.354 52.0238L409.509 53.8362ZM412.025 54.7981L418.115 56.6181L418.688 54.7019L412.598 52.8819L412.025 54.7981ZM418.115 56.6182C421.118 57.5144 423.343 58.8341 424.868 60.529L426.355 59.191C424.52 57.1526 421.939 55.6723 418.688 54.7018L418.115 56.6182ZM424.877 60.539C426.421 62.2083 427.201 64.2473 427.201 66.72H429.201C429.201 63.7794 428.255 61.2451 426.346 59.181L424.877 60.539ZM427.201 66.72C427.201 68.8188 426.648 70.6492 425.556 72.2453L427.207 73.3747C428.541 71.4241 429.201 69.1946 429.201 66.72H427.201ZM425.563 72.2351C424.464 73.7997 422.931 75.0452 420.926 75.9603L421.757 77.7797C424.046 76.7348 425.872 75.2736 427.2 73.3849L425.563 72.2351ZM420.926 75.9603C418.936 76.8689 416.563 77.34 413.781 77.34V79.34C416.786 79.34 419.454 78.8311 421.757 77.7797L420.926 75.9603ZM443.369 75.75L442.858 76.6099L442.866 76.6145L442.874 76.6191L443.369 75.75ZM436.299 68.61L435.429 69.1047L435.433 69.1105L436.299 68.61ZM436.299 48.24L437.164 48.7405L437.164 48.7405L436.299 48.24ZM443.369 41.17L442.874 40.3009L442.868 40.3043L443.369 41.17ZM461.149 40.05L460.761 40.972L460.769 40.9753L460.777 40.9785L461.149 40.05ZM467.169 43.97L466.461 44.6771L466.471 44.6869L466.481 44.6965L467.169 43.97ZM470.879 49.85L471.277 50.7671L472.111 50.4044L471.829 49.5396L470.879 49.85ZM462.829 53.35L461.889 53.6936L462.254 54.6902L463.227 54.2671L462.829 53.35ZM459.259 48.73L458.677 49.5438L458.688 49.5514L459.259 48.73ZM448.199 48.45L447.673 47.5991L447.662 47.6063L448.199 48.45ZM444.559 52.51L443.669 52.0532L443.669 52.0532L444.559 52.51ZM444.559 64.41L443.669 64.8668L443.669 64.8668L444.559 64.41ZM448.199 68.47L447.662 69.3137L447.673 69.3208L448.199 68.47ZM459.329 68.19L459.91 69.0037L459.91 69.0037L459.329 68.19ZM462.829 63.5L463.241 62.5888L462.252 62.1417L461.887 63.1637L462.829 63.5ZM470.879 67.14L471.823 67.4685L472.123 66.6054L471.291 66.2288L470.879 67.14ZM467.239 72.95L467.946 73.6572L467.955 73.6474L467.239 72.95ZM461.219 76.94L461.59 77.8685L461.598 77.8653L461.606 77.862L461.219 76.94ZM453.589 77.34C449.967 77.34 446.733 76.5147 443.863 74.8809L442.874 76.6191C446.07 78.4386 449.65 79.34 453.589 79.34V77.34ZM443.879 74.8901C441.039 73.2036 438.805 70.9469 437.164 68.1095L435.433 69.1105C437.246 72.2464 439.725 74.7497 442.858 76.6099L443.879 74.8901ZM437.168 68.1153C435.534 65.2451 434.709 62.0114 434.709 58.39H432.709C432.709 62.3286 433.61 65.9082 435.429 69.1047L437.168 68.1153ZM434.709 58.39C434.709 54.7684 435.534 51.5607 437.164 48.7405L435.433 47.7395C433.61 50.8926 432.709 54.4516 432.709 58.39H434.709ZM437.164 48.7405C438.803 45.9055 441.034 43.6747 443.869 42.0357L442.868 40.3043C439.73 42.1186 437.247 44.6012 435.433 47.7395L437.164 48.7405ZM443.863 42.0391C446.733 40.4053 449.967 39.58 453.589 39.58V37.58C449.65 37.58 446.07 38.4814 442.874 40.3009L443.863 42.0391ZM453.589 39.58C456.172 39.58 458.559 40.047 460.761 40.972L461.536 39.128C459.071 38.093 456.419 37.58 453.589 37.58V39.58ZM460.777 40.9785C462.992 41.8645 464.883 43.0983 466.461 44.6771L467.876 43.2629C466.094 41.4817 463.972 40.1022 461.52 39.1215L460.777 40.9785ZM466.481 44.6965C468.085 46.2138 469.232 48.0302 469.928 50.1604L471.829 49.5396C471.031 47.0965 469.705 44.9929 467.856 43.2435L466.481 44.6965ZM470.48 48.9329L462.43 52.4329L463.227 54.2671L471.277 50.7671L470.48 48.9329ZM463.768 53.0064C462.997 50.8988 461.677 49.1923 459.829 47.9086L458.688 49.5514C460.2 50.601 461.26 51.9745 461.889 53.6936L463.768 53.0064ZM459.84 47.9163C458.025 46.6198 455.928 45.98 453.589 45.98V47.98C455.542 47.98 457.226 48.5068 458.677 49.5437L459.84 47.9163ZM453.589 45.98C451.411 45.98 449.43 46.5142 447.673 47.5992L448.724 49.3008C450.141 48.4258 451.753 47.98 453.589 47.98V45.98ZM447.662 47.6063C445.962 48.6878 444.631 50.1789 443.669 52.0532L445.448 52.9668C446.259 51.3877 447.355 50.1722 448.735 49.2937L447.662 47.6063ZM443.669 52.0532C442.699 53.9415 442.229 56.0857 442.229 58.46H444.229C444.229 56.3543 444.644 54.5318 445.448 52.9668L443.669 52.0532ZM442.229 58.46C442.229 60.8343 442.699 62.9785 443.669 64.8668L445.448 63.9532C444.644 62.3882 444.229 60.5657 444.229 58.46H442.229ZM443.669 64.8668C444.631 66.7411 445.962 68.2322 447.662 69.3137L448.735 67.6263C447.355 66.7478 446.259 65.5323 445.448 63.9532L443.669 64.8668ZM447.673 69.3208C449.43 70.4058 451.411 70.94 453.589 70.94V68.94C451.753 68.94 450.141 68.4942 448.724 67.6192L447.673 69.3208ZM453.589 70.94C455.97 70.94 458.091 70.3028 459.91 69.0037L458.747 67.3763C457.299 68.4105 455.594 68.94 453.589 68.94V70.94ZM459.91 69.0037C461.716 67.7139 463.004 65.981 463.77 63.8363L461.887 63.1637C461.253 64.939 460.208 66.3328 458.747 67.3763L459.91 69.0037ZM462.417 64.4112L470.467 68.0512L471.291 66.2288L463.241 62.5888L462.417 64.4112ZM469.934 66.8115C469.238 68.8118 468.106 70.6244 466.522 72.2526L467.955 73.6474C469.731 71.8223 471.025 69.7615 471.823 67.4685L469.934 66.8115ZM466.531 72.2429C464.949 73.8253 463.053 75.0849 460.831 76.018L461.606 77.862C464.051 76.8351 466.168 75.4347 467.946 73.6571L466.531 72.2429ZM460.847 76.0115C458.643 76.8933 456.227 77.34 453.589 77.34V79.34C456.457 79.34 459.128 78.8534 461.59 77.8685L460.847 76.0115ZM483.716 76.38L483.196 77.2342L483.205 77.2391L483.716 76.38ZM478.746 70.92L477.845 71.3527L477.848 71.36L477.852 71.3672L478.746 70.92ZM477.066 39.42V38.42H476.066V39.42H477.066ZM486.236 39.42H487.236V38.42H486.236V39.42ZM487.146 66.16L486.252 66.6072L486.262 66.6282L486.274 66.6486L487.146 66.16ZM489.876 68.96L489.362 69.8175L489.382 69.8295L489.402 69.8405L489.876 68.96ZM497.926 68.96L498.415 69.8325L498.428 69.8252L498.441 69.8175L497.926 68.96ZM500.656 66.09L501.537 66.5641L501.537 66.5641L500.656 66.09ZM501.636 39.42V38.42H500.636V39.42H501.636ZM510.806 39.42H511.806V38.42H510.806V39.42ZM510.806 77.5V78.5H511.806V77.5H510.806ZM502.126 77.5H501.126V78.5H502.126V77.5ZM502.126 70.01L502.992 69.509L501.126 66.2869V70.01H502.126ZM502.896 71.34L503.831 71.6952L504 71.2506L503.762 70.839L502.896 71.34ZM498.486 76.59L497.992 75.7205L497.984 75.7255L498.486 76.59ZM491.416 77.34C488.629 77.34 486.245 76.7221 484.228 75.5209L483.205 77.2391C485.575 78.6512 488.324 79.34 491.416 79.34V77.34ZM484.236 75.5258C482.257 74.3207 480.727 72.6447 479.641 70.4728L477.852 71.3672C479.099 73.862 480.883 75.8259 483.196 77.2342L484.236 75.5258ZM479.648 70.4873C478.605 68.3142 478.066 65.7376 478.066 62.73H476.066C476.066 65.9758 476.648 68.8592 477.845 71.3527L479.648 70.4873ZM478.066 62.73V39.42H476.066V62.73H478.066ZM477.066 40.42H486.236V38.42H477.066V40.42ZM485.236 39.42V61.96H487.236V39.42H485.236ZM485.236 61.96C485.236 63.6756 485.565 65.2333 486.252 66.6072L488.041 65.7128C487.514 64.66 487.236 63.4177 487.236 61.96H485.236ZM486.274 66.6486C487.014 67.9701 488.049 69.0295 489.362 69.8175L490.391 68.1025C489.371 67.4905 488.586 66.6832 488.019 65.6714L486.274 66.6486ZM489.402 69.8405C490.773 70.5787 492.292 70.94 493.936 70.94V68.94C492.594 68.94 491.406 68.6479 490.351 68.0795L489.402 69.8405ZM493.936 70.94C495.58 70.94 497.082 70.5789 498.415 69.8325L497.438 68.0875C496.437 68.6478 495.279 68.94 493.936 68.94V70.94ZM498.441 69.8175C499.764 69.0237 500.799 67.9337 501.537 66.5641L499.776 65.6159C499.207 66.673 498.422 67.4963 497.412 68.1025L498.441 69.8175ZM501.537 66.5641C502.284 65.1764 502.636 63.5596 502.636 61.75H500.636C500.636 63.3004 500.335 64.5769 499.776 65.6159L501.537 66.5641ZM502.636 61.75V39.42H500.636V61.75H502.636ZM501.636 40.42H510.806V38.42H501.636V40.42ZM509.806 39.42V77.5H511.806V39.42H509.806ZM510.806 76.5H502.126V78.5H510.806V76.5ZM503.126 77.5V70.01H501.126V77.5H503.126ZM501.261 70.511L502.031 71.841L503.762 70.839L502.992 69.509L501.261 70.511ZM501.962 70.9848C501.153 73.114 499.831 74.6757 497.992 75.7205L498.98 77.4595C501.248 76.171 502.867 74.2326 503.831 71.6952L501.962 70.9848ZM497.984 75.7255C496.153 76.7896 493.976 77.34 491.416 77.34V79.34C494.27 79.34 496.806 78.7237 498.989 77.4545L497.984 75.7255ZM519.331 77.5H518.331V78.5H519.331V77.5ZM519.331 24.51V23.51H518.331V24.51H519.331ZM528.501 24.51H529.501V23.51H528.501V24.51ZM528.501 77.5V78.5H529.501V77.5H528.501ZM520.331 77.5V24.51H518.331V77.5H520.331ZM519.331 25.51H528.501V23.51H519.331V25.51ZM527.501 24.51V77.5H529.501V24.51H527.501ZM528.501 76.5H519.331V78.5H528.501V76.5ZM541.587 77.01L541.175 77.9211L541.175 77.9211L541.587 77.01ZM537.037 73.23L536.194 73.7684L536.202 73.7792L537.037 73.23ZM536.827 61.82L537.696 62.3162L537.701 62.3056L536.827 61.82ZM541.167 57.62L541.663 58.4882L541.663 58.4882L541.167 57.62ZM548.587 55.24L548.742 56.228L548.748 56.227L548.587 55.24ZM561.047 53.21H562.047V52.0339L560.886 52.223L561.047 53.21ZM561.047 60.21L561.215 61.1959L562.047 61.0544V60.21H561.047ZM550.337 62.03L550.17 61.0441L550.161 61.0457L550.337 62.03ZM546.277 63.78L545.59 63.054L545.59 63.054L546.277 63.78ZM546.417 70.22L545.788 70.9972L545.808 71.0135L545.829 71.0287L546.417 70.22ZM555.237 70.15L555.718 71.0269L555.728 71.0216L555.237 70.15ZM558.667 66.72L557.802 66.2179L557.796 66.2284L557.79 66.2392L558.667 66.72ZM557.967 48.1L557.303 48.8474L557.317 48.8604L557.333 48.8727L557.967 48.1ZM547.677 48.03L548.244 48.8541L548.249 48.8504L547.677 48.03ZM544.387 52.16L543.95 53.0594L544.912 53.5269L545.314 52.5357L544.387 52.16ZM536.897 48.52L535.96 48.1713L535.643 49.0224L536.46 49.4194L536.897 48.52ZM540.397 43.34L541.071 44.079L541.072 44.078L540.397 43.34ZM546.137 39.84L545.78 38.9061L545.78 38.9061L546.137 39.84ZM561.537 40.33L561.097 41.2279L561.104 41.2314L561.111 41.2348L561.537 40.33ZM567.067 45.09L566.224 45.6269L566.231 45.6381L566.238 45.6491L567.067 45.09ZM569.097 77.5V78.5H570.097V77.5H569.097ZM560.417 77.5H559.417V78.5H560.417V77.5ZM560.417 70.99L560.346 69.9925L559.417 70.0589V70.99H560.417ZM562.377 70.85L563.235 71.3645L564.224 69.7155L562.306 69.8525L562.377 70.85ZM558.877 74.98L559.499 75.7635L559.507 75.757L559.515 75.7504L558.877 74.98ZM554.257 77.5L554.566 78.4512L554.577 78.4475L554.589 78.4435L554.257 77.5ZM548.517 77.34C545.967 77.34 543.803 76.9148 541.999 76.0989L541.175 77.9211C543.291 78.8785 545.748 79.34 548.517 79.34V77.34ZM541.999 76.0989C540.194 75.2822 538.832 74.1401 537.873 72.6808L536.202 73.7792C537.389 75.5866 539.06 76.9645 541.175 77.9211L541.999 76.0989ZM537.88 72.6916C536.92 71.1883 536.427 69.4424 536.427 67.42H534.427C534.427 69.7843 535.008 71.9117 536.195 73.7684L537.88 72.6916ZM536.427 67.42C536.427 65.4733 536.858 63.7814 537.696 62.3161L535.959 61.3239C534.93 63.1253 534.427 65.1667 534.427 67.42H536.427ZM537.701 62.3056C538.532 60.8113 539.834 59.5336 541.663 58.4882L540.671 56.7518C538.581 57.9464 536.99 59.4687 535.953 61.3344L537.701 62.3056ZM541.663 58.4882C543.489 57.4453 545.837 56.6819 548.742 56.228L548.433 54.252C545.364 54.7315 542.766 55.5547 540.671 56.7518L541.663 58.4882ZM548.748 56.227L561.208 54.197L560.886 52.223L548.426 54.253L548.748 56.227ZM560.047 53.21V60.21H562.047V53.21H560.047ZM560.88 59.2241L550.17 61.0441L550.505 63.0159L561.215 61.1959L560.88 59.2241ZM550.161 61.0457C548.241 61.3903 546.673 62.0276 545.59 63.054L546.965 64.506C547.655 63.8524 548.794 63.323 550.514 63.0143L550.161 61.0457ZM545.59 63.054C544.481 64.1043 543.947 65.4749 543.947 67.07H545.947C545.947 65.9585 546.3 65.1357 546.965 64.506L545.59 63.054ZM543.947 67.07C543.947 68.6657 544.564 70.0062 545.788 70.9972L547.046 69.4428C546.311 68.8471 545.947 68.0876 545.947 67.07H543.947ZM545.829 71.0287C547.055 71.9205 548.531 72.34 550.197 72.34V70.34C548.877 70.34 547.833 70.0128 547.005 69.4113L545.829 71.0287ZM550.197 72.34C552.252 72.34 554.102 71.913 555.718 71.0268L554.756 69.2732C553.479 69.9736 551.97 70.34 550.197 70.34V72.34ZM555.728 71.0216C557.377 70.0937 558.657 68.8178 559.544 67.2008L557.79 66.2392C557.091 67.5155 556.084 68.5263 554.747 69.2784L555.728 71.0216ZM559.532 67.2221C560.464 65.6179 560.927 63.8571 560.927 61.96H558.927C558.927 63.5162 558.551 64.9288 557.802 66.2179L559.532 67.2221ZM560.927 61.96V52.16H558.927V61.96H560.927ZM560.927 52.16C560.927 50.2154 560.13 48.5828 558.602 47.3273L557.333 48.8727C558.417 49.7639 558.927 50.8379 558.927 52.16H560.927ZM558.632 47.3526C557.147 46.0326 555.21 45.42 552.927 45.42V47.42C554.845 47.42 556.268 47.9274 557.303 48.8474L558.632 47.3526ZM552.927 45.42C550.772 45.42 548.821 46.014 547.105 47.2096L548.249 48.8504C549.614 47.8993 551.162 47.42 552.927 47.42V45.42ZM547.111 47.206C545.451 48.3468 544.232 49.8815 543.461 51.7843L545.314 52.5357C545.943 50.9851 546.917 49.7665 548.244 48.854L547.111 47.206ZM544.824 51.2606L537.334 47.6206L536.46 49.4194L543.95 53.0594L544.824 51.2606ZM537.834 48.8687C538.525 47.0117 539.602 45.4187 541.071 44.079L539.724 42.601C538.02 44.1546 536.762 46.015 535.96 48.1713L537.834 48.8687ZM541.072 44.078C542.607 42.6744 544.411 41.5718 546.495 40.7739L545.78 38.9061C543.476 39.7882 541.454 41.019 539.722 42.602L541.072 44.078ZM546.495 40.7739C548.564 39.9815 550.821 39.58 553.277 39.58V37.58C550.6 37.58 548.097 38.0185 545.78 38.9061L546.495 40.7739ZM553.277 39.58C556.279 39.58 558.877 40.1395 561.097 41.2279L561.977 39.4321C559.438 38.1872 556.529 37.58 553.277 37.58V39.58ZM561.111 41.2348C563.335 42.281 565.027 43.7462 566.224 45.6269L567.911 44.5531C566.494 42.3271 564.5 40.619 561.963 39.4252L561.111 41.2348ZM566.238 45.6491C567.467 47.4714 568.097 49.6281 568.097 52.16H570.097C570.097 49.2785 569.374 46.7219 567.896 44.5309L566.238 45.6491ZM568.097 52.16V77.5H570.097V52.16H568.097ZM569.097 76.5H560.417V78.5H569.097V76.5ZM561.417 77.5V70.99H559.417V77.5H561.417ZM560.489 71.9875L562.449 71.8475L562.306 69.8525L560.346 69.9925L560.489 71.9875ZM561.52 70.3355C560.593 71.8799 559.499 73.1677 558.24 74.2096L559.515 75.7504C560.963 74.5523 562.201 73.0868 563.235 71.3645L561.52 70.3355ZM558.256 74.1965C556.995 75.1968 555.554 75.9845 553.926 76.5565L554.589 78.4435C556.414 77.8022 558.053 76.9099 559.499 75.7635L558.256 74.1965ZM553.949 76.5488C552.336 77.0718 550.529 77.34 548.517 77.34V79.34C550.706 79.34 552.725 79.0482 554.566 78.4512L553.949 76.5488ZM577.573 77.5H576.573V78.5H577.573V77.5ZM577.573 39.42V38.42H576.573V39.42H577.573ZM586.183 39.42H587.183V38.42H586.183V39.42ZM586.183 47.89L585.309 48.3756L587.183 51.7491V47.89H586.183ZM585.483 46.63L584.528 46.3326L584.401 46.7414L584.609 47.1156L585.483 46.63ZM589.613 40.68L589.108 39.8169L589.098 39.8225L589.613 40.68ZM598.713 39H599.713V38H598.713V39ZM598.713 47.12V48.12H599.713V47.12H598.713ZM589.123 49.57L589.83 50.2771L589.835 50.272L589.84 50.2668L589.123 49.57ZM586.743 77.5V78.5H587.743V77.5H586.743ZM578.573 77.5V39.42H576.573V77.5H578.573ZM577.573 40.42H586.183V38.42H577.573V40.42ZM585.183 39.42V47.89H587.183V39.42H585.183ZM587.057 47.4044L586.357 46.1444L584.609 47.1156L585.309 48.3756L587.057 47.4044ZM586.437 46.9274C587.278 44.228 588.538 42.491 590.127 41.5375L589.098 39.8225C586.954 41.109 585.461 43.3387 584.528 46.3326L586.437 46.9274ZM590.118 41.543C591.85 40.5291 593.955 40 596.473 40V38C593.671 38 591.202 38.5909 589.108 39.817L590.118 41.543ZM596.473 40H598.713V38H596.473V40ZM597.713 39V47.12H599.713V39H597.713ZM598.713 46.12H595.423V48.12H598.713V46.12ZM595.423 46.12C592.583 46.12 590.209 47.0169 588.405 48.8732L589.84 50.2668C591.21 48.8564 593.036 48.12 595.423 48.12V46.12ZM588.416 48.8629C586.591 50.6871 585.743 53.2117 585.743 56.29H587.743C587.743 53.5816 588.481 51.6262 589.83 50.2771L588.416 48.8629ZM585.743 56.29V77.5H587.743V56.29H585.743ZM586.743 76.5H577.573V78.5H586.743V76.5Z" fill="#0155B5" mask="url(#path-2-outside-1_456_11)"/>
</svg>
