<svg width="446" height="97" viewBox="0 0 446 97" fill="none" xmlns="http://www.w3.org/2000/svg">
<path d="M19.39 73V59.84H6.23V51.09H19.39V38H28.14V51.09H41.23V59.84H28.14V73H19.39Z" fill="#0155B5"/>
<mask id="path-2-outside-1_456_10" maskUnits="userSpaceOnUse" x="65" y="23.5" width="379" height="56" fill="black">
<rect fill="white" x="65" y="23.5" width="379" height="56"/>
<path d="M93.73 78.34C89.9033 78.34 86.3333 77.6633 83.02 76.31C79.7067 74.9567 76.8133 73.0667 74.34 70.64C71.8667 68.2133 69.93 65.3667 68.53 62.1C67.1767 58.7867 66.5 55.2167 66.5 51.39C66.5 47.5167 67.1767 43.9467 68.53 40.68C69.8833 37.4133 71.7967 34.5667 74.27 32.14C76.7433 29.7133 79.6367 27.8467 82.95 26.54C86.2633 25.1867 89.8567 24.51 93.73 24.51C97.6033 24.51 101.197 25.1867 104.51 26.54C107.823 27.8933 110.717 29.7833 113.19 32.21C115.663 34.59 117.577 37.4133 118.93 40.68C120.33 43.9467 121.03 47.5167 121.03 51.39C121.03 55.2167 120.33 58.7867 118.93 62.1C117.53 65.3667 115.593 68.2133 113.12 70.64C110.647 73.0667 107.753 74.9567 104.44 76.31C101.173 77.6633 97.6033 78.34 93.73 78.34ZM93.73 69.66C96.2967 69.66 98.6533 69.2167 100.8 68.33C102.947 67.3967 104.813 66.1133 106.4 64.48C108.033 62.8467 109.27 60.91 110.11 58.67C110.997 56.43 111.44 54.0033 111.44 51.39C111.44 48.7767 110.997 46.3733 110.11 44.18C109.27 41.94 108.033 40.0033 106.4 38.37C104.813 36.69 102.947 35.4067 100.8 34.52C98.6533 33.6333 96.2967 33.19 93.73 33.19C91.21 33.19 88.8767 33.6333 86.73 34.52C84.5833 35.4067 82.6933 36.69 81.06 38.37C79.4733 40.0033 78.2367 41.94 77.35 44.18C76.4633 46.3733 76.02 48.7767 76.02 51.39C76.02 54.0033 76.4633 56.43 77.35 58.67C78.2367 60.91 79.4733 62.8467 81.06 64.48C82.6933 66.1133 84.5833 67.3967 86.73 68.33C88.8767 69.2167 91.21 69.66 93.73 69.66ZM149.515 78.34C146.762 78.34 144.218 77.8033 141.885 76.73C139.598 75.61 137.778 74.0233 136.425 71.97L137.335 70.15V77.5H128.725V24.51H137.895V46.98L136.495 45.09C137.802 43.0367 139.575 41.45 141.815 40.33C144.055 39.1633 146.645 38.58 149.585 38.58C153.178 38.58 156.422 39.4667 159.315 41.24C162.208 43.0133 164.495 45.3933 166.175 48.38C167.902 51.3667 168.765 54.7267 168.765 58.46C168.765 62.1467 167.925 65.5067 166.245 68.54C164.565 71.5733 162.278 73.9767 159.385 75.75C156.492 77.4767 153.202 78.34 149.515 78.34ZM148.465 69.94C150.565 69.94 152.432 69.45 154.065 68.47C155.698 67.49 156.958 66.1367 157.845 64.41C158.778 62.6833 159.245 60.7 159.245 58.46C159.245 56.22 158.778 54.26 157.845 52.58C156.958 50.8533 155.698 49.5 154.065 48.52C152.432 47.4933 150.565 46.98 148.465 46.98C146.458 46.98 144.638 47.47 143.005 48.45C141.418 49.43 140.158 50.8067 139.225 52.58C138.338 54.3067 137.895 56.2667 137.895 58.46C137.895 60.7 138.338 62.6833 139.225 64.41C140.158 66.1367 141.418 67.49 143.005 68.47C144.638 69.45 146.458 69.94 148.465 69.94ZM193.816 78.34C189.896 78.34 186.466 77.4533 183.526 75.68C180.586 73.9067 178.3 71.5033 176.666 68.47C175.033 65.4367 174.216 62.0767 174.216 58.39C174.216 54.5633 175.033 51.18 176.666 48.24C178.346 45.2533 180.61 42.8967 183.456 41.17C186.35 39.4433 189.57 38.58 193.116 38.58C196.103 38.58 198.716 39.07 200.956 40.05C203.243 41.03 205.18 42.3833 206.766 44.11C208.353 45.8367 209.566 47.82 210.406 50.06C211.246 52.2533 211.666 54.6333 211.666 57.2C211.666 57.8533 211.62 58.53 211.526 59.23C211.48 59.93 211.363 60.5367 211.176 61.05H181.776V54.05H205.996L201.656 57.34C202.076 55.1933 201.96 53.28 201.306 51.6C200.7 49.92 199.673 48.59 198.226 47.61C196.826 46.63 195.123 46.14 193.116 46.14C191.203 46.14 189.5 46.63 188.006 47.61C186.513 48.5433 185.37 49.9433 184.576 51.81C183.83 53.63 183.55 55.8467 183.736 58.46C183.55 60.7933 183.853 62.87 184.646 64.69C185.486 66.4633 186.7 67.84 188.286 68.82C189.92 69.8 191.786 70.29 193.886 70.29C195.986 70.29 197.76 69.8467 199.206 68.96C200.7 68.0733 201.866 66.8833 202.706 65.39L210.126 69.03C209.38 70.85 208.213 72.46 206.626 73.86C205.04 75.26 203.15 76.3567 200.956 77.15C198.81 77.9433 196.43 78.34 193.816 78.34ZM233.108 78.34C229.048 78.34 225.501 77.3833 222.468 75.47C219.481 73.51 217.428 70.8733 216.308 67.56L223.168 64.27C224.148 66.4167 225.501 68.0967 227.228 69.31C229.001 70.5233 230.961 71.13 233.108 71.13C234.788 71.13 236.118 70.7567 237.098 70.01C238.078 69.2633 238.568 68.2833 238.568 67.07C238.568 66.3233 238.358 65.7167 237.938 65.25C237.564 64.7367 237.028 64.3167 236.328 63.99C235.674 63.6167 234.951 63.3133 234.158 63.08L227.928 61.33C224.708 60.3967 222.258 58.9733 220.578 57.06C218.944 55.1467 218.128 52.8833 218.128 50.27C218.128 47.9367 218.711 45.9067 219.878 44.18C221.091 42.4067 222.748 41.03 224.848 40.05C226.994 39.07 229.444 38.58 232.198 38.58C235.791 38.58 238.964 39.4433 241.718 41.17C244.471 42.8967 246.431 45.3233 247.598 48.45L240.598 51.74C239.944 50.0133 238.848 48.6367 237.308 47.61C235.768 46.5833 234.041 46.07 232.128 46.07C230.588 46.07 229.374 46.42 228.488 47.12C227.601 47.82 227.158 48.73 227.158 49.85C227.158 50.55 227.344 51.1567 227.718 51.67C228.091 52.1833 228.604 52.6033 229.258 52.93C229.958 53.2567 230.751 53.56 231.638 53.84L237.728 55.66C240.854 56.5933 243.258 57.9933 244.938 59.86C246.664 61.7267 247.528 64.0133 247.528 66.72C247.528 69.0067 246.921 71.0367 245.708 72.81C244.494 74.5367 242.814 75.89 240.668 76.87C238.521 77.85 236.001 78.34 233.108 78.34ZM254.575 77.5V39.42H263.745V77.5H254.575ZM254.575 35.15V25.35H263.745V35.15H254.575ZM289.921 78.34C286.235 78.34 282.945 77.4767 280.051 75.75C277.158 73.9767 274.871 71.5733 273.191 68.54C271.511 65.5067 270.671 62.1467 270.671 58.46C270.671 54.7267 271.511 51.3667 273.191 48.38C274.871 45.3933 277.158 43.0133 280.051 41.24C282.991 39.4667 286.258 38.58 289.851 38.58C292.745 38.58 295.311 39.1633 297.551 40.33C299.838 41.45 301.635 43.0367 302.941 45.09L301.541 46.98V24.51H310.711V77.5H302.031V70.15L303.011 71.97C301.705 74.0233 299.885 75.61 297.551 76.73C295.218 77.8033 292.675 78.34 289.921 78.34ZM290.901 69.94C293.001 69.94 294.845 69.45 296.431 68.47C298.018 67.49 299.255 66.1367 300.141 64.41C301.075 62.6833 301.541 60.7 301.541 58.46C301.541 56.2667 301.075 54.3067 300.141 52.58C299.255 50.8067 298.018 49.43 296.431 48.45C294.845 47.47 293.001 46.98 290.901 46.98C288.848 46.98 287.005 47.4933 285.371 48.52C283.738 49.5 282.455 50.8533 281.521 52.58C280.635 54.26 280.191 56.22 280.191 58.46C280.191 60.7 280.635 62.6833 281.521 64.41C282.455 66.1367 283.738 67.49 285.371 68.47C287.005 69.45 288.848 69.94 290.901 69.94ZM330.793 78.34C328.133 78.34 325.823 77.8967 323.863 77.01C321.903 76.1233 320.386 74.8633 319.313 73.23C318.239 71.55 317.703 69.6133 317.703 67.42C317.703 65.32 318.169 63.4533 319.103 61.82C320.036 60.14 321.483 58.74 323.443 57.62C325.403 56.5 327.876 55.7067 330.863 55.24L343.323 53.21V60.21L332.613 62.03C330.793 62.3567 329.439 62.94 328.553 63.78C327.666 64.62 327.223 65.7167 327.223 67.07C327.223 68.3767 327.713 69.4267 328.693 70.22C329.719 70.9667 330.979 71.34 332.473 71.34C334.386 71.34 336.066 70.9433 337.513 70.15C339.006 69.31 340.149 68.1667 340.943 66.72C341.783 65.2733 342.203 63.6867 342.203 61.96V52.16C342.203 50.5267 341.549 49.1733 340.243 48.1C338.983 46.98 337.303 46.42 335.203 46.42C333.243 46.42 331.493 46.9567 329.953 48.03C328.459 49.0567 327.363 50.4333 326.663 52.16L319.173 48.52C319.919 46.5133 321.086 44.7867 322.673 43.34C324.306 41.8467 326.219 40.68 328.413 39.84C330.606 39 332.986 38.58 335.553 38.58C338.679 38.58 341.433 39.1633 343.813 40.33C346.193 41.45 348.036 43.0367 349.343 45.09C350.696 47.0967 351.373 49.4533 351.373 52.16V77.5H342.693V70.99L344.653 70.85C343.673 72.4833 342.506 73.86 341.153 74.98C339.799 76.0533 338.259 76.8933 336.533 77.5C334.806 78.06 332.893 78.34 330.793 78.34ZM377.558 78.34C373.871 78.34 370.581 77.4767 367.688 75.75C364.795 73.9767 362.508 71.5733 360.828 68.54C359.148 65.5067 358.308 62.1467 358.308 58.46C358.308 54.7267 359.148 51.3667 360.828 48.38C362.508 45.3933 364.795 43.0133 367.688 41.24C370.628 39.4667 373.895 38.58 377.488 38.58C380.381 38.58 382.948 39.1633 385.188 40.33C387.475 41.45 389.271 43.0367 390.578 45.09L389.178 46.98V24.51H398.348V77.5H389.668V70.15L390.648 71.97C389.341 74.0233 387.521 75.61 385.188 76.73C382.855 77.8033 380.311 78.34 377.558 78.34ZM378.538 69.94C380.638 69.94 382.481 69.45 384.068 68.47C385.655 67.49 386.891 66.1367 387.778 64.41C388.711 62.6833 389.178 60.7 389.178 58.46C389.178 56.2667 388.711 54.3067 387.778 52.58C386.891 50.8067 385.655 49.43 384.068 48.45C382.481 47.47 380.638 46.98 378.538 46.98C376.485 46.98 374.641 47.4933 373.008 48.52C371.375 49.5 370.091 50.8533 369.158 52.58C368.271 54.26 367.828 56.22 367.828 58.46C367.828 60.7 368.271 62.6833 369.158 64.41C370.091 66.1367 371.375 67.49 373.008 68.47C374.641 69.45 376.485 69.94 378.538 69.94ZM424.939 78.34C421.019 78.34 417.589 77.4533 414.649 75.68C411.709 73.9067 409.423 71.5033 407.789 68.47C406.156 65.4367 405.339 62.0767 405.339 58.39C405.339 54.5633 406.156 51.18 407.789 48.24C409.469 45.2533 411.733 42.8967 414.579 41.17C417.473 39.4433 420.693 38.58 424.239 38.58C427.226 38.58 429.839 39.07 432.079 40.05C434.366 41.03 436.303 42.3833 437.889 44.11C439.476 45.8367 440.689 47.82 441.529 50.06C442.369 52.2533 442.789 54.6333 442.789 57.2C442.789 57.8533 442.743 58.53 442.649 59.23C442.603 59.93 442.486 60.5367 442.299 61.05H412.899V54.05H437.119L432.779 57.34C433.199 55.1933 433.083 53.28 432.429 51.6C431.823 49.92 430.796 48.59 429.349 47.61C427.949 46.63 426.246 46.14 424.239 46.14C422.326 46.14 420.623 46.63 419.129 47.61C417.636 48.5433 416.493 49.9433 415.699 51.81C414.953 53.63 414.673 55.8467 414.859 58.46C414.673 60.7933 414.976 62.87 415.769 64.69C416.609 66.4633 417.823 67.84 419.409 68.82C421.043 69.8 422.909 70.29 425.009 70.29C427.109 70.29 428.883 69.8467 430.329 68.96C431.823 68.0733 432.989 66.8833 433.829 65.39L441.249 69.03C440.503 70.85 439.336 72.46 437.749 73.86C436.163 75.26 434.273 76.3567 432.079 77.15C429.933 77.9433 427.553 78.34 424.939 78.34Z"/>
</mask>
<path d="M83.02 76.31L82.6419 77.2358L83.02 76.31ZM74.34 70.64L73.6397 71.3538L73.6397 71.3538L74.34 70.64ZM68.53 62.1L67.6042 62.4781L67.6075 62.486L67.6109 62.4939L68.53 62.1ZM68.53 40.68L69.4539 41.0627L69.4539 41.0627L68.53 40.68ZM74.27 32.14L74.9703 32.8538L74.9703 32.8538L74.27 32.14ZM82.95 26.54L83.3169 27.4703L83.3281 27.4658L82.95 26.54ZM104.51 26.54L104.888 25.6142L104.888 25.6142L104.51 26.54ZM113.19 32.21L112.49 32.9238L112.497 32.9306L113.19 32.21ZM118.93 40.68L118.006 41.0628L118.011 41.0739L118.93 40.68ZM118.93 62.1L119.849 62.4939L119.851 62.4892L118.93 62.1ZM113.12 70.64L112.42 69.9262L112.42 69.9262L113.12 70.64ZM104.44 76.31L104.062 75.3842L104.057 75.3861L104.44 76.31ZM100.8 68.33L101.182 69.2543L101.19 69.2507L101.199 69.2471L100.8 68.33ZM106.4 64.48L105.693 63.7729L105.688 63.778L105.683 63.7832L106.4 64.48ZM110.11 58.67L109.18 58.3019L109.177 58.3104L109.174 58.3189L110.11 58.67ZM110.11 44.18L109.174 44.5311L109.178 44.543L109.183 44.5548L110.11 44.18ZM106.4 38.37L105.673 39.0566L105.683 39.067L105.693 39.0771L106.4 38.37ZM81.06 38.37L80.343 37.6729L80.3427 37.6732L81.06 38.37ZM77.35 44.18L78.2771 44.5548L78.2798 44.548L77.35 44.18ZM77.35 58.67L78.2798 58.302L78.2798 58.3019L77.35 58.67ZM81.06 64.48L80.3427 65.1768L80.3478 65.182L80.3529 65.1871L81.06 64.48ZM86.73 68.33L86.3313 69.2471L86.3397 69.2507L86.3482 69.2543L86.73 68.33ZM93.73 77.34C90.0239 77.34 86.5833 76.6852 83.3981 75.3842L82.6419 77.2358C86.0834 78.6414 89.7827 79.34 93.73 79.34V77.34ZM83.3981 75.3842C80.2009 74.0783 77.418 72.259 75.0403 69.9262L73.6397 71.3538C76.2087 73.8744 79.2124 75.835 82.6419 77.2358L83.3981 75.3842ZM75.0403 69.9262C72.6625 67.5932 70.7991 64.856 69.4491 61.7061L67.6109 62.4939C69.0609 65.8773 71.0708 68.8334 73.6397 71.3538L75.0403 69.9262ZM69.4558 61.7219C68.1548 58.5367 67.5 55.0961 67.5 51.39H65.5C65.5 55.3373 66.1986 59.0366 67.6042 62.4781L69.4558 61.7219ZM67.5 51.39C67.5 47.6354 68.1554 44.1969 69.4539 41.0627L67.6061 40.2973C66.1979 43.6964 65.5 47.3979 65.5 51.39H67.5ZM69.4539 41.0627C70.7568 37.9177 72.595 35.1843 74.9703 32.8538L73.5697 31.4262C70.9983 33.949 69.0099 36.9089 67.6061 40.2973L69.4539 41.0627ZM74.9703 32.8538C77.3454 30.5235 80.1245 28.7292 83.3169 27.4703L82.5831 25.6097C79.1488 26.9641 76.1412 28.9031 73.5697 31.4262L74.9703 32.8538ZM83.3281 27.4658C86.5119 26.1654 89.9756 25.51 93.73 25.51V23.51C89.7377 23.51 86.0148 24.208 82.5719 25.6142L83.3281 27.4658ZM93.73 25.51C97.4844 25.51 100.948 26.1654 104.132 27.4658L104.888 25.6142C101.445 24.208 97.7223 23.51 93.73 23.51V25.51ZM104.132 27.4658C107.329 28.7717 110.112 30.591 112.49 32.9238L113.89 31.4962C111.321 28.9756 108.318 27.015 104.888 25.6142L104.132 27.4658ZM112.497 32.9306C114.868 35.2121 116.704 37.9194 118.006 41.0627L119.854 40.2973C118.449 36.9072 116.459 33.9679 113.883 31.4894L112.497 32.9306ZM118.011 41.0739C119.353 44.2053 120.03 47.6398 120.03 51.39H122.03C122.03 47.3935 121.307 43.688 119.849 40.2861L118.011 41.0739ZM120.03 51.39C120.03 55.0916 119.354 58.5283 118.009 61.7108L119.851 62.4892C121.306 59.045 122.03 55.3417 122.03 51.39H120.03ZM118.011 61.7061C116.661 64.856 114.797 67.5932 112.42 69.9262L113.82 71.3538C116.389 68.8334 118.399 65.8773 119.849 62.4939L118.011 61.7061ZM112.42 69.9262C110.042 72.259 107.259 74.0783 104.062 75.3842L104.818 77.2358C108.248 75.835 111.251 73.8744 113.82 71.3538L112.42 69.9262ZM104.057 75.3861C100.923 76.6846 97.4846 77.34 93.73 77.34V79.34C97.7221 79.34 101.424 78.6421 104.823 77.2339L104.057 75.3861ZM93.73 70.66C96.4139 70.66 98.9019 70.1959 101.182 69.2543L100.418 67.4057C98.4048 68.2374 96.1795 68.66 93.73 68.66V70.66ZM101.199 69.2471C103.462 68.2633 105.437 66.9062 107.117 65.1768L105.683 63.7832C104.189 65.3204 102.432 66.5301 100.401 67.4129L101.199 69.2471ZM107.107 65.1871C108.845 63.4492 110.158 61.3899 111.046 59.0211L109.174 58.3189C108.382 60.4301 107.222 62.2441 105.693 63.7729L107.107 65.1871ZM111.04 59.038C111.977 56.6713 112.44 54.1186 112.44 51.39H110.44C110.44 53.8881 110.017 56.1887 109.18 58.3019L111.04 59.038ZM112.44 51.39C112.44 48.6617 111.977 46.1295 111.037 43.8052L109.183 44.5548C110.017 46.6172 110.44 48.8917 110.44 51.39H112.44ZM111.046 43.8289C110.158 41.4601 108.845 39.4008 107.107 37.6629L105.693 39.0771C107.222 40.6059 108.382 42.4199 109.174 44.5311L111.046 43.8289ZM107.127 37.6834C105.443 35.9001 103.458 34.5361 101.182 33.5957L100.418 35.4443C102.435 36.2773 104.184 37.4799 105.673 39.0566L107.127 37.6834ZM101.182 33.5957C98.9019 32.6541 96.4139 32.19 93.73 32.19V34.19C96.1795 34.19 98.4048 34.6126 100.418 35.4443L101.182 33.5957ZM93.73 32.19C91.0902 32.19 88.6259 32.655 86.3482 33.5957L87.1118 35.4443C89.1274 34.6117 91.3298 34.19 93.73 34.19V32.19ZM86.3482 33.5957C84.0744 34.5349 82.0706 35.896 80.343 37.6729L81.777 39.0671C83.3161 37.484 85.0923 36.2784 87.1118 35.4443L86.3482 33.5957ZM80.3427 37.6732C78.659 39.4065 77.3525 41.4566 76.4202 43.812L78.2798 44.548C79.1208 42.4233 80.2877 40.6002 81.7773 39.0668L80.3427 37.6732ZM76.4229 43.8052C75.4833 46.1295 75.02 48.6617 75.02 51.39H77.02C77.02 48.8917 77.4434 46.6172 78.2771 44.5548L76.4229 43.8052ZM75.02 51.39C75.02 54.1186 75.4834 56.6713 76.4202 59.038L78.2798 58.3019C77.4433 56.1887 77.02 53.8881 77.02 51.39H75.02ZM76.4202 59.038C77.3525 61.3934 78.659 63.4435 80.3427 65.1768L81.7773 63.7832C80.2877 62.2498 79.1208 60.4266 78.2798 58.302L76.4202 59.038ZM80.3529 65.1871C82.0761 66.9104 84.0711 68.2644 86.3313 69.2471L87.1287 67.4129C85.0955 66.5289 83.3105 65.3163 81.7671 63.7729L80.3529 65.1871ZM86.3482 69.2543C88.6259 70.195 91.0902 70.66 93.73 70.66V68.66C91.3298 68.66 89.1274 68.2383 87.1118 67.4057L86.3482 69.2543ZM141.885 76.73L141.445 77.6281L141.456 77.6334L141.467 77.6385L141.885 76.73ZM136.425 71.97L135.531 71.5228L135.273 72.0387L135.59 72.5203L136.425 71.97ZM137.335 70.15H138.335L136.441 69.7028L137.335 70.15ZM137.335 77.5V78.5H138.335V77.5H137.335ZM128.725 77.5H127.725V78.5H128.725V77.5ZM128.725 24.51V23.51H127.725V24.51H128.725ZM137.895 24.51H138.895V23.51H137.895V24.51ZM137.895 46.98L137.092 47.5752L138.895 50.01V46.98H137.895ZM136.495 45.09L135.651 44.5531L135.282 45.133L135.692 45.6852L136.495 45.09ZM141.815 40.33L142.262 41.2244L142.27 41.2207L142.277 41.2169L141.815 40.33ZM159.315 41.24L158.793 42.0926L158.793 42.0926L159.315 41.24ZM166.175 48.38L165.303 48.8703L165.309 48.8805L166.175 48.38ZM166.245 68.54L165.37 68.0555L165.37 68.0555L166.245 68.54ZM159.385 75.75L159.898 76.6088L159.908 76.6026L159.385 75.75ZM154.065 68.47L153.551 67.6125L153.551 67.6125L154.065 68.47ZM157.845 64.41L156.965 63.9345L156.96 63.9438L156.956 63.9532L157.845 64.41ZM157.845 52.58L156.956 53.0368L156.963 53.0513L156.971 53.0656L157.845 52.58ZM154.065 48.52L153.533 49.3666L153.542 49.3722L153.551 49.3775L154.065 48.52ZM143.005 48.45L142.491 47.5924L142.48 47.5992L143.005 48.45ZM139.225 52.58L138.34 52.1142L138.336 52.1232L139.225 52.58ZM139.225 64.41L138.336 64.8668L138.34 64.8762L138.345 64.8855L139.225 64.41ZM143.005 68.47L142.48 69.3209L142.491 69.3275L143.005 68.47ZM149.515 77.34C146.895 77.34 144.496 76.8303 142.303 75.8215L141.467 77.6385C143.941 78.7764 146.628 79.34 149.515 79.34V77.34ZM142.325 75.8319C140.193 74.7876 138.512 73.3185 137.26 71.4197L135.59 72.5203C137.045 74.7282 139.004 76.4324 141.445 77.6281L142.325 75.8319ZM137.32 72.4172L138.23 70.5972L136.441 69.7028L135.531 71.5228L137.32 72.4172ZM136.335 70.15V77.5H138.335V70.15H136.335ZM137.335 76.5H128.725V78.5H137.335V76.5ZM129.725 77.5V24.51H127.725V77.5H129.725ZM128.725 25.51H137.895V23.51H128.725V25.51ZM136.895 24.51V46.98H138.895V24.51H136.895ZM138.699 46.3848L137.299 44.4948L135.692 45.6852L137.092 47.5752L138.699 46.3848ZM137.339 45.6269C138.545 43.731 140.179 42.2658 142.262 41.2244L141.368 39.4356C138.971 40.6342 137.058 42.3423 135.651 44.5531L137.339 45.6269ZM142.277 41.2169C144.353 40.1359 146.779 39.58 149.585 39.58V37.58C146.511 37.58 143.758 38.1908 141.353 39.4431L142.277 41.2169ZM149.585 39.58C153.005 39.58 156.066 40.4214 158.793 42.0926L159.838 40.3874C156.778 38.5119 153.352 37.58 149.585 37.58V39.58ZM158.793 42.0926C161.539 43.776 163.706 46.0306 165.304 48.8703L167.047 47.8897C165.284 44.756 162.878 42.2507 159.838 40.3874L158.793 42.0926ZM165.309 48.8805C166.941 51.7026 167.765 54.8875 167.765 58.46H169.765C169.765 54.5658 168.863 51.0307 167.041 47.8795L165.309 48.8805ZM167.765 58.46C167.765 61.9882 166.963 65.1798 165.37 68.0555L167.12 69.0245C168.887 65.8335 169.765 62.3051 169.765 58.46H167.765ZM165.37 68.0555C163.772 70.9412 161.605 73.2163 158.863 74.8974L159.908 76.6026C162.952 74.737 165.358 72.2054 167.12 69.0245L165.37 68.0555ZM158.873 74.8913C156.149 76.5169 153.039 77.34 149.515 77.34V79.34C153.365 79.34 156.835 78.4364 159.898 76.6087L158.873 74.8913ZM148.465 70.94C150.727 70.94 152.775 70.4101 154.58 69.3275L153.551 67.6125C152.088 68.4899 150.403 68.94 148.465 68.94V70.94ZM154.58 69.3275C156.376 68.2496 157.764 66.7561 158.735 64.8668L156.956 63.9532C156.152 65.5173 155.021 66.7304 153.551 67.6125L154.58 69.3275ZM158.725 64.8855C159.748 62.9933 160.245 60.8423 160.245 58.46H158.245C158.245 60.5577 157.809 62.3734 156.965 63.9345L158.725 64.8855ZM160.245 58.46C160.245 56.0784 159.748 53.9458 158.719 52.0944L156.971 53.0656C157.809 54.5741 158.245 56.3616 158.245 58.46H160.245ZM158.735 52.1232C157.764 50.2339 156.376 48.7404 154.58 47.6625L153.551 49.3775C155.021 50.2596 156.152 51.4727 156.956 53.0368L158.735 52.1232ZM154.597 47.6734C152.79 46.5377 150.736 45.98 148.465 45.98V47.98C150.394 47.98 152.073 48.449 153.533 49.3666L154.597 47.6734ZM148.465 45.98C146.287 45.98 144.288 46.5142 142.491 47.5925L143.52 49.3075C144.989 48.4258 146.63 47.98 148.465 47.98V45.98ZM142.48 47.5992C140.73 48.6801 139.35 50.195 138.34 52.1143L140.11 53.0457C140.967 51.4184 142.107 50.1799 143.531 49.3008L142.48 47.5992ZM138.336 52.1232C137.367 54.0086 136.895 56.1286 136.895 58.46H138.895C138.895 56.4047 139.31 54.6047 140.115 53.0368L138.336 52.1232ZM136.895 58.46C136.895 60.8343 137.366 62.9785 138.336 64.8668L140.115 63.9532C139.311 62.3882 138.895 60.5657 138.895 58.46H136.895ZM138.345 64.8855C139.357 66.7577 140.736 68.244 142.48 69.3208L143.531 67.6192C142.101 66.736 140.959 65.5156 140.105 63.9345L138.345 64.8855ZM142.491 69.3275C144.288 70.4058 146.287 70.94 148.465 70.94V68.94C146.63 68.94 144.989 68.4942 143.52 67.6125L142.491 69.3275ZM183.526 75.68L183.01 76.5363L183.01 76.5363L183.526 75.68ZM176.666 68.47L177.547 67.9959L176.666 68.47ZM176.666 48.24L175.795 47.7497L175.792 47.7544L176.666 48.24ZM183.456 41.17L182.944 40.3113L182.938 40.315L183.456 41.17ZM200.956 40.05L200.555 40.9662L200.562 40.9691L200.956 40.05ZM206.766 44.11L206.03 44.7866L206.03 44.7866L206.766 44.11ZM210.406 50.06L209.47 50.4111L209.472 50.4176L210.406 50.06ZM211.526 59.23L210.535 59.0978L210.531 59.1306L210.529 59.1635L211.526 59.23ZM211.176 61.05V62.05H211.877L212.116 61.3917L211.176 61.05ZM181.776 61.05H180.776V62.05H181.776V61.05ZM181.776 54.05V53.05H180.776V54.05H181.776ZM205.996 54.05L206.6 54.8469L208.971 53.05H205.996V54.05ZM201.656 57.34L200.675 57.148L200.172 59.7203L202.26 58.1369L201.656 57.34ZM201.306 51.6L200.366 51.9396L200.37 51.9511L200.374 51.9624L201.306 51.6ZM198.226 47.61L197.653 48.4292L197.659 48.4336L197.665 48.4379L198.226 47.61ZM188.006 47.61L188.536 48.458L188.546 48.4521L188.555 48.446L188.006 47.61ZM184.576 51.81L183.656 51.4188L183.651 51.4304L184.576 51.81ZM183.736 58.46L184.733 58.5397L184.739 58.4643L184.734 58.3888L183.736 58.46ZM184.646 64.69L183.73 65.0896L183.736 65.1039L183.743 65.1181L184.646 64.69ZM188.286 68.82L187.761 69.6709L187.772 69.6775L188.286 68.82ZM199.206 68.96L198.696 68.1001L198.684 68.1074L199.206 68.96ZM202.706 65.39L203.147 64.4922L202.298 64.0759L201.835 64.8997L202.706 65.39ZM210.126 69.03L211.051 69.4096L211.407 68.5442L210.567 68.1322L210.126 69.03ZM206.626 73.86L207.288 74.6098L207.288 74.6098L206.626 73.86ZM200.956 77.15L200.616 76.2096L200.61 76.212L200.956 77.15ZM193.816 77.34C190.052 77.34 186.806 76.4903 184.043 74.8237L183.01 76.5363C186.127 78.4164 189.741 79.34 193.816 79.34V77.34ZM184.043 74.8237C181.257 73.1432 179.096 70.8721 177.547 67.9959L175.786 68.9441C177.504 72.1346 179.916 74.6701 183.01 76.5363L184.043 74.8237ZM177.547 67.9959C175.997 65.1184 175.216 61.9231 175.216 58.39H173.216C173.216 62.2302 174.069 65.7549 175.786 68.9441L177.547 67.9959ZM175.216 58.39C175.216 54.7095 176 51.4976 177.54 48.7256L175.792 47.7544C174.065 50.8624 173.216 54.4171 173.216 58.39H175.216ZM177.538 48.7303C179.136 45.8889 181.28 43.6598 183.975 42.025L182.938 40.315C179.94 42.1335 177.557 44.6177 175.795 47.7497L177.538 48.7303ZM183.969 42.0287C186.699 40.3995 189.74 39.58 193.116 39.58V37.58C189.399 37.58 186 38.4872 182.944 40.3113L183.969 42.0287ZM193.116 39.58C195.995 39.58 198.467 40.0523 200.556 40.9662L201.357 39.1338C198.966 38.0877 196.211 37.58 193.116 37.58V39.58ZM200.562 40.9691C202.727 41.8969 204.545 43.1704 206.03 44.7866L207.503 43.4334C205.815 41.5963 203.759 40.1631 201.35 39.1309L200.562 40.9691ZM206.03 44.7866C207.528 46.4167 208.674 48.289 209.47 50.4111L211.343 49.7089C210.458 47.351 209.178 45.2566 207.503 43.4334L206.03 44.7866ZM209.472 50.4176C210.265 52.4867 210.666 54.7442 210.666 57.2H212.666C212.666 54.5224 212.228 52.02 211.34 49.7024L209.472 50.4176ZM210.666 57.2C210.666 57.8058 210.623 58.4382 210.535 59.0978L212.518 59.3622C212.616 58.6218 212.666 57.9009 212.666 57.2H210.666ZM210.529 59.1635C210.486 59.7947 210.383 60.3045 210.237 60.7083L212.116 61.3917C212.343 60.7689 212.473 60.0653 212.524 59.2965L210.529 59.1635ZM211.176 60.05H181.776V62.05H211.176V60.05ZM182.776 61.05V54.05H180.776V61.05H182.776ZM181.776 55.05H205.996V53.05H181.776V55.05ZM205.392 53.2531L201.052 56.5431L202.26 58.1369L206.6 54.8469L205.392 53.2531ZM202.638 57.532C203.086 55.2395 202.974 53.1284 202.238 51.2376L200.374 51.9624C200.946 53.4316 201.066 55.1472 200.675 57.148L202.638 57.532ZM202.247 51.2604C201.57 49.3863 200.413 47.8834 198.787 46.7821L197.665 48.4379C198.933 49.2966 199.829 50.4537 200.366 51.9396L202.247 51.2604ZM198.8 46.7908C197.204 45.6737 195.291 45.14 193.116 45.14V47.14C194.955 47.14 196.449 47.5863 197.653 48.4292L198.8 46.7908ZM193.116 45.14C191.023 45.14 189.126 45.6793 187.458 46.774L188.555 48.446C189.874 47.5807 191.383 47.14 193.116 47.14V45.14ZM187.476 46.762C185.784 47.8199 184.517 49.3931 183.656 51.4189L185.497 52.2011C186.222 50.4936 187.242 49.2668 188.536 48.458L187.476 46.762ZM183.651 51.4304C182.83 53.4324 182.545 55.8129 182.739 58.5312L184.734 58.3888C184.555 55.8805 184.829 53.8276 185.501 52.1896L183.651 51.4304ZM182.74 58.3803C182.542 60.8482 182.86 63.094 183.73 65.0896L185.563 64.2904C184.846 62.646 184.557 60.7385 184.733 58.5397L182.74 58.3803ZM183.743 65.1181C184.661 67.0563 186.001 68.5839 187.761 69.6708L188.812 67.9692C187.398 67.0961 186.312 65.8704 185.55 64.2619L183.743 65.1181ZM187.772 69.6775C189.576 70.7601 191.624 71.29 193.886 71.29V69.29C191.948 69.29 190.263 68.8399 188.801 67.9625L187.772 69.6775ZM193.886 71.29C196.127 71.29 198.091 70.8162 199.729 69.8126L198.684 68.1074C197.428 68.8772 195.846 69.29 193.886 69.29V71.29ZM199.717 69.8199C201.359 68.845 202.651 67.5285 203.578 65.8803L201.835 64.8997C201.082 66.2382 200.041 67.3016 198.696 68.1001L199.717 69.8199ZM202.266 66.2878L209.686 69.9278L210.567 68.1322L203.147 64.4922L202.266 66.2878ZM209.201 68.6504C208.517 70.3178 207.445 71.8039 205.965 73.1102L207.288 74.6098C208.981 73.1161 210.242 71.3822 211.051 69.4096L209.201 68.6504ZM205.965 73.1102C204.481 74.4189 202.703 75.4547 200.616 76.2096L201.296 78.0904C203.596 77.2587 205.598 76.1011 207.288 74.6098L205.965 73.1102ZM200.61 76.212C198.589 76.9589 196.328 77.34 193.816 77.34V79.34C196.531 79.34 199.031 78.9277 201.303 78.088L200.61 76.212ZM222.468 75.47L221.919 76.306L221.927 76.311L221.934 76.3158L222.468 75.47ZM216.308 67.56L215.875 66.6583L215.077 67.0413L215.36 67.8802L216.308 67.56ZM223.168 64.27L224.077 63.8547L223.654 62.9276L222.735 63.3683L223.168 64.27ZM227.228 69.31L226.653 70.1283L226.663 70.1353L227.228 69.31ZM237.098 70.01L236.492 69.2146L236.492 69.2146L237.098 70.01ZM237.938 65.25L237.129 65.8382L237.16 65.8803L237.194 65.919L237.938 65.25ZM236.328 63.99L235.832 64.8582L235.867 64.8787L235.905 64.8962L236.328 63.99ZM234.158 63.08L234.44 62.1206L234.428 62.1173L234.158 63.08ZM227.928 61.33L227.649 62.2905L227.657 62.2927L227.928 61.33ZM220.578 57.06L219.817 57.7093L219.826 57.7198L220.578 57.06ZM219.878 44.18L219.052 43.6153L219.049 43.6201L219.878 44.18ZM224.848 40.05L224.432 39.1403L224.425 39.1438L224.848 40.05ZM241.718 41.17L242.249 40.3228L242.249 40.3228L241.718 41.17ZM247.598 48.45L248.023 49.355L248.857 48.9633L248.535 48.1004L247.598 48.45ZM240.598 51.74L239.662 52.0939L240.045 53.1048L241.023 52.645L240.598 51.74ZM237.308 47.61L236.753 48.442L236.753 48.442L237.308 47.61ZM228.488 47.12L229.107 47.9049L229.107 47.9049L228.488 47.12ZM229.258 52.93L228.81 53.8244L228.823 53.8305L228.835 53.8362L229.258 52.93ZM231.638 53.84L231.337 54.7936L231.344 54.7959L231.351 54.7981L231.638 53.84ZM237.728 55.66L237.441 56.6181L237.442 56.6182L237.728 55.66ZM244.938 59.86L244.194 60.529L244.204 60.539L244.938 59.86ZM245.708 72.81L246.526 73.385L246.533 73.3747L245.708 72.81ZM233.108 77.34C229.211 77.34 225.854 76.424 223.001 74.6242L221.934 76.3158C225.148 78.3427 228.884 79.34 233.108 79.34V77.34ZM223.016 74.634C220.212 72.7937 218.302 70.3366 217.255 67.2398L215.36 67.8802C216.553 71.4101 218.75 74.2263 221.919 76.306L223.016 74.634ZM216.74 68.4617L223.6 65.1717L222.735 63.3683L215.875 66.6583L216.74 68.4617ZM222.258 64.6853C223.303 66.9741 224.764 68.801 226.653 70.1282L227.803 68.4918C226.238 67.3923 224.992 65.8593 224.077 63.8547L222.258 64.6853ZM226.663 70.1353C228.602 71.4623 230.759 72.13 233.108 72.13V70.13C231.163 70.13 229.4 69.5843 227.792 68.4847L226.663 70.1353ZM233.108 72.13C234.928 72.13 236.496 71.7256 237.704 70.8054L236.492 69.2146C235.739 69.7877 234.647 70.13 233.108 70.13V72.13ZM237.704 70.8054C238.927 69.8731 239.568 68.601 239.568 67.07H237.568C237.568 67.9656 237.228 68.6536 236.492 69.2146L237.704 70.8054ZM239.568 67.07C239.568 66.1257 239.297 65.265 238.681 64.581L237.194 65.919C237.419 66.1683 237.568 66.521 237.568 67.07H239.568ZM238.746 64.6618C238.254 63.9848 237.571 63.4667 236.751 63.0838L235.905 64.8962C236.484 65.1667 236.875 65.4886 237.129 65.8382L238.746 64.6618ZM236.824 63.1218C236.097 62.7062 235.301 62.3738 234.44 62.1206L233.875 64.0394C234.601 64.2529 235.252 64.5271 235.832 64.8582L236.824 63.1218ZM234.428 62.1173L228.198 60.3673L227.657 62.2927L233.887 64.0427L234.428 62.1173ZM228.206 60.3695C225.112 59.4728 222.849 58.1315 221.329 56.4002L219.826 57.7198C221.666 59.8152 224.303 61.3205 227.649 62.2905L228.206 60.3695ZM221.338 56.4107C219.866 54.6859 219.128 52.6554 219.128 50.27H217.128C217.128 53.1113 218.023 55.6074 219.817 57.7093L221.338 56.4107ZM219.128 50.27C219.128 48.1114 219.664 46.2818 220.706 44.7399L219.049 43.6201C217.758 45.5316 217.128 47.7619 217.128 50.27H219.128ZM220.703 44.7447C221.807 43.1307 223.32 41.8666 225.271 40.9562L224.425 39.1438C222.176 40.1934 220.375 41.6826 219.052 43.6153L220.703 44.7447ZM225.263 40.9597C227.259 40.0483 229.564 39.58 232.198 39.58V37.58C229.325 37.58 226.729 38.0917 224.432 39.1403L225.263 40.9597ZM232.198 39.58C235.624 39.58 238.609 40.4007 241.186 42.0172L242.249 40.3228C239.32 38.4859 235.958 37.58 232.198 37.58V39.58ZM241.186 42.0172C243.748 43.6237 245.569 45.8729 246.661 48.7996L248.535 48.1004C247.293 44.7738 245.194 42.1696 242.249 40.3228L241.186 42.0172ZM247.172 47.545L240.172 50.835L241.023 52.645L248.023 49.355L247.172 47.545ZM241.533 51.3861C240.806 49.4637 239.576 47.9201 237.862 46.7779L236.753 48.442C238.12 49.3533 239.083 50.563 239.662 52.0939L241.533 51.3861ZM237.862 46.7779C236.152 45.6379 234.231 45.07 232.128 45.07V47.07C233.851 47.07 235.383 47.5287 236.753 48.442L237.862 46.7779ZM232.128 45.07C230.444 45.07 228.986 45.4528 227.868 46.3351L229.107 47.9049C229.763 47.3872 230.732 47.07 232.128 47.07V45.07ZM227.868 46.3351C226.744 47.2228 226.158 48.4209 226.158 49.85H228.158C228.158 49.0391 228.458 48.4172 229.107 47.9049L227.868 46.3351ZM226.158 49.85C226.158 50.7385 226.398 51.5563 226.909 52.2582L228.526 51.0818C228.29 50.757 228.158 50.3615 228.158 49.85H226.158ZM226.909 52.2582C227.39 52.9194 228.036 53.437 228.81 53.8244L229.705 52.0356C229.173 51.7697 228.792 51.4473 228.526 51.0818L226.909 52.2582ZM228.835 53.8362C229.581 54.1845 230.416 54.503 231.337 54.7936L231.939 52.8864C231.086 52.617 230.334 52.3288 229.681 52.0238L228.835 53.8362ZM231.351 54.7981L237.441 56.6181L238.014 54.7019L231.924 52.8819L231.351 54.7981ZM237.442 56.6182C240.444 57.5144 242.669 58.8341 244.194 60.529L245.681 59.191C243.846 57.1526 241.265 55.6723 238.014 54.7018L237.442 56.6182ZM244.204 60.539C245.748 62.2083 246.528 64.2473 246.528 66.72H248.528C248.528 63.7794 247.581 61.2451 245.672 59.181L244.204 60.539ZM246.528 66.72C246.528 68.8188 245.974 70.6492 244.882 72.2453L246.533 73.3747C247.868 71.4241 248.528 69.1946 248.528 66.72H246.528ZM244.889 72.2351C243.79 73.7997 242.257 75.0452 240.252 75.9603L241.083 77.7797C243.372 76.7348 245.199 75.2736 246.526 73.3849L244.889 72.2351ZM240.252 75.9603C238.262 76.8689 235.889 77.34 233.108 77.34V79.34C236.113 79.34 238.78 78.8311 241.083 77.7797L240.252 75.9603ZM254.575 77.5H253.575V78.5H254.575V77.5ZM254.575 39.42V38.42H253.575V39.42H254.575ZM263.745 39.42H264.745V38.42H263.745V39.42ZM263.745 77.5V78.5H264.745V77.5H263.745ZM254.575 35.15H253.575V36.15H254.575V35.15ZM254.575 25.35V24.35H253.575V25.35H254.575ZM263.745 25.35H264.745V24.35H263.745V25.35ZM263.745 35.15V36.15H264.745V35.15H263.745ZM255.575 77.5V39.42H253.575V77.5H255.575ZM254.575 40.42H263.745V38.42H254.575V40.42ZM262.745 39.42V77.5H264.745V39.42H262.745ZM263.745 76.5H254.575V78.5H263.745V76.5ZM255.575 35.15V25.35H253.575V35.15H255.575ZM254.575 26.35H263.745V24.35H254.575V26.35ZM262.745 25.35V35.15H264.745V25.35H262.745ZM263.745 34.15H254.575V36.15H263.745V34.15ZM280.051 75.75L279.529 76.6027L279.539 76.6087L280.051 75.75ZM273.191 68.54L274.066 68.0555L273.191 68.54ZM273.191 48.38L274.063 48.8703L274.063 48.8703L273.191 48.38ZM280.051 41.24L279.535 40.3837L279.529 40.3874L280.051 41.24ZM297.551 40.33L297.089 41.2169L297.1 41.2226L297.112 41.2281L297.551 40.33ZM302.941 45.09L303.745 45.6852L304.154 45.133L303.785 44.5531L302.941 45.09ZM301.541 46.98H300.541V50.01L302.345 47.5752L301.541 46.98ZM301.541 24.51V23.51H300.541V24.51H301.541ZM310.711 24.51H311.711V23.51H310.711V24.51ZM310.711 77.5V78.5H311.711V77.5H310.711ZM302.031 77.5H301.031V78.5H302.031V77.5ZM302.031 70.15L302.912 69.6759L301.031 70.15H302.031ZM303.011 71.97L303.855 72.5069L304.17 72.0122L303.892 71.4959L303.011 71.97ZM297.551 76.73L297.969 77.6385L297.977 77.6351L297.984 77.6315L297.551 76.73ZM296.431 68.47L295.906 67.6192L295.906 67.6192L296.431 68.47ZM300.141 64.41L299.262 63.9345L299.257 63.9438L299.252 63.9532L300.141 64.41ZM300.141 52.58L299.247 53.0272L299.254 53.0415L299.262 53.0555L300.141 52.58ZM296.431 48.45L295.906 49.3008L295.906 49.3008L296.431 48.45ZM285.371 48.52L285.886 49.3775L285.895 49.3722L285.904 49.3666L285.371 48.52ZM281.521 52.58L280.642 52.1045L280.637 52.1132L281.521 52.58ZM281.521 64.41L280.632 64.8668L280.637 64.8762L280.642 64.8855L281.521 64.41ZM285.371 68.47L285.886 67.6125L285.886 67.6125L285.371 68.47ZM289.921 77.34C286.398 77.34 283.288 76.5169 280.564 74.8913L279.539 76.6087C282.602 78.4364 286.072 79.34 289.921 79.34V77.34ZM280.574 74.8974C277.831 73.2163 275.664 70.9412 274.066 68.0555L272.317 69.0245C274.078 72.2054 276.485 74.737 279.529 76.6026L280.574 74.8974ZM274.066 68.0555C272.474 65.1798 271.671 61.9882 271.671 58.46H269.671C269.671 62.3051 270.549 65.8335 272.317 69.0245L274.066 68.0555ZM271.671 58.46C271.671 54.8826 272.475 51.6941 274.063 48.8703L272.32 47.8897C270.548 51.0393 269.671 54.5707 269.671 58.46H271.671ZM274.063 48.8703C275.66 46.0306 277.827 43.776 280.574 42.0926L279.529 40.3874C276.489 42.2507 274.083 44.756 272.32 47.8897L274.063 48.8703ZM280.568 42.0963C283.345 40.4215 286.431 39.58 289.851 39.58V37.58C286.085 37.58 282.638 38.5119 279.535 40.3837L280.568 42.0963ZM289.851 39.58C292.607 39.58 295.012 40.1347 297.089 41.2169L298.013 39.4431C295.611 38.1919 292.882 37.58 289.851 37.58V39.58ZM297.112 41.2281C299.241 42.271 300.895 43.7361 302.098 45.6269L303.785 44.5531C302.375 42.3372 300.435 40.629 297.991 39.4319L297.112 41.2281ZM302.138 44.4948L300.738 46.3848L302.345 47.5752L303.745 45.6852L302.138 44.4948ZM302.541 46.98V24.51H300.541V46.98H302.541ZM301.541 25.51H310.711V23.51H301.541V25.51ZM309.711 24.51V77.5H311.711V24.51H309.711ZM310.711 76.5H302.031V78.5H310.711V76.5ZM303.031 77.5V70.15H301.031V77.5H303.031ZM301.151 70.6241L302.131 72.4441L303.892 71.4959L302.912 69.6759L301.151 70.6241ZM302.168 71.4331C300.968 73.3188 299.295 74.7839 297.119 75.8285L297.984 77.6315C300.475 76.4361 302.442 74.7279 303.855 72.5069L302.168 71.4331ZM297.134 75.8215C294.941 76.8303 292.541 77.34 289.921 77.34V79.34C292.808 79.34 295.496 78.7764 297.969 77.6385L297.134 75.8215ZM290.901 70.94C293.163 70.94 295.193 70.4102 296.957 69.3208L295.906 67.6192C294.496 68.4898 292.84 68.94 290.901 68.94V70.94ZM296.957 69.3208C298.705 68.2411 300.065 66.7486 301.031 64.8668L299.252 63.9532C298.445 65.5247 297.331 66.7389 295.906 67.6192L296.957 69.3208ZM301.021 64.8855C302.044 62.9933 302.541 60.8423 302.541 58.46H300.541C300.541 60.5577 300.106 62.3734 299.262 63.9345L301.021 64.8855ZM302.541 58.46C302.541 56.1205 302.042 53.9937 301.021 52.1045L299.262 53.0555C300.107 54.6196 300.541 56.4129 300.541 58.46H302.541ZM301.036 52.1328C300.072 50.2042 298.712 48.6831 296.957 47.5992L295.906 49.3008C297.324 50.1769 298.438 51.4091 299.247 53.0272L301.036 52.1328ZM296.957 47.5992C295.193 46.5098 293.163 45.98 290.901 45.98V47.98C292.84 47.98 294.496 48.4302 295.906 49.3008L296.957 47.5992ZM290.901 45.98C288.672 45.98 286.642 46.54 284.839 47.6734L285.904 49.3666C287.367 48.4467 289.024 47.98 290.901 47.98V45.98ZM284.857 47.6625C283.065 48.7377 281.658 50.2251 280.642 52.1045L282.401 53.0555C283.252 51.4816 284.411 50.2623 285.886 49.3775L284.857 47.6625ZM280.637 52.1132C279.662 53.9608 279.191 56.0864 279.191 58.46H281.191C281.191 56.3536 281.608 54.5592 282.406 53.0468L280.637 52.1132ZM279.191 58.46C279.191 60.8343 279.662 62.9785 280.632 64.8668L282.411 63.9532C281.607 62.3882 281.191 60.5657 281.191 58.46H279.191ZM280.642 64.8855C281.658 66.7649 283.065 68.2523 284.857 69.3275L285.886 67.6125C284.411 66.7277 283.252 65.5084 282.401 63.9345L280.642 64.8855ZM284.857 69.3275C286.658 70.408 288.681 70.94 290.901 70.94V68.94C289.015 68.94 287.352 68.492 285.886 67.6125L284.857 69.3275ZM323.863 77.01L323.45 77.9211L323.45 77.9211L323.863 77.01ZM319.313 73.23L318.47 73.7684L318.477 73.7792L319.313 73.23ZM319.103 61.82L319.971 62.3162L319.977 62.3056L319.103 61.82ZM323.443 57.62L323.939 58.4882L323.939 58.4882L323.443 57.62ZM330.863 55.24L331.017 56.228L331.023 56.227L330.863 55.24ZM343.323 53.21H344.323V52.0339L343.162 52.223L343.323 53.21ZM343.323 60.21L343.49 61.1959L344.323 61.0544V60.21H343.323ZM332.613 62.03L332.445 61.0441L332.436 61.0457L332.613 62.03ZM328.553 63.78L327.865 63.054L327.865 63.054L328.553 63.78ZM328.693 70.22L328.063 70.9972L328.084 71.0135L328.104 71.0287L328.693 70.22ZM337.513 70.15L337.994 71.0269L338.003 71.0216L337.513 70.15ZM340.943 66.72L340.078 66.2179L340.072 66.2284L340.066 66.2392L340.943 66.72ZM340.243 48.1L339.578 48.8474L339.593 48.8604L339.608 48.8727L340.243 48.1ZM329.953 48.03L330.519 48.8541L330.524 48.8504L329.953 48.03ZM326.663 52.16L326.226 53.0594L327.188 53.5269L327.589 52.5357L326.663 52.16ZM319.173 48.52L318.235 48.1713L317.919 49.0224L318.736 49.4194L319.173 48.52ZM322.673 43.34L323.346 44.079L323.347 44.078L322.673 43.34ZM328.413 39.84L328.055 38.9061L328.055 38.9061L328.413 39.84ZM343.813 40.33L343.373 41.2279L343.38 41.2314L343.387 41.2348L343.813 40.33ZM349.343 45.09L348.499 45.6269L348.506 45.6381L348.514 45.6491L349.343 45.09ZM351.373 77.5V78.5H352.373V77.5H351.373ZM342.693 77.5H341.693V78.5H342.693V77.5ZM342.693 70.99L342.621 69.9925L341.693 70.0589V70.99H342.693ZM344.653 70.85L345.51 71.3645L346.5 69.7155L344.581 69.8525L344.653 70.85ZM341.153 74.98L341.774 75.7635L341.782 75.757L341.79 75.7504L341.153 74.98ZM336.533 77.5L336.841 78.4512L336.853 78.4475L336.864 78.4435L336.533 77.5ZM330.793 77.34C328.242 77.34 326.078 76.9148 324.275 76.0989L323.45 77.9211C325.567 78.8785 328.023 79.34 330.793 79.34V77.34ZM324.275 76.0989C322.469 75.2822 321.107 74.1401 320.148 72.6808L318.477 73.7792C319.665 75.5866 321.336 76.9645 323.45 77.9211L324.275 76.0989ZM320.155 72.6916C319.195 71.1883 318.703 69.4424 318.703 67.42H316.703C316.703 69.7843 317.284 71.9117 318.47 73.7684L320.155 72.6916ZM318.703 67.42C318.703 65.4733 319.134 63.7814 319.971 62.3161L318.234 61.3239C317.205 63.1253 316.703 65.1667 316.703 67.42H318.703ZM319.977 62.3056C320.807 60.8113 322.109 59.5336 323.939 58.4882L322.947 56.7518C320.856 57.9464 319.265 59.4687 318.228 61.3344L319.977 62.3056ZM323.939 58.4882C325.764 57.4453 328.112 56.6819 331.017 56.228L330.708 54.252C327.64 54.7315 325.041 55.5547 322.947 56.7518L323.939 58.4882ZM331.023 56.227L343.483 54.197L343.162 52.223L330.702 54.253L331.023 56.227ZM342.323 53.21V60.21H344.323V53.21H342.323ZM343.155 59.2241L332.445 61.0441L332.78 63.0159L343.49 61.1959L343.155 59.2241ZM332.436 61.0457C330.516 61.3903 328.948 62.0276 327.865 63.054L329.24 64.506C329.93 63.8524 331.069 63.323 332.789 63.0143L332.436 61.0457ZM327.865 63.054C326.756 64.1043 326.223 65.4749 326.223 67.07H328.223C328.223 65.9585 328.576 65.1357 329.24 64.506L327.865 63.054ZM326.223 67.07C326.223 68.6657 326.839 70.0062 328.063 70.9972L329.322 69.4428C328.586 68.8471 328.223 68.0876 328.223 67.07H326.223ZM328.104 71.0287C329.331 71.9205 330.806 72.34 332.473 72.34V70.34C331.152 70.34 330.108 70.0128 329.281 69.4113L328.104 71.0287ZM332.473 72.34C334.527 72.34 336.377 71.913 337.993 71.0268L337.032 69.2732C335.755 69.9736 334.245 70.34 332.473 70.34V72.34ZM338.003 71.0216C339.652 70.0937 340.933 68.8178 341.819 67.2008L340.066 66.2392C339.366 67.5155 338.359 68.5263 337.022 69.2784L338.003 71.0216ZM341.807 67.2221C342.739 65.6179 343.203 63.8571 343.203 61.96H341.203C341.203 63.5162 340.826 64.9288 340.078 66.2179L341.807 67.2221ZM343.203 61.96V52.16H341.203V61.96H343.203ZM343.203 52.16C343.203 50.2154 342.406 48.5828 340.877 47.3273L339.608 48.8727C340.693 49.7639 341.203 50.8379 341.203 52.16H343.203ZM340.907 47.3526C339.422 46.0326 337.485 45.42 335.203 45.42V47.42C337.12 47.42 338.543 47.9274 339.578 48.8474L340.907 47.3526ZM335.203 45.42C333.048 45.42 331.096 46.014 329.381 47.2096L330.524 48.8504C331.889 47.8993 333.438 47.42 335.203 47.42V45.42ZM329.386 47.206C327.727 48.3468 326.507 49.8815 325.736 51.7843L327.589 52.5357C328.218 50.9851 329.192 49.7665 330.519 48.854L329.386 47.206ZM327.1 51.2606L319.61 47.6206L318.736 49.4194L326.226 53.0594L327.1 51.2606ZM320.11 48.8687C320.801 47.0117 321.877 45.4187 323.346 44.079L321.999 42.601C320.295 44.1546 319.038 46.015 318.235 48.1713L320.11 48.8687ZM323.347 44.078C324.883 42.6744 326.687 41.5718 328.77 40.7739L328.055 38.9061C325.752 39.7882 323.729 41.019 321.998 42.602L323.347 44.078ZM328.77 40.7739C330.839 39.9815 333.097 39.58 335.553 39.58V37.58C332.875 37.58 330.373 38.0185 328.055 38.9061L328.77 40.7739ZM335.553 39.58C338.554 39.58 341.152 40.1395 343.373 41.2279L344.253 39.4321C341.713 38.1872 338.805 37.58 335.553 37.58V39.58ZM343.387 41.2348C345.61 42.281 347.302 43.7462 348.499 45.6269L350.186 44.5531C348.77 42.3271 346.775 40.619 344.238 39.4252L343.387 41.2348ZM348.514 45.6491C349.743 47.4714 350.373 49.6281 350.373 52.16H352.373C352.373 49.2785 351.649 46.7219 350.172 44.5309L348.514 45.6491ZM350.373 52.16V77.5H352.373V52.16H350.373ZM351.373 76.5H342.693V78.5H351.373V76.5ZM343.693 77.5V70.99H341.693V77.5H343.693ZM342.764 71.9875L344.724 71.8475L344.581 69.8525L342.621 69.9925L342.764 71.9875ZM343.795 70.3355C342.869 71.8799 341.774 73.1677 340.515 74.2096L341.79 75.7504C343.238 74.5523 344.477 73.0868 345.51 71.3645L343.795 70.3355ZM340.531 74.1965C339.27 75.1968 337.829 75.9845 336.201 76.5565L336.864 78.4435C338.689 77.8022 340.329 76.9099 341.774 75.7635L340.531 74.1965ZM336.224 76.5488C334.611 77.0718 332.804 77.34 330.793 77.34V79.34C332.981 79.34 335.001 79.0482 336.841 78.4512L336.224 76.5488ZM367.688 75.75L367.166 76.6027L367.176 76.6087L367.688 75.75ZM360.828 68.54L361.703 68.0555L360.828 68.54ZM360.828 48.38L361.7 48.8703L361.7 48.8703L360.828 48.38ZM367.688 41.24L367.172 40.3837L367.166 40.3874L367.688 41.24ZM385.188 40.33L384.726 41.2169L384.737 41.2226L384.748 41.2281L385.188 40.33ZM390.578 45.09L391.382 45.6852L391.791 45.133L391.422 44.5531L390.578 45.09ZM389.178 46.98H388.178V50.01L389.982 47.5752L389.178 46.98ZM389.178 24.51V23.51H388.178V24.51H389.178ZM398.348 24.51H399.348V23.51H398.348V24.51ZM398.348 77.5V78.5H399.348V77.5H398.348ZM389.668 77.5H388.668V78.5H389.668V77.5ZM389.668 70.15L390.549 69.6759L388.668 70.15H389.668ZM390.648 71.97L391.492 72.5069L391.807 72.0122L391.529 71.4959L390.648 71.97ZM385.188 76.73L385.606 77.6385L385.613 77.6351L385.621 77.6315L385.188 76.73ZM384.068 68.47L383.543 67.6192L383.543 67.6192L384.068 68.47ZM387.778 64.41L386.898 63.9345L386.893 63.9438L386.889 63.9532L387.778 64.41ZM387.778 52.58L386.884 53.0272L386.891 53.0415L386.898 53.0555L387.778 52.58ZM384.068 48.45L383.543 49.3008L383.543 49.3008L384.068 48.45ZM373.008 48.52L373.523 49.3775L373.532 49.3722L373.54 49.3666L373.008 48.52ZM369.158 52.58L368.278 52.1045L368.274 52.1132L369.158 52.58ZM369.158 64.41L368.269 64.8668L368.273 64.8762L368.278 64.8855L369.158 64.41ZM373.008 68.47L373.523 67.6125L373.523 67.6125L373.008 68.47ZM377.558 77.34C374.034 77.34 370.925 76.5169 368.201 74.8913L367.176 76.6087C370.238 78.4364 373.709 79.34 377.558 79.34V77.34ZM368.211 74.8974C365.468 73.2163 363.301 70.9412 361.703 68.0555L359.953 69.0245C361.715 72.2054 364.122 74.737 367.166 76.6026L368.211 74.8974ZM361.703 68.0555C360.11 65.1798 359.308 61.9882 359.308 58.46H357.308C357.308 62.3051 358.186 65.8335 359.953 69.0245L361.703 68.0555ZM359.308 58.46C359.308 54.8826 360.111 51.6941 361.7 48.8703L359.957 47.8897C358.185 51.0393 357.308 54.5707 357.308 58.46H359.308ZM361.7 48.8703C363.297 46.0306 365.464 43.776 368.211 42.0926L367.166 40.3874C364.125 42.2507 361.719 44.756 359.957 47.8897L361.7 48.8703ZM368.205 42.0963C370.981 40.4215 374.068 39.58 377.488 39.58V37.58C373.722 37.58 370.275 38.5119 367.172 40.3837L368.205 42.0963ZM377.488 39.58C380.244 39.58 382.648 40.1347 384.726 41.2169L385.65 39.4431C383.248 38.1919 380.519 37.58 377.488 37.58V39.58ZM384.748 41.2281C386.878 42.271 388.531 43.7361 389.734 45.6269L391.422 44.5531C390.012 42.3372 388.072 40.629 385.628 39.4319L384.748 41.2281ZM389.775 44.4948L388.375 46.3848L389.982 47.5752L391.382 45.6852L389.775 44.4948ZM390.178 46.98V24.51H388.178V46.98H390.178ZM389.178 25.51H398.348V23.51H389.178V25.51ZM397.348 24.51V77.5H399.348V24.51H397.348ZM398.348 76.5H389.668V78.5H398.348V76.5ZM390.668 77.5V70.15H388.668V77.5H390.668ZM388.788 70.6241L389.768 72.4441L391.529 71.4959L390.549 69.6759L388.788 70.6241ZM389.804 71.4331C388.604 73.3188 386.932 74.7839 384.755 75.8285L385.621 77.6315C388.111 76.4361 390.078 74.7279 391.492 72.5069L389.804 71.4331ZM384.77 75.8215C382.577 76.8303 380.178 77.34 377.558 77.34V79.34C380.445 79.34 383.132 78.7764 385.606 77.6385L384.77 75.8215ZM378.538 70.94C380.8 70.94 382.83 70.4102 384.594 69.3208L383.543 67.6192C382.133 68.4898 380.477 68.94 378.538 68.94V70.94ZM384.594 69.3208C386.342 68.2411 387.701 66.7486 388.668 64.8668L386.889 63.9532C386.082 65.5247 384.968 66.7389 383.543 67.6192L384.594 69.3208ZM388.658 64.8855C389.681 62.9933 390.178 60.8423 390.178 58.46H388.178C388.178 60.5577 387.742 62.3734 386.898 63.9345L388.658 64.8855ZM390.178 58.46C390.178 56.1205 389.679 53.9937 388.658 52.1045L386.898 53.0555C387.744 54.6196 388.178 56.4129 388.178 58.46H390.178ZM388.673 52.1328C387.708 50.2042 386.348 48.6831 384.594 47.5992L383.543 49.3008C384.961 50.1769 386.075 51.4091 386.884 53.0272L388.673 52.1328ZM384.594 47.5992C382.83 46.5098 380.8 45.98 378.538 45.98V47.98C380.477 47.98 382.133 48.4302 383.543 49.3008L384.594 47.5992ZM378.538 45.98C376.309 45.98 374.279 46.54 372.476 47.6734L373.54 49.3666C375.004 48.4467 376.66 47.98 378.538 47.98V45.98ZM372.494 47.6625C370.702 48.7377 369.294 50.2251 368.278 52.1045L370.038 53.0555C370.889 51.4816 372.048 50.2623 373.523 49.3775L372.494 47.6625ZM368.274 52.1132C367.299 53.9608 366.828 56.0864 366.828 58.46H368.828C368.828 56.3536 369.244 54.5592 370.043 53.0468L368.274 52.1132ZM366.828 58.46C366.828 60.8343 367.299 62.9785 368.269 64.8668L370.048 63.9532C369.244 62.3882 368.828 60.5657 368.828 58.46H366.828ZM368.278 64.8855C369.294 66.7649 370.702 68.2523 372.494 69.3275L373.523 67.6125C372.048 66.7277 370.889 65.5084 370.038 63.9345L368.278 64.8855ZM372.494 69.3275C374.294 70.408 376.318 70.94 378.538 70.94V68.94C376.651 68.94 374.988 68.492 373.523 67.6125L372.494 69.3275ZM414.649 75.68L414.133 76.5363L414.133 76.5363L414.649 75.68ZM407.789 68.47L408.67 67.9959L407.789 68.47ZM407.789 48.24L406.918 47.7497L406.915 47.7544L407.789 48.24ZM414.579 41.17L414.067 40.3113L414.061 40.315L414.579 41.17ZM432.079 40.05L431.679 40.9662L431.685 40.9691L432.079 40.05ZM437.889 44.11L437.153 44.7866L437.153 44.7866L437.889 44.11ZM441.529 50.06L440.593 50.4111L440.596 50.4176L441.529 50.06ZM442.649 59.23L441.658 59.0978L441.654 59.1306L441.652 59.1635L442.649 59.23ZM442.299 61.05V62.05H443L443.239 61.3917L442.299 61.05ZM412.899 61.05H411.899V62.05H412.899V61.05ZM412.899 54.05V53.05H411.899V54.05H412.899ZM437.119 54.05L437.723 54.8469L440.094 53.05H437.119V54.05ZM432.779 57.34L431.798 57.148L431.295 59.7203L433.383 58.1369L432.779 57.34ZM432.429 51.6L431.489 51.9396L431.493 51.9511L431.497 51.9624L432.429 51.6ZM429.349 47.61L428.776 48.4292L428.782 48.4336L428.789 48.4379L429.349 47.61ZM419.129 47.61L419.659 48.458L419.669 48.4521L419.678 48.446L419.129 47.61ZM415.699 51.81L414.779 51.4188L414.774 51.4304L415.699 51.81ZM414.859 58.46L415.856 58.5397L415.862 58.4643L415.857 58.3888L414.859 58.46ZM415.769 64.69L414.853 65.0896L414.859 65.1039L414.866 65.1181L415.769 64.69ZM419.409 68.82L418.884 69.6709L418.895 69.6775L419.409 68.82ZM430.329 68.96L429.819 68.1001L429.807 68.1074L430.329 68.96ZM433.829 65.39L434.27 64.4922L433.421 64.0759L432.958 64.8997L433.829 65.39ZM441.249 69.03L442.175 69.4096L442.53 68.5442L441.69 68.1322L441.249 69.03ZM437.749 73.86L438.411 74.6098L438.411 74.6098L437.749 73.86ZM432.079 77.15L431.739 76.2096L431.733 76.212L432.079 77.15ZM424.939 77.34C421.175 77.34 417.929 76.4903 415.166 74.8237L414.133 76.5363C417.25 78.4164 420.864 79.34 424.939 79.34V77.34ZM415.166 74.8237C412.38 73.1432 410.219 70.8721 408.67 67.9959L406.909 68.9441C408.627 72.1346 411.039 74.6701 414.133 76.5363L415.166 74.8237ZM408.67 67.9959C407.12 65.1184 406.339 61.9231 406.339 58.39H404.339C404.339 62.2302 405.192 65.7549 406.909 68.9441L408.67 67.9959ZM406.339 58.39C406.339 54.7095 407.124 51.4976 408.664 48.7256L406.915 47.7544C405.189 50.8624 404.339 54.4171 404.339 58.39H406.339ZM408.661 48.7303C410.259 45.8889 412.403 43.6598 415.098 42.025L414.061 40.315C411.063 42.1335 408.68 44.6177 406.918 47.7497L408.661 48.7303ZM415.092 42.0287C417.822 40.3995 420.863 39.58 424.239 39.58V37.58C420.522 37.58 417.123 38.4872 414.067 40.3113L415.092 42.0287ZM424.239 39.58C427.118 39.58 429.59 40.0523 431.679 40.9662L432.48 39.1338C430.089 38.0877 427.334 37.58 424.239 37.58V39.58ZM431.685 40.9691C433.85 41.8969 435.668 43.1704 437.153 44.7866L438.626 43.4334C436.938 41.5963 434.882 40.1631 432.473 39.1309L431.685 40.9691ZM437.153 44.7866C438.651 46.4167 439.797 48.289 440.593 50.4111L442.466 49.7089C441.582 47.351 440.301 45.2566 438.626 43.4334L437.153 44.7866ZM440.596 50.4176C441.388 52.4867 441.789 54.7442 441.789 57.2H443.789C443.789 54.5224 443.351 52.02 442.463 49.7024L440.596 50.4176ZM441.789 57.2C441.789 57.8058 441.746 58.4382 441.658 59.0978L443.641 59.3622C443.739 58.6218 443.789 57.9009 443.789 57.2H441.789ZM441.652 59.1635C441.61 59.7947 441.506 60.3045 441.36 60.7083L443.239 61.3917C443.466 60.7689 443.596 60.0653 443.647 59.2965L441.652 59.1635ZM442.299 60.05H412.899V62.05H442.299V60.05ZM413.899 61.05V54.05H411.899V61.05H413.899ZM412.899 55.05H437.119V53.05H412.899V55.05ZM436.515 53.2531L432.175 56.5431L433.383 58.1369L437.723 54.8469L436.515 53.2531ZM433.761 57.532C434.209 55.2395 434.097 53.1284 433.361 51.2376L431.497 51.9624C432.069 53.4316 432.189 55.1472 431.798 57.148L433.761 57.532ZM433.37 51.2604C432.693 49.3863 431.536 47.8834 429.91 46.7821L428.789 48.4379C430.056 49.2966 430.952 50.4537 431.489 51.9396L433.37 51.2604ZM429.923 46.7908C428.327 45.6737 426.414 45.14 424.239 45.14V47.14C426.078 47.14 427.572 47.5863 428.776 48.4292L429.923 46.7908ZM424.239 45.14C422.146 45.14 420.249 45.6793 418.581 46.774L419.678 48.446C420.997 47.5807 422.506 47.14 424.239 47.14V45.14ZM418.599 46.762C416.907 47.8199 415.64 49.3931 414.779 51.4189L416.62 52.2011C417.345 50.4936 418.365 49.2668 419.659 48.458L418.599 46.762ZM414.774 51.4304C413.953 53.4324 413.668 55.8129 413.862 58.5312L415.857 58.3888C415.678 55.8805 415.953 53.8276 416.625 52.1896L414.774 51.4304ZM413.863 58.3803C413.665 60.8482 413.983 63.094 414.853 65.0896L416.686 64.2904C415.969 62.646 415.68 60.7385 415.856 58.5397L413.863 58.3803ZM414.866 65.1181C415.784 67.0563 417.124 68.5839 418.884 69.6708L419.935 67.9692C418.521 67.0961 417.435 65.8704 416.673 64.2619L414.866 65.1181ZM418.895 69.6775C420.699 70.7601 422.747 71.29 425.009 71.29V69.29C423.071 69.29 421.386 68.8399 419.924 67.9625L418.895 69.6775ZM425.009 71.29C427.25 71.29 429.215 70.8162 430.852 69.8126L429.807 68.1074C428.551 68.8772 426.969 69.29 425.009 69.29V71.29ZM430.84 69.8199C432.482 68.845 433.774 67.5285 434.701 65.8803L432.958 64.8997C432.205 66.2382 431.164 67.3016 429.819 68.1001L430.84 69.8199ZM433.389 66.2878L440.809 69.9278L441.69 68.1322L434.27 64.4922L433.389 66.2878ZM440.324 68.6504C439.64 70.3178 438.568 71.8039 437.088 73.1102L438.411 74.6098C440.104 73.1161 441.365 71.3822 442.175 69.4096L440.324 68.6504ZM437.088 73.1102C435.605 74.4189 433.826 75.4547 431.739 76.2096L432.42 78.0904C434.719 77.2587 436.721 76.1011 438.411 74.6098L437.088 73.1102ZM431.733 76.212C429.712 76.9589 427.451 77.34 424.939 77.34V79.34C427.654 79.34 430.154 78.9277 432.426 78.088L431.733 76.212Z" fill="#0155B5" mask="url(#path-2-outside-1_456_10)"/>
</svg>
