<svg width="499" height="97" viewBox="0 0 499 97" fill="none" xmlns="http://www.w3.org/2000/svg">
<path d="M19.89 73V59.84H6.73V51.09H19.89V38H28.64V51.09H41.73V59.84H28.64V73H19.89Z" fill="#0155B5"/>
<mask id="path-2-outside-1_217_91" maskUnits="userSpaceOnUse" x="57.5" y="23.5" width="439" height="56" fill="black">
<rect fill="white" x="57.5" y="23.5" width="439" height="56"/>
<path d="M58.54 77.5V25.35H78C81.5467 25.35 84.6733 26.0033 87.38 27.31C90.1333 28.57 92.28 30.4367 93.82 32.91C95.36 35.3367 96.13 38.3 96.13 41.8C96.13 45.2533 95.3367 48.2167 93.75 50.69C92.21 53.1167 90.0867 54.9833 87.38 56.29C84.6733 57.5967 81.5467 58.25 78 58.25H68.06V77.5H58.54ZM68.06 49.85H78.14C79.8667 49.85 81.36 49.5233 82.62 48.87C83.88 48.17 84.86 47.2133 85.56 46C86.26 44.7867 86.61 43.3867 86.61 41.8C86.61 40.1667 86.26 38.7667 85.56 37.6C84.86 36.3867 83.88 35.4533 82.62 34.8C81.36 34.1 79.8667 33.75 78.14 33.75H68.06V49.85ZM119.853 78.34C115.933 78.34 112.503 77.4533 109.563 75.68C106.623 73.9067 104.337 71.5033 102.703 68.47C101.07 65.4367 100.253 62.0767 100.253 58.39C100.253 54.5633 101.07 51.18 102.703 48.24C104.383 45.2533 106.647 42.8967 109.493 41.17C112.387 39.4433 115.607 38.58 119.153 38.58C122.14 38.58 124.753 39.07 126.993 40.05C129.28 41.03 131.217 42.3833 132.803 44.11C134.39 45.8367 135.603 47.82 136.443 50.06C137.283 52.2533 137.703 54.6333 137.703 57.2C137.703 57.8533 137.657 58.53 137.563 59.23C137.517 59.93 137.4 60.5367 137.213 61.05H107.813V54.05H132.033L127.693 57.34C128.113 55.1933 127.997 53.28 127.343 51.6C126.737 49.92 125.71 48.59 124.263 47.61C122.863 46.63 121.16 46.14 119.153 46.14C117.24 46.14 115.537 46.63 114.043 47.61C112.55 48.5433 111.407 49.9433 110.613 51.81C109.867 53.63 109.587 55.8467 109.773 58.46C109.587 60.7933 109.89 62.87 110.683 64.69C111.523 66.4633 112.737 67.84 114.323 68.82C115.957 69.8 117.823 70.29 119.923 70.29C122.023 70.29 123.797 69.8467 125.243 68.96C126.737 68.0733 127.903 66.8833 128.743 65.39L136.163 69.03C135.417 70.85 134.25 72.46 132.663 73.86C131.077 75.26 129.187 76.3567 126.993 77.15C124.847 77.9433 122.467 78.34 119.853 78.34ZM144.655 77.5V39.42H153.265V47.89L152.565 46.63C153.451 43.7833 154.828 41.8 156.695 40.68C158.608 39.56 160.895 39 163.555 39H165.795V47.12H162.505C159.891 47.12 157.791 47.9367 156.205 49.57C154.618 51.1567 153.825 53.3967 153.825 56.29V77.5H144.655ZM175.246 77.5V47.61H168.526V39.42H175.246V38.16C175.246 35.2667 175.83 32.8167 176.996 30.81C178.21 28.7567 179.89 27.1933 182.036 26.12C184.183 25.0467 186.726 24.51 189.666 24.51C190.226 24.51 190.833 24.5567 191.486 24.65C192.186 24.6967 192.77 24.7667 193.236 24.86V32.77C192.77 32.6767 192.326 32.63 191.906 32.63C191.533 32.5833 191.183 32.56 190.856 32.56C188.803 32.56 187.216 33.0267 186.096 33.96C184.976 34.8467 184.416 36.2467 184.416 38.16V39.42H192.886V47.61H184.416V77.5H175.246ZM216.8 78.34C213.067 78.34 209.66 77.4767 206.58 75.75C203.547 74.0233 201.12 71.6667 199.3 68.68C197.527 65.6933 196.64 62.2867 196.64 58.46C196.64 54.6333 197.527 51.2267 199.3 48.24C201.12 45.2533 203.547 42.8967 206.58 41.17C209.613 39.4433 213.02 38.58 216.8 38.58C220.533 38.58 223.917 39.4433 226.95 41.17C229.983 42.8967 232.387 45.2533 234.16 48.24C235.98 51.18 236.89 54.5867 236.89 58.46C236.89 62.2867 235.98 65.6933 234.16 68.68C232.34 71.6667 229.913 74.0233 226.88 75.75C223.847 77.4767 220.487 78.34 216.8 78.34ZM216.8 69.94C218.853 69.94 220.65 69.45 222.19 68.47C223.777 67.49 225.013 66.1367 225.9 64.41C226.833 62.6367 227.3 60.6533 227.3 58.46C227.3 56.22 226.833 54.26 225.9 52.58C225.013 50.8533 223.777 49.5 222.19 48.52C220.65 47.4933 218.853 46.98 216.8 46.98C214.7 46.98 212.857 47.4933 211.27 48.52C209.683 49.5 208.423 50.8533 207.49 52.58C206.603 54.26 206.16 56.22 206.16 58.46C206.16 60.6533 206.603 62.6367 207.49 64.41C208.423 66.1367 209.683 67.49 211.27 68.47C212.857 69.45 214.7 69.94 216.8 69.94ZM243.844 77.5V39.42H252.454V47.89L251.754 46.63C252.641 43.7833 254.018 41.8 255.884 40.68C257.798 39.56 260.084 39 262.744 39H264.984V47.12H261.694C259.081 47.12 256.981 47.9367 255.394 49.57C253.808 51.1567 253.014 53.3967 253.014 56.29V77.5H243.844ZM270.026 77.5V39.42H278.636V48.24L277.656 46.77C278.356 44.0167 279.756 41.9633 281.856 40.61C283.956 39.2567 286.429 38.58 289.276 38.58C292.403 38.58 295.156 39.3967 297.536 41.03C299.916 42.6633 301.456 44.81 302.156 47.47L299.566 47.68C300.733 44.6467 302.483 42.3833 304.816 40.89C307.149 39.35 309.833 38.58 312.866 38.58C315.573 38.58 317.976 39.1867 320.076 40.4C322.223 41.6133 323.903 43.3167 325.116 45.51C326.329 47.6567 326.936 50.1533 326.936 53V77.5H317.766V55.17C317.766 53.49 317.463 52.0433 316.856 50.83C316.249 49.6167 315.409 48.6833 314.336 48.03C313.263 47.33 311.956 46.98 310.416 46.98C308.969 46.98 307.686 47.33 306.566 48.03C305.446 48.6833 304.583 49.6167 303.976 50.83C303.369 52.0433 303.066 53.49 303.066 55.17V77.5H293.896V55.17C293.896 53.49 293.593 52.0433 292.986 50.83C292.379 49.6167 291.516 48.6833 290.396 48.03C289.323 47.33 288.039 46.98 286.546 46.98C285.099 46.98 283.816 47.33 282.696 48.03C281.576 48.6833 280.713 49.6167 280.106 50.83C279.499 52.0433 279.196 53.49 279.196 55.17V77.5H270.026ZM346.244 78.34C343.584 78.34 341.274 77.8967 339.314 77.01C337.354 76.1233 335.837 74.8633 334.764 73.23C333.69 71.55 333.154 69.6133 333.154 67.42C333.154 65.32 333.62 63.4533 334.554 61.82C335.487 60.14 336.934 58.74 338.894 57.62C340.854 56.5 343.327 55.7067 346.314 55.24L358.774 53.21V60.21L348.064 62.03C346.244 62.3567 344.89 62.94 344.004 63.78C343.117 64.62 342.674 65.7167 342.674 67.07C342.674 68.3767 343.164 69.4267 344.144 70.22C345.17 70.9667 346.43 71.34 347.924 71.34C349.837 71.34 351.517 70.9433 352.964 70.15C354.457 69.31 355.6 68.1667 356.394 66.72C357.234 65.2733 357.654 63.6867 357.654 61.96V52.16C357.654 50.5267 357 49.1733 355.694 48.1C354.434 46.98 352.754 46.42 350.654 46.42C348.694 46.42 346.944 46.9567 345.404 48.03C343.91 49.0567 342.814 50.4333 342.114 52.16L334.624 48.52C335.37 46.5133 336.537 44.7867 338.124 43.34C339.757 41.8467 341.67 40.68 343.864 39.84C346.057 39 348.437 38.58 351.004 38.58C354.13 38.58 356.884 39.1633 359.264 40.33C361.644 41.45 363.487 43.0367 364.794 45.09C366.147 47.0967 366.824 49.4533 366.824 52.16V77.5H358.144V70.99L360.104 70.85C359.124 72.4833 357.957 73.86 356.604 74.98C355.25 76.0533 353.71 76.8933 351.984 77.5C350.257 78.06 348.344 78.34 346.244 78.34ZM375.299 77.5V39.42H383.909V46.91L383.209 45.58C384.096 43.2933 385.543 41.5667 387.549 40.4C389.603 39.1867 391.983 38.58 394.689 38.58C397.489 38.58 399.963 39.1867 402.109 40.4C404.303 41.6133 406.006 43.3167 407.219 45.51C408.433 47.6567 409.039 50.1533 409.039 53V77.5H399.869V55.17C399.869 53.49 399.543 52.0433 398.889 50.83C398.236 49.6167 397.326 48.6833 396.159 48.03C395.039 47.33 393.709 46.98 392.169 46.98C390.676 46.98 389.346 47.33 388.179 48.03C387.013 48.6833 386.103 49.6167 385.449 50.83C384.796 52.0433 384.469 53.49 384.469 55.17V77.5H375.299ZM435.133 78.34C431.353 78.34 427.947 77.4767 424.913 75.75C421.927 73.9767 419.57 71.5967 417.843 68.61C416.117 65.5767 415.253 62.17 415.253 58.39C415.253 54.61 416.117 51.2267 417.843 48.24C419.57 45.2533 421.927 42.8967 424.913 41.17C427.947 39.4433 431.353 38.58 435.133 38.58C437.84 38.58 440.36 39.07 442.693 40.05C445.027 40.9833 447.033 42.29 448.713 43.97C450.44 45.6033 451.677 47.5633 452.423 49.85L444.373 53.35C443.673 51.4367 442.483 49.8967 440.803 48.73C439.17 47.5633 437.28 46.98 435.133 46.98C433.127 46.98 431.33 47.47 429.743 48.45C428.203 49.43 426.99 50.7833 426.103 52.51C425.217 54.2367 424.773 56.22 424.773 58.46C424.773 60.7 425.217 62.6833 426.103 64.41C426.99 66.1367 428.203 67.49 429.743 68.47C431.33 69.45 433.127 69.94 435.133 69.94C437.327 69.94 439.24 69.3567 440.873 68.19C442.507 67.0233 443.673 65.46 444.373 63.5L452.423 67.14C451.677 69.2867 450.463 71.2233 448.783 72.95C447.103 74.63 445.097 75.96 442.763 76.94C440.43 77.8733 437.887 78.34 435.133 78.34ZM477.441 78.34C473.521 78.34 470.091 77.4533 467.151 75.68C464.211 73.9067 461.925 71.5033 460.291 68.47C458.658 65.4367 457.841 62.0767 457.841 58.39C457.841 54.5633 458.658 51.18 460.291 48.24C461.971 45.2533 464.235 42.8967 467.081 41.17C469.975 39.4433 473.195 38.58 476.741 38.58C479.728 38.58 482.341 39.07 484.581 40.05C486.868 41.03 488.805 42.3833 490.391 44.11C491.978 45.8367 493.191 47.82 494.031 50.06C494.871 52.2533 495.291 54.6333 495.291 57.2C495.291 57.8533 495.245 58.53 495.151 59.23C495.105 59.93 494.988 60.5367 494.801 61.05H465.401V54.05H489.621L485.281 57.34C485.701 55.1933 485.585 53.28 484.931 51.6C484.325 49.92 483.298 48.59 481.851 47.61C480.451 46.63 478.748 46.14 476.741 46.14C474.828 46.14 473.125 46.63 471.631 47.61C470.138 48.5433 468.995 49.9433 468.201 51.81C467.455 53.63 467.175 55.8467 467.361 58.46C467.175 60.7933 467.478 62.87 468.271 64.69C469.111 66.4633 470.325 67.84 471.911 68.82C473.545 69.8 475.411 70.29 477.511 70.29C479.611 70.29 481.385 69.8467 482.831 68.96C484.325 68.0733 485.491 66.8833 486.331 65.39L493.751 69.03C493.005 70.85 491.838 72.46 490.251 73.86C488.665 75.26 486.775 76.3567 484.581 77.15C482.435 77.9433 480.055 78.34 477.441 78.34Z"/>
</mask>
<path d="M58.54 77.5H57.54V78.5H58.54V77.5ZM58.54 25.35V24.35H57.54V25.35H58.54ZM87.38 27.31L86.9453 28.2106L86.9545 28.215L86.9639 28.2193L87.38 27.31ZM93.82 32.91L92.9711 33.4386L92.9757 33.4458L93.82 32.91ZM93.75 50.69L92.9083 50.15L92.9057 50.1542L93.75 50.69ZM87.38 56.29L87.8148 57.1906L87.38 56.29ZM68.06 58.25V57.25H67.06V58.25H68.06ZM68.06 77.5V78.5H69.06V77.5H68.06ZM68.06 49.85H67.06V50.85H68.06V49.85ZM82.62 48.87L83.0803 49.7578L83.0931 49.7511L83.1056 49.7442L82.62 48.87ZM85.56 46L86.4262 46.4997L85.56 46ZM85.56 37.6L84.6938 38.0997L84.6981 38.1071L84.7025 38.1145L85.56 37.6ZM82.62 34.8L82.1344 35.6742L82.1469 35.6811L82.1597 35.6878L82.62 34.8ZM68.06 33.75V32.75H67.06V33.75H68.06ZM59.54 77.5V25.35H57.54V77.5H59.54ZM58.54 26.35H78V24.35H58.54V26.35ZM78 26.35C81.423 26.35 84.3965 26.9801 86.9453 28.2106L87.8148 26.4094C84.9502 25.0266 81.6703 24.35 78 24.35V26.35ZM86.9639 28.2193C89.5461 29.401 91.5391 31.1386 92.9711 33.4386L94.6689 32.3814C93.0209 29.7347 90.7206 27.739 87.7961 26.4007L86.9639 28.2193ZM92.9757 33.4458C94.3938 35.6805 95.13 38.4482 95.13 41.8H97.13C97.13 38.1518 96.3262 34.9929 94.6643 32.3742L92.9757 33.4458ZM95.13 41.8C95.13 45.096 94.3746 47.8643 92.9083 50.15L94.5917 51.23C96.2987 48.569 97.13 45.4106 97.13 41.8H95.13ZM92.9057 50.1542C91.4702 52.4161 89.4921 54.1599 86.9453 55.3895L87.8148 57.1906C90.6812 55.8067 92.9498 53.8172 94.5943 51.2258L92.9057 50.1542ZM86.9453 55.3894C84.3965 56.6199 81.423 57.25 78 57.25V59.25C81.6703 59.25 84.9502 58.5734 87.8148 57.1906L86.9453 55.3894ZM78 57.25H68.06V59.25H78V57.25ZM67.06 58.25V77.5H69.06V58.25H67.06ZM68.06 76.5H58.54V78.5H68.06V76.5ZM68.06 50.85H78.14V48.85H68.06V50.85ZM78.14 50.85C79.9926 50.85 81.6505 50.4991 83.0803 49.7578L82.1597 47.9822C81.0695 48.5475 79.7407 48.85 78.14 48.85V50.85ZM83.1056 49.7442C84.5193 48.9588 85.6329 47.8748 86.4262 46.4997L84.6938 45.5003C84.0871 46.5519 83.2407 47.3812 82.1344 47.9958L83.1056 49.7442ZM86.4262 46.4997C87.225 45.1151 87.61 43.5384 87.61 41.8H85.61C85.61 43.2349 85.295 44.4582 84.6938 45.5003L86.4262 46.4997ZM87.61 41.8C87.61 40.0219 87.2279 38.4362 86.4175 37.0855L84.7025 38.1145C85.2921 39.0972 85.61 40.3114 85.61 41.8H87.61ZM86.4262 37.1003C85.6294 35.7192 84.5075 34.6523 83.0803 33.9122L82.1597 35.6878C83.2525 36.2544 84.0906 37.0541 84.6938 38.0997L86.4262 37.1003ZM83.1056 33.9258C81.6703 33.1284 80.003 32.75 78.14 32.75V34.75C79.7303 34.75 81.0497 35.0716 82.1344 35.6742L83.1056 33.9258ZM78.14 32.75H68.06V34.75H78.14V32.75ZM67.06 33.75V49.85H69.06V33.75H67.06ZM109.563 75.68L109.047 76.5363L109.563 75.68ZM102.703 68.47L103.584 67.9959L102.703 68.47ZM102.703 48.24L101.832 47.7497L101.829 47.7544L102.703 48.24ZM109.493 41.17L108.981 40.3113L108.975 40.315L109.493 41.17ZM126.993 40.05L126.593 40.9662L126.6 40.9691L126.993 40.05ZM132.803 44.11L132.067 44.7866L132.803 44.11ZM136.443 50.06L135.507 50.4111L135.51 50.4176L136.443 50.06ZM137.563 59.23L136.572 59.0978L136.568 59.1306L136.566 59.1635L137.563 59.23ZM137.213 61.05V62.05H137.914L138.153 61.3917L137.213 61.05ZM107.813 61.05H106.813V62.05H107.813V61.05ZM107.813 54.05V53.05H106.813V54.05H107.813ZM132.033 54.05L132.638 54.8469L135.008 53.05H132.033V54.05ZM127.693 57.34L126.712 57.148L126.209 59.7203L128.298 58.1369L127.693 57.34ZM127.343 51.6L126.403 51.9396L126.407 51.9511L126.411 51.9624L127.343 51.6ZM124.263 47.61L123.69 48.4292L123.696 48.4336L123.703 48.4379L124.263 47.61ZM114.043 47.61L114.573 48.458L114.583 48.4521L114.592 48.446L114.043 47.61ZM110.613 51.81L109.693 51.4188L109.688 51.4304L110.613 51.81ZM109.773 58.46L110.77 58.5397L110.776 58.4643L110.771 58.3888L109.773 58.46ZM110.683 64.69L109.767 65.0896L109.773 65.1039L109.78 65.1181L110.683 64.69ZM114.323 68.82L113.798 69.6709L113.809 69.6775L114.323 68.82ZM125.243 68.96L124.733 68.1001L124.721 68.1074L125.243 68.96ZM128.743 65.39L129.184 64.4922L128.335 64.0759L127.872 64.8997L128.743 65.39ZM136.163 69.03L137.089 69.4096L137.444 68.5442L136.604 68.1322L136.163 69.03ZM132.663 73.86L133.325 74.6098L132.663 73.86ZM126.993 77.15L126.653 76.2096L126.647 76.212L126.993 77.15ZM119.853 77.34C116.089 77.34 112.843 76.4903 110.08 74.8237L109.047 76.5363C112.164 78.4164 115.778 79.34 119.853 79.34V77.34ZM110.08 74.8237C107.294 73.1432 105.133 70.8721 103.584 67.9959L101.823 68.9441C103.541 72.1346 105.953 74.6701 109.047 76.5363L110.08 74.8237ZM103.584 67.9959C102.035 65.1184 101.253 61.9231 101.253 58.39H99.2534C99.2534 62.2302 100.106 65.7549 101.823 68.9441L103.584 67.9959ZM101.253 58.39C101.253 54.7095 102.038 51.4976 103.578 48.7256L101.829 47.7544C100.103 50.8624 99.2534 54.4171 99.2534 58.39H101.253ZM103.575 48.7303C105.173 45.8889 107.317 43.6598 110.012 42.025L108.975 40.315C105.977 42.1335 103.594 44.6177 101.832 47.7497L103.575 48.7303ZM110.006 42.0287C112.736 40.3995 115.777 39.58 119.153 39.58V37.58C115.436 37.58 112.038 38.4872 108.981 40.3113L110.006 42.0287ZM119.153 39.58C122.032 39.58 124.504 40.0523 126.593 40.9662L127.394 39.1338C125.003 38.0877 122.248 37.58 119.153 37.58V39.58ZM126.6 40.9691C128.764 41.8969 130.582 43.1704 132.067 44.7866L133.54 43.4334C131.852 41.5963 129.796 40.1631 127.387 39.1309L126.6 40.9691ZM132.067 44.7866C133.565 46.4167 134.711 48.289 135.507 50.4111L137.38 49.7089C136.496 47.351 135.215 45.2566 133.54 43.4334L132.067 44.7866ZM135.51 50.4176C136.302 52.4867 136.703 54.7442 136.703 57.2H138.703C138.703 54.5224 138.265 52.02 137.377 49.7024L135.51 50.4176ZM136.703 57.2C136.703 57.8058 136.66 58.4382 136.572 59.0978L138.555 59.3622C138.653 58.6218 138.703 57.9009 138.703 57.2H136.703ZM136.566 59.1635C136.524 59.7947 136.42 60.3045 136.274 60.7083L138.153 61.3917C138.38 60.7689 138.51 60.0653 138.561 59.2965L136.566 59.1635ZM137.213 60.05H107.813V62.05H137.213V60.05ZM108.813 61.05V54.05H106.813V61.05H108.813ZM107.813 55.05H132.033V53.05H107.813V55.05ZM131.429 53.2531L127.089 56.5431L128.298 58.1369L132.638 54.8469L131.429 53.2531ZM128.675 57.532C129.123 55.2395 129.011 53.1284 128.275 51.2376L126.411 51.9624C126.983 53.4316 127.104 55.1472 126.712 57.148L128.675 57.532ZM128.284 51.2604C127.607 49.3863 126.45 47.8834 124.824 46.7821L123.703 48.4379C124.97 49.2966 125.866 50.4537 126.403 51.9396L128.284 51.2604ZM124.837 46.7908C123.241 45.6737 121.329 45.14 119.153 45.14V47.14C120.992 47.14 122.486 47.5863 123.69 48.4292L124.837 46.7908ZM119.153 45.14C117.06 45.14 115.163 45.6793 113.495 46.774L114.592 48.446C115.911 47.5807 117.421 47.14 119.153 47.14V45.14ZM113.513 46.762C111.821 47.8199 110.554 49.3931 109.693 51.4189L111.534 52.2011C112.259 50.4936 113.279 49.2668 114.573 48.458L113.513 46.762ZM109.688 51.4304C108.867 53.4324 108.582 55.8129 108.776 58.5312L110.771 58.3888C110.592 55.8805 110.867 53.8276 111.539 52.1896L109.688 51.4304ZM108.777 58.3803C108.579 60.8482 108.897 63.094 109.767 65.0896L111.6 64.2904C110.883 62.646 110.594 60.7385 110.77 58.5397L108.777 58.3803ZM109.78 65.1181C110.698 67.0563 112.038 68.5839 113.798 69.6708L114.849 67.9692C113.435 67.0961 112.349 65.8704 111.587 64.2619L109.78 65.1181ZM113.809 69.6775C115.613 70.7601 117.661 71.29 119.923 71.29V69.29C117.986 69.29 116.3 68.8399 114.838 67.9625L113.809 69.6775ZM119.923 71.29C122.164 71.29 124.129 70.8162 125.766 69.8126L124.721 68.1074C123.465 68.8772 121.883 69.29 119.923 69.29V71.29ZM125.754 69.8199C127.396 68.845 128.688 67.5285 129.615 65.8803L127.872 64.8997C127.119 66.2382 126.078 67.3016 124.733 68.1001L125.754 69.8199ZM128.303 66.2878L135.723 69.9278L136.604 68.1322L129.184 64.4922L128.303 66.2878ZM135.238 68.6504C134.554 70.3178 133.482 71.8039 132.002 73.1102L133.325 74.6098C135.018 73.1161 136.279 71.3821 137.089 69.4096L135.238 68.6504ZM132.002 73.1102C130.519 74.4189 128.741 75.4547 126.653 76.2096L127.334 78.0904C129.633 77.2587 131.635 76.1011 133.325 74.6098L132.002 73.1102ZM126.647 76.212C124.626 76.9589 122.365 77.34 119.853 77.34V79.34C122.568 79.34 125.068 78.9277 127.34 78.088L126.647 76.212ZM144.655 77.5H143.655V78.5H144.655V77.5ZM144.655 39.42V38.42H143.655V39.42H144.655ZM153.265 39.42H154.265V38.42H153.265V39.42ZM153.265 47.89L152.391 48.3756L154.265 51.7491V47.89H153.265ZM152.565 46.63L151.61 46.3326L151.483 46.7414L151.691 47.1156L152.565 46.63ZM156.695 40.68L156.19 39.8169L156.18 39.8225L156.695 40.68ZM165.795 39H166.795V38H165.795V39ZM165.795 47.12V48.12H166.795V47.12H165.795ZM156.205 49.57L156.912 50.2771L156.917 50.272L156.922 50.2668L156.205 49.57ZM153.825 77.5V78.5H154.825V77.5H153.825ZM145.655 77.5V39.42H143.655V77.5H145.655ZM144.655 40.42H153.265V38.42H144.655V40.42ZM152.265 39.42V47.89H154.265V39.42H152.265ZM154.139 47.4044L153.439 46.1444L151.691 47.1156L152.391 48.3756L154.139 47.4044ZM153.52 46.9274C154.36 44.228 155.62 42.491 157.209 41.5375L156.18 39.8225C154.036 41.109 152.543 43.3387 151.61 46.3326L153.52 46.9274ZM157.2 41.543C158.932 40.5291 161.037 40 163.555 40V38C160.753 38 158.284 38.5909 156.19 39.817L157.2 41.543ZM163.555 40H165.795V38H163.555V40ZM164.795 39V47.12H166.795V39H164.795ZM165.795 46.12H162.505V48.12H165.795V46.12ZM162.505 46.12C159.665 46.12 157.291 47.0169 155.487 48.8732L156.922 50.2668C158.292 48.8564 160.118 48.12 162.505 48.12V46.12ZM155.498 48.8629C153.673 50.6871 152.825 53.2117 152.825 56.29H154.825C154.825 53.5816 155.563 51.6262 156.912 50.2771L155.498 48.8629ZM152.825 56.29V77.5H154.825V56.29H152.825ZM153.825 76.5H144.655V78.5H153.825V76.5ZM175.246 77.5H174.246V78.5H175.246V77.5ZM175.246 47.61H176.246V46.61H175.246V47.61ZM168.526 47.61H167.526V48.61H168.526V47.61ZM168.526 39.42V38.42H167.526V39.42H168.526ZM175.246 39.42V40.42H176.246V39.42H175.246ZM176.996 30.81L176.135 30.3013L176.132 30.3074L176.996 30.81ZM191.486 24.65L191.345 25.6399L191.382 25.6453L191.42 25.6478L191.486 24.65ZM193.236 24.86H194.236V24.0402L193.433 23.8794L193.236 24.86ZM193.236 32.77L193.04 33.7506L194.236 33.9898V32.77H193.236ZM191.906 32.63L191.782 33.6223L191.844 33.63H191.906V32.63ZM186.096 33.96L186.717 34.744L186.727 34.7363L186.737 34.7282L186.096 33.96ZM184.416 39.42H183.416V40.42H184.416V39.42ZM192.886 39.42H193.886V38.42H192.886V39.42ZM192.886 47.61V48.61H193.886V47.61H192.886ZM184.416 47.61V46.61H183.416V47.61H184.416ZM184.416 77.5V78.5H185.416V77.5H184.416ZM176.246 77.5V47.61H174.246V77.5H176.246ZM175.246 46.61H168.526V48.61H175.246V46.61ZM169.526 47.61V39.42H167.526V47.61H169.526ZM168.526 40.42H175.246V38.42H168.526V40.42ZM176.246 39.42V38.16H174.246V39.42H176.246ZM176.246 38.16C176.246 35.4002 176.802 33.1333 177.861 31.3126L176.132 30.3074C174.857 32.5 174.246 35.1332 174.246 38.16H176.246ZM177.857 31.3187C178.972 29.4322 180.508 28.0023 182.484 27.0144L181.589 25.2256C179.272 26.3844 177.447 28.0811 176.135 30.3013L177.857 31.3187ZM182.484 27.0144C184.464 26.0244 186.847 25.51 189.666 25.51V23.51C186.605 23.51 183.902 24.0689 181.589 25.2256L182.484 27.0144ZM189.666 25.51C190.172 25.51 190.73 25.5522 191.345 25.6399L191.628 23.66C190.936 23.5612 190.281 23.51 189.666 23.51V25.51ZM191.42 25.6478C192.095 25.6928 192.631 25.7588 193.04 25.8406L193.433 23.8794C192.908 23.7746 192.278 23.7006 191.553 23.6522L191.42 25.6478ZM192.236 24.86V32.77H194.236V24.86H192.236ZM193.433 31.7894C192.91 31.6848 192.4 31.63 191.906 31.63V33.63C192.253 33.63 192.63 33.6685 193.04 33.7506L193.433 31.7894ZM192.03 31.6377C191.622 31.5867 191.23 31.56 190.856 31.56V33.56C191.136 33.56 191.444 33.58 191.782 33.6223L192.03 31.6377ZM190.856 31.56C188.663 31.56 186.817 32.0578 185.456 33.1918L186.737 34.7282C187.616 33.9956 188.943 33.56 190.856 33.56V31.56ZM185.476 33.176C184.041 34.312 183.416 36.0523 183.416 38.16H185.416C185.416 36.441 185.912 35.3813 186.717 34.744L185.476 33.176ZM183.416 38.16V39.42H185.416V38.16H183.416ZM184.416 40.42H192.886V38.42H184.416V40.42ZM191.886 39.42V47.61H193.886V39.42H191.886ZM192.886 46.61H184.416V48.61H192.886V46.61ZM183.416 47.61V77.5H185.416V47.61H183.416ZM184.416 76.5H175.246V78.5H184.416V76.5ZM206.58 75.75L206.085 76.6191L206.091 76.6223L206.58 75.75ZM199.3 68.68L198.44 69.1906L198.446 69.2004L199.3 68.68ZM199.3 48.24L198.446 47.7196L198.44 47.7295L199.3 48.24ZM206.58 41.17L206.085 40.3009L206.58 41.17ZM226.95 41.17L227.445 40.3009L226.95 41.17ZM234.16 48.24L233.3 48.7505L233.305 48.7585L233.31 48.7664L234.16 48.24ZM234.16 68.68L235.014 69.2004L234.16 68.68ZM226.88 75.75L227.375 76.6191L226.88 75.75ZM222.19 68.47L221.665 67.6191L221.653 67.6263L222.19 68.47ZM225.9 64.41L225.015 63.9442L225.011 63.9532L225.9 64.41ZM225.9 52.58L225.011 53.0368L225.018 53.0513L225.026 53.0656L225.9 52.58ZM222.19 48.52L221.635 49.352L221.65 49.3617L221.665 49.3708L222.19 48.52ZM211.27 48.52L211.796 49.3708L211.805 49.3653L211.813 49.3596L211.27 48.52ZM207.49 52.58L206.61 52.1045L206.606 52.1132L207.49 52.58ZM207.49 64.41L206.596 64.8572L206.603 64.8715L206.61 64.8855L207.49 64.41ZM211.27 68.47L211.796 67.6192L211.27 68.47ZM216.8 77.34C213.228 77.34 209.991 76.5158 207.069 74.8777L206.091 76.6223C209.329 78.4375 212.906 79.34 216.8 79.34V77.34ZM207.075 74.8809C204.189 73.2383 201.886 71.0018 200.154 68.1596L198.446 69.2004C200.354 72.3315 202.904 74.8083 206.085 76.6191L207.075 74.8809ZM200.16 68.1695C198.488 65.3527 197.64 62.1258 197.64 58.46H195.64C195.64 62.4475 196.566 66.034 198.44 69.1905L200.16 68.1695ZM197.64 58.46C197.64 54.7942 198.488 51.5673 200.16 48.7505L198.44 47.7295C196.566 50.886 195.64 54.4725 195.64 58.46H197.64ZM200.154 48.7604C201.886 45.9182 204.189 43.6817 207.075 42.0391L206.085 40.3009C202.904 42.1117 200.354 44.5885 198.446 47.7196L200.154 48.7604ZM207.075 42.0391C209.945 40.4053 213.179 39.58 216.8 39.58V37.58C212.862 37.58 209.282 38.4814 206.085 40.3009L207.075 42.0391ZM216.8 39.58C220.373 39.58 223.583 40.4042 226.455 42.0391L227.445 40.3009C224.25 38.4825 220.694 37.58 216.8 37.58V39.58ZM226.455 42.0391C229.339 43.6804 231.616 45.9138 233.3 48.7505L235.02 47.7295C233.158 44.5929 230.628 42.113 227.445 40.3009L226.455 42.0391ZM233.31 48.7664C235.021 51.5298 235.89 54.7496 235.89 58.46H237.89C237.89 54.4237 236.94 50.8302 235.01 47.7136L233.31 48.7664ZM235.89 58.46C235.89 62.121 235.022 65.3443 233.306 68.1596L235.014 69.2004C236.939 66.0424 237.89 62.4524 237.89 58.46H235.89ZM233.306 68.1596C231.574 71.0018 229.271 73.2383 226.385 74.8809L227.375 76.6191C230.556 74.8083 233.106 72.3315 235.014 69.2004L233.306 68.1596ZM226.385 74.8809C223.511 76.5169 220.323 77.34 216.8 77.34V79.34C220.65 79.34 224.182 78.4364 227.375 76.6191L226.385 74.8809ZM216.8 70.94C219.019 70.94 221.007 70.4081 222.727 69.3137L221.653 67.6263C220.293 68.4919 218.688 68.94 216.8 68.94V70.94ZM222.716 69.3208C224.464 68.2411 225.823 66.7486 226.79 64.8668L225.011 63.9532C224.204 65.5247 223.09 66.7389 221.665 67.6192L222.716 69.3208ZM226.785 64.8757C227.801 62.9456 228.3 60.8 228.3 58.46H226.3C226.3 60.5067 225.866 62.3278 225.015 63.9443L226.785 64.8757ZM228.3 58.46C228.3 56.0784 227.803 53.9458 226.774 52.0944L225.026 53.0656C225.864 54.5742 226.3 56.3616 226.3 58.46H228.3ZM226.79 52.1232C225.823 50.2414 224.464 48.7489 222.716 47.6692L221.665 49.3708C223.09 50.2511 224.204 51.4653 225.011 53.0368L226.79 52.1232ZM222.745 47.6879C221.023 46.54 219.028 45.98 216.8 45.98V47.98C218.679 47.98 220.277 48.4467 221.635 49.352L222.745 47.6879ZM216.8 45.98C214.53 45.98 212.493 46.5376 210.727 47.6804L211.813 49.3596C213.221 48.4491 214.871 47.98 216.8 47.98V45.98ZM210.745 47.6692C209.001 48.746 207.622 50.2323 206.61 52.1045L208.37 53.0555C209.225 51.4744 210.366 50.254 211.796 49.3708L210.745 47.6692ZM206.606 52.1132C205.631 53.9608 205.16 56.0864 205.16 58.46H207.16C207.16 56.3536 207.576 54.5592 208.375 53.0468L206.606 52.1132ZM205.16 58.46C205.16 60.7919 205.633 62.9308 206.596 64.8572L208.385 63.9628C207.574 62.3425 207.16 60.5148 207.16 58.46H205.16ZM206.61 64.8855C207.622 66.7577 209.001 68.244 210.745 69.3208L211.796 67.6192C210.366 66.736 209.225 65.5156 208.37 63.9345L206.61 64.8855ZM210.745 69.3208C212.509 70.4102 214.539 70.94 216.8 70.94V68.94C214.862 68.94 213.205 68.4898 211.796 67.6192L210.745 69.3208ZM243.844 77.5H242.844V78.5H243.844V77.5ZM243.844 39.42V38.42H242.844V39.42H243.844ZM252.454 39.42H253.454V38.42H252.454V39.42ZM252.454 47.89L251.58 48.3756L253.454 51.7491V47.89H252.454ZM251.754 46.63L250.799 46.3326L250.672 46.7414L250.88 47.1156L251.754 46.63ZM255.884 40.68L255.379 39.8169L255.37 39.8225L255.884 40.68ZM264.984 39H265.984V38H264.984V39ZM264.984 47.12V48.12H265.984V47.12H264.984ZM255.394 49.57L256.101 50.2771L256.106 50.272L256.111 50.2668L255.394 49.57ZM253.014 77.5V78.5H254.014V77.5H253.014ZM244.844 77.5V39.42H242.844V77.5H244.844ZM243.844 40.42H252.454V38.42H243.844V40.42ZM251.454 39.42V47.89H253.454V39.42H251.454ZM253.328 47.4044L252.628 46.1444L250.88 47.1156L251.58 48.3756L253.328 47.4044ZM252.709 46.9274C253.55 44.228 254.81 42.491 256.399 41.5375L255.37 39.8225C253.226 41.109 251.732 43.3387 250.799 46.3326L252.709 46.9274ZM256.389 41.543C258.121 40.5291 260.226 40 262.744 40V38C259.942 38 257.474 38.5909 255.379 39.817L256.389 41.543ZM262.744 40H264.984V38H262.744V40ZM263.984 39V47.12H265.984V39H263.984ZM264.984 46.12H261.694V48.12H264.984V46.12ZM261.694 46.12C258.854 46.12 256.48 47.0169 254.677 48.8732L256.111 50.2668C257.482 48.8564 259.308 48.12 261.694 48.12V46.12ZM254.687 48.8629C252.863 50.6871 252.014 53.2117 252.014 56.29H254.014C254.014 53.5816 254.752 51.6262 256.101 50.2771L254.687 48.8629ZM252.014 56.29V77.5H254.014V56.29H252.014ZM253.014 76.5H243.844V78.5H253.014V76.5ZM270.026 77.5H269.026V78.5H270.026V77.5ZM270.026 39.42V38.42H269.026V39.42H270.026ZM278.636 39.42H279.636V38.42H278.636V39.42ZM278.636 48.24L277.804 48.7947L279.636 51.5428V48.24H278.636ZM277.656 46.77L276.687 46.5236L276.577 46.9546L276.824 47.3247L277.656 46.77ZM281.856 40.61L282.398 41.4506L281.856 40.61ZM297.536 41.03L296.97 41.8545L297.536 41.03ZM302.156 47.47L302.237 48.4667L303.427 48.3702L303.123 47.2155L302.156 47.47ZM299.566 47.68L298.633 47.321L298.062 48.8052L299.647 48.6767L299.566 47.68ZM304.816 40.89L305.355 41.7324L305.367 41.7246L304.816 40.89ZM320.076 40.4L319.576 41.2659L319.584 41.2706L320.076 40.4ZM325.116 45.51L324.241 45.9941L324.245 46.0021L325.116 45.51ZM326.936 77.5V78.5H327.936V77.5H326.936ZM317.766 77.5H316.766V78.5H317.766V77.5ZM314.336 48.03L313.79 48.8676L313.803 48.8761L313.816 48.8842L314.336 48.03ZM306.566 48.03L307.07 48.8938L307.083 48.8861L307.096 48.878L306.566 48.03ZM303.976 50.83L303.081 50.3828L303.976 50.83ZM303.066 77.5V78.5H304.066V77.5H303.066ZM293.896 77.5H292.896V78.5H293.896V77.5ZM292.986 50.83L293.88 50.3828L292.986 50.83ZM290.396 48.03L289.85 48.8676L289.87 48.8812L289.892 48.8938L290.396 48.03ZM282.696 48.03L283.2 48.8938L283.213 48.8861L283.226 48.878L282.696 48.03ZM280.106 50.83L281 51.2772L280.106 50.83ZM279.196 77.5V78.5H280.196V77.5H279.196ZM271.026 77.5V39.42H269.026V77.5H271.026ZM270.026 40.42H278.636V38.42H270.026V40.42ZM277.636 39.42V48.24H279.636V39.42H277.636ZM279.468 47.6853L278.488 46.2153L276.824 47.3247L277.804 48.7947L279.468 47.6853ZM278.625 47.0164C279.272 44.4719 280.539 42.648 282.398 41.4506L281.314 39.7694C278.972 41.2786 277.44 43.5615 276.687 46.5236L278.625 47.0164ZM282.398 41.4506C284.314 40.2153 286.594 39.58 289.276 39.58V37.58C286.265 37.58 283.597 38.298 281.314 39.7694L282.398 41.4506ZM289.276 39.58C292.218 39.58 294.771 40.3451 296.97 41.8545L298.102 40.2055C295.541 38.4483 292.587 37.58 289.276 37.58V39.58ZM296.97 41.8545C299.163 43.3594 300.553 45.3087 301.189 47.7245L303.123 47.2155C302.359 44.3113 300.669 41.9672 298.102 40.2055L296.97 41.8545ZM302.075 46.4733L299.485 46.6833L299.647 48.6767L302.237 48.4667L302.075 46.4733ZM300.499 48.039C301.603 45.1691 303.231 43.0917 305.355 41.7323L304.277 40.0477C301.734 41.675 299.862 44.1243 298.633 47.321L300.499 48.039ZM305.367 41.7246C307.523 40.3017 310.011 39.58 312.866 39.58V37.58C309.654 37.58 306.776 38.3983 304.265 40.0554L305.367 41.7246ZM312.866 39.58C315.418 39.58 317.645 40.1503 319.576 41.2659L320.576 39.5341C318.307 38.2231 315.727 37.58 312.866 37.58V39.58ZM319.584 41.2706C321.567 42.3914 323.115 43.9597 324.241 45.9941L325.991 45.0259C324.69 42.6737 322.878 40.8353 320.568 39.5294L319.584 41.2706ZM324.245 46.0021C325.361 47.9768 325.936 50.2988 325.936 53H327.936C327.936 50.0078 327.297 47.3365 325.986 45.0179L324.245 46.0021ZM325.936 53V77.5H327.936V53H325.936ZM326.936 76.5H317.766V78.5H326.936V76.5ZM318.766 77.5V55.17H316.766V77.5H318.766ZM318.766 55.17C318.766 53.371 318.441 51.7641 317.75 50.3828L315.961 51.2772C316.484 52.3225 316.766 53.609 316.766 55.17H318.766ZM317.75 50.3828C317.066 49.0152 316.103 47.9347 314.856 47.1758L313.816 48.8842C314.716 49.432 315.432 50.2181 315.961 51.2772L317.75 50.3828ZM314.882 47.1924C313.616 46.3667 312.11 45.98 310.416 45.98V47.98C311.801 47.98 312.909 48.2933 313.79 48.8676L314.882 47.1924ZM310.416 45.98C308.8 45.98 307.33 46.3733 306.036 47.182L307.096 48.878C308.042 48.2867 309.138 47.98 310.416 47.98V45.98ZM306.062 47.1662C304.766 47.9222 303.771 49.0041 303.081 50.3828L304.87 51.2772C305.394 50.2293 306.126 49.4445 307.07 48.8938L306.062 47.1662ZM303.081 50.3828C302.391 51.7641 302.066 53.371 302.066 55.17H304.066C304.066 53.609 304.348 52.3225 304.87 51.2772L303.081 50.3828ZM302.066 55.17V77.5H304.066V55.17H302.066ZM303.066 76.5H293.896V78.5H303.066V76.5ZM294.896 77.5V55.17H292.896V77.5H294.896ZM294.896 55.17C294.896 53.371 294.571 51.7641 293.88 50.3828L292.091 51.2772C292.614 52.3225 292.896 53.609 292.896 55.17H294.896ZM293.88 50.3828C293.191 49.0041 292.196 47.9222 290.9 47.1662L289.892 48.8938C290.836 49.4445 291.567 50.2293 292.091 51.2772L293.88 50.3828ZM290.942 47.1924C289.681 46.3698 288.2 45.98 286.546 45.98V47.98C287.878 47.98 288.964 48.2902 289.85 48.8676L290.942 47.1924ZM286.546 45.98C284.93 45.98 283.46 46.3733 282.166 47.182L283.226 48.878C284.172 48.2867 285.268 47.98 286.546 47.98V45.98ZM282.192 47.1662C280.896 47.9222 279.901 49.0041 279.211 50.3828L281 51.2772C281.524 50.2293 282.256 49.4445 283.2 48.8938L282.192 47.1662ZM279.211 50.3828C278.521 51.7641 278.196 53.371 278.196 55.17H280.196C280.196 53.609 280.478 52.3225 281 51.2772L279.211 50.3828ZM278.196 55.17V77.5H280.196V55.17H278.196ZM279.196 76.5H270.026V78.5H279.196V76.5ZM339.314 77.01L338.902 77.9211L339.314 77.01ZM334.764 73.23L333.921 73.7684L333.928 73.7792L334.764 73.23ZM334.554 61.82L335.422 62.3162L335.428 62.3056L334.554 61.82ZM338.894 57.62L339.39 58.4882L338.894 57.62ZM346.314 55.24L346.468 56.228L346.475 56.227L346.314 55.24ZM358.774 53.21H359.774V52.0339L358.613 52.223L358.774 53.21ZM358.774 60.21L358.941 61.1959L359.774 61.0544V60.21H358.774ZM348.064 62.03L347.896 61.0441L347.887 61.0457L348.064 62.03ZM344.004 63.78L343.316 63.054L344.004 63.78ZM344.144 70.22L343.515 70.9972L343.535 71.0135L343.556 71.0287L344.144 70.22ZM352.964 70.15L353.445 71.0269L353.454 71.0216L352.964 70.15ZM356.394 66.72L355.529 66.2179L355.523 66.2284L355.517 66.2392L356.394 66.72ZM355.694 48.1L355.029 48.8474L355.044 48.8604L355.059 48.8727L355.694 48.1ZM345.404 48.03L345.97 48.8541L345.976 48.8504L345.404 48.03ZM342.114 52.16L341.677 53.0594L342.639 53.5269L343.041 52.5357L342.114 52.16ZM334.624 48.52L333.687 48.1713L333.37 49.0224L334.187 49.4194L334.624 48.52ZM338.124 43.34L338.798 44.079L338.799 44.078L338.124 43.34ZM343.864 39.84L343.506 38.9061L343.864 39.84ZM359.264 40.33L358.824 41.2279L358.831 41.2314L358.838 41.2348L359.264 40.33ZM364.794 45.09L363.95 45.6269L363.957 45.6381L363.965 45.6491L364.794 45.09ZM366.824 77.5V78.5H367.824V77.5H366.824ZM358.144 77.5H357.144V78.5H358.144V77.5ZM358.144 70.99L358.073 69.9925L357.144 70.0589V70.99H358.144ZM360.104 70.85L360.961 71.3645L361.951 69.7155L360.033 69.8525L360.104 70.85ZM356.604 74.98L357.225 75.7635L357.233 75.757L357.241 75.7504L356.604 74.98ZM351.984 77.5L352.292 78.4512L352.304 78.4475L352.315 78.4435L351.984 77.5ZM346.244 77.34C343.693 77.34 341.53 76.9148 339.726 76.0989L338.902 77.9211C341.018 78.8785 343.474 79.34 346.244 79.34V77.34ZM339.726 76.0989C337.921 75.2822 336.558 74.1401 335.6 72.6808L333.928 73.7792C335.116 75.5866 336.787 76.9645 338.902 77.9211L339.726 76.0989ZM335.607 72.6916C334.646 71.1883 334.154 69.4424 334.154 67.42H332.154C332.154 69.7843 332.735 71.9117 333.921 73.7684L335.607 72.6916ZM334.154 67.42C334.154 65.4733 334.585 63.7814 335.422 62.3161L333.686 61.3239C332.656 63.1253 332.154 65.1667 332.154 67.42H334.154ZM335.428 62.3056C336.258 60.8113 337.561 59.5336 339.39 58.4882L338.398 56.7518C336.307 57.9464 334.716 59.4687 333.68 61.3344L335.428 62.3056ZM339.39 58.4882C341.215 57.4453 343.563 56.6819 346.468 56.228L346.159 54.252C343.091 54.7315 340.492 55.5547 338.398 56.7518L339.39 58.4882ZM346.475 56.227L358.935 54.197L358.613 52.223L346.153 54.253L346.475 56.227ZM357.774 53.21V60.21H359.774V53.21H357.774ZM358.606 59.2241L347.896 61.0441L348.231 63.0159L358.941 61.1959L358.606 59.2241ZM347.887 61.0457C345.967 61.3903 344.4 62.0276 343.316 63.054L344.692 64.506C345.381 63.8524 346.52 63.323 348.24 63.0143L347.887 61.0457ZM343.316 63.054C342.207 64.1043 341.674 65.4749 341.674 67.07H343.674C343.674 65.9585 344.027 65.1357 344.692 64.506L343.316 63.054ZM341.674 67.07C341.674 68.6657 342.29 70.0062 343.515 70.9972L344.773 69.4428C344.037 68.8471 343.674 68.0876 343.674 67.07H341.674ZM343.556 71.0287C344.782 71.9205 346.258 72.34 347.924 72.34V70.34C346.603 70.34 345.559 70.0128 344.732 69.4113L343.556 71.0287ZM347.924 72.34C349.978 72.34 351.829 71.913 353.445 71.0268L352.483 69.2732C351.206 69.9736 349.696 70.34 347.924 70.34V72.34ZM353.454 71.0216C355.104 70.0937 356.384 68.8178 357.271 67.2008L355.517 66.2392C354.817 67.5155 353.811 68.5263 352.474 69.2784L353.454 71.0216ZM357.259 67.2221C358.19 65.6179 358.654 63.8571 358.654 61.96H356.654C356.654 63.5162 356.278 64.9288 355.529 66.2179L357.259 67.2221ZM358.654 61.96V52.16H356.654V61.96H358.654ZM358.654 52.16C358.654 50.2154 357.857 48.5828 356.329 47.3273L355.059 48.8727C356.144 49.7639 356.654 50.8379 356.654 52.16H358.654ZM356.358 47.3526C354.873 46.0326 352.936 45.42 350.654 45.42V47.42C352.571 47.42 353.994 47.9273 355.029 48.8474L356.358 47.3526ZM350.654 45.42C348.499 45.42 346.547 46.014 344.832 47.2096L345.976 48.8504C347.34 47.8993 348.889 47.42 350.654 47.42V45.42ZM344.837 47.206C343.178 48.3468 341.958 49.8815 341.187 51.7843L343.041 52.5357C343.669 50.9851 344.643 49.7665 345.97 48.854L344.837 47.206ZM342.551 51.2606L335.061 47.6206L334.187 49.4194L341.677 53.0594L342.551 51.2606ZM335.561 48.8687C336.252 47.0117 337.328 45.4187 338.798 44.079L337.45 42.601C335.746 44.1546 334.489 46.015 333.687 48.1713L335.561 48.8687ZM338.799 44.078C340.334 42.6744 342.138 41.5718 344.221 40.7739L343.506 38.9061C341.203 39.7882 339.18 41.019 337.449 42.602L338.799 44.078ZM344.221 40.7739C346.29 39.9815 348.548 39.58 351.004 39.58V37.58C348.326 37.58 345.824 38.0185 343.506 38.9061L344.221 40.7739ZM351.004 39.58C354.005 39.58 356.603 40.1395 358.824 41.2279L359.704 39.4321C357.164 38.1872 354.256 37.58 351.004 37.58V39.58ZM358.838 41.2348C361.061 42.281 362.753 43.7462 363.95 45.6269L365.637 44.5531C364.221 42.3271 362.227 40.619 359.69 39.4252L358.838 41.2348ZM363.965 45.6491C365.194 47.4714 365.824 49.6281 365.824 52.16H367.824C367.824 49.2785 367.101 46.7219 365.623 44.5309L363.965 45.6491ZM365.824 52.16V77.5H367.824V52.16H365.824ZM366.824 76.5H358.144V78.5H366.824V76.5ZM359.144 77.5V70.99H357.144V77.5H359.144ZM358.215 71.9875L360.175 71.8475L360.033 69.8525L358.073 69.9925L358.215 71.9875ZM359.246 70.3355C358.32 71.8799 357.225 73.1677 355.966 74.2096L357.241 75.7504C358.689 74.5523 359.928 73.0868 360.961 71.3645L359.246 70.3355ZM355.982 74.1965C354.721 75.1968 353.28 75.9845 351.652 76.5565L352.315 78.4435C354.141 77.8022 355.78 76.9099 357.225 75.7635L355.982 74.1965ZM351.675 76.5488C350.063 77.0718 348.255 77.34 346.244 77.34V79.34C348.432 79.34 350.452 79.0482 352.292 78.4512L351.675 76.5488ZM375.299 77.5H374.299V78.5H375.299V77.5ZM375.299 39.42V38.42H374.299V39.42H375.299ZM383.909 39.42H384.909V38.42H383.909V39.42ZM383.909 46.91L383.024 47.3757L384.909 46.91H383.909ZM383.209 45.58L382.277 45.2185L382.112 45.6429L382.324 46.0457L383.209 45.58ZM387.549 40.4L388.052 41.2645L388.058 41.2609L387.549 40.4ZM402.109 40.4L401.617 41.2706L401.625 41.275L402.109 40.4ZM407.219 45.51L406.344 45.9941L406.349 46.0021L407.219 45.51ZM409.039 77.5V78.5H410.039V77.5H409.039ZM399.869 77.5H398.869V78.5H399.869V77.5ZM398.889 50.83L399.77 50.3559L398.889 50.83ZM396.159 48.03L395.629 48.878L395.65 48.8907L395.671 48.9025L396.159 48.03ZM388.179 48.03L388.668 48.9025L388.681 48.8952L388.694 48.8875L388.179 48.03ZM385.449 50.83L386.33 51.3041L385.449 50.83ZM384.469 77.5V78.5H385.469V77.5H384.469ZM376.299 77.5V39.42H374.299V77.5H376.299ZM375.299 40.42H383.909V38.42H375.299V40.42ZM382.909 39.42V46.91H384.909V39.42H382.909ZM384.794 46.4443L384.094 45.1143L382.324 46.0457L383.024 47.3757L384.794 46.4443ZM384.142 45.9415C384.951 43.8535 386.253 42.3104 388.052 41.2645L387.047 39.5355C384.832 40.823 383.241 42.7331 382.277 45.2185L384.142 45.9415ZM388.058 41.2609C389.937 40.1504 392.137 39.58 394.689 39.58V37.58C391.828 37.58 389.268 38.2229 387.041 39.5391L388.058 41.2609ZM394.689 39.58C397.341 39.58 399.64 40.153 401.617 41.2706L402.601 39.5294C400.285 38.2203 397.638 37.58 394.689 37.58V39.58ZM401.625 41.275C403.654 42.3974 405.222 43.9652 406.344 45.9941L408.094 45.0259C406.79 42.6681 404.951 40.8293 402.593 39.525L401.625 41.275ZM406.349 46.0021C407.465 47.9768 408.039 50.2988 408.039 53H410.039C410.039 50.0078 409.4 47.3365 408.09 45.0179L406.349 46.0021ZM408.039 53V77.5H410.039V53H408.039ZM409.039 76.5H399.869V78.5H409.039V76.5ZM400.869 77.5V55.17H398.869V77.5H400.869ZM400.869 55.17C400.869 53.3604 400.517 51.7436 399.77 50.3559L398.009 51.3041C398.568 52.3431 398.869 53.6196 398.869 55.17H400.869ZM399.77 50.3559C399.029 48.9806 397.986 47.9066 396.648 47.1575L395.671 48.9025C396.666 49.46 397.443 50.2527 398.009 51.3041L399.77 50.3559ZM396.689 47.182C395.385 46.3671 393.865 45.98 392.169 45.98V47.98C393.554 47.98 394.693 48.2929 395.629 48.878L396.689 47.182ZM392.169 45.98C390.513 45.98 389.002 46.3703 387.665 47.1725L388.694 48.8875C389.69 48.2897 390.839 47.98 392.169 47.98V45.98ZM387.691 47.1575C386.353 47.9066 385.309 48.9806 384.569 50.3559L386.33 51.3041C386.896 50.2527 387.672 49.46 388.668 48.9025L387.691 47.1575ZM384.569 50.3559C383.822 51.7436 383.469 53.3604 383.469 55.17H385.469C385.469 53.6196 385.77 52.3431 386.33 51.3041L384.569 50.3559ZM383.469 55.17V77.5H385.469V55.17H383.469ZM384.469 76.5H375.299V78.5H384.469V76.5ZM424.913 75.75L424.403 76.6099L424.411 76.6145L424.419 76.6191L424.913 75.75ZM417.843 68.61L416.974 69.1047L416.978 69.1105L417.843 68.61ZM417.843 48.24L418.709 48.7405L417.843 48.24ZM424.913 41.17L424.419 40.3009L424.413 40.3043L424.913 41.17ZM442.693 40.05L442.306 40.972L442.314 40.9753L442.322 40.9785L442.693 40.05ZM448.713 43.97L448.006 44.6771L448.016 44.6869L448.026 44.6965L448.713 43.97ZM452.423 49.85L452.822 50.7671L453.656 50.4044L453.374 49.5396L452.423 49.85ZM444.373 53.35L443.434 53.6936L443.799 54.6902L444.772 54.2671L444.373 53.35ZM440.803 48.73L440.222 49.5438L440.233 49.5514L440.803 48.73ZM429.743 48.45L429.218 47.5991L429.207 47.6063L429.743 48.45ZM426.103 52.51L425.214 52.0532L426.103 52.51ZM426.103 64.41L425.214 64.8668V64.8668L426.103 64.41ZM429.743 68.47L429.207 69.3137L429.218 69.3208L429.743 68.47ZM440.873 68.19L441.455 69.0037L440.873 68.19ZM444.373 63.5L444.785 62.5888L443.797 62.1417L443.432 63.1637L444.373 63.5ZM452.423 67.14L453.368 67.4685L453.668 66.6054L452.835 66.2288L452.423 67.14ZM448.783 72.95L449.491 73.6572L449.5 73.6474L448.783 72.95ZM442.763 76.94L443.135 77.8685L443.143 77.8653L443.151 77.862L442.763 76.94ZM435.133 77.34C431.512 77.34 428.278 76.5147 425.408 74.8809L424.419 76.6191C427.615 78.4386 431.195 79.34 435.133 79.34V77.34ZM425.424 74.8901C422.583 73.2036 420.35 70.9469 418.709 68.1095L416.978 69.1105C418.791 72.2464 421.27 74.7497 424.403 76.6099L425.424 74.8901ZM418.712 68.1153C417.079 65.2451 416.253 62.0114 416.253 58.39H414.253C414.253 62.3286 415.155 65.9082 416.974 69.1047L418.712 68.1153ZM416.253 58.39C416.253 54.7684 417.079 51.5607 418.709 48.7405L416.978 47.7395C415.155 50.8926 414.253 54.4516 414.253 58.39H416.253ZM418.709 48.7405C420.348 45.9055 422.579 43.6747 425.414 42.0357L424.413 40.3043C421.275 42.1186 418.792 44.6012 416.978 47.7395L418.709 48.7405ZM425.408 42.0391C428.278 40.4053 431.512 39.58 435.133 39.58V37.58C431.195 37.58 427.615 38.4814 424.419 40.3009L425.408 42.0391ZM435.133 39.58C437.716 39.58 440.104 40.047 442.306 40.972L443.081 39.128C440.616 38.093 437.964 37.58 435.133 37.58V39.58ZM442.322 40.9785C444.537 41.8645 446.428 43.0983 448.006 44.6771L449.421 43.2629C447.639 41.4817 445.517 40.1022 443.065 39.1215L442.322 40.9785ZM448.026 44.6965C449.63 46.2138 450.777 48.0302 451.473 50.1604L453.374 49.5396C452.576 47.0965 451.25 44.9929 449.401 43.2435L448.026 44.6965ZM452.025 48.9329L443.975 52.4329L444.772 54.2671L452.822 50.7671L452.025 48.9329ZM445.313 53.0064C444.542 50.8988 443.222 49.1923 441.374 47.9086L440.233 49.5514C441.745 50.601 442.805 51.9745 443.434 53.6936L445.313 53.0064ZM441.385 47.9163C439.57 46.6198 437.473 45.98 435.133 45.98V47.98C437.087 47.98 438.771 48.5068 440.222 49.5437L441.385 47.9163ZM435.133 45.98C432.956 45.98 430.975 46.5142 429.218 47.5992L430.269 49.3008C431.686 48.4258 433.298 47.98 435.133 47.98V45.98ZM429.207 47.6063C427.507 48.6878 426.176 50.1789 425.214 52.0532L426.993 52.9668C427.804 51.3877 428.9 50.1722 430.28 49.2937L429.207 47.6063ZM425.214 52.0532C424.244 53.9415 423.773 56.0857 423.773 58.46H425.773C425.773 56.3543 426.189 54.5318 426.993 52.9668L425.214 52.0532ZM423.773 58.46C423.773 60.8343 424.244 62.9785 425.214 64.8668L426.993 63.9532C426.189 62.3882 425.773 60.5657 425.773 58.46H423.773ZM425.214 64.8668C426.176 66.7411 427.507 68.2322 429.207 69.3137L430.28 67.6263C428.9 66.7478 427.804 65.5323 426.993 63.9532L425.214 64.8668ZM429.218 69.3208C430.975 70.4058 432.956 70.94 435.133 70.94V68.94C433.298 68.94 431.686 68.4942 430.269 67.6192L429.218 69.3208ZM435.133 70.94C437.515 70.94 439.636 70.3028 441.455 69.0037L440.292 67.3763C438.844 68.4105 437.139 68.94 435.133 68.94V70.94ZM441.455 69.0037C443.26 67.7139 444.549 65.981 445.315 63.8363L443.432 63.1637C442.798 64.939 441.753 66.3328 440.292 67.3763L441.455 69.0037ZM443.961 64.4112L452.011 68.0512L452.835 66.2288L444.785 62.5888L443.961 64.4112ZM451.479 66.8115C450.783 68.8118 449.651 70.6244 448.067 72.2526L449.5 73.6474C451.276 71.8223 452.57 69.7615 453.368 67.4685L451.479 66.8115ZM448.076 72.2429C446.494 73.8253 444.598 75.0849 442.376 76.018L443.151 77.862C445.596 76.8351 447.713 75.4347 449.491 73.6571L448.076 72.2429ZM442.392 76.0115C440.188 76.8933 437.772 77.34 435.133 77.34V79.34C438.002 79.34 440.673 78.8534 443.135 77.8685L442.392 76.0115ZM467.151 75.68L466.635 76.5363L467.151 75.68ZM460.291 68.47L461.172 67.9959L460.291 68.47ZM460.291 48.24L459.42 47.7497L459.417 47.7544L460.291 48.24ZM467.081 41.17L466.569 40.3113L466.563 40.315L467.081 41.17ZM484.581 40.05L484.181 40.9662L484.187 40.9691L484.581 40.05ZM490.391 44.11L489.655 44.7866L490.391 44.11ZM494.031 50.06L493.095 50.4111L493.097 50.4176L494.031 50.06ZM495.151 59.23L494.16 59.0978L494.156 59.1306L494.154 59.1635L495.151 59.23ZM494.801 61.05V62.05H495.502L495.741 61.3917L494.801 61.05ZM465.401 61.05H464.401V62.05H465.401V61.05ZM465.401 54.05V53.05H464.401V54.05H465.401ZM489.621 54.05L490.225 54.8469L492.596 53.05H489.621V54.05ZM485.281 57.34L484.3 57.148L483.797 59.7203L485.885 58.1369L485.281 57.34ZM484.931 51.6L483.991 51.9396L483.995 51.9511L483.999 51.9624L484.931 51.6ZM481.851 47.61L481.278 48.4292L481.284 48.4336L481.29 48.4379L481.851 47.61ZM471.631 47.61L472.161 48.458L472.171 48.4521L472.18 48.446L471.631 47.61ZM468.201 51.81L467.281 51.4188L467.276 51.4304L468.201 51.81ZM467.361 58.46L468.358 58.5397L468.364 58.4643L468.359 58.3888L467.361 58.46ZM468.271 64.69L467.355 65.0896L467.361 65.1039L467.368 65.1181L468.271 64.69ZM471.911 68.82L471.386 69.6709L471.397 69.6775L471.911 68.82ZM482.831 68.96L482.321 68.1001L482.309 68.1074L482.831 68.96ZM486.331 65.39L486.772 64.4922L485.923 64.0759L485.46 64.8997L486.331 65.39ZM493.751 69.03L494.677 69.4096L495.032 68.5442L494.192 68.1322L493.751 69.03ZM490.251 73.86L490.913 74.6098L490.251 73.86ZM484.581 77.15L484.241 76.2096L484.235 76.212L484.581 77.15ZM477.441 77.34C473.677 77.34 470.431 76.4903 467.668 74.8237L466.635 76.5363C469.752 78.4164 473.366 79.34 477.441 79.34V77.34ZM467.668 74.8237C464.882 73.1432 462.721 70.8721 461.172 67.9959L459.411 68.9441C461.129 72.1346 463.541 74.6701 466.635 76.5363L467.668 74.8237ZM461.172 67.9959C459.622 65.1184 458.841 61.9231 458.841 58.39H456.841C456.841 62.2302 457.694 65.7549 459.411 68.9441L461.172 67.9959ZM458.841 58.39C458.841 54.7095 459.625 51.4976 461.165 48.7256L459.417 47.7544C457.69 50.8624 456.841 54.4171 456.841 58.39H458.841ZM461.163 48.7303C462.761 45.8889 464.905 43.6598 467.6 42.025L466.563 40.315C463.565 42.1335 461.182 44.6177 459.42 47.7497L461.163 48.7303ZM467.594 42.0287C470.324 40.3995 473.365 39.58 476.741 39.58V37.58C473.024 37.58 469.625 38.4872 466.569 40.3113L467.594 42.0287ZM476.741 39.58C479.62 39.58 482.092 40.0523 484.181 40.9662L484.982 39.1338C482.591 38.0877 479.836 37.58 476.741 37.58V39.58ZM484.187 40.9691C486.352 41.8969 488.17 43.1704 489.655 44.7866L491.128 43.4334C489.44 41.5963 487.384 40.1631 484.975 39.1309L484.187 40.9691ZM489.655 44.7866C491.153 46.4167 492.299 48.289 493.095 50.4111L494.968 49.7089C494.083 47.351 492.803 45.2566 491.128 43.4334L489.655 44.7866ZM493.097 50.4176C493.89 52.4867 494.291 54.7442 494.291 57.2H496.291C496.291 54.5224 495.853 52.02 494.965 49.7024L493.097 50.4176ZM494.291 57.2C494.291 57.8058 494.248 58.4382 494.16 59.0978L496.143 59.3622C496.241 58.6218 496.291 57.9009 496.291 57.2H494.291ZM494.154 59.1635C494.111 59.7947 494.008 60.3045 493.862 60.7083L495.741 61.3917C495.968 60.7689 496.098 60.0653 496.149 59.2965L494.154 59.1635ZM494.801 60.05H465.401V62.05H494.801V60.05ZM466.401 61.05V54.05H464.401V61.05H466.401ZM465.401 55.05H489.621V53.05H465.401V55.05ZM489.017 53.2531L484.677 56.5431L485.885 58.1369L490.225 54.8469L489.017 53.2531ZM486.263 57.532C486.711 55.2395 486.599 53.1284 485.863 51.2376L483.999 51.9624C484.571 53.4316 484.691 55.1472 484.3 57.148L486.263 57.532ZM485.872 51.2604C485.195 49.3863 484.038 47.8834 482.412 46.7821L481.29 48.4379C482.558 49.2966 483.454 50.4537 483.991 51.9396L485.872 51.2604ZM482.425 46.7908C480.829 45.6737 478.916 45.14 476.741 45.14V47.14C478.58 47.14 480.074 47.5863 481.278 48.4292L482.425 46.7908ZM476.741 45.14C474.648 45.14 472.751 45.6793 471.083 46.774L472.18 48.446C473.499 47.5807 475.008 47.14 476.741 47.14V45.14ZM471.101 46.762C469.409 47.8199 468.142 49.3931 467.281 51.4189L469.122 52.2011C469.847 50.4936 470.867 49.2668 472.161 48.458L471.101 46.762ZM467.276 51.4304C466.455 53.4324 466.17 55.8129 466.364 58.5312L468.359 58.3888C468.18 55.8805 468.454 53.8276 469.126 52.1896L467.276 51.4304ZM466.365 58.3803C466.167 60.8482 466.485 63.094 467.355 65.0896L469.188 64.2904C468.471 62.646 468.182 60.7385 468.358 58.5397L466.365 58.3803ZM467.368 65.1181C468.286 67.0563 469.626 68.5839 471.386 69.6708L472.437 67.9692C471.023 67.0961 469.937 65.8704 469.175 64.2619L467.368 65.1181ZM471.397 69.6775C473.201 70.7601 475.249 71.29 477.511 71.29V69.29C475.573 69.29 473.888 68.8399 472.426 67.9625L471.397 69.6775ZM477.511 71.29C479.752 71.29 481.716 70.8162 483.354 69.8126L482.309 68.1074C481.053 68.8772 479.471 69.29 477.511 69.29V71.29ZM483.342 69.8199C484.984 68.845 486.276 67.5285 487.203 65.8803L485.46 64.8997C484.707 66.2382 483.666 67.3016 482.321 68.1001L483.342 69.8199ZM485.891 66.2878L493.311 69.9278L494.192 68.1322L486.772 64.4922L485.891 66.2878ZM492.826 68.6504C492.142 70.3178 491.07 71.8039 489.59 73.1102L490.913 74.6098C492.606 73.1161 493.867 71.3821 494.677 69.4096L492.826 68.6504ZM489.59 73.1102C488.106 74.4189 486.328 75.4547 484.241 76.2096L484.921 78.0904C487.221 77.2587 489.223 76.1011 490.913 74.6098L489.59 73.1102ZM484.235 76.212C482.214 76.9589 479.953 77.34 477.441 77.34V79.34C480.156 79.34 482.656 78.9277 484.928 78.088L484.235 76.212Z" fill="#0155B5" mask="url(#path-2-outside-1_217_91)"/>
</svg>
