<svg width="281" height="97" viewBox="0 0 281 97" fill="none" xmlns="http://www.w3.org/2000/svg">
<path d="M19.89 73V59.84H6.73V51.09H19.89V38H28.64V51.09H41.73V59.84H28.64V73H19.89Z" fill="#0155B5"/>
<mask id="path-2-outside-1_217_85" maskUnits="userSpaceOnUse" x="64.5" y="19.5" width="215" height="60" fill="black">
<rect fill="white" x="64.5" y="19.5" width="215" height="60"/>
<path d="M87.16 78.34C83.8467 78.34 80.7667 77.7333 77.92 76.52C75.12 75.3067 72.6933 73.6267 70.64 71.48C68.6333 69.2867 67.1633 66.7433 66.23 63.85L74.14 60.42C75.4 63.4067 77.22 65.7633 79.6 67.49C81.98 69.17 84.6633 70.01 87.65 70.01C89.33 70.01 90.7767 69.7533 91.99 69.24C93.25 68.68 94.2067 67.9333 94.86 67C95.56 66.0667 95.91 64.9467 95.91 63.64C95.91 62.1 95.4433 60.84 94.51 59.86C93.6233 58.8333 92.27 58.04 90.45 57.48L80.44 54.26C76.38 53 73.3233 51.11 71.27 48.59C69.2167 46.07 68.19 43.1067 68.19 39.7C68.19 36.7133 68.9133 34.0767 70.36 31.79C71.8533 29.5033 73.9067 27.73 76.52 26.47C79.18 25.1633 82.2133 24.51 85.62 24.51C88.7467 24.51 91.6167 25.07 94.23 26.19C96.8433 27.2633 99.0833 28.78 100.95 30.74C102.863 32.6533 104.287 34.9167 105.22 37.53L97.38 41.03C96.3533 38.4167 94.8133 36.41 92.76 35.01C90.7067 33.5633 88.3267 32.84 85.62 32.84C84.0333 32.84 82.6333 33.12 81.42 33.68C80.2067 34.1933 79.25 34.94 78.55 35.92C77.8967 36.8533 77.57 37.9733 77.57 39.28C77.57 40.7267 78.0367 42.01 78.97 43.13C79.9033 44.2033 81.3267 45.0433 83.24 45.65L92.83 48.66C96.9833 50.0133 100.087 51.88 102.14 54.26C104.24 56.64 105.29 59.58 105.29 63.08C105.29 66.0667 104.52 68.7033 102.98 70.99C101.44 73.2767 99.3167 75.0733 96.61 76.38C93.9033 77.6867 90.7533 78.34 87.16 78.34ZM124.3 78.34C121.64 78.34 119.33 77.8967 117.37 77.01C115.41 76.1233 113.894 74.8633 112.82 73.23C111.747 71.55 111.21 69.6133 111.21 67.42C111.21 65.32 111.677 63.4533 112.61 61.82C113.544 60.14 114.99 58.74 116.95 57.62C118.91 56.5 121.384 55.7067 124.37 55.24L136.83 53.21V60.21L126.12 62.03C124.3 62.3567 122.947 62.94 122.06 63.78C121.174 64.62 120.73 65.7167 120.73 67.07C120.73 68.3767 121.22 69.4267 122.2 70.22C123.227 70.9667 124.487 71.34 125.98 71.34C127.894 71.34 129.574 70.9433 131.02 70.15C132.514 69.31 133.657 68.1667 134.45 66.72C135.29 65.2733 135.71 63.6867 135.71 61.96V52.16C135.71 50.5267 135.057 49.1733 133.75 48.1C132.49 46.98 130.81 46.42 128.71 46.42C126.75 46.42 125 46.9567 123.46 48.03C121.967 49.0567 120.87 50.4333 120.17 52.16L112.68 48.52C113.427 46.5133 114.594 44.7867 116.18 43.34C117.814 41.8467 119.727 40.68 121.92 39.84C124.114 39 126.494 38.58 129.06 38.58C132.187 38.58 134.94 39.1633 137.32 40.33C139.7 41.45 141.544 43.0367 142.85 45.09C144.204 47.0967 144.88 49.4533 144.88 52.16V77.5H136.2V70.99L138.16 70.85C137.18 72.4833 136.014 73.86 134.66 74.98C133.307 76.0533 131.767 76.8933 130.04 77.5C128.314 78.06 126.4 78.34 124.3 78.34ZM166.936 78.34C163.996 78.34 161.429 77.6867 159.236 76.38C157.089 75.0733 155.433 73.2533 154.266 70.92C153.146 68.5867 152.586 65.8567 152.586 62.73V39.42H161.756V61.96C161.756 63.5467 162.059 64.9467 162.666 66.16C163.319 67.3267 164.229 68.26 165.396 68.96C166.609 69.6133 167.963 69.94 169.456 69.94C170.949 69.94 172.279 69.6133 173.446 68.96C174.613 68.26 175.523 67.3033 176.176 66.09C176.829 64.8767 177.156 63.43 177.156 61.75V39.42H186.326V77.5H177.646V70.01L178.416 71.34C177.529 73.6733 176.059 75.4233 174.006 76.59C171.999 77.7567 169.643 78.34 166.936 78.34ZM165.326 32.7L169.876 20.59H181.776L174.356 32.7H165.326ZM212.56 78.34C208.873 78.34 205.583 77.4767 202.69 75.75C199.797 73.9767 197.51 71.5733 195.83 68.54C194.15 65.5067 193.31 62.1467 193.31 58.46C193.31 54.7267 194.15 51.3667 195.83 48.38C197.51 45.3933 199.797 43.0133 202.69 41.24C205.63 39.4667 208.897 38.58 212.49 38.58C215.383 38.58 217.95 39.1633 220.19 40.33C222.477 41.45 224.273 43.0367 225.58 45.09L224.18 46.98V24.51H233.35V77.5H224.67V70.15L225.65 71.97C224.343 74.0233 222.523 75.61 220.19 76.73C217.857 77.8033 215.313 78.34 212.56 78.34ZM213.54 69.94C215.64 69.94 217.483 69.45 219.07 68.47C220.657 67.49 221.893 66.1367 222.78 64.41C223.713 62.6833 224.18 60.7 224.18 58.46C224.18 56.2667 223.713 54.3067 222.78 52.58C221.893 50.8067 220.657 49.43 219.07 48.45C217.483 47.47 215.64 46.98 213.54 46.98C211.487 46.98 209.643 47.4933 208.01 48.52C206.377 49.5 205.093 50.8533 204.16 52.58C203.273 54.26 202.83 56.22 202.83 58.46C202.83 60.7 203.273 62.6833 204.16 64.41C205.093 66.1367 206.377 67.49 208.01 68.47C209.643 69.45 211.487 69.94 213.54 69.94ZM259.941 78.34C256.021 78.34 252.591 77.4533 249.651 75.68C246.711 73.9067 244.425 71.5033 242.791 68.47C241.158 65.4367 240.341 62.0767 240.341 58.39C240.341 54.5633 241.158 51.18 242.791 48.24C244.471 45.2533 246.735 42.8967 249.581 41.17C252.475 39.4433 255.695 38.58 259.241 38.58C262.228 38.58 264.841 39.07 267.081 40.05C269.368 41.03 271.305 42.3833 272.891 44.11C274.478 45.8367 275.691 47.82 276.531 50.06C277.371 52.2533 277.791 54.6333 277.791 57.2C277.791 57.8533 277.745 58.53 277.651 59.23C277.605 59.93 277.488 60.5367 277.301 61.05H247.901V54.05H272.121L267.781 57.34C268.201 55.1933 268.085 53.28 267.431 51.6C266.825 49.92 265.798 48.59 264.351 47.61C262.951 46.63 261.248 46.14 259.241 46.14C257.328 46.14 255.625 46.63 254.131 47.61C252.638 48.5433 251.495 49.9433 250.701 51.81C249.955 53.63 249.675 55.8467 249.861 58.46C249.675 60.7933 249.978 62.87 250.771 64.69C251.611 66.4633 252.825 67.84 254.411 68.82C256.045 69.8 257.911 70.29 260.011 70.29C262.111 70.29 263.885 69.8467 265.331 68.96C266.825 68.0733 267.991 66.8833 268.831 65.39L276.251 69.03C275.505 70.85 274.338 72.46 272.751 73.86C271.165 75.26 269.275 76.3567 267.081 77.15C264.935 77.9433 262.555 78.34 259.941 78.34Z"/>
</mask>
<path d="M77.92 76.52L77.5224 77.4376L77.5279 77.4399L77.92 76.52ZM70.64 71.48L69.9022 72.155L69.9097 72.1632L69.9174 72.1712L70.64 71.48ZM66.23 63.85L65.8322 62.9325L64.9997 63.2935L65.2783 64.157L66.23 63.85ZM74.14 60.42L75.0614 60.0313L74.6688 59.1007L73.7422 59.5025L74.14 60.42ZM79.6 67.49L79.0127 68.2995L79.0233 68.307L79.6 67.49ZM91.99 69.24L92.3796 70.161L92.3879 70.1575L92.3961 70.1538L91.99 69.24ZM94.86 67L94.06 66.4L94.0502 66.4131L94.0408 66.4265L94.86 67ZM94.51 59.86L93.7532 60.5136L93.7691 60.532L93.7859 60.5497L94.51 59.86ZM90.45 57.48L90.1438 58.432L90.1559 58.4358L90.45 57.48ZM80.44 54.26L80.7462 53.308L80.7364 53.3049L80.44 54.26ZM71.27 48.59L72.0452 47.9583L71.27 48.59ZM70.36 31.79L69.5227 31.2432L69.5188 31.2493L69.5149 31.2554L70.36 31.79ZM76.52 26.47L76.9543 27.3708L76.9609 27.3676L76.52 26.47ZM94.23 26.19L93.8361 27.1091L93.8431 27.1121L93.8501 27.115L94.23 26.19ZM100.95 30.74L100.226 31.4297L100.234 31.4385L100.243 31.4471L100.95 30.74ZM105.22 37.53L105.628 38.4431L106.473 38.0657L106.162 37.1937L105.22 37.53ZM97.38 41.03L96.4492 41.3956L96.8319 42.3698L97.7877 41.9431L97.38 41.03ZM92.76 35.01L92.184 35.8275L92.1903 35.8319L92.1967 35.8362L92.76 35.01ZM81.42 33.68L81.8096 34.601L81.8245 34.5947L81.8391 34.588L81.42 33.68ZM78.55 35.92L77.7362 35.3387L77.7308 35.3465L78.55 35.92ZM78.97 43.13L78.2018 43.7702L78.2085 43.7783L78.2154 43.7862L78.97 43.13ZM83.24 45.65L82.9378 46.6032L82.9405 46.6041L83.24 45.65ZM92.83 48.66L93.1398 47.7091L93.1295 47.7059L92.83 48.66ZM102.14 54.26L101.383 54.9133L101.39 54.9216L102.14 54.26ZM102.98 70.99L103.809 71.5486L102.98 70.99ZM96.61 76.38L97.0448 77.2805L96.61 76.38ZM87.16 77.34C83.9718 77.34 81.0262 76.7569 78.3121 75.6001L77.5279 77.4399C80.5071 78.7098 83.7216 79.34 87.16 79.34V77.34ZM78.3176 75.6024C75.6365 74.4407 73.3213 72.8364 71.3626 70.7888L69.9174 72.1712C72.0654 74.4169 74.6035 76.1727 77.5224 77.4376L78.3176 75.6024ZM71.3778 70.805C69.4703 68.72 68.072 66.3029 67.1817 63.543L65.2783 64.157C66.2547 67.1838 67.7964 69.8533 69.9022 72.155L71.3778 70.805ZM66.6278 64.7675L74.5378 61.3375L73.7422 59.5025L65.8322 62.9325L66.6278 64.7675ZM73.2186 60.8087C74.5421 63.9457 76.4702 66.4548 79.0128 68.2994L80.1872 66.6806C77.9698 65.0718 76.2579 62.8676 75.0614 60.0313L73.2186 60.8087ZM79.0233 68.307C81.5765 70.1092 84.4624 71.01 87.65 71.01V69.01C84.8643 69.01 82.3835 68.2308 80.1767 66.673L79.0233 68.307ZM87.65 71.01C89.4285 71.01 91.0142 70.7387 92.3796 70.161L91.6004 68.319C90.5392 68.768 89.2315 69.01 87.65 69.01V71.01ZM92.3961 70.1538C93.7872 69.5356 94.9017 68.6842 95.6792 67.5735L94.0408 66.4265C93.5116 67.1825 92.7128 67.8244 91.5839 68.3262L92.3961 70.1538ZM95.66 67.6C96.5053 66.473 96.91 65.1358 96.91 63.64H94.91C94.91 64.7576 94.6147 65.6604 94.06 66.4L95.66 67.6ZM96.91 63.64C96.91 61.8815 96.3693 60.3622 95.2341 59.1703L93.7859 60.5497C94.5174 61.3178 94.91 62.3185 94.91 63.64H96.91ZM95.2668 59.2064C94.2173 57.9911 92.6743 57.1181 90.7441 56.5242L90.1559 58.4358C91.8657 58.9619 93.0294 59.6755 93.7532 60.5136L95.2668 59.2064ZM90.7562 56.528L80.7462 53.308L80.1338 55.212L90.1438 58.432L90.7562 56.528ZM80.7364 53.3049C76.8073 52.0856 73.9412 50.2852 72.0452 47.9583L70.4948 49.2217C72.7054 51.9348 75.9527 53.9144 80.1436 55.2151L80.7364 53.3049ZM72.0452 47.9583C70.1446 45.6258 69.19 42.8885 69.19 39.7H67.19C67.19 43.3249 68.2887 46.5142 70.4948 49.2217L72.0452 47.9583ZM69.19 39.7C69.19 36.8823 69.87 34.435 71.2051 32.3246L69.5149 31.2554C67.9567 33.7183 67.19 36.5444 67.19 39.7H69.19ZM71.1973 32.3368C72.5848 30.2122 74.4944 28.5568 76.9543 27.3708L76.0857 25.5692C73.319 26.9032 71.1219 28.7945 69.5227 31.2432L71.1973 32.3368ZM76.9609 27.3676C79.4645 26.1377 82.3433 25.51 85.62 25.51V23.51C82.0834 23.51 78.8955 24.189 76.0791 25.5724L76.9609 27.3676ZM85.62 25.51C88.6248 25.51 91.3591 26.0476 93.8361 27.1091L94.6239 25.2709C91.8742 24.0924 88.8685 23.51 85.62 23.51V25.51ZM93.8501 27.115C96.3392 28.1373 98.4604 29.5759 100.226 31.4297L101.674 30.0503C99.7063 27.9841 97.3474 26.3893 94.6099 25.265L93.8501 27.115ZM100.243 31.4471C102.049 33.253 103.393 35.3888 104.278 37.8663L106.162 37.1937C105.18 34.4446 103.678 32.0536 101.657 30.0329L100.243 31.4471ZM104.812 36.6169L96.9724 40.1169L97.7877 41.9431L105.628 38.4431L104.812 36.6169ZM98.3108 40.6643C97.2205 37.8892 95.5636 35.7112 93.3233 34.1838L92.1967 35.8362C94.0631 37.1088 95.4861 38.9441 96.4492 41.3956L98.3108 40.6643ZM93.336 34.1925C91.1008 32.6177 88.516 31.84 85.62 31.84V33.84C88.1373 33.84 90.3126 34.5089 92.184 35.8275L93.336 34.1925ZM85.62 31.84C83.9154 31.84 82.368 32.1411 81.0009 32.772L81.8391 34.588C82.8987 34.0989 84.1513 33.84 85.62 33.84V31.84ZM81.0304 32.759C79.6635 33.3373 78.5535 34.1946 77.7363 35.3388L79.3637 36.5012C79.9465 35.6854 80.7498 35.0494 81.8096 34.601L81.0304 32.759ZM77.7308 35.3465C76.9431 36.4718 76.57 37.7993 76.57 39.28H78.57C78.57 38.1473 78.8503 37.2349 79.3692 36.4935L77.7308 35.3465ZM76.57 39.28C76.57 40.9626 77.12 42.472 78.2018 43.7702L79.7382 42.4898C78.9534 41.548 78.57 40.4907 78.57 39.28H76.57ZM78.2154 43.7862C79.3091 45.044 80.9178 45.9628 82.9378 46.6032L83.5422 44.6968C81.7355 44.1239 80.4975 43.3627 79.7246 42.4738L78.2154 43.7862ZM82.9405 46.6041L92.5305 49.6141L93.1295 47.7059L83.5395 44.6959L82.9405 46.6041ZM92.5202 49.6108C96.5647 50.9287 99.4864 52.7151 101.383 54.9132L102.897 53.6068C100.687 51.0449 97.4019 49.098 93.1398 47.7092L92.5202 49.6108ZM101.39 54.9216C103.312 57.0997 104.29 59.7967 104.29 63.08H106.29C106.29 59.3633 105.168 56.1803 102.89 53.5984L101.39 54.9216ZM104.29 63.08C104.29 65.885 103.57 68.3237 102.151 70.4314L103.809 71.5486C105.47 69.083 106.29 66.2483 106.29 63.08H104.29ZM102.151 70.4314C100.718 72.5581 98.7372 74.2426 96.1753 75.4794L97.0448 77.2805C99.8961 75.904 102.162 73.9953 103.809 71.5486L102.151 70.4314ZM96.1753 75.4794C93.6281 76.7091 90.6319 77.34 87.16 77.34V79.34C90.8748 79.34 94.1785 78.6642 97.0448 77.2805L96.1753 75.4794ZM117.37 77.01L116.958 77.9211L117.37 77.01ZM112.82 73.23L111.978 73.7684L111.985 73.7792L112.82 73.23ZM112.61 61.82L113.479 62.3162L113.485 62.3056L112.61 61.82ZM116.95 57.62L117.447 58.4882L116.95 57.62ZM124.37 55.24L124.525 56.228L124.531 56.227L124.37 55.24ZM136.83 53.21H137.83V52.0339L136.67 52.223L136.83 53.21ZM136.83 60.21L136.998 61.1959L137.83 61.0544V60.21H136.83ZM126.12 62.03L125.953 61.0441L125.944 61.0457L126.12 62.03ZM122.06 63.78L121.373 63.054H121.373L122.06 63.78ZM122.2 70.22L121.571 70.9972L121.591 71.0135L121.612 71.0287L122.2 70.22ZM131.02 70.15L131.501 71.0269L131.511 71.0216L131.02 70.15ZM134.45 66.72L133.586 66.2179L133.58 66.2284L133.574 66.2392L134.45 66.72ZM133.75 48.1L133.086 48.8474L133.101 48.8604L133.116 48.8727L133.75 48.1ZM123.46 48.03L124.027 48.8541L124.032 48.8504L123.46 48.03ZM120.17 52.16L119.733 53.0594L120.695 53.5269L121.097 52.5357L120.17 52.16ZM112.68 48.52L111.743 48.1713L111.427 49.0224L112.243 49.4194L112.68 48.52ZM116.18 43.34L116.854 44.079L116.855 44.078L116.18 43.34ZM121.92 39.84L121.563 38.9061L121.92 39.84ZM137.32 40.33L136.88 41.2279L136.887 41.2314L136.895 41.2348L137.32 40.33ZM142.85 45.09L142.007 45.6269L142.014 45.6381L142.021 45.6491L142.85 45.09ZM144.88 77.5V78.5H145.88V77.5H144.88ZM136.2 77.5H135.2V78.5H136.2V77.5ZM136.2 70.99L136.129 69.9925L135.2 70.0589V70.99H136.2ZM138.16 70.85L139.018 71.3645L140.007 69.7155L138.089 69.8525L138.16 70.85ZM134.66 74.98L135.282 75.7635L135.29 75.757L135.298 75.7504L134.66 74.98ZM130.04 77.5L130.349 78.4512L130.361 78.4475L130.372 78.4435L130.04 77.5ZM124.3 77.34C121.75 77.34 119.586 76.9148 117.783 76.0989L116.958 77.9211C119.075 78.8785 121.531 79.34 124.3 79.34V77.34ZM117.783 76.0989C115.977 75.2822 114.615 74.1401 113.656 72.6808L111.985 73.7792C113.172 75.5866 114.844 76.9645 116.958 77.9211L117.783 76.0989ZM113.663 72.6916C112.703 71.1883 112.21 69.4424 112.21 67.42H110.21C110.21 69.7843 110.792 71.9117 111.978 73.7684L113.663 72.6916ZM112.21 67.42C112.21 65.4733 112.641 63.7814 113.479 62.3161L111.742 61.3239C110.713 63.1253 110.21 65.1667 110.21 67.42H112.21ZM113.485 62.3056C114.315 60.8113 115.617 59.5336 117.447 58.4882L116.454 56.7518C114.364 57.9464 112.773 59.4687 111.736 61.3344L113.485 62.3056ZM117.447 58.4882C119.272 57.4453 121.62 56.6819 124.525 56.228L124.216 54.252C121.147 54.7315 118.549 55.5547 116.454 56.7518L117.447 58.4882ZM124.531 56.227L136.991 54.197L136.67 52.223L124.21 54.253L124.531 56.227ZM135.83 53.21V60.21H137.83V53.21H135.83ZM136.663 59.2241L125.953 61.0441L126.288 63.0159L136.998 61.1959L136.663 59.2241ZM125.944 61.0457C124.024 61.3903 122.456 62.0276 121.373 63.054L122.748 64.506C123.438 63.8524 124.577 63.323 126.297 63.0143L125.944 61.0457ZM121.373 63.054C120.264 64.1043 119.73 65.4749 119.73 67.07H121.73C121.73 65.9585 122.084 65.1357 122.748 64.506L121.373 63.054ZM119.73 67.07C119.73 68.6657 120.347 70.0062 121.571 70.9972L122.83 69.4428C122.094 68.8471 121.73 68.0876 121.73 67.07H119.73ZM121.612 71.0287C122.839 71.9205 124.314 72.34 125.98 72.34V70.34C124.66 70.34 123.616 70.0128 122.789 69.4113L121.612 71.0287ZM125.98 72.34C128.035 72.34 129.885 71.913 131.501 71.0268L130.54 69.2732C129.262 69.9736 127.753 70.34 125.98 70.34V72.34ZM131.511 71.0216C133.16 70.0937 134.441 68.8178 135.327 67.2008L133.574 66.2392C132.874 67.5155 131.867 68.5263 130.53 69.2784L131.511 71.0216ZM135.315 67.2221C136.247 65.6179 136.71 63.8571 136.71 61.96H134.71C134.71 63.5162 134.334 64.9288 133.586 66.2179L135.315 67.2221ZM136.71 61.96V52.16H134.71V61.96H136.71ZM136.71 52.16C136.71 50.2154 135.914 48.5828 134.385 47.3273L133.116 48.8727C134.201 49.7639 134.71 50.8379 134.71 52.16H136.71ZM134.415 47.3526C132.93 46.0326 130.993 45.42 128.71 45.42V47.42C130.628 47.42 132.051 47.9273 133.086 48.8474L134.415 47.3526ZM128.71 45.42C126.556 45.42 124.604 46.014 122.889 47.2096L124.032 48.8504C125.397 47.8993 126.945 47.42 128.71 47.42V45.42ZM122.894 47.206C121.234 48.3468 120.015 49.8815 119.244 51.7843L121.097 52.5357C121.726 50.9851 122.7 49.7665 124.027 48.854L122.894 47.206ZM120.608 51.2606L113.118 47.6206L112.243 49.4194L119.733 53.0594L120.608 51.2606ZM113.618 48.8687C114.309 47.0117 115.385 45.4187 116.854 44.079L115.507 42.601C113.803 44.1546 112.546 46.015 111.743 48.1713L113.618 48.8687ZM116.855 44.078C118.391 42.6744 120.195 41.5718 122.278 40.7739L121.563 38.9061C119.26 39.7882 117.237 41.019 115.506 42.602L116.855 44.078ZM122.278 40.7739C124.347 39.9815 126.605 39.58 129.06 39.58V37.58C126.383 37.58 123.88 38.0185 121.563 38.9061L122.278 40.7739ZM129.06 39.58C132.062 39.58 134.66 40.1395 136.88 41.2279L137.761 39.4321C135.221 38.1872 132.312 37.58 129.06 37.58V39.58ZM136.895 41.2348C139.118 42.281 140.81 43.7462 142.007 45.6269L143.694 44.5531C142.278 42.3271 140.283 40.619 137.746 39.4252L136.895 41.2348ZM142.021 45.6491C143.25 47.4714 143.88 49.6281 143.88 52.16H145.88C145.88 49.2785 145.157 46.7219 143.68 44.5309L142.021 45.6491ZM143.88 52.16V77.5H145.88V52.16H143.88ZM144.88 76.5H136.2V78.5H144.88V76.5ZM137.2 77.5V70.99H135.2V77.5H137.2ZM136.272 71.9875L138.232 71.8475L138.089 69.8525L136.129 69.9925L136.272 71.9875ZM137.303 70.3355C136.376 71.8799 135.282 73.1677 134.023 74.2096L135.298 75.7504C136.746 74.5523 137.985 73.0868 139.018 71.3645L137.303 70.3355ZM134.039 74.1965C132.778 75.1968 131.337 75.9845 129.709 76.5565L130.372 78.4435C132.197 77.8022 133.836 76.9099 135.282 75.7635L134.039 74.1965ZM129.732 76.5488C128.119 77.0718 126.312 77.34 124.3 77.34V79.34C126.489 79.34 128.508 79.0482 130.349 78.4512L129.732 76.5488ZM159.236 76.38L158.716 77.2342L158.724 77.2391L159.236 76.38ZM154.266 70.92L153.364 71.3527L153.368 71.36L153.372 71.3672L154.266 70.92ZM152.586 39.42V38.42H151.586V39.42H152.586ZM161.756 39.42H162.756V38.42H161.756V39.42ZM162.666 66.16L161.772 66.6072L161.782 66.6282L161.793 66.6486L162.666 66.16ZM165.396 68.96L164.881 69.8175L164.901 69.8295L164.922 69.8405L165.396 68.96ZM173.446 68.96L173.935 69.8325L173.948 69.8252L173.96 69.8175L173.446 68.96ZM176.176 66.09L177.056 66.5641L176.176 66.09ZM177.156 39.42V38.42H176.156V39.42H177.156ZM186.326 39.42H187.326V38.42H186.326V39.42ZM186.326 77.5V78.5H187.326V77.5H186.326ZM177.646 77.5H176.646V78.5H177.646V77.5ZM177.646 70.01L178.511 69.509L176.646 66.2869V70.01H177.646ZM178.416 71.34L179.351 71.6952L179.52 71.2506L179.281 70.839L178.416 71.34ZM174.006 76.59L173.512 75.7205L173.503 75.7255L174.006 76.59ZM165.326 32.7L164.39 32.3483L163.882 33.7H165.326V32.7ZM169.876 20.59V19.59H169.183L168.94 20.2383L169.876 20.59ZM181.776 20.59L182.629 21.1124L183.561 19.59H181.776V20.59ZM174.356 32.7V33.7H174.916L175.209 33.2224L174.356 32.7ZM166.936 77.34C164.148 77.34 161.764 76.7221 159.748 75.5209L158.724 77.2391C161.094 78.6512 163.844 79.34 166.936 79.34V77.34ZM159.756 75.5258C157.776 74.3207 156.246 72.6447 155.16 70.4728L153.372 71.3672C154.619 73.862 156.402 75.8259 158.716 77.2342L159.756 75.5258ZM155.167 70.4873C154.124 68.3142 153.586 65.7376 153.586 62.73H151.586C151.586 65.9758 152.168 68.8592 153.364 71.3527L155.167 70.4873ZM153.586 62.73V39.42H151.586V62.73H153.586ZM152.586 40.42H161.756V38.42H152.586V40.42ZM160.756 39.42V61.96H162.756V39.42H160.756ZM160.756 61.96C160.756 63.6756 161.085 65.2333 161.772 66.6072L163.56 65.7128C163.034 64.66 162.756 63.4177 162.756 61.96H160.756ZM161.793 66.6486C162.533 67.9701 163.568 69.0295 164.881 69.8175L165.91 68.1025C164.89 67.4905 164.105 66.6832 163.538 65.6714L161.793 66.6486ZM164.922 69.8405C166.293 70.5787 167.811 70.94 169.456 70.94V68.94C168.114 68.94 166.926 68.6479 165.87 68.0795L164.922 69.8405ZM169.456 70.94C171.1 70.94 172.602 70.5789 173.935 69.8325L172.957 68.0875C171.957 68.6478 170.799 68.94 169.456 68.94V70.94ZM173.96 69.8175C175.283 69.0237 176.319 67.9337 177.056 66.5641L175.295 65.6159C174.726 66.673 173.942 67.4963 172.931 68.1025L173.96 69.8175ZM177.056 66.5641C177.804 65.1764 178.156 63.5596 178.156 61.75H176.156C176.156 63.3004 175.855 64.5769 175.295 65.6159L177.056 66.5641ZM178.156 61.75V39.42H176.156V61.75H178.156ZM177.156 40.42H186.326V38.42H177.156V40.42ZM185.326 39.42V77.5H187.326V39.42H185.326ZM186.326 76.5H177.646V78.5H186.326V76.5ZM178.646 77.5V70.01H176.646V77.5H178.646ZM176.781 70.511L177.551 71.841L179.281 70.839L178.511 69.509L176.781 70.511ZM177.481 70.9848C176.672 73.114 175.351 74.6757 173.512 75.7205L174.5 77.4595C176.768 76.171 178.387 74.2326 179.351 71.6952L177.481 70.9848ZM173.503 75.7255C171.673 76.7896 169.496 77.34 166.936 77.34V79.34C169.79 79.34 172.326 78.7237 174.509 77.4545L173.503 75.7255ZM166.262 33.0517L170.812 20.9417L168.94 20.2383L164.39 32.3483L166.262 33.0517ZM169.876 21.59H181.776V19.59H169.876V21.59ZM180.923 20.0676L173.503 32.1776L175.209 33.2224L182.629 21.1124L180.923 20.0676ZM174.356 31.7H165.326V33.7H174.356V31.7ZM202.69 75.75L202.167 76.6027L202.178 76.6087L202.69 75.75ZM195.83 68.54L196.705 68.0555L195.83 68.54ZM195.83 48.38L196.702 48.8703L195.83 48.38ZM202.69 41.24L202.174 40.3837L202.168 40.3874L202.69 41.24ZM220.19 40.33L219.728 41.2169L219.739 41.2226L219.75 41.2281L220.19 40.33ZM225.58 45.09L226.384 45.6852L226.793 45.133L226.424 44.5531L225.58 45.09ZM224.18 46.98H223.18V50.01L224.984 47.5752L224.18 46.98ZM224.18 24.51V23.51H223.18V24.51H224.18ZM233.35 24.51H234.35V23.51H233.35V24.51ZM233.35 77.5V78.5H234.35V77.5H233.35ZM224.67 77.5H223.67V78.5H224.67V77.5ZM224.67 70.15L225.551 69.6759L223.67 70.15H224.67ZM225.65 71.97L226.494 72.5069L226.809 72.0122L226.531 71.4959L225.65 71.97ZM220.19 76.73L220.608 77.6385L220.615 77.6351L220.623 77.6315L220.19 76.73ZM219.07 68.47L218.545 67.6192L219.07 68.47ZM222.78 64.41L221.9 63.9345L221.895 63.9438L221.891 63.9532L222.78 64.41ZM222.78 52.58L221.886 53.0272L221.893 53.0415L221.9 53.0555L222.78 52.58ZM219.07 48.45L218.545 49.3008L219.07 48.45ZM208.01 48.52L208.525 49.3775L208.533 49.3722L208.542 49.3666L208.01 48.52ZM204.16 52.58L203.28 52.1045L203.276 52.1132L204.16 52.58ZM204.16 64.41L203.271 64.8668L203.275 64.8762L203.28 64.8855L204.16 64.41ZM208.01 68.47L208.525 67.6125L208.01 68.47ZM212.56 77.34C209.036 77.34 205.927 76.5169 203.203 74.8913L202.178 76.6087C205.24 78.4364 208.711 79.34 212.56 79.34V77.34ZM203.213 74.8974C200.47 73.2163 198.303 70.9412 196.705 68.0555L194.955 69.0245C196.717 72.2054 199.124 74.737 202.168 76.6026L203.213 74.8974ZM196.705 68.0555C195.112 65.1798 194.31 61.9882 194.31 58.46H192.31C192.31 62.3051 193.188 65.8335 194.955 69.0245L196.705 68.0555ZM194.31 58.46C194.31 54.8826 195.113 51.6941 196.702 48.8703L194.958 47.8897C193.187 51.0393 192.31 54.5707 192.31 58.46H194.31ZM196.702 48.8703C198.299 46.0306 200.466 43.776 203.213 42.0926L202.168 40.3874C199.127 42.2507 196.721 44.756 194.958 47.8897L196.702 48.8703ZM203.207 42.0963C205.983 40.4215 209.07 39.58 212.49 39.58V37.58C208.724 37.58 205.277 38.5119 202.174 40.3837L203.207 42.0963ZM212.49 39.58C215.246 39.58 217.65 40.1347 219.728 41.2169L220.652 39.4431C218.25 38.1919 215.521 37.58 212.49 37.58V39.58ZM219.75 41.2281C221.88 42.271 223.533 43.7361 224.736 45.6269L226.424 44.5531C225.014 42.3372 223.074 40.629 220.63 39.4319L219.75 41.2281ZM224.777 44.4948L223.377 46.3848L224.984 47.5752L226.384 45.6852L224.777 44.4948ZM225.18 46.98V24.51H223.18V46.98H225.18ZM224.18 25.51H233.35V23.51H224.18V25.51ZM232.35 24.51V77.5H234.35V24.51H232.35ZM233.35 76.5H224.67V78.5H233.35V76.5ZM225.67 77.5V70.15H223.67V77.5H225.67ZM223.79 70.6241L224.77 72.4441L226.531 71.4959L225.551 69.6759L223.79 70.6241ZM224.806 71.4331C223.606 73.3188 221.933 74.7839 219.757 75.8285L220.623 77.6315C223.113 76.4361 225.08 74.7279 226.494 72.5069L224.806 71.4331ZM219.772 75.8215C217.579 76.8303 215.18 77.34 212.56 77.34V79.34C215.447 79.34 218.134 78.7764 220.608 77.6385L219.772 75.8215ZM213.54 70.94C215.802 70.94 217.832 70.4102 219.596 69.3208L218.545 67.6192C217.135 68.4898 215.478 68.94 213.54 68.94V70.94ZM219.596 69.3208C221.344 68.2411 222.703 66.7486 223.67 64.8668L221.891 63.9532C221.083 65.5247 219.97 66.7389 218.545 67.6192L219.596 69.3208ZM223.66 64.8855C224.683 62.9933 225.18 60.8423 225.18 58.46H223.18C223.18 60.5577 222.744 62.3734 221.9 63.9345L223.66 64.8855ZM225.18 58.46C225.18 56.1205 224.681 53.9937 223.66 52.1045L221.9 53.0555C222.746 54.6196 223.18 56.4129 223.18 58.46H225.18ZM223.674 52.1328C222.71 50.2042 221.35 48.6831 219.596 47.5992L218.545 49.3008C219.963 50.1769 221.077 51.4091 221.886 53.0272L223.674 52.1328ZM219.596 47.5992C217.832 46.5098 215.802 45.98 213.54 45.98V47.98C215.478 47.98 217.135 48.4302 218.545 49.3008L219.596 47.5992ZM213.54 45.98C211.311 45.98 209.281 46.54 207.478 47.6734L208.542 49.3666C210.006 48.4467 211.662 47.98 213.54 47.98V45.98ZM207.496 47.6625C205.704 48.7377 204.296 50.2251 203.28 52.1045L205.04 53.0555C205.891 51.4816 207.05 50.2623 208.525 49.3775L207.496 47.6625ZM203.276 52.1132C202.301 53.9608 201.83 56.0864 201.83 58.46H203.83C203.83 56.3536 204.246 54.5592 205.044 53.0468L203.276 52.1132ZM201.83 58.46C201.83 60.8343 202.301 62.9785 203.271 64.8668L205.05 63.9532C204.246 62.3882 203.83 60.5657 203.83 58.46H201.83ZM203.28 64.8855C204.296 66.7649 205.704 68.2523 207.496 69.3275L208.525 67.6125C207.05 66.7277 205.891 65.5084 205.04 63.9345L203.28 64.8855ZM207.496 69.3275C209.296 70.408 211.32 70.94 213.54 70.94V68.94C211.653 68.94 209.99 68.492 208.525 67.6125L207.496 69.3275ZM249.651 75.68L249.135 76.5363L249.651 75.68ZM242.791 68.47L243.672 67.9959L242.791 68.47ZM242.791 48.24L241.92 47.7497L241.917 47.7544L242.791 48.24ZM249.581 41.17L249.069 40.3113L249.063 40.315L249.581 41.17ZM267.081 40.05L266.68 40.9662L266.687 40.9691L267.081 40.05ZM272.891 44.11L272.155 44.7866L272.891 44.11ZM276.531 50.06L275.595 50.4111L275.597 50.4176L276.531 50.06ZM277.651 59.23L276.66 59.0978L276.656 59.1306L276.654 59.1635L277.651 59.23ZM277.301 61.05V62.05H278.002L278.241 61.3917L277.301 61.05ZM247.901 61.05H246.901V62.05H247.901V61.05ZM247.901 54.05V53.05H246.901V54.05H247.901ZM272.121 54.05L272.725 54.8469L275.096 53.05H272.121V54.05ZM267.781 57.34L266.8 57.148L266.297 59.7203L268.385 58.1369L267.781 57.34ZM267.431 51.6L266.491 51.9396L266.495 51.9511L266.499 51.9624L267.431 51.6ZM264.351 47.61L263.778 48.4292L263.784 48.4336L263.79 48.4379L264.351 47.61ZM254.131 47.61L254.661 48.458L254.671 48.4521L254.68 48.446L254.131 47.61ZM250.701 51.81L249.781 51.4188L249.776 51.4304L250.701 51.81ZM249.861 58.46L250.858 58.5397L250.864 58.4643L250.859 58.3888L249.861 58.46ZM250.771 64.69L249.855 65.0896L249.861 65.1039L249.868 65.1181L250.771 64.69ZM254.411 68.82L253.886 69.6709L253.897 69.6775L254.411 68.82ZM265.331 68.96L264.821 68.1001L264.809 68.1074L265.331 68.96ZM268.831 65.39L269.272 64.4922L268.423 64.0759L267.96 64.8997L268.831 65.39ZM276.251 69.03L277.176 69.4096L277.532 68.5442L276.692 68.1322L276.251 69.03ZM272.751 73.86L273.413 74.6098L272.751 73.86ZM267.081 77.15L266.741 76.2096L266.735 76.212L267.081 77.15ZM259.941 77.34C256.177 77.34 252.931 76.4903 250.168 74.8237L249.135 76.5363C252.252 78.4164 255.866 79.34 259.941 79.34V77.34ZM250.168 74.8237C247.382 73.1432 245.221 70.8721 243.672 67.9959L241.911 68.9441C243.629 72.1346 246.041 74.6701 249.135 76.5363L250.168 74.8237ZM243.672 67.9959C242.122 65.1184 241.341 61.9231 241.341 58.39H239.341C239.341 62.2302 240.194 65.7549 241.911 68.9441L243.672 67.9959ZM241.341 58.39C241.341 54.7095 242.125 51.4976 243.665 48.7256L241.917 47.7544C240.19 50.8624 239.341 54.4171 239.341 58.39H241.341ZM243.663 48.7303C245.261 45.8889 247.405 43.6598 250.1 42.025L249.063 40.315C246.065 42.1335 243.682 44.6177 241.92 47.7497L243.663 48.7303ZM250.094 42.0287C252.824 40.3995 255.865 39.58 259.241 39.58V37.58C255.524 37.58 252.125 38.4872 249.069 40.3113L250.094 42.0287ZM259.241 39.58C262.12 39.58 264.592 40.0523 266.681 40.9662L267.482 39.1338C265.091 38.0877 262.336 37.58 259.241 37.58V39.58ZM266.687 40.9691C268.852 41.8969 270.67 43.1704 272.155 44.7866L273.628 43.4334C271.94 41.5963 269.884 40.1631 267.475 39.1309L266.687 40.9691ZM272.155 44.7866C273.653 46.4167 274.799 48.289 275.595 50.4111L277.468 49.7089C276.583 47.351 275.303 45.2566 273.628 43.4334L272.155 44.7866ZM275.597 50.4176C276.39 52.4867 276.791 54.7442 276.791 57.2H278.791C278.791 54.5224 278.353 52.02 277.465 49.7024L275.597 50.4176ZM276.791 57.2C276.791 57.8058 276.748 58.4382 276.66 59.0978L278.643 59.3622C278.741 58.6218 278.791 57.9009 278.791 57.2H276.791ZM276.654 59.1635C276.611 59.7947 276.508 60.3045 276.362 60.7083L278.241 61.3917C278.468 60.7689 278.598 60.0653 278.649 59.2965L276.654 59.1635ZM277.301 60.05H247.901V62.05H277.301V60.05ZM248.901 61.05V54.05H246.901V61.05H248.901ZM247.901 55.05H272.121V53.05H247.901V55.05ZM271.517 53.2531L267.177 56.5431L268.385 58.1369L272.725 54.8469L271.517 53.2531ZM268.763 57.532C269.211 55.2395 269.099 53.1284 268.363 51.2376L266.499 51.9624C267.071 53.4316 267.191 55.1472 266.8 57.148L268.763 57.532ZM268.372 51.2604C267.695 49.3863 266.538 47.8834 264.912 46.7821L263.79 48.4379C265.058 49.2966 265.954 50.4537 266.491 51.9396L268.372 51.2604ZM264.925 46.7908C263.329 45.6737 261.416 45.14 259.241 45.14V47.14C261.08 47.14 262.574 47.5863 263.778 48.4292L264.925 46.7908ZM259.241 45.14C257.148 45.14 255.251 45.6793 253.583 46.774L254.68 48.446C255.999 47.5807 257.508 47.14 259.241 47.14V45.14ZM253.601 46.762C251.909 47.8199 250.642 49.3931 249.781 51.4189L251.622 52.2011C252.347 50.4936 253.367 49.2668 254.661 48.458L253.601 46.762ZM249.776 51.4304C248.955 53.4324 248.67 55.8129 248.864 58.5312L250.859 58.3888C250.68 55.8805 250.954 53.8276 251.626 52.1896L249.776 51.4304ZM248.865 58.3803C248.667 60.8482 248.985 63.094 249.855 65.0896L251.688 64.2904C250.971 62.646 250.682 60.7385 250.858 58.5397L248.865 58.3803ZM249.868 65.1181C250.786 67.0563 252.126 68.5839 253.886 69.6708L254.937 67.9692C253.523 67.0961 252.437 65.8704 251.675 64.2619L249.868 65.1181ZM253.897 69.6775C255.701 70.7601 257.749 71.29 260.011 71.29V69.29C258.073 69.29 256.388 68.8399 254.926 67.9625L253.897 69.6775ZM260.011 71.29C262.252 71.29 264.216 70.8162 265.854 69.8126L264.809 68.1074C263.553 68.8772 261.971 69.29 260.011 69.29V71.29ZM265.842 69.8199C267.484 68.845 268.776 67.5285 269.703 65.8803L267.96 64.8997C267.207 66.2382 266.166 67.3016 264.821 68.1001L265.842 69.8199ZM268.391 66.2878L275.811 69.9278L276.692 68.1322L269.272 64.4922L268.391 66.2878ZM275.326 68.6504C274.642 70.3178 273.57 71.8039 272.09 73.1102L273.413 74.6098C275.106 73.1161 276.367 71.3821 277.176 69.4096L275.326 68.6504ZM272.09 73.1102C270.606 74.4189 268.828 75.4547 266.741 76.2096L267.421 78.0904C269.721 77.2587 271.723 76.1011 273.413 74.6098L272.09 73.1102ZM266.735 76.212C264.714 76.9589 262.453 77.34 259.941 77.34V79.34C262.656 79.34 265.156 78.9277 267.428 78.088L266.735 76.212Z" fill="#0155B5" mask="url(#path-2-outside-1_217_85)"/>
</svg>
